<svg width="24" height="24" viewBox="0 0 24 24" fill="none" xmlns="http://www.w3.org/2000/svg">
<path fill-rule="evenodd" clip-rule="evenodd" d="M8.65039 13.3506C9.75419 13.351 10.6502 14.2467 10.6504 15.3506V19.8574L10.6406 20.0488V20.0547C10.5448 20.9957 9.79546 21.744 8.85449 21.8398L8.84863 21.8408L8.65723 21.8506H4.15039C3.11541 21.8503 2.26383 21.0628 2.16113 20.0547L2.16016 20.0488L2.15039 19.8574V15.3506C2.15062 14.2466 3.04648 13.3509 4.15039 13.3506H8.65039ZM4.15039 19.8359L4.15332 19.8506H8.63574L8.64746 19.8477L8.65039 19.8359V15.3525L8.63965 15.3506H4.15039V19.8359Z" fill="black"/>
<path d="M17.6895 13.3555C18.1933 13.407 18.5867 13.8334 18.5869 14.3506V16.6006H20.8369C21.3889 16.6009 21.8367 17.0488 21.8369 17.6006V17.6074L21.832 17.6973L21.8311 17.7031C21.7829 18.1732 21.4096 18.5466 20.9395 18.5947L20.9336 18.5957L20.8438 18.6006H18.5869V20.8574L18.582 20.9473L18.5811 20.9531C18.5326 21.4254 18.1559 21.8005 17.6826 21.8457L17.5869 21.8506C17.0349 21.8505 16.5872 21.4025 16.5869 20.8506V18.6006H14.3369C13.8194 18.6005 13.3945 18.2068 13.3428 17.7031L13.3418 17.6973L13.3369 17.6074V17.6006L13.3418 17.498C13.3933 16.9942 13.8194 16.6007 14.3369 16.6006H16.5869V14.3506C16.5872 13.7987 17.0348 13.3507 17.5869 13.3506L17.6895 13.3555Z" fill="black"/>
<path fill-rule="evenodd" clip-rule="evenodd" d="M8.84863 2.16016L8.85449 2.16113C9.86251 2.26388 10.6502 3.11539 10.6504 4.15039V8.65039L10.6416 8.8418C10.5514 9.78878 9.79966 10.5434 8.85449 10.6396L8.84863 10.6406L8.65723 10.6504H4.15039C3.11515 10.6504 2.26367 9.86273 2.16113 8.85449L2.15039 8.65039V4.15039C2.15062 3.04645 3.04609 2.14941 4.15039 2.14941H8.65723L8.84863 2.16016ZM4.15039 8.65039H8.63574L8.65039 8.64746V4.15234L8.63965 4.15039H4.15039V8.65039Z" fill="black"/>
<path fill-rule="evenodd" clip-rule="evenodd" d="M20.0381 2.16016L20.0439 2.16113C21.0519 2.26389 21.8396 3.11547 21.8398 4.15039V8.65039L21.8311 8.8418C21.7408 9.78878 20.9891 10.5434 20.0439 10.6396L20.0381 10.6406L19.8467 10.6504H15.3398C14.2357 10.6504 13.3401 9.75439 13.3398 8.65039V4.15039C13.3401 3.04654 14.2356 2.14941 15.3398 2.14941H19.8467L20.0381 2.16016ZM15.3398 8.65039H19.8252L19.8398 8.64746V4.15234L19.8291 4.15039H15.3398V8.65039Z" fill="black"/>
</svg>
