<svg width="24" height="24" viewBox="0 0 24 24" fill="none" xmlns="http://www.w3.org/2000/svg">
<path d="M15 10C15.5522 10.0001 16 10.4478 16 11C16 11.5522 15.5522 11.9999 15 12H9C8.96547 12 8.93109 11.9985 8.89746 11.9951C8.39322 11.9439 8 11.5178 8 11C8 10.4477 8.44772 10 9 10H15Z" fill="black"/>
<path d="M15 7C15.5522 7.00013 16 7.4478 16 8C16 8.5522 15.5522 8.99987 15 9H9C8.96547 9 8.93109 8.99853 8.89746 8.99512C8.39322 8.9439 8 8.51776 8 8C8 7.44772 8.44772 7 9 7H15Z" fill="black"/>
<path fill-rule="evenodd" clip-rule="evenodd" d="M14.6123 2C15.4079 2.00006 16.1718 2.31635 16.7344 2.87891L18.6211 4.76562C19.1836 5.32822 19.5 6.09211 19.5 6.8877V8H20.377C20.4367 8 20.4961 8.00263 20.5547 8.00781C20.6715 8.01814 20.7857 8.03863 20.8965 8.06836C21.1179 8.12781 21.3254 8.22414 21.5107 8.35156C21.6035 8.41534 21.6907 8.48703 21.7715 8.56543C21.933 8.72216 22.0681 8.90678 22.1699 9.1123C22.2209 9.2151 22.2638 9.32295 22.2969 9.43555C22.3134 9.49173 22.3272 9.5491 22.3389 9.60742L22.9609 12.7178C22.962 12.7232 22.9619 12.7289 22.9629 12.7344C22.9688 12.7557 22.975 12.777 22.9795 12.7988C22.9928 12.8638 23 12.9311 23 13V19C23 20.6569 21.6569 22 20 22H4C2.34315 22 1 20.6569 1 19V13C1 12.9654 1.00145 12.9312 1.00488 12.8975C1.01057 12.8416 1.02162 12.7872 1.03613 12.7344C1.03719 12.7289 1.03796 12.7233 1.03906 12.7178L1.66113 9.60742C1.84823 8.67286 2.66896 8.00013 3.62207 8H4.5V5C4.5 3.34315 5.84315 2 7.5 2H14.6123ZM20.999 15.1104H16.7051L16.2363 16.0488C16.0034 16.5146 15.6034 16.8623 15.1299 17.0342C15.0439 17.0654 14.9555 17.0911 14.8652 17.1104C14.7296 17.1393 14.5894 17.1543 14.4473 17.1543H9.55078C9.50363 17.1543 9.45673 17.1527 9.41016 17.1494C9.31655 17.1428 9.22423 17.1297 9.13379 17.1104C8.86254 17.0525 8.6082 16.9388 8.38574 16.7793C8.3114 16.726 8.24045 16.6678 8.17383 16.6045C8.00787 16.4469 7.86744 16.2595 7.76172 16.0479L7.29297 15.1104H3V19C3 19.5523 3.44772 20 4 20H20C20.5523 20 21 19.5523 21 19V15.1094L20.999 15.1104ZM7.39746 4.00488C6.89322 4.0561 6.5 4.48224 6.5 5V8.97949C6.50014 8.98632 6.50098 8.99314 6.50098 9C6.50098 9.00686 6.50014 9.01368 6.5 9.02051V13.1104H7.29297C8.0508 13.1103 8.74436 13.5388 9.08301 14.2168L9.55078 15.1543H14.4473L14.917 14.2158C15.2557 13.5386 15.9479 13.1106 16.7051 13.1104H17.5V9.03418C17.4996 9.02282 17.498 9.01145 17.498 9C17.498 8.98724 17.4995 8.97456 17.5 8.96191V6.8877C17.5 6.62254 17.3945 6.36721 17.207 6.17969L15.3203 4.29297C15.1562 4.12887 14.94 4.02763 14.7109 4.00488L14.6123 4H7.5C7.46547 4 7.43109 4.00147 7.39746 4.00488ZM3 13.1104H4.5V10H3.62207L3 13.1104ZM19.5 13.1104H20.999L20.377 10H19.5V13.1104Z" fill="black"/>
</svg>
