<svg width="24" height="24" viewBox="0 0 24 24" fill="none" xmlns="http://www.w3.org/2000/svg">
<path d="M4.29986 14.1426C3.90543 14.5291 3.89967 15.1622 4.28619 15.5566L11.2862 22.7002C11.4742 22.8919 11.7315 23 12.0001 23C12.2686 23 12.5259 22.8919 12.7139 22.7002L19.7139 15.5566C20.1004 15.1622 20.0947 14.5291 19.7002 14.1426C19.3059 13.7561 18.6727 13.763 18.2862 14.1572L13.0001 19.5508V2C13.0001 1.44772 12.5523 1 12.0001 1C11.4478 1 11.0001 1.44772 11.0001 2V19.5508L5.71392 14.1572C5.32736 13.763 4.69425 13.7561 4.29986 14.1426Z" fill="black"/>
</svg>
