<svg width="24" height="24" viewBox="0 0 24 24" fill="none" xmlns="http://www.w3.org/2000/svg">
<path d="M15 10C15.5522 10 16 10.4477 16 11C16 11.5177 15.6066 11.9427 15.1025 11.9941L15.0967 11.9951L15.0068 12H9C8.44789 11.9998 8 11.5522 8 11C8 10.4478 8.44789 10.0002 9 10H15Z" fill="black"/>
<path fill-rule="evenodd" clip-rule="evenodd" d="M21 2C22.1043 2 23 2.89572 23 4V6C23 6.87078 22.4418 7.60437 21.667 7.87891V19.0059L21.6523 19.2998V19.3066C21.4987 20.8199 20.2207 22 18.667 22H5.33301C3.67585 21.9999 2.33301 20.6572 2.33301 19V7.87891C1.55833 7.60431 1 6.87071 1 6V4C1 2.89578 1.89586 2.00014 3 2H21ZM4.33301 18.9932L4.33887 19.1084C4.39273 19.6098 4.81701 19.9999 5.33301 20H18.667C19.2197 20 19.667 19.5527 19.667 19V8H4.33301V18.9932ZM3 6H21V4H3V6Z" fill="black"/>
</svg>
