<svg width="24" height="24" viewBox="0 0 24 24" fill="none" xmlns="http://www.w3.org/2000/svg">
<path d="M4.29986 9.85742C3.90543 9.47088 3.89967 8.83781 4.28619 8.44336L11.2862 1.2998C11.4742 1.10808 11.7315 1 12.0001 1C12.2686 1 12.5259 1.10808 12.7139 1.2998L19.7139 8.44336C20.1004 8.83781 20.0947 9.47088 19.7002 9.85742C19.3059 10.2439 18.6727 10.237 18.2862 9.84277L13.0001 4.44922V22C13.0001 22.5523 12.5523 23 12.0001 23C11.4478 23 11.0001 22.5523 11.0001 22V4.44922L5.71392 9.84277C5.32736 10.237 4.69425 10.2439 4.29986 9.85742Z" fill="black"/>
</svg>
