<svg width="24" height="24" viewBox="0 0 24 24" fill="none" xmlns="http://www.w3.org/2000/svg">
<path d="M14.1426 4.43724C14.5291 4.04985 15.1622 4.0442 15.5566 4.42381L22.7002 11.2989C22.8919 11.4836 23 11.7362 23 12C23 12.2638 22.8919 12.5164 22.7002 12.7011L15.5566 19.5762C15.1622 19.9558 14.5291 19.9501 14.1426 19.5628C13.7561 19.1754 13.763 18.5536 14.1572 18.1739L19.5508 12.9821H2C1.44772 12.9821 1 12.5424 1 12C1 11.4576 1.44772 11.0178 2 11.0178H19.5508L14.1572 5.82606C13.763 5.4464 13.7561 4.8246 14.1426 4.43724Z" fill="black"/>
</svg>
