<svg width="24" height="24" viewBox="0 0 24 24" fill="none" xmlns="http://www.w3.org/2000/svg">
<path d="M9.85742 4.2998C9.47088 3.90536 8.83781 3.89961 8.44336 4.28613L1.2998 11.2861C1.10808 11.4742 1 11.7314 1 12C1 12.2686 1.10808 12.5258 1.2998 12.7139L8.44336 19.7139C8.83781 20.1004 9.47088 20.0946 9.85742 19.7002C10.2439 19.3058 10.237 18.6727 9.84277 18.2861L4.44922 13H22C22.5523 13 23 12.5523 23 12C23 11.4477 22.5523 11 22 11H4.44922L9.84277 5.71386C10.237 5.3273 10.2439 4.69419 9.85742 4.2998Z" fill="black"/>
</svg>
