<svg width="24" height="24" viewBox="0 0 24 24" fill="none" xmlns="http://www.w3.org/2000/svg">
<path d="M13 17C13.5523 17 14 17.4477 14 18C14 18.5523 13.5523 19 13 19H6C5.44772 19 5 18.5523 5 18C5 17.4477 5.44772 17 6 17H13Z" fill="black"/>
<path d="M18 17C18.5522 17 19 17.4477 19 18C19 18.5177 18.6066 18.9427 18.1025 18.9941L18.0967 18.9951L18.0068 19H16C15.4477 19 15 18.5523 15 18C15 17.4477 15.4477 17 16 17H18Z" fill="black"/>
<path fill-rule="evenodd" clip-rule="evenodd" d="M18 5C18.5523 5 19 5.44772 19 6V15C19 15.5523 18.5523 16 18 16H6C5.44772 16 5 15.5523 5 15V6C5 5.44772 5.44772 5 6 5H18ZM7 14H17V7H7V14Z" fill="black"/>
<path fill-rule="evenodd" clip-rule="evenodd" d="M19 2C20.6573 2 22 3.34272 22 5V19C22 20.6573 20.6573 22 19 22H5C3.34272 22 2 20.6573 2 19V5C2 3.34272 3.34272 2 5 2H19ZM5 4C4.44728 4 4 4.44728 4 5V19C4 19.5527 4.44728 20 5 20H19C19.5527 20 20 19.5527 20 19V5C20 4.44728 19.5527 4 19 4H5Z" fill="black"/>
</svg>
