<svg width="24" height="24" viewBox="0 0 24 24" fill="none" xmlns="http://www.w3.org/2000/svg">
<path fill-rule="evenodd" clip-rule="evenodd" d="M18.5586 2.00684H18.5684L18.7695 2.02832C19.7674 2.16874 20.64 2.80563 21.0723 3.73633L22.8135 7.48828C22.9359 7.75196 23 8.03998 23 8.33105V9.5C23 10.8958 22.1802 12.0936 21 12.6553V20H22C22.5523 20 23 20.4477 23 21C23 21.5523 22.5523 22 22 22H2C1.44789 21.9998 1 21.5522 1 21C1 20.4478 1.44789 20.0002 2 20H3V12.6553C1.81988 12.0935 1 10.8958 1 9.5V8.33105C1.00002 8.04001 1.06413 7.75193 1.18652 7.48828L2.92773 3.73633C3.41945 2.67752 4.48113 2.00024 5.64844 2H18.3594L18.5586 2.00684ZM17 11.9424C16.3652 12.5925 15.4815 13 14.5 13C13.5191 12.9999 12.6348 12.5938 12 11.9443C11.409 12.549 10.6017 12.9429 9.70117 12.9941H9.69824L9.50391 13H9.5C8.51811 12.9999 7.63294 12.593 6.99805 11.9424C6.4732 12.4791 5.77998 12.8483 5 12.96V20H8.5V15C8.5 14.4478 8.94789 14.0002 9.5 14H14.5C15.0523 14 15.5 14.4477 15.5 15V20H19V12.96C18.2196 12.8482 17.525 12.4797 17 11.9424ZM10.5 20H13.5V16H10.5V20ZM3.00195 9.5498C3.0247 10.2456 3.52085 10.8215 4.17969 10.9648L4.2002 10.9688L4.20801 10.9707L4.35254 10.9922C4.40123 10.9971 4.45046 11 4.5 11C5.31174 11 5.97076 10.3551 5.99707 9.5498H3.00195ZM13.0088 9.65918C13.0882 10.4126 13.7256 10.9999 14.5 11C15.3117 11 15.9707 10.3551 15.9971 9.5498H13.0029L13.0088 9.65918ZM18.0029 9.5498C18.0292 10.355 18.6884 10.9999 19.5 11C19.5985 11 19.6954 10.9892 19.79 10.9707C19.7985 10.9688 19.8113 10.9665 19.8203 10.9648C20.4793 10.8215 20.9753 10.2456 20.998 9.5498H18.0029ZM8.00879 9.65918C8.0881 10.4114 8.7234 10.9969 9.49609 10.999L9.65918 10.9912C10.3965 10.9135 10.9735 10.3017 10.998 9.5498H8.00293L8.00879 9.65918ZM5.50098 4.01074C5.17175 4.05992 4.884 4.27152 4.74121 4.5791L3.3623 7.5498H20.6377L19.2588 4.5791C19.1159 4.27137 18.8281 4.05982 18.499 4.01074L18.334 4H5.65723L5.50098 4.01074Z" fill="black"/>
</svg>
