<svg width="24" height="24" viewBox="0 0 24 24" fill="none" xmlns="http://www.w3.org/2000/svg">
<path fill-rule="evenodd" clip-rule="evenodd" d="M9.79297 13.7969C10.1833 13.4074 10.8158 13.4079 11.2061 13.7969L11.207 13.7979C11.5965 14.188 11.5977 14.8214 11.208 15.2119L11.207 15.2129L9.73145 16.6846L9.73047 16.6875C9.72301 16.697 9.71352 16.7064 9.70898 16.7109C9.31883 17.1011 8.6837 17.1029 8.29297 16.7129L7.29297 15.7109C6.90244 15.3204 6.90244 14.6874 7.29297 14.2969C7.68337 13.9081 8.31871 13.9066 8.70898 14.2969L9 14.5879L9.79297 13.7969ZM9.74512 16.6631C9.74512 16.6631 9.74198 16.6668 9.74023 16.6699L9.74219 16.6689C9.74378 16.6661 9.74609 16.6621 9.74609 16.6621L9.74512 16.6631Z" fill="black"/>
<path d="M16 14.5049C16.5519 14.5052 16.9999 14.9528 17 15.5049V15.5117L16.9951 15.6016L16.9941 15.6074C16.9459 16.08 16.5691 16.4548 16.0957 16.5L16 16.5049H13C12.4828 16.5046 12.0563 16.1115 12.0049 15.6074L12 15.5049C12.0001 14.9527 12.4482 14.5052 13 14.5049H16Z" fill="black"/>
<path d="M16.001 10.5049C16.5524 10.5055 17.0009 10.9528 17.001 11.5049V11.5117L16.9961 11.6016L16.9951 11.6074C16.9471 12.0777 16.5733 12.4506 16.1035 12.499L16.0977 12.5L16.0078 12.5049H8.00098C7.4833 12.5049 7.05719 12.1115 7.00586 11.6074L7.00098 11.5049C7.00105 10.9527 7.44872 10.5049 8.00098 10.5049H16.001Z" fill="black"/>
<path fill-rule="evenodd" clip-rule="evenodd" d="M15.1992 1.51465H15.2051C16.2133 1.61739 17.0009 2.46946 17.001 3.50488H18C19.6566 3.50516 20.9999 4.84824 21 6.50488V18.5107L20.9854 18.8047V18.8115C20.8413 20.2296 19.7086 21.3557 18.2881 21.4912L18 21.5049H6C4.44691 21.5046 3.16934 20.3243 3.01562 18.8115L3.01465 18.8057L2.99902 18.5117V6.50488C2.99909 4.84814 4.3435 3.50513 6 3.50488H7.00098C7.00105 2.40038 7.89644 1.50488 9.00098 1.50488H15.0078L15.1992 1.51465ZM6 5.50488C5.44786 5.50511 5.00007 5.95289 5 6.50488V18.498L5.00586 18.6133C5.05985 19.1143 5.48448 19.5047 6 19.5049H18L18.0957 19.5C18.5672 19.455 18.9426 19.0829 18.9932 18.6133L19 18.5049V6.50488C18.9999 5.98747 18.6065 5.56133 18.1025 5.50977L18 5.50488H17.001V5.51172L16.9912 5.70312V5.70898C16.8956 6.65042 16.1462 7.39822 15.2051 7.49414L15.1992 7.49512L15.0078 7.50488H9.00098C7.89641 7.50488 7.00098 6.60945 7.00098 5.50488H6ZM9.00098 5.49023L9.00391 5.50488H14.9863L14.998 5.50195L15.001 5.49023V4.53223L15 4.50488C15 4.49761 15.0007 4.49106 15.001 4.48633V3.50781L14.9863 3.50488H9.00098V5.49023Z" fill="black"/>
</svg>
