<svg width="24" height="24" viewBox="0 0 24 24" fill="none" xmlns="http://www.w3.org/2000/svg">
<path fill-rule="evenodd" clip-rule="evenodd" d="M16.5986 1.25488L16.6045 1.25586C17.1081 1.30765 17.5018 1.73259 17.502 2.25V2.75098H18.0039C20.2126 2.75143 22.0039 4.54207 22.0039 6.75098V17.2607L21.999 17.46V17.4629C21.8954 19.508 20.2549 21.1487 18.21 21.2529H18.2061L18.0068 21.2578H5.99609C3.85609 21.2577 2.1081 19.5764 2.00098 17.4629V17.4609L1.99512 17.2617V6.75098C1.99512 4.54187 3.78715 2.75113 5.99609 2.75098H6.49805V2.25C6.49822 1.69797 6.946 1.25016 7.49805 1.25L7.60059 1.25488C8.10446 1.30646 8.49788 1.73265 8.49805 2.25V2.75098H15.502V2.25C15.5021 1.69797 15.9499 1.25015 16.502 1.25H16.5088L16.5986 1.25488ZM3.99609 17.252L4.00586 17.4678C4.11076 18.4735 4.96257 19.2577 5.99609 19.2578H17.998L18.2148 19.2471C19.2199 19.1414 20.0038 18.2908 20.0039 17.2578V9.75293H3.99609V17.252ZM5.99609 4.75098C4.89161 4.75112 3.99609 5.64654 3.99609 6.75098V7.75293H20.0039V6.75098C20.0039 5.718 19.2199 4.86738 18.2148 4.76172L17.998 4.75098H17.502V5.25098C17.502 5.76862 17.1081 6.19335 16.6045 6.24512L16.5986 6.24609L16.5088 6.25098H16.502C15.9499 6.25083 15.502 5.80327 15.502 5.25098V4.75098H8.49805V5.25098C8.49805 5.76857 8.10447 6.19454 7.60059 6.24609L7.49805 6.25098C6.946 6.25082 6.49805 5.80327 6.49805 5.25098V4.75098H5.99609Z" fill="black"/>
</svg>
