<svg width="24" height="24" viewBox="0 0 24 24" fill="none" xmlns="http://www.w3.org/2000/svg">
<path fill-rule="evenodd" clip-rule="evenodd" d="M12 2.00006C17.5233 2.00006 22 6.47678 22 12.0001C22 17.5233 17.5233 22.0001 12 22.0001C6.47672 22.0001 2 17.5233 2 12.0001C2 6.47678 6.47672 2.00006 12 2.00006ZM16.708 8.8028C16.3175 8.41256 15.6843 8.41298 15.2939 8.8028L11 13.0948L8.70605 10.8018C8.31589 10.4131 7.68338 10.412 7.29297 10.8018C6.90261 11.1922 6.90406 11.8255 7.29297 12.2159L10.293 15.2159C10.6835 15.6061 11.3166 15.6063 11.707 15.2159L16.708 10.2169C17.0977 9.82656 17.0979 9.19327 16.708 8.8028Z" fill="black"/>
</svg>
