<svg width="24" height="24" viewBox="0 0 24 24" fill="none" xmlns="http://www.w3.org/2000/svg">
<path d="M18.793 3.79289C19.1835 3.40237 19.8166 3.40237 20.2071 3.79289C20.5976 4.18342 20.5976 4.81643 20.2071 5.20696L13.4141 11.9999L20.2071 18.7929C20.5976 19.1834 20.5976 19.8164 20.2071 20.207C19.8166 20.5975 19.1835 20.5975 18.793 20.207L12 13.414L5.20708 20.207C4.81655 20.5975 4.18354 20.5975 3.79302 20.207C3.40249 19.8164 3.40249 19.1834 3.79302 18.7929L10.586 11.9999L3.79302 5.20696C3.40249 4.81643 3.40249 4.18342 3.79302 3.79289C4.18354 3.40237 4.81655 3.40237 5.20708 3.79289L12 10.5859L18.793 3.79289Z" fill="black"/>
</svg>
