<svg width="24" height="24" viewBox="0 0 24 24" fill="none" xmlns="http://www.w3.org/2000/svg">
<path d="M12.001 16.9512C12.5813 16.9512 13.0507 17.4208 13.0508 18.001L13.0449 18.1084C12.9911 18.638 12.5449 19.0508 12.001 19.0508C11.4426 19.0506 10.9894 18.6158 10.9551 18.0674C10.9534 18.0563 10.9515 18.0445 10.9512 18.0352V18.001C10.9493 17.4556 11.3467 17.0637 11.7969 16.9727L11.8027 16.9707L11.873 16.96H11.877C11.9108 16.9559 11.9548 16.9512 12.001 16.9512Z" fill="black"/>
<path d="M8.00195 16.9492C8.58224 16.9492 9.05171 17.4188 9.05176 17.999L9.0459 18.1064C8.99206 18.636 8.54591 19.0488 8.00195 19.0488C7.45822 19.0486 7.01187 18.636 6.95801 18.1064L6.95215 17.999C6.95219 17.4339 7.40795 16.9494 8.00195 16.9492Z" fill="black"/>
<path d="M16.002 16.9492C16.5822 16.9492 17.0517 17.4188 17.0518 17.999L17.0459 18.1064C16.9921 18.636 16.5459 19.0488 16.002 19.0488C15.422 19.0486 14.9523 18.5791 14.9521 17.999V17.9873L14.9561 17.9072V17.8936C15.0085 17.3751 15.4454 16.9494 16.002 16.9492Z" fill="black"/>
<path d="M12.001 13.9512C12.5813 13.9512 13.0507 14.4208 13.0508 15.001L13.0449 15.1084C12.9911 15.638 12.5449 16.0508 12.001 16.0508C11.4426 16.0506 10.9894 15.6158 10.9551 15.0674C10.9534 15.0563 10.9515 15.0445 10.9512 15.0352V15.001C10.9493 14.4556 11.3467 14.0637 11.7969 13.9727L11.8027 13.9707L11.873 13.96H11.877C11.9108 13.9559 11.9548 13.9512 12.001 13.9512Z" fill="black"/>
<path d="M8.00195 13.9492C8.58224 13.9492 9.05171 14.4188 9.05176 14.999L9.0459 15.1064C8.99206 15.636 8.54591 16.0488 8.00195 16.0488C7.45822 16.0486 7.01187 15.636 6.95801 15.1064L6.95215 14.999C6.95219 14.4339 7.40795 13.9494 8.00195 13.9492Z" fill="black"/>
<path d="M16.002 13.9492C16.5822 13.9492 17.0517 14.4188 17.0518 14.999L17.0459 15.1064C16.9921 15.636 16.5459 16.0488 16.002 16.0488C15.422 16.0486 14.9523 15.5791 14.9521 14.999V14.9873L14.9561 14.9072V14.8936C15.0085 14.3751 15.4454 13.9494 16.002 13.9492Z" fill="black"/>
<path d="M12.001 10.9512C12.5813 10.9512 13.0507 11.4208 13.0508 12.001L13.0449 12.1084C12.9911 12.638 12.5449 13.0508 12.001 13.0508C11.4426 13.0506 10.9894 12.6158 10.9551 12.0674C10.9534 12.0563 10.9515 12.0445 10.9512 12.0352V12.001C10.9493 11.4556 11.3467 11.0637 11.7969 10.9727L11.8027 10.9707L11.873 10.96H11.877C11.9108 10.9559 11.9548 10.9512 12.001 10.9512Z" fill="black"/>
<path d="M8.00195 10.9492C8.58224 10.9492 9.05171 11.4188 9.05176 11.999L9.0459 12.1064C8.99206 12.636 8.54591 13.0488 8.00195 13.0488C7.45822 13.0486 7.01187 12.636 6.95801 12.1064L6.95215 11.999C6.95219 11.4339 7.40795 10.9494 8.00195 10.9492Z" fill="black"/>
<path d="M16.002 10.9492C16.5822 10.9492 17.0517 11.4188 17.0518 11.999L17.0459 12.1064C16.9921 12.636 16.5459 13.0488 16.002 13.0488C15.422 13.0486 14.9523 12.5791 14.9521 11.999V11.9873L14.9561 11.9072V11.8936C15.0085 11.3751 15.4454 10.9494 16.002 10.9492Z" fill="black"/>
<path fill-rule="evenodd" clip-rule="evenodd" d="M17.3516 2.01465H17.3652C18.8452 2.16512 19.9998 3.41551 20 4.93457V19.0713L19.9873 19.3408V19.3467C19.8549 20.7352 18.7553 21.8405 17.3701 21.9834L17.3711 21.9844L17.3643 21.9854L17.3525 21.9863L17.0781 22H6.93359C5.41504 21.9996 4.16619 20.8452 4.01562 19.3662L4.01465 19.3604L4 19.0732V4.93457C4.00024 3.31471 5.31379 2.00135 6.93359 2.00098H17.0771L17.3516 2.01465ZM6 19.0596L6.00586 19.167C6.05627 19.6349 6.45248 19.9997 6.93359 20H17.0596L17.166 19.9941C17.6014 19.9478 17.9477 19.6017 17.9941 19.165L18 19.0654V9H6V19.0596ZM6.93359 4.00098C6.41828 4.00133 6.00022 4.4193 6 4.93457V7H18V4.93457C17.9998 4.45527 17.6381 4.0586 17.1719 4.00586L17.0537 4.00098H6.93359Z" fill="black"/>
</svg>
