<svg width="24" height="24" viewBox="0 0 24 24" fill="none" xmlns="http://www.w3.org/2000/svg">
<path d="M12 10.5C12.5522 10.5001 13 10.9477 13 11.5V16.5068L12.9951 16.5967L12.9941 16.6025C12.9461 17.0729 12.5729 17.4461 12.1025 17.4941L12.0967 17.4951L12.0068 17.5H12C11.4477 17.5 11 17.0522 11 16.5V12.5C10.4477 12.5 10 12.0522 10 11.5C10 10.9477 10.4477 10.5 11 10.5H12Z" fill="black"/>
<path d="M11.8633 6.50488H11.877C12.506 6.56899 13 7.10058 13 7.75C13 8.39711 12.5081 8.92896 11.8779 8.99316L11.8721 8.99414L11.7568 9H11.75C11.1042 9 10.5729 8.51031 10.5068 7.88184L10.5059 7.87598L10.5049 7.86426L10.5 7.76172V7.74316L10.5059 7.62793V7.62207C10.5693 6.98865 11.1055 6.5 11.749 6.5H11.7607L11.8633 6.50488Z" fill="black"/>
<path fill-rule="evenodd" clip-rule="evenodd" d="M12 2C17.5233 2 22 6.47672 22 12C22 17.5233 17.5233 22 12 22C6.47672 22 2 17.5233 2 12C2 6.47672 6.47672 2 12 2ZM12 4C7.58128 4 4 7.58128 4 12C4 16.4187 7.58128 20 12 20C16.4187 20 20 16.4187 20 12C20 7.58128 16.4187 4 12 4Z" fill="black"/>
</svg>
