<svg width="24" height="24" viewBox="0 0 24 24" fill="none" xmlns="http://www.w3.org/2000/svg">
<path d="M3 7C3.55228 7 4 7.44772 4 8V21C4 21.5523 3.55228 22 3 22C2.44772 22 2 21.5523 2 21V8C2 7.44772 2.44772 7 3 7Z" fill="black"/>
<path d="M9 12C9.55228 12 10 12.4477 10 13V21.0068L9.99512 21.0967L9.99414 21.1025C9.94269 21.6066 9.51773 22 9 22C8.44772 22 8 21.5523 8 21V13C8 12.4477 8.44772 12 9 12Z" fill="black"/>
<path d="M15 2C15.5523 2 16 2.44772 16 3V21C16 21.5523 15.5523 22 15 22C14.4477 22 14 21.5523 14 21V3C14 2.44772 14.4477 2 15 2Z" fill="black"/>
<path d="M21 7C21.5523 7 22 7.44772 22 8V21C22 21.5523 21.5523 22 21 22C20.4477 22 20 21.5523 20 21V8C20 7.44772 20.4477 7 21 7Z" fill="black"/>
</svg>
