<svg width="24" height="24" viewBox="0 0 24 24" fill="none" xmlns="http://www.w3.org/2000/svg">
<path d="M5.0957 9.5033L5.10254 9.50428C5.60637 9.55597 5.99955 9.98238 6 10.4994V10.5062L5.99512 10.5951L5.99414 10.601C5.94306 11.1054 5.51761 11.4991 5 11.4994C4.4478 11.4997 4.00023 11.9479 4 12.5004V19.4994L4.00488 19.5961C4.05021 20.0696 4.42506 20.4466 4.89746 20.4945L5.00684 20.5004H18.9941L19.1016 20.4945C19.5727 20.4471 19.9481 20.0733 19.9961 19.6029C19.9992 19.5722 20 19.5377 20 19.4994V12.5004C20 12.4622 19.9992 12.4275 19.9961 12.3969C19.9483 11.9286 19.5758 11.556 19.1074 11.5062L18.9863 11.4994C18.4408 11.4915 18.0011 11.0466 18.001 10.4994C18.0015 9.94773 18.4488 9.49939 19.001 9.49939H19.0146L19.2959 9.51404H19.3076C20.8204 9.66815 21.9998 10.9472 22 12.5004V19.4994L21.9961 19.6537C21.9159 21.2389 20.6062 22.4998 19.001 22.5004H4.98633L4.70508 22.4857L4.69141 22.4847L4.68555 22.4838C3.27082 22.3361 2.1487 21.2058 2.01367 19.7875L2 19.4994V12.5004C2.00024 10.8435 3.34304 9.49968 5 9.49939H5.00586L5.0957 9.5033Z" fill="black"/>
<path d="M17 16.4994C17.5521 16.4994 17.9995 16.9477 18 17.4994V17.5062L17.9951 17.5951L17.9941 17.601C17.9431 18.1054 17.518 18.4994 17 18.4994H7C6.44776 18.4994 6.00013 18.0515 6 17.4994C6.00047 16.9477 6.44779 16.4994 7 16.4994H17Z" fill="black"/>
<path fill-rule="evenodd" clip-rule="evenodd" d="M15.5605 2.10974C16.6287 1.23854 18.2063 1.29967 19.2031 2.29724C20.1984 3.29298 20.2603 4.86804 19.3896 5.93689L19.3906 5.93787L19.3867 5.94275L19.3818 5.94861L19.2119 6.13611L19.208 6.14099L11.4268 13.9154C11.0536 14.2863 10.5468 14.4994 10.0146 14.4994H8C7.44782 14.4993 7.00013 14.0515 7 13.4994V11.4847C7.00011 10.9551 7.20968 10.4462 7.58496 10.0707L12.7256 4.92517C12.8005 4.84009 12.7975 4.71347 12.7207 4.63416L12.6826 4.60291C12.5989 4.54966 12.486 4.55979 12.4141 4.63123L12.415 4.63221L10.7744 6.27283C10.384 6.66283 9.75064 6.66221 9.36035 6.27283C8.97105 5.88271 8.96833 5.24938 9.3584 4.85877L10.999 3.21814C11.8618 2.35537 13.2596 2.35467 14.125 3.21131C14.1277 3.2136 14.1313 3.21563 14.1338 3.21814C14.1847 3.26911 14.2303 3.3227 14.2725 3.37635L15.3535 2.29627L15.5605 2.10974ZM12.9922 7.49158C12.9814 7.50235 12.9688 7.51142 12.9668 7.51306L9.00098 11.4847L9 12.4994H10.0146L10.0156 12.4974L15.085 7.42908L14.0693 6.41346L12.9922 7.49158ZM17.7871 3.71033C17.5416 3.46513 17.1626 3.4337 16.8828 3.61853L16.7695 3.71131C16.7667 3.71408 16.7634 3.71592 16.7607 3.71814L15.4824 4.99646L16.501 6.01502L17.7793 4.73963L17.8428 4.66834C18.0679 4.38556 18.0495 3.97299 17.7881 3.71131L17.7871 3.71033ZM16.7363 3.73474C16.7377 3.73399 16.7397 3.73373 16.7412 3.73279L16.7432 3.73084C16.7406 3.73231 16.7384 3.73371 16.7363 3.73474Z" fill="black"/>
<path d="M17 12.4994C17.5522 12.4994 17.9995 12.9477 18 13.4994V13.5062L17.9951 13.5951L17.9941 13.601C17.9431 14.1054 17.5181 14.4994 17 14.4994H15C14.4478 14.4994 14.0001 14.0515 14 13.4994C14.0005 12.9477 14.4478 12.4994 15 12.4994H17Z" fill="black"/>
</svg>
