<svg width="24" height="24" viewBox="0 0 24 24" fill="none" xmlns="http://www.w3.org/2000/svg">
<path d="M9.57031 12C10.1221 12.0003 10.5702 12.4479 10.5703 13V13.0068L10.5654 13.0967L10.5645 13.1025C10.5164 13.5729 10.143 13.9459 9.67285 13.9941L9.66699 13.9951L9.57715 14H7C6.48232 14 6.05625 13.6066 6.00488 13.1025L6 13C6.00015 12.4479 6.44776 12 7 12H9.57031Z" fill="black"/>
<path fill-rule="evenodd" clip-rule="evenodd" d="M18 4C20.2092 4 21.9999 5.79084 22 8V16C22 18.2093 20.2093 20 18 20H6C3.79072 20 2 18.2093 2 16V8C2.00014 5.79084 3.79079 4 6 4H18ZM4 16C4 17.1047 4.89528 18 6 18H18C19.1047 18 20 17.1047 20 16V10H4V16ZM6 6C4.89538 6 4.00013 6.89538 4 8H20C19.9999 6.89538 19.1046 6 18 6H6Z" fill="black"/>
</svg>
