<svg width="24" height="24" viewBox="0 0 24 24" fill="none" xmlns="http://www.w3.org/2000/svg">
<path d="M16 20C16.5522 20 17 20.4477 17 21C17 21.5177 16.6066 21.9427 16.1025 21.9941L16.0967 21.9951L16.0068 22H3C2.44772 22 2 21.5523 2 21C2 20.4477 2.44772 20 3 20H16Z" fill="black"/>
<path d="M21 14C21.5523 14 22 14.4477 22 15C22 15.5523 21.5523 16 21 16H3C2.44772 16 2 15.5523 2 15C2 14.4477 2.44772 14 3 14H21Z" fill="black"/>
<path d="M11 8C11.5523 8 12 8.44772 12 9C12 9.55228 11.5523 10 11 10H3C2.44778 9.99996 2 9.55229 2 9C2 8.44771 2.44778 8.00004 3 8H11Z" fill="black"/>
<path d="M16.0967 2.00488L16.1025 2.00586C16.6066 2.05734 17 2.48226 17 3C17 3.51774 16.6066 3.94266 16.1025 3.99414L16.0967 3.99512L16.0068 4H3C2.44772 4 2 3.55228 2 3C2 2.44772 2.44772 2 3 2H16.0068L16.0967 2.00488Z" fill="black"/>
</svg>
