<svg width="24" height="24" viewBox="0 0 24 24" fill="none" xmlns="http://www.w3.org/2000/svg">
<path d="M12.592 2.02947C14.9522 2.17034 17.1119 3.13165 18.7649 4.65251C18.9595 4.83153 19.1474 5.01798 19.3274 5.21208C19.5974 5.50317 19.8497 5.81133 20.0842 6.13396C20.2404 6.34882 20.3884 6.57023 20.5276 6.79802C20.667 7.02628 20.7978 7.26075 20.9192 7.50115C21.0404 7.74128 21.1529 7.98706 21.2551 8.23845C21.4595 8.74101 21.6249 9.2653 21.7473 9.80779C22.5433 13.3355 21.3664 16.9459 18.8059 19.3273C18.7075 19.4188 18.6066 19.5081 18.5042 19.5959C17.9915 20.0353 17.4286 20.4274 16.8196 20.7629C16.4541 20.9641 16.0804 21.1414 15.7004 21.2931C15.1938 21.4955 14.676 21.6541 14.1526 21.7697C14.0218 21.7986 13.8905 21.8243 13.759 21.8478C10.603 22.4127 7.28564 21.4349 4.92603 19.0734C4.53572 18.6827 4.53634 18.0487 4.927 17.6584C5.26882 17.3174 5.796 17.2752 6.18384 17.5314C6.23931 17.5681 6.29224 17.6105 6.34106 17.6594C7.75675 19.0762 9.60321 19.8706 11.5032 19.9885C11.714 20.0015 11.9254 20.0058 12.137 20.0021C13.4084 19.9802 14.6851 19.6551 15.8547 19.0109C16.8292 18.4741 17.6564 17.7565 18.3088 16.9172C18.3742 16.8331 18.4375 16.7477 18.4993 16.6613C19.1166 15.7982 19.5569 14.8198 19.7932 13.7853C19.8405 13.5784 19.8797 13.3693 19.9104 13.1584C20.0179 12.4205 20.023 11.661 19.9163 10.9006C19.8858 10.6831 19.8461 10.4654 19.7971 10.2482C19.7121 9.87143 19.5989 9.50647 19.4641 9.15349C18.3566 6.25331 15.6419 4.21585 12.4739 4.02654C12.3627 4.0199 12.2515 4.01586 12.1409 4.01384C11.92 4.00981 11.7004 4.01454 11.4827 4.02849C10.6115 4.08428 9.76897 4.28233 8.98267 4.60271C8.88453 4.64269 8.78699 4.68393 8.69067 4.72771C8.49784 4.81536 8.30919 4.91141 8.12427 5.01384C7.939 5.11647 7.75775 5.22605 7.5813 5.34294C7.3171 5.51796 7.06351 5.70887 6.82153 5.91423C6.74086 5.9827 6.66124 6.05249 6.58325 6.12419C6.50534 6.19583 6.42888 6.26914 6.35376 6.34392C6.14644 6.55031 5.95037 6.76886 5.76587 6.99822C5.54866 7.26823 5.34742 7.55314 5.16528 7.85271C5.13599 7.90089 5.10865 7.95029 5.08032 7.99919H6.99829L7.10083 8.00408C7.60484 8.05555 7.99829 8.48163 7.99829 8.99919C7.99794 9.55108 7.55023 9.99904 6.99829 9.99919H2.99634C2.44427 9.99919 1.99669 9.55118 1.99634 8.99919V4.99724C1.99634 4.44496 2.44405 3.99724 2.99634 3.99724L3.09888 4.00212C3.60299 4.05347 3.99634 4.47958 3.99634 4.99724V6.01775C4.04584 5.95165 4.09472 5.88521 4.14575 5.82048C4.80726 4.98141 5.59586 4.25856 6.47681 3.67498C6.69724 3.52895 6.9231 3.39109 7.15454 3.26287C7.38577 3.13476 7.6224 3.01603 7.86353 2.90642C8.10474 2.79677 8.3508 2.69703 8.60083 2.60662C8.85086 2.5162 9.1048 2.43489 9.36255 2.36443C9.75898 2.25606 10.164 2.17245 10.5754 2.11345C10.9663 2.0574 11.363 2.02399 11.7639 2.01482C12.0381 2.00855 12.3145 2.01292 12.592 2.02947Z" fill="#1C1C1C"/>
<path d="M12.1018 6.0031C12.6061 6.05423 13.0002 6.48039 13.0002 6.99822V12.0002C13.0001 12.2652 12.8947 12.5198 12.7073 12.7072L9.7063 15.7082C9.51116 15.9033 9.25499 16 8.99927 16.0002C8.74376 16 8.48731 15.903 8.29224 15.7082C7.90191 15.3176 7.90178 14.6846 8.29224 14.2941L11.0002 11.5861V6.99822C11.0002 6.48048 11.3935 6.05435 11.8977 6.0031C11.9313 5.99968 11.9658 5.99823 12.0002 5.99822L12.1018 6.0031Z" fill="#1C1C1C"/>
</svg>
