<svg width="24" height="24" viewBox="0 0 24 24" fill="none" xmlns="http://www.w3.org/2000/svg">
<path fill-rule="evenodd" clip-rule="evenodd" d="M16 13C17.1043 13 18 13.8958 18 15V16H21C21.5523 16 22 16.4478 22 17L21.9951 17.1025C21.9437 17.6065 21.5176 18 21 18H18V19L17.9893 19.2041C17.8868 20.2124 17.0353 21 16 21H14C12.8959 20.9999 12.0001 20.1041 12 19V18H3C2.48237 18 2.05632 17.6065 2.00488 17.1025L2 17C2.00004 16.4478 2.44771 16 3 16H12V15C12 13.8958 12.8958 13.0001 14 13H16ZM14 19H16V15H14V19Z" fill="black"/>
<path fill-rule="evenodd" clip-rule="evenodd" d="M10 3C11.1043 3 12 3.89576 12 5V6H21C21.5523 6 22 6.44778 22 7L21.9951 7.10254C21.9437 7.60655 21.5176 8 21 8H12V9L11.9893 9.2041C11.8868 10.2124 11.0353 11 10 11H8C6.89587 10.9999 6.00014 10.1041 6 9V8H3C2.48237 8 2.05632 7.60655 2.00488 7.10254L2 7C2.00005 6.44778 2.44771 6 3 6H6V5C6.00004 3.89578 6.89581 3.00008 8 3H10ZM8 9H10V5H8V9Z" fill="black"/>
</svg>
