<svg width="24" height="24" viewBox="0 0 24 24" fill="none" xmlns="http://www.w3.org/2000/svg">
<path fill-rule="evenodd" clip-rule="evenodd" d="M4.92871 4.92889C8.59347 1.2644 14.3962 1.03884 18.3242 4.25213L18.6982 4.5744L18.7012 4.57635L19.0703 4.92693L19.0771 4.93377L19.4219 5.29803L19.4268 5.30291C20.7566 6.77513 21.5709 8.5478 21.8701 10.3879C21.9948 11.1545 22.0298 11.933 21.9756 12.7062C21.9647 12.8607 21.9506 13.0152 21.9326 13.1691C21.7165 15.0184 20.9851 16.8191 19.7383 18.3381C19.5307 18.591 19.3085 18.8362 19.0723 19.0724C18.9504 19.1943 18.8257 19.3127 18.6992 19.4269C18.4461 19.6557 18.1838 19.8693 17.9141 20.0676C17.2393 20.5634 16.5163 20.9646 15.7637 21.2697C15.4628 21.3917 15.1568 21.4985 14.8477 21.59C13.9199 21.8645 12.9597 22.0012 12 22.0012C11.8402 22.0011 11.6802 21.9971 11.5205 21.9894C10.7213 21.9513 9.9256 21.8179 9.15234 21.589C8.84312 21.4975 8.53726 21.3908 8.23633 21.2687C7.48408 20.9637 6.76139 20.5632 6.08691 20.0676C5.81711 19.8693 5.55497 19.6557 5.30176 19.4269C5.17518 19.3126 5.0507 19.1944 4.92871 19.0724C4.68482 18.8285 4.45562 18.5753 4.24219 18.3137C4.02862 18.0518 3.83052 17.7814 3.64746 17.5041C3.46427 17.2266 3.29619 16.9421 3.14355 16.6515C2.9912 16.3615 2.85434 16.0655 2.73242 15.7648C2.61037 15.4639 2.50365 15.1581 2.41211 14.8488C2.13749 13.9209 2.00004 12.961 2 12.0012C1.99999 11.841 2.00408 11.6807 2.01172 11.5207C2.02239 11.2972 2.04278 11.0742 2.06836 10.8517C2.31719 8.68759 3.26909 6.58868 4.92871 4.92889ZM11.7197 6.2365C11.168 6.23678 10.7208 6.68459 10.7197 7.23553V13.0646C10.7201 13.4162 10.905 13.7437 11.207 13.924L15.2695 16.3478C15.7431 16.63 16.3584 16.4752 16.6416 16.0012C16.9238 15.5273 16.7685 14.9132 16.2949 14.6301L12.7197 12.4953V7.23553C12.7187 6.68471 12.2713 6.23693 11.7197 6.2365Z" fill="black"/>
</svg>
