<svg width="24" height="24" viewBox="0 0 24 24" fill="none" xmlns="http://www.w3.org/2000/svg">
<path fill-rule="evenodd" clip-rule="evenodd" d="M16 2C19.3133 2 22 4.68672 22 8V12C22 15.3133 19.3133 18 16 18H14.3242L9.62598 21.7793C9.60391 21.797 9.57739 21.8144 9.57031 21.8193L9.55859 21.8281L9.55273 21.833C9.50853 21.8624 9.46474 21.8848 9.42773 21.9023C9.38902 21.9207 9.35019 21.9334 9.32715 21.9414L9.32227 21.9434L9.24121 21.9678L9.23438 21.9697C9.19431 21.9794 9.14253 21.9912 9.08496 21.9961H9.0752L9.00684 22H9C8.90704 22 8.82247 21.9835 8.75293 21.9658C8.72157 21.9578 8.68988 21.9476 8.65918 21.9365L8.6543 21.9346L8.56934 21.8994L8.5625 21.8965C8.5347 21.8829 8.50882 21.8687 8.48828 21.8564C8.45575 21.837 8.42674 21.8158 8.40039 21.7959C8.34232 21.7521 8.27776 21.6968 8.2207 21.626L8.21582 21.6201L8.18555 21.5771L8.18359 21.5752C8.1837 21.5753 8.18354 21.5753 8.18262 21.5742C8.18179 21.5732 8.18035 21.5713 8.17871 21.5693C8.17532 21.5652 8.17008 21.5594 8.16504 21.5518C8.13444 21.5054 8.11209 21.4582 8.09766 21.4277C8.07854 21.3874 8.06588 21.3475 8.05664 21.3203C8.05121 21.3043 8.04031 21.2737 8.03223 21.2412C8.01478 21.1709 8 21.0893 8 21V18C4.68672 18 2 15.3133 2 12V8C2 4.68672 4.68672 2 8 2H16ZM8 4C5.79128 4 4 5.79128 4 8V12C4 14.2087 5.79128 16 8 16H9C9.55228 16 10 16.4477 10 17V18.9102L13.374 16.1992C13.6123 16.008 13.9086 15.9492 14.1816 16H16C18.2087 16 20 14.2087 20 12V8C20 5.79128 18.2087 4 16 4H8Z" fill="black"/>
</svg>
