<svg width="24" height="24" viewBox="0 0 24 24" fill="none" xmlns="http://www.w3.org/2000/svg">
<path fill-rule="evenodd" clip-rule="evenodd" d="M12.0005 1.99951C17.5235 1.99978 22.0005 6.47737 22.0005 12.0005C22.0002 17.5234 17.5234 22.0002 12.0005 22.0005C6.47737 22.0005 1.99978 17.5235 1.99951 12.0005C1.99951 6.4772 6.4772 1.99951 12.0005 1.99951ZM15.5366 8.4624C15.1461 8.07252 14.5129 8.07234 14.1226 8.4624L11.9995 10.5854L9.87646 8.4624C9.48597 8.0725 8.85276 8.07227 8.4624 8.4624C8.07221 8.85276 8.07248 9.48594 8.4624 9.87646L10.5854 11.9995L8.4624 14.1226C8.07228 14.5129 8.0725 15.1461 8.4624 15.5366C8.85286 15.927 9.48595 15.9269 9.87646 15.5366L11.9995 13.4136L14.1226 15.5366C14.513 15.9269 15.1461 15.9269 15.5366 15.5366C15.9269 15.1461 15.9269 14.513 15.5366 14.1226L13.4136 11.9995L15.5366 9.87646C15.9268 9.48594 15.927 8.85284 15.5366 8.4624Z" fill="black"/>
</svg>
