<svg width="24" height="24" viewBox="0 0 24 24" fill="none" xmlns="http://www.w3.org/2000/svg">
<path fill-rule="evenodd" clip-rule="evenodd" d="M8.53418 9.46094C10.4817 7.51355 13.6394 7.51344 15.5869 9.46094L15.7637 9.64648C17.5323 11.6041 17.4734 14.627 15.5869 16.5137C14.4914 17.6092 13.0127 18.0882 11.582 17.9512C11.423 17.9359 11.2646 17.9133 11.1074 17.8828C10.1646 17.7002 9.26439 17.2437 8.53418 16.5137C7.9863 15.9658 7.59216 15.3223 7.35254 14.6367C7.29937 14.4846 7.25381 14.3304 7.21582 14.1748C7.15878 13.9411 7.11854 13.7041 7.0957 13.4658C7.08046 13.3067 7.07324 13.147 7.07324 12.9873C7.07326 11.711 7.56042 10.4347 8.53418 9.46094ZM14.0605 10.7686C12.888 9.70956 11.0782 9.74523 9.94824 10.875C9.21925 11.604 8.94577 12.6162 9.12793 13.5576C9.16438 13.746 9.21907 13.9315 9.29199 14.1113C9.4378 14.471 9.65659 14.808 9.94824 15.0996C11.1148 16.2657 13.0065 16.266 14.1729 15.0996C15.3027 13.9696 15.3376 12.1588 14.2783 10.9863L14.1729 10.875L14.0605 10.7686Z" fill="black"/>
<path fill-rule="evenodd" clip-rule="evenodd" d="M14.6299 3C15.3319 3 15.9811 3.36832 16.3428 3.96777L16.3438 3.96875L17.5664 6H19C20.6573 6 22 7.34272 22 9V18C22 19.6573 20.6573 21 19 21H5C3.34272 21 2 19.6573 2 18V9C2 7.34272 3.34272 6 5 6H6.42676L7.59766 3.99316C7.95603 3.37853 8.61481 3 9.32617 3H14.6299ZM7.86328 7.50391C7.68402 7.81093 7.35553 8 7 8H5C4.44728 8 4 8.44728 4 9V18C4 18.5527 4.44728 19 5 19H19C19.5527 19 20 18.5527 20 18V9C20 8.44728 19.5527 8 19 8H17C16.6491 8 16.3234 7.81634 16.1426 7.51562L14.6309 5.00098L14.6299 5H9.3252L7.86328 7.50391Z" fill="black"/>
</svg>
