<svg width="24" height="24" viewBox="0 0 24 24" fill="none" xmlns="http://www.w3.org/2000/svg">
<path d="M15.2871 8.80273C15.6776 8.41221 16.3117 8.41275 16.7021 8.80273C17.0923 9.1932 17.0923 9.82633 16.7021 10.2168L11.7021 15.2168C11.3117 15.607 10.6785 15.607 10.2881 15.2168L7.28809 12.2168C6.89824 11.8264 6.89761 11.1922 7.28809 10.8018L7.36426 10.7334C7.75687 10.4138 8.33617 10.4363 8.70215 10.8018L10.9951 13.0947L15.2871 8.80273Z" fill="black"/>
<path fill-rule="evenodd" clip-rule="evenodd" d="M12 2C17.5233 2 22 6.47672 22 12C22 17.5233 17.5233 22 12 22C6.47672 22 2 17.5233 2 12C2 6.47672 6.47672 2 12 2ZM12 4C7.58128 4 4 7.58128 4 12C4 16.4187 7.58128 20 12 20C16.4187 20 20 16.4187 20 12C20 7.58128 16.4187 4 12 4Z" fill="black"/>
</svg>
