<svg width="24" height="24" viewBox="0 0 24 24" fill="none" xmlns="http://www.w3.org/2000/svg">
<path d="M7.40327 7.40422C9.94162 4.86587 14.0572 4.86599 16.5957 7.40422C16.9855 7.79471 16.9861 8.42788 16.5957 8.81828L8.81343 16.6015L8.80366 16.6103L8.7978 16.6122L8.68452 16.707L8.68355 16.7079L8.67378 16.7157L8.66499 16.7226L8.66402 16.7216C8.50049 16.8303 8.30745 16.8885 8.1103 16.8886C7.84664 16.8884 7.59125 16.7843 7.40327 16.5966C4.86518 14.0583 4.86542 9.94258 7.40327 7.40422Z" fill="black"/>
<path fill-rule="evenodd" clip-rule="evenodd" d="M4.92866 4.92863C8.83383 1.02353 15.166 1.02364 19.0712 4.92863C22.9759 8.83389 22.9762 15.1661 19.0712 19.0712C15.1662 22.9762 8.83392 22.9759 4.92866 19.0712C1.02367 15.166 1.02356 8.8338 4.92866 4.92863ZM17.6572 6.3427C14.533 3.21875 9.46685 3.21864 6.34273 6.3427C3.21867 9.46682 3.21878 14.533 6.34273 17.6571C9.46695 20.7808 14.5332 20.7811 17.6572 17.6571C20.7811 14.5331 20.7808 9.46692 17.6572 6.3427Z" fill="black"/>
</svg>
