<svg width="24" height="24" viewBox="0 0 24 24" fill="none" xmlns="http://www.w3.org/2000/svg">
<path d="M13.4561 13.0889C15.4113 13.0889 17.0131 14.524 17.3096 16.3857C17.3962 16.9312 17.0244 17.4424 16.4795 17.5293C15.9348 17.6156 15.4231 17.2452 15.3359 16.7002C15.1899 15.7836 14.4022 15.0889 13.4561 15.0889H10.543C9.59621 15.0891 8.80906 15.7836 8.66309 16.7002C8.57589 17.2451 8.06462 17.616 7.51953 17.5293C6.97474 17.442 6.60391 16.9306 6.69043 16.3857C6.98683 14.5245 8.58672 13.0891 10.543 13.0889H13.4561Z" fill="black"/>
<path fill-rule="evenodd" clip-rule="evenodd" d="M9.70215 6.94824C10.9718 5.68004 13.0293 5.67972 14.2988 6.94824C15.5683 8.21775 15.5683 10.276 14.2998 11.5459C13.03 12.8157 10.9701 12.8178 9.7002 11.5479C8.43124 10.2779 8.43259 8.2178 9.70215 6.94824ZM12.8838 8.36426C12.3967 7.87767 11.6091 7.87457 11.1201 8.35742C11.1184 8.35932 11.118 8.36244 11.1162 8.36426C10.6279 8.85261 10.6268 9.64287 11.1143 10.1318C11.6031 10.6207 12.3949 10.6207 12.8838 10.1318C13.3723 9.64289 13.3724 8.8529 12.8838 8.36426Z" fill="black"/>
<path fill-rule="evenodd" clip-rule="evenodd" d="M17.2559 2.00293H17.2588C19.9014 2.13696 22.0038 4.32225 22.0039 6.99805V17.0049L21.9971 17.2559V17.2588C21.8674 19.8162 19.8162 21.8674 17.2588 21.9971H17.2559L17.0049 22.0039H6.99805C4.32225 22.0038 2.13696 19.9014 2.00293 17.2588V17.2559L1.99609 17.0049V6.99805C1.99623 4.23604 4.23604 1.99623 6.99805 1.99609H17.0049L17.2559 2.00293ZM6.99805 3.99609C5.3406 3.99623 3.99623 5.3406 3.99609 6.99805V16.999L4 17.1572L4.0293 17.4502C4.24577 18.8952 5.49285 20.0038 6.99805 20.0039H16.999L17.1572 20L17.4404 19.9727C18.8403 19.7677 19.9267 18.5956 20 17.1572L20.0039 17.002V6.99805C20.0038 5.39259 18.7426 4.08078 17.1572 4L16.999 3.99609H6.99805Z" fill="black"/>
</svg>
