<svg width="24" height="24" viewBox="0 0 24 24" fill="none" xmlns="http://www.w3.org/2000/svg">
<path d="M2.56445 2.15137C3.06845 2.20283 3.46175 2.6291 3.46191 3.14648V19.8545H21.5381C22.09 19.8548 22.5379 20.3025 22.5381 20.8545V20.8613L22.5332 20.9512L22.5322 20.957C22.4841 21.4273 22.1108 21.8005 21.6406 21.8486L21.6348 21.8496L21.5449 21.8545H2.46191C1.94441 21.8544 1.51937 21.4609 1.46777 20.957L1.4668 20.9512L1.46191 20.8613V3.14648C1.46209 2.59446 1.90982 2.14662 2.46191 2.14648L2.56445 2.15137Z" fill="black"/>
<path d="M20.832 6.21777C21.1981 5.85288 21.7774 5.82932 22.1699 6.14941L22.2461 6.21777C22.6356 6.6081 22.6351 7.24158 22.2461 7.63184L17.1748 12.7051C16.394 13.4846 15.1265 13.4849 14.3457 12.7031L12.2051 10.5635L6.24609 16.5234C5.85577 16.9138 5.22159 16.9132 4.83105 16.5234L4.83008 16.5225C4.4409 16.132 4.43977 15.4977 4.83008 15.1074L10.79 9.14746C11.571 8.36577 12.8375 8.36803 13.6182 9.14746L15.7598 11.2891L20.832 6.21777Z" fill="black"/>
</svg>
