<svg width="24" height="24" viewBox="0 0 24 24" fill="none" xmlns="http://www.w3.org/2000/svg">
<path d="M11.7199 6.23632C12.2715 6.23674 12.7189 6.68452 12.7199 7.23534V12.4951L16.2951 14.6299C16.7686 14.913 16.924 15.5271 16.6418 16.001C16.3586 16.4752 15.7434 16.6298 15.2697 16.3476L11.2072 13.9238C10.9051 13.7435 10.7203 13.4161 10.7199 13.0644V7.23534C10.721 6.68432 11.1681 6.23646 11.7199 6.23632Z" fill="black"/>
<path fill-rule="evenodd" clip-rule="evenodd" d="M4.92889 4.9287C8.59369 1.26418 14.3964 1.03857 18.3244 4.25194L18.6984 4.57421L18.7014 4.57616L19.0705 4.92675L19.0773 4.93358L19.4221 5.29784L19.4269 5.30272C20.7568 6.77494 21.5711 8.54761 21.8703 10.3877C21.995 11.1544 22.03 11.9327 21.9758 12.706C21.9649 12.8606 21.9508 13.0149 21.9328 13.1689C21.7168 15.0183 20.9853 16.8189 19.7385 18.3379C19.5308 18.5909 19.3087 18.836 19.0724 19.0723C18.9505 19.1942 18.826 19.3124 18.6994 19.4267C18.4462 19.6555 18.1841 19.8691 17.9142 20.0674C17.2394 20.5633 16.5166 20.9644 15.7639 21.2695C15.4629 21.3915 15.1571 21.4983 14.8478 21.5898C13.92 21.8643 12.96 22.001 12.0002 22.001C11.8403 22.001 11.6804 21.9969 11.5207 21.9892C10.7214 21.9511 9.92586 21.8177 9.15253 21.5889C8.84324 21.4973 8.5375 21.3906 8.23651 21.2685C7.4842 20.9635 6.76163 20.563 6.0871 20.0674C5.81726 19.8691 5.55519 19.6555 5.30194 19.4267C5.17534 19.3124 5.05091 19.1943 4.92889 19.0723C4.68497 18.8283 4.45582 18.5752 4.24237 18.3135C4.02878 18.0516 3.83072 17.7812 3.64764 17.5039C3.46445 17.2264 3.29638 16.9419 3.14374 16.6514C2.99138 16.3613 2.85452 16.0653 2.7326 15.7646C2.61055 15.4636 2.50384 15.1579 2.41229 14.8486C2.13766 13.9207 2.00021 12.9609 2.00018 12.001C2.00018 11.8408 2.00426 11.6806 2.0119 11.5205C2.02258 11.297 2.04295 11.0741 2.06854 10.8516C2.31739 8.68733 3.26916 6.58852 4.92889 4.9287ZM11.6203 4.00878C11.2604 4.02575 10.9015 4.06749 10.5461 4.1328C9.95399 4.24162 9.37174 4.41715 8.81171 4.66014C8.47532 4.8061 8.14704 4.97652 7.82928 5.17089C7.51176 5.36512 7.20495 5.58359 6.91132 5.82616C6.71577 5.9877 6.52596 6.15979 6.34296 6.34276C6.14768 6.53805 5.96401 6.74066 5.79315 6.95018C5.62236 7.15961 5.46397 7.37589 5.31757 7.59764C5.0247 8.04129 4.78039 8.50765 4.58514 8.98925C4.38983 9.47096 4.24431 9.96815 4.14667 10.4726C3.6587 12.9944 4.39063 15.7057 6.34296 17.6582C9.46711 20.7818 14.5343 20.782 17.6584 17.6582C19.6438 15.6726 20.367 12.9022 19.8283 10.3447C19.7513 9.97933 19.6482 9.61842 19.5197 9.26464C19.3912 8.91069 19.2369 8.56404 19.0568 8.22753C18.9368 8.00328 18.8052 7.78367 18.6623 7.56932C18.4479 7.2478 18.2084 6.93795 17.9426 6.64354L17.6633 6.34764L17.3605 6.06249L17.0568 5.79979C16.9587 5.7196 16.8589 5.6422 16.758 5.56737C16.5559 5.41753 16.3482 5.27873 16.1359 5.15038C15.6053 4.82949 15.0458 4.57523 14.4689 4.38866C14.123 4.27677 13.7708 4.18954 13.4152 4.12596C12.8225 4.01997 12.2201 3.98049 11.6203 4.00878Z" fill="black"/>
</svg>
