<svg width="24" height="24" viewBox="0 0 24 24" fill="none" xmlns="http://www.w3.org/2000/svg">
<path d="M3 2C3.55228 2 4 2.44772 4 3V19C4 19.5527 4.44728 20 5 20H21C21.5523 20 22 20.4477 22 21C22 21.5523 21.5523 22 21 22H5C3.34272 22 2 20.6573 2 19V3C2 2.44772 2.44772 2 3 2Z" fill="black"/>
<path d="M7 11C7.55222 11 8 11.4477 8 12V17C8 17.5177 7.60657 17.9427 7.10254 17.9941L7.09668 17.9951L7.00684 18H7C6.44772 18 6 17.5523 6 17V12C6 11.4477 6.44772 11 7 11Z" fill="black"/>
<path d="M11 5C11.5523 5 12 5.44772 12 6V17C12 17.5523 11.5523 18 11 18C10.4478 18 10 17.5523 10 17V6C10 5.44771 10.4478 5.00004 11 5Z" fill="black"/>
<path d="M15 9.90039C15.5523 9.90039 16 10.3481 16 10.9004V17.0068L15.9951 17.0967L15.9941 17.1025C15.9425 17.6063 15.5177 18 15 18C14.4477 18 14.0003 17.5519 14 17V10.9004C14 10.3481 14.4477 9.90039 15 9.90039Z" fill="black"/>
<path d="M19 6C19.5522 6.00004 20 6.44771 20 7V17.0068L19.9951 17.0967L19.9941 17.1025C19.9461 17.573 19.5729 17.9461 19.1025 17.9941L19.0967 17.9951L19.0068 18H19C18.4477 18 18 17.5523 18 17V7C18 6.44772 18.4477 6 19 6Z" fill="black"/>
</svg>
