<svg width="24" height="24" viewBox="0 0 24 24" fill="none" xmlns="http://www.w3.org/2000/svg">
<path d="M8.46387 8.46191C8.85436 8.07254 9.48764 8.07163 9.87793 8.46191L12 10.584L14.1221 8.46191C14.4652 8.11978 14.9965 8.07853 15.3848 8.33789L15.4609 8.39453L15.4648 8.39746L15.5322 8.45703L15.5381 8.46191C15.9272 8.85217 15.9272 9.48572 15.5381 9.87598L13.415 11.999L15.5381 14.1221C15.9271 14.5123 15.9272 15.1459 15.5381 15.5361C15.148 15.9263 14.5147 15.9275 14.124 15.5381L12 13.415L9.87793 15.5381C9.48768 15.9272 8.85413 15.9272 8.46387 15.5381C8.07362 15.1478 8.0714 14.5127 8.46191 14.1221L10.584 12L8.46191 9.87793C8.07122 9.48723 8.07352 8.85226 8.46387 8.46191Z" fill="black"/>
<path fill-rule="evenodd" clip-rule="evenodd" d="M12 2C17.5233 2 22 6.47672 22 12C22 17.5233 17.5233 22 12 22C6.47672 22 2 17.5233 2 12C2 6.47672 6.47672 2 12 2ZM12 4C7.58128 4 4 7.58128 4 12C4 16.4187 7.58128 20 12 20C16.4187 20 20 16.4187 20 12C20 7.58128 16.4187 4 12 4Z" fill="black"/>
</svg>
