<svg width="24" height="24" viewBox="0 0 24 24" fill="none" xmlns="http://www.w3.org/2000/svg">
<path fill-rule="evenodd" clip-rule="evenodd" d="M9.25073 10C10.4932 10.0001 11.5006 11.0075 11.5007 12.25V14.751C11.5007 14.8287 11.4967 14.9057 11.489 14.9814C11.4883 14.988 11.4868 14.9944 11.4861 15.001H11.7498C12.9924 15.001 13.9998 16.0083 13.9998 17.251V19.75C13.9997 20.9926 12.9924 22 11.7498 22H9.25073C9.17326 22 9.0967 21.9959 9.02124 21.9883C8.71859 21.9576 8.43359 21.8671 8.17847 21.7285C8.13446 21.7046 8.09271 21.6771 8.05054 21.6504C8.01784 21.6719 7.98568 21.6942 7.9519 21.7139C7.69194 21.8651 7.40123 21.9593 7.09937 21.9893L6.89136 22H4.25171C4.1739 22 4.09701 21.996 4.02124 21.9883C2.88688 21.8729 2.00174 20.9148 2.00171 19.75V17.251C2.00171 16.0083 3.00907 15.001 4.25171 15.001H4.5144C4.51368 14.9944 4.51214 14.988 4.51147 14.9814C4.50377 14.9057 4.49976 14.8287 4.49976 14.751V12.25C4.49985 11.0074 5.50718 10 6.74976 10H9.25073ZM4.20093 17.0059C4.08718 17.0293 4.00171 17.1303 4.00171 17.251V19.75C4.00174 19.888 4.11366 20 4.25171 20H6.89136C6.90596 20 6.92017 19.9968 6.93335 19.9912C6.94632 19.9857 6.95834 19.9779 6.96851 19.9678C6.989 19.9473 7.00062 19.9196 7.00073 19.8906V17.251C7.00073 17.1303 6.91526 17.0293 6.80151 17.0059L6.75073 17.001H4.25171C4.23432 17.001 4.21731 17.0025 4.20093 17.0059ZM9.20093 17.0059C9.08683 17.029 9.00073 17.13 9.00073 17.251V19.75C9.00077 19.888 9.11279 19.9999 9.25073 20H11.7498C11.767 20 11.7842 19.9985 11.8005 19.9951C11.9144 19.9718 11.9997 19.8708 11.9998 19.75V17.251C11.9998 17.1302 11.9144 17.0292 11.8005 17.0059L11.7498 17.001H9.25073C9.23368 17.001 9.21702 17.0026 9.20093 17.0059ZM6.74976 12C6.61175 12 6.49985 12.112 6.49976 12.25V14.751C6.49988 14.8889 6.61176 15.001 6.74976 15.001H9.25073C9.38862 15.0009 9.50061 14.8889 9.50073 14.751V12.25C9.50063 12.1121 9.38864 12.0001 9.25073 12H6.74976Z" fill="black"/>
<path d="M18.9998 2C20.6566 2 21.9998 3.34315 21.9998 5V19C21.9998 20.6569 20.6566 22 18.9998 22H16.9998C16.4476 21.9999 15.9998 21.5522 15.9998 21C15.9998 20.4478 16.4476 20.0001 16.9998 20H18.9998C19.552 20 19.9998 19.5523 19.9998 19V5C19.9998 4.44772 19.552 4 18.9998 4H7.99976C7.44758 4.00013 6.99976 4.4478 6.99976 5V7C6.99976 7.55228 6.55204 8 5.99976 8C5.44758 7.99987 4.99976 7.5522 4.99976 7V5C4.99976 3.34323 6.34301 2.00013 7.99976 2H18.9998Z" fill="black"/>
<path d="M17.9998 11C18.552 11 18.9998 11.4477 18.9998 12C18.9998 12.5523 18.552 13 17.9998 13H15.9998C15.4476 12.9999 14.9998 12.5522 14.9998 12C14.9998 11.4478 15.4476 11.0001 15.9998 11H17.9998Z" fill="black"/>
</svg>
