<svg width="24" height="24" viewBox="0 0 24 24" fill="none" xmlns="http://www.w3.org/2000/svg">
<path d="M12.1025 10.8838C12.6065 10.9352 13 11.3613 13 11.8789V13H14.1211C14.6729 13.0004 15.1211 13.4478 15.1211 14C15.1211 14.5177 14.7273 14.9424 14.2236 14.9941L14.2178 14.9951L14.1279 15H13V16.1279L12.9951 16.2178L12.9941 16.2236C12.9458 16.6961 12.5692 17.0711 12.0957 17.1162L12 17.1211C11.4478 17.121 11.0002 16.6731 11 16.1211V15H9.87891C9.32662 15 8.87891 14.5523 8.87891 14C8.87891 13.4477 9.32662 13 9.87891 13H11V11.8789C11 11.3266 11.4478 10.879 12 10.8789L12.1025 10.8838Z" fill="black"/>
<path fill-rule="evenodd" clip-rule="evenodd" d="M14.9531 2.00488H14.9561C15.9443 2.05418 16.8838 2.46783 17.5869 3.1709L19.8291 5.41309C20.5791 6.16312 20.9999 7.18157 21 8.24219V18C21 20.14 19.3193 21.8878 17.2061 21.9951L17 22H7C4.79086 22 3 20.2091 3 18V6C3 3.79086 4.79086 2 7 2H14.7607L14.9531 2.00488ZM7 4C5.89543 4 5 4.89543 5 6V18C5 19.1046 5.89543 20 7 20H17L17.2041 19.9893C18.2127 19.8869 19 19.0356 19 18V9.5H16.5C14.8431 9.5 13.5 8.15685 13.5 6.5V4H7ZM15.5 6.5C15.5 7.05228 15.9477 7.5 16.5 7.5H18.8506C18.7514 7.25099 18.6057 7.02174 18.4131 6.8291L16.1709 4.58691C15.978 4.39405 15.749 4.24682 15.5 4.14746V6.5Z" fill="black"/>
</svg>
