<svg width="24" height="24" viewBox="0 0 24 24" fill="none" xmlns="http://www.w3.org/2000/svg">
<path fill-rule="evenodd" clip-rule="evenodd" d="M14.8232 2.00488H14.8262C15.8146 2.05407 16.7548 2.46769 17.458 3.1709L19.8291 5.54199C20.5792 6.29216 21 7.31131 21 8.37207V18C21 20.14 19.3193 21.8878 17.2061 21.9951L17 22H7C4.79086 22 3 20.2091 3 18V6C3 3.79086 4.79086 2 7 2H14.6309L14.8232 2.00488ZM7 4C5.89543 4 5 4.89543 5 6V18C5 19.1046 5.89543 20 7 20H17L17.2041 19.9893C18.2127 19.8869 19 19.0356 19 18V9.5H16.5C14.8431 9.5 13.5 8.15685 13.5 6.5V4H7ZM15.5 6.5C15.5 7.05228 15.9477 7.5 16.5 7.5H18.7959C18.6999 7.3005 18.5719 7.11687 18.4131 6.95801L16.042 4.58691C15.8828 4.42769 15.6993 4.29852 15.5 4.20215V6.5Z" fill="black"/>
</svg>
