<svg width="24" height="24" viewBox="0 0 24 24" fill="none" xmlns="http://www.w3.org/2000/svg">
<path d="M21 16C21.5523 16 22 16.4477 22 17C22 19.7613 19.7613 22 17 22H7C4.23872 22 2 19.7613 2 17C2 16.4477 2.44772 16 3 16C3.55228 16 4 16.4477 4 17C4 18.6567 5.34328 20 7 20H17C18.6567 20 20 18.6567 20 17C20 16.4477 20.4477 16 21 16Z" fill="black"/>
<path d="M12 2C12.5523 2 13 2.44772 13 3V14.585L16.293 11.293C16.6591 10.9269 17.2381 10.9043 17.6309 11.2246C17.657 11.2459 17.6826 11.2686 17.707 11.293C17.7314 11.3174 17.754 11.343 17.7754 11.3691C17.9036 11.5263 17.9768 11.7131 17.9951 11.9043C18.0012 11.9679 18.0012 12.0321 17.9951 12.0957C17.9768 12.2869 17.9036 12.4737 17.7754 12.6309C17.754 12.657 17.7314 12.6826 17.707 12.707L12.7061 17.708C12.6653 17.7487 12.6207 17.7846 12.5742 17.8174C12.5672 17.8223 12.5609 17.8282 12.5537 17.833C12.5266 17.8511 12.4984 17.8675 12.4697 17.8828C12.4637 17.886 12.4573 17.8885 12.4512 17.8916C12.4308 17.9019 12.4108 17.9129 12.3896 17.9219H12.3857C12.3543 17.9351 12.3227 17.9481 12.29 17.958C12.1966 17.9865 12.0985 18.001 11.999 18.001C11.8995 18.001 11.8015 17.9865 11.708 17.958C11.6457 17.9391 11.5857 17.9135 11.5283 17.8828C11.4996 17.8675 11.4715 17.8511 11.4443 17.833C11.3899 17.7967 11.3389 17.7549 11.292 17.708L6.29199 12.707C6.26761 12.6826 6.24497 12.657 6.22363 12.6309C6.18087 12.5784 6.14381 12.523 6.11328 12.4648C6.08273 12.4067 6.05834 12.3461 6.04004 12.2842C5.98524 12.0987 5.98508 11.9003 6.04004 11.7148C6.05831 11.6532 6.08288 11.593 6.11328 11.5352C6.14381 11.477 6.18087 11.4216 6.22363 11.3691C6.24498 11.343 6.2676 11.3174 6.29199 11.293C6.3164 11.2686 6.34198 11.246 6.36816 11.2246C6.76094 10.9043 7.33997 10.9269 7.70605 11.293L11 14.5869V3C11 2.44772 11.4477 2 12 2Z" fill="black"/>
</svg>
