<svg width="24" height="24" viewBox="0 0 24 24" fill="none" xmlns="http://www.w3.org/2000/svg">
<path d="M14.5 11C15.0522 11 15.5 11.4477 15.5 12V13.5H17C17.5523 13.5 18 13.9477 18 14.5V14.5068L17.9951 14.5967L17.9941 14.6025C17.9427 15.1066 17.5177 15.5 17 15.5H15.5V17C15.5 17.5177 15.1066 17.9427 14.6025 17.9941L14.5967 17.9951L14.5068 18H14.5C13.9477 18 13.5 17.5523 13.5 17V15.5H12C11.4477 15.5 11 15.0523 11 14.5C11 13.9477 11.4477 13.5 12 13.5H13.5V12C13.5 11.4477 13.9477 11 14.5 11Z" fill="black"/>
<path fill-rule="evenodd" clip-rule="evenodd" d="M19.5547 7C20.9045 7 22 8.09459 22 9.44434V19.5605L21.9883 19.7979V19.8047C21.863 21.0373 20.821 22 19.5557 22H9.44434C8.09509 22 7 20.9049 7 19.5557V9.44434C7 8.09506 8.09509 7.00004 9.44434 7H19.5547ZM9.44434 9C9.19962 9.00003 9 9.19967 9 9.44434V19.5557L9.00977 19.6475C9.05226 19.8485 9.23139 20 9.44434 20H19.5557C19.7681 20 19.9464 19.849 19.9893 19.6475L20 19.5547V9.44434C20 9.20002 19.8008 9 19.5547 9H9.44434Z" fill="black"/>
<path d="M14.5547 2C15.9045 2 17 3.09459 17 4.44434V5C17 5.55228 16.5523 6 16 6C15.4477 6 15 5.55228 15 5V4.44434C15 4.20002 14.8008 4 14.5547 4H4.44434C4.19962 4 4 4.19962 4 4.44434V14.5557C4 14.8004 4.19962 15 4.44434 15H5C5.55228 15 6 15.4477 6 16C6 16.5523 5.55228 17 5 17H4.44434C3.09505 17 2 15.9049 2 14.5557V4.44434C2 3.09505 3.09505 2 4.44434 2H14.5547Z" fill="black"/>
</svg>
