<svg width="24" height="24" viewBox="0 0 24 24" fill="none" xmlns="http://www.w3.org/2000/svg">
<path d="M11.9012 2.79206C11.5101 2.4023 10.877 2.403 10.4871 2.79402L1.99171 11.3194C1.60199 11.7105 1.60276 12.3436 1.99366 12.7335L10.494 21.2081C10.885 21.598 11.5181 21.5972 11.9081 21.2061C12.298 20.815 12.2972 20.182 11.9061 19.7921L4.11385 12.0225L11.9042 4.20612C12.2938 3.81496 12.2922 3.18187 11.9012 2.79206Z" fill="black"/>
<path d="M20.9012 2.79206C20.51 2.4023 19.8769 2.403 19.4871 2.79402L10.9917 11.3194C10.6019 11.7105 10.6027 12.3436 10.9936 12.7335L19.4939 21.2081C19.885 21.598 20.5181 21.5972 20.908 21.2061C21.2979 20.815 21.2971 20.182 20.9061 19.7921L13.1138 12.0225L20.9041 4.20612C21.2938 3.81496 21.2922 3.18187 20.9012 2.79206Z" fill="black"/>
</svg>
