<svg width="24" height="24" viewBox="0 0 24 24" fill="none" xmlns="http://www.w3.org/2000/svg">
<path d="M12.3587 2.79206C12.7499 2.4023 13.383 2.403 13.7728 2.79402L22.2682 11.3194C22.658 11.7105 22.6572 12.3436 22.2663 12.7335L13.766 21.2081C13.3749 21.598 12.7419 21.5972 12.3519 21.2061C11.962 20.815 11.9628 20.182 12.3538 19.7921L20.1461 12.0225L12.3558 4.20612C11.9662 3.81496 11.9677 3.18187 12.3587 2.79206Z" fill="black"/>
<path d="M3.35878 2.79206C3.74994 2.4023 4.38303 2.403 4.77289 2.79402L13.2683 11.3194C13.658 11.7105 13.6573 12.3436 13.2663 12.7335L4.76605 21.2081C4.37496 21.598 3.7419 21.5972 3.35194 21.2061C2.96202 20.815 2.96286 20.182 3.3539 19.7921L11.1462 12.0225L3.35585 4.20612C2.9662 3.81496 2.96779 3.18187 3.35878 2.79206Z" fill="black"/>
</svg>
