<svg width="24" height="24" viewBox="0 0 24 24" fill="none" xmlns="http://www.w3.org/2000/svg">
<path d="M17.8496 15.5156C18.2402 15.1256 18.8733 15.1253 19.2637 15.5156C19.6539 15.906 19.6537 16.5392 19.2637 16.9297L17.3184 18.875C17.1309 19.0624 16.8764 19.1679 16.6113 19.168C16.578 19.168 16.5446 19.1664 16.5117 19.1631C16.4465 19.1566 16.3824 19.1439 16.3203 19.125C16.1646 19.0776 16.0215 18.9921 15.9043 18.875L14.7373 17.708C14.6885 17.6592 14.645 17.6072 14.6084 17.5518C14.5352 17.4409 14.4863 17.3184 14.4619 17.1924C14.4375 17.0664 14.4376 16.9365 14.4619 16.8105C14.4924 16.6529 14.5612 16.5011 14.668 16.3701C14.6894 16.3439 14.7129 16.3184 14.7373 16.2939C15.1278 15.9037 15.7609 15.9036 16.1514 16.2939L16.6113 16.7539L17.8496 15.5156Z" fill="black"/>
<path fill-rule="evenodd" clip-rule="evenodd" d="M14.1719 2C14.9674 2 15.7306 2.31662 16.293 2.87891L19.1211 5.70703C19.6834 6.26935 20 7.03264 20 7.82812V12.1113L20.0908 12.1279C21.0456 12.3375 21.7764 13.1244 21.9072 14.1055L22.0156 14.9229L22.5186 15.5801L22.6318 15.7412C22.9601 16.2547 23.0685 16.8662 22.957 17.4443C22.9347 17.5603 22.9033 17.6749 22.8633 17.7871C22.7834 18.0109 22.6687 18.2255 22.5186 18.4219C22.3541 18.637 22.1892 18.8521 22.0635 19.0166C22.047 19.0382 22.0306 19.0585 22.0156 19.0781L21.9062 19.8984C21.8713 20.1605 21.793 20.4082 21.6797 20.6348C21.5947 20.8048 21.4902 20.9633 21.3682 21.1064C21.0024 21.5354 20.4839 21.8297 19.8955 21.9082L19.0762 22.0166L18.4209 22.5195C18.0771 22.7824 17.6781 22.937 17.2695 22.9844C17.1528 22.9979 17.0353 23.0031 16.918 22.999C16.5074 22.9848 16.0998 22.8627 15.7402 22.6328L15.5791 22.5195L14.9219 22.0166L14.7969 22H7C5.34272 22 4 20.6573 4 19V5C4 3.34272 5.34272 2 7 2H14.1719ZM17.1074 13.0176C17.0029 12.9828 16.885 13.0009 16.7939 13.0703L16.793 13.0713L15.9248 13.7344C15.7905 13.8371 15.6289 13.9078 15.4502 13.9316L14.3682 14.0752C14.2147 14.0958 14.0955 14.2158 14.0752 14.3672L13.9307 15.4521C13.9049 15.6442 13.8247 15.8164 13.709 15.9561L13.7119 15.9541L13.7168 15.9482C13.7077 15.9601 13.6939 15.9783 13.6758 16.002C13.6395 16.0494 13.5869 16.1175 13.5244 16.1992C13.4002 16.3617 13.2328 16.5812 13.0693 16.7949C12.9772 16.9157 12.9761 17.0841 13.0693 17.207L13.7334 18.0762L13.8057 18.1846C13.8703 18.297 13.9134 18.4214 13.9307 18.5508L14.0742 19.6318C14.0948 19.7852 14.2148 19.9045 14.3662 19.9248L14.959 20.0039C14.9758 20.0054 14.9923 20.0084 15.0088 20.0107L15.4512 20.0703L15.5781 20.0957C15.7035 20.1295 15.822 20.1872 15.9258 20.2666L16.7939 20.9307C16.9154 21.0232 17.0847 21.0234 17.2061 20.9307L18.0752 20.2666C18.2094 20.1641 18.3712 20.0941 18.5498 20.0703L19.6309 19.9258C19.7843 19.9052 19.9035 19.7852 19.9238 19.6338L20.0693 18.5498C20.0949 18.3585 20.1732 18.1863 20.2881 18.0469C20.2825 18.0536 20.2773 18.0605 20.2773 18.0605L20.2832 18.0527C20.2923 18.0409 20.3062 18.0226 20.3242 17.999C20.3605 17.9516 20.4122 17.8833 20.4746 17.8018C20.5988 17.6394 20.7663 17.4207 20.9297 17.207C20.9646 17.1614 20.9865 17.1088 20.9951 17.0547C21.0008 17.0188 21.0009 16.9821 20.9951 16.9463C20.9864 16.8925 20.9643 16.8404 20.9297 16.7949L20.2656 15.9258C20.1598 15.7873 20.0924 15.6229 20.0693 15.4502L19.9248 14.3691C19.9068 14.2351 19.8129 14.1274 19.6885 14.0889L19.6328 14.0762L18.5488 13.9316C18.3761 13.9085 18.2116 13.8402 18.0732 13.7344L17.2061 13.0703C17.1757 13.0471 17.1422 13.0292 17.1074 13.0176ZM7 4C6.44728 4 6 4.44728 6 5V19C6 19.5527 6.44728 20 7 20H12.1104C12.1042 19.9656 12.0965 19.9314 12.0918 19.8965L11.9834 19.0781L11.4805 18.4209C11.4658 18.4016 11.4525 18.3809 11.4385 18.3613C11.2999 18.1677 11.1928 17.9591 11.1201 17.7412C10.8797 17.0208 10.9996 16.2093 11.4805 15.5801C11.645 15.3649 11.8098 15.1489 11.9355 14.9844C11.9524 14.9624 11.9691 14.9418 11.9844 14.9219L12.0928 14.1025C12.2328 13.0543 13.0583 12.2323 14.1045 12.0928L14.9199 11.9854L15.5791 11.4814L15.7402 11.3691C16.4233 10.9323 17.279 10.8845 18 11.2256V9H15C13.8957 9 13 8.10428 13 7V4H7ZM20.5781 17.8057C20.5738 17.8083 20.5698 17.8117 20.5654 17.8145C20.5707 17.8114 20.5757 17.8076 20.5811 17.8047L20.5781 17.8057ZM13.6094 16.0586C13.6134 16.0553 13.6174 16.0532 13.6201 16.0508C13.6253 16.0459 13.63 16.0408 13.6348 16.0361C13.6266 16.044 13.6178 16.051 13.6094 16.0586ZM13.6562 16.0137C13.6718 15.9977 13.6835 15.9876 13.6855 15.9854C13.6914 15.9788 13.696 15.9718 13.7002 15.9668C13.6863 15.9831 13.6712 15.9983 13.6562 16.0137ZM15 7H17.5859L15 4.41406V7Z" fill="black"/>
</svg>
