<svg width="24" height="24" viewBox="0 0 24 24" fill="none" xmlns="http://www.w3.org/2000/svg">
<path d="M20 22C20.5523 22 21 22.4477 21 23C21 23.5523 20.5523 24 20 24H4C3.44772 24 3 23.5523 3 23C3 22.4477 3.44772 22 4 22H20Z" fill="black"/>
<path d="M12 0C12.5523 0 13 0.447715 13 1V14.7402L16.9072 10.834C17.3536 10.3885 18.0774 10.388 18.5234 10.834C18.9696 11.2802 18.9694 12.0049 18.5234 12.4512L12.8076 18.166C12.5934 18.3803 12.302 18.5009 11.999 18.501C11.6961 18.5009 11.4056 18.3802 11.1914 18.166L5.47656 12.4502C5.0307 12.0038 5.03132 11.2801 5.47754 10.834C5.92396 10.3885 6.64773 10.3889 7.09375 10.835L11 14.7412V1C11 0.447715 11.4477 0 12 0Z" fill="black"/>
</svg>
