<svg width="24" height="24" viewBox="0 0 24 24" fill="none" xmlns="http://www.w3.org/2000/svg">
<path d="M10 4C10.5523 4 11 4.44772 11 5C11 5.55228 10.5523 6 10 6H5C4.44728 6 4 6.44728 4 7V19C4 19.5527 4.44728 20 5 20H17C17.5527 20 18 19.5527 18 19V14C18 13.4477 18.4477 13 19 13C19.5523 13 20 13.4477 20 14V19C20 20.6573 18.6573 22 17 22H5C3.34272 22 2 20.6573 2 19V7C2 5.34272 3.34272 4 5 4H10Z" fill="black"/>
<path d="M21 2C21.0602 2 21.1187 2.00572 21.1748 2.01562C21.1766 2.01594 21.1784 2.01653 21.1787 2.0166H21.1816C21.183 2.01689 21.1848 2.01721 21.1865 2.01758L21.1885 2.01855C21.1913 2.01892 21.1944 2.01799 21.1973 2.01855C21.2207 2.02326 21.2409 2.03079 21.248 2.0332C21.2504 2.03399 21.2521 2.03547 21.2539 2.03613C21.2849 2.04413 21.3334 2.05621 21.3818 2.07617C21.4503 2.10449 21.5139 2.13985 21.5723 2.18066C21.6166 2.21176 21.6644 2.24838 21.708 2.29199C21.7778 2.36182 21.8271 2.43824 21.8652 2.50488L21.9229 2.61719L21.9258 2.62305L21.9404 2.66406L21.9424 2.6709L21.9482 2.69043L21.9854 2.83691C21.9946 2.88846 22 2.94299 22 3V8C22 8.55228 21.5523 9 21 9C20.4478 8.99991 20 8.55229 20 8V5.41602L14.708 10.708C14.3175 11.0985 13.6825 11.0985 13.292 10.708C12.9015 10.3175 12.9015 9.68251 13.292 9.29199L18.584 4H16C15.4478 3.99991 15 3.55229 15 3C15 2.44771 15.4478 2.00009 16 2H21Z" fill="black"/>
</svg>
