<svg width="24" height="24" viewBox="0 0 24 24" fill="none" xmlns="http://www.w3.org/2000/svg">
<path d="M14.5498 14.6113C17.6117 14.6113 19.9409 17.071 19.9414 20.0029C19.9407 20.5153 19.551 20.9382 19.0518 20.9893L18.9502 20.9942C18.4033 20.994 17.9597 20.5506 17.959 20.0039C17.9584 18.1372 16.4875 16.5938 14.5498 16.5938H9.4502C7.58357 16.5939 6.04156 18.0653 6.04102 20.0029C6.04035 20.5153 5.65088 20.9384 5.15137 20.9893L5.0498 20.9942C4.5029 20.994 4.0593 20.5506 4.05859 20.0039C4.05915 16.9423 6.5181 14.6115 9.4502 14.6113H14.5498Z" fill="black"/>
<path fill-rule="evenodd" clip-rule="evenodd" d="M8.36328 4.4756C10.3829 2.57482 13.4508 2.51536 15.5361 4.29689L15.7354 4.4756L15.7568 4.49708C17.8335 6.57498 17.8666 9.92533 15.7354 11.9317C13.6925 13.8538 10.3532 14.0471 8.32129 11.8887C6.39946 9.84606 6.20559 6.50747 8.36328 4.4756ZM14.2246 5.80666C12.9112 4.6958 11.0044 4.73764 9.73535 5.93166C8.49347 7.10103 8.50269 9.16242 9.77734 10.5176C10.9466 11.7597 13.008 11.7502 14.3633 10.4756C15.6292 9.28405 15.6627 7.23959 14.3496 5.91798L14.2246 5.80666Z" fill="black"/>
</svg>
