<svg width="24" height="24" viewBox="0 0 24 24" fill="none" xmlns="http://www.w3.org/2000/svg">
<path d="M15 14.251C15.5519 14.2512 16 14.6987 16 15.251V15.2578L15.9951 15.3477L15.9941 15.3535C15.9459 15.8236 15.5727 16.1969 15.1025 16.2451L15.0967 16.2461L15.0068 16.251H9C8.4477 16.251 8.00035 15.8027 8 15.251C8 14.6987 8.44772 14.251 9 14.251H15Z" fill="black"/>
<path d="M15.4424 8.77539H15.4561C16.0849 8.83963 16.5791 9.37109 16.5791 10.0205C16.5791 10.6676 16.087 11.1993 15.457 11.2637L15.4512 11.2646L15.3359 11.2705H15.3291C14.6833 11.2705 14.152 10.7808 14.0859 10.1523L14.085 10.1465L14.084 10.1348L14.0791 10.0322V10.0137L14.085 9.89844V9.89258C14.1484 9.25916 14.6846 8.77051 15.3281 8.77051H15.3398L15.4424 8.77539Z" fill="black"/>
<path d="M8.75391 8.75488H8.76758C9.39608 8.81929 9.89039 9.35093 9.89062 10C9.89062 10.6471 9.39829 11.1786 8.76855 11.2432L8.7627 11.2441L8.64746 11.25H8.64062C7.99485 11.25 7.46352 10.7603 7.39746 10.1318L7.39648 10.126L7.39551 10.1143L7.39062 10.0117V9.99316L7.39648 9.87793V9.87207C7.46012 9.23889 7.99612 8.75 8.63965 8.75H8.65137L8.75391 8.75488Z" fill="black"/>
<path fill-rule="evenodd" clip-rule="evenodd" d="M12 2C17.5143 2 22 6.48572 22 12C22 17.5142 17.5154 22 12 22C6.48472 22 2 17.5153 2 12C2 6.48472 6.48472 2 12 2ZM12 4C7.58928 4 4 7.58928 4 12C4 16.4107 7.58928 20 12 20C16.4106 20 20 16.4098 20 12C20 7.59028 16.4097 4 12 4Z" fill="black"/>
</svg>
