<svg width="24" height="24" viewBox="0 0 24 24" fill="none" xmlns="http://www.w3.org/2000/svg">
<path d="M12.2217 13.6924H12.2246C13.411 13.7366 14.3659 14.103 15.0332 14.4668C15.3892 14.6609 15.6681 14.8566 15.8613 15.0078C15.9576 15.0831 16.0343 15.1496 16.0898 15.1992C16.1161 15.2227 16.14 15.2434 16.1572 15.2598C16.162 15.2643 16.1715 15.2732 16.1777 15.2793L16.1797 15.2803L16.1826 15.2832C16.1848 15.2851 16.1877 15.2873 16.1904 15.29L16.1924 15.292C16.5814 15.6822 16.5814 16.3168 16.1924 16.707L16.1914 16.709C15.8039 17.0949 15.1769 17.0976 14.7861 16.7168L14.7773 16.71C14.7742 16.707 14.7715 16.7032 14.7695 16.7012C14.7685 16.7001 14.7674 16.6981 14.7666 16.6973C14.7657 16.6964 14.7644 16.6961 14.7637 16.6953C14.7609 16.6924 14.7596 16.6901 14.7578 16.6885C14.7329 16.6662 14.6888 16.6299 14.6289 16.583C14.5081 16.4885 14.3219 16.3552 14.0771 16.2217C13.6477 15.9875 13.0483 15.7558 12.3096 15.7012L11.9814 15.6885C11.0942 15.6892 10.3832 15.9543 9.89258 16.2217C9.6478 16.3552 9.46101 16.4892 9.33984 16.584C9.27993 16.6309 9.23585 16.6672 9.21094 16.6895C9.20006 16.6992 9.19399 16.7047 9.18945 16.709L9.18848 16.7119C8.79745 17.0979 8.16524 17.0969 7.77637 16.708C7.38747 16.3176 7.38624 15.6823 7.77637 15.292L7.78418 15.2842C7.78501 15.2833 7.78629 15.283 7.78711 15.2822L7.78906 15.2803L7.7959 15.2744L7.80371 15.2686L7.80566 15.2666C7.80672 15.2655 7.80952 15.2626 7.8125 15.2598L7.81445 15.2578L7.87891 15.1992C7.93342 15.1506 8.01045 15.0837 8.10742 15.0078C8.30089 14.8565 8.58069 14.6608 8.93652 14.4668C9.64832 14.0789 10.6872 13.6886 11.9844 13.6885H11.9863L12.2217 13.6924Z" fill="black"/>
<path d="M8.58105 8.00488L8.58691 8.00586C9.09071 8.0575 9.48421 8.4825 9.48438 9V10C9.48438 10.5177 9.09072 10.9425 8.58691 10.9941L8.58105 10.9951L8.49121 11H8.48438C7.93242 10.9998 7.48438 10.5523 7.48438 10V9C7.48455 8.44797 7.93241 8.00022 8.48438 8H8.49121L8.58105 8.00488Z" fill="black"/>
<path d="M15.4854 8C16.0367 8.00062 16.4851 8.44808 16.4854 9V10C16.4854 10.5178 16.0913 10.9423 15.5879 10.9941L15.582 10.9951L15.4922 11H15.4854C14.9331 11 14.4854 10.5523 14.4854 10V9C14.4856 8.44811 14.9331 8 15.4854 8Z" fill="black"/>
<path fill-rule="evenodd" clip-rule="evenodd" d="M12 2C17.5143 2 22 6.48572 22 12C22 17.5142 17.5154 22 12 22C6.48472 22 2 17.5153 2 12C2 6.48472 6.48472 2 12 2ZM12 4C7.58928 4 4 7.58928 4 12C4 16.4107 7.58928 20 12 20C16.4106 20 20 16.4098 20 12C20 7.59028 16.4097 4 12 4Z" fill="black"/>
</svg>
