<svg width="24" height="24" viewBox="0 0 24 24" fill="none" xmlns="http://www.w3.org/2000/svg">
<path fill-rule="evenodd" clip-rule="evenodd" d="M14.9844 13C15.5363 13.0003 15.9841 13.4482 15.9844 14C15.9844 16.1498 14.3126 17.8885 12.1904 17.9951H12.1875L11.9873 18H11.9844C9.76534 17.9998 7.98438 16.2192 7.98438 14C7.98468 13.4482 8.43254 13.0003 8.98438 13H14.9844ZM10.2529 15C10.5949 15.5983 11.2344 15.9978 11.9814 15.999L12.1475 15.9932L12.2861 15.9775C12.9034 15.886 13.4214 15.5172 13.7168 15H10.2529Z" fill="black"/>
<path d="M8.58105 8.00488L8.58691 8.00586C9.09071 8.0575 9.48421 8.4825 9.48438 9V10C9.48438 10.5177 9.09072 10.9425 8.58691 10.9941L8.58105 10.9951L8.49121 11H8.48438C7.93242 10.9998 7.48438 10.5523 7.48438 10V9C7.48455 8.44797 7.93241 8.00022 8.48438 8H8.49121L8.58105 8.00488Z" fill="black"/>
<path d="M15.4854 8C16.0367 8.00062 16.4851 8.44808 16.4854 9V10C16.4854 10.5178 16.0913 10.9423 15.5879 10.9941L15.582 10.9951L15.4922 11H15.4854C14.9331 11 14.4854 10.5523 14.4854 10V9C14.4856 8.44811 14.9331 8 15.4854 8Z" fill="black"/>
<path fill-rule="evenodd" clip-rule="evenodd" d="M12 2C17.5143 2 22 6.48572 22 12C22 17.5142 17.5154 22 12 22C6.48472 22 2 17.5153 2 12C2 6.48472 6.48472 2 12 2ZM12 4C7.58928 4 4 7.58928 4 12C4 16.4107 7.58928 20 12 20C16.4106 20 20 16.4098 20 12C20 7.59028 16.4097 4 12 4Z" fill="black"/>
</svg>
