<svg width="24" height="24" viewBox="0 0 24 24" fill="none" xmlns="http://www.w3.org/2000/svg">
<path fill-rule="evenodd" clip-rule="evenodd" d="M14.8203 2.00488H14.8262L15.0107 2.01855C15.9311 2.10701 16.7986 2.51152 17.458 3.1709L19.8291 5.54199C20.5792 6.29216 21 7.31131 21 8.37207V18C21 20.14 19.3193 21.8878 17.2061 21.9951L17 22H11.5C10.9477 22 10.5 21.5523 10.5 21C10.5 20.4477 10.9477 20 11.5 20H17L17.2041 19.9893C18.2127 19.8869 19 19.0356 19 18V9.5H16.5C14.8431 9.5 13.5 8.15685 13.5 6.5V4H7C5.89543 4 5 4.89543 5 6V9C5 9.51763 4.60655 9.94368 4.10254 9.99512L4 10C3.44772 10 3 9.55228 3 9V6C3 3.79086 4.79086 2 7 2H14.6338L14.8203 2.00488ZM15.5 6.5C15.5 7.05228 15.9477 7.5 16.5 7.5H18.7959C18.6999 7.3005 18.5719 7.11687 18.4131 6.95801L16.042 4.58691C15.8826 4.42748 15.6991 4.29776 15.5 4.20117V6.5Z" fill="black"/>
<path d="M8.75586 9.5127C10.016 9.64101 11 10.7062 11 12V16.5C11 18.6401 9.31946 20.3878 7.20605 20.4951L7 20.5C4.79072 20.5 3 18.7093 3 16.5V13.5C3 12.9477 3.44772 12.5 4 12.5L4.10254 12.5049C4.60655 12.5563 5 12.9824 5 13.5V16.5C5 17.6047 5.89528 18.5 7 18.5L7.2041 18.4893C8.21282 18.3869 9 17.5357 9 16.5V12C9 11.7588 8.82827 11.5565 8.60059 11.5098L8.5 11.5C8.22428 11.5 8 11.7243 8 12V15.5C8 16.0176 7.60655 16.4437 7.10254 16.4951L7 16.5C6.44772 16.5 6 16.0523 6 15.5V12C6 10.6197 7.11972 9.5 8.5 9.5L8.75586 9.5127Z" fill="black"/>
</svg>
