<svg width="24" height="24" viewBox="0 0 24 24" fill="none" xmlns="http://www.w3.org/2000/svg">
<path fill-rule="evenodd" clip-rule="evenodd" d="M9.47754 2.99805L9.70801 3.01172L9.71582 3.0127C10.2731 3.08093 10.7793 3.38205 11.1064 3.84668L11.1211 3.86523L11.127 3.87207L12.5225 5.93066C12.5242 5.93283 12.5265 5.93483 12.5283 5.9375C12.5348 5.93759 12.5408 5.93818 12.5449 5.93848H19.0029C20.6599 5.93885 22.0039 7.28232 22.0039 8.93945V18.0088L21.9893 18.3027V18.3096C21.8456 19.7217 20.7217 20.8445 19.3096 20.9883L19.3027 20.9893L19.0088 21.0039H4.99707C3.44356 21.0038 2.16569 19.8226 2.01172 18.3096L2.01074 18.3037L1.99512 18.0098V5.99805C1.99512 4.34074 3.33996 2.99721 4.99707 2.99707L9.47754 2.99805ZM12.5225 7.93945L11.124 10.0029L11.123 10.0049C10.7972 10.4829 10.2819 10.7928 9.71582 10.8633L9.70801 10.8643L9.47754 10.8789H3.99609V17.9961L4.00195 18.1113C4.05621 18.6128 4.48134 19.0038 4.99707 19.0039H18.9961L19.1113 18.998C19.577 18.9476 19.9477 18.577 19.998 18.1113L20.0039 18.0029V8.93945C20.0039 8.42371 19.6129 7.99863 19.1113 7.94434L18.9961 7.93848H12.5293C12.5272 7.93848 12.5234 7.9375 12.5234 7.9375L12.5225 7.93945ZM4.99707 4.99707C4.44438 4.9972 3.99609 5.44545 3.99609 5.99805V8.87891H9.45117L9.47168 8.875L10.7871 6.93457L9.47949 5.00781L9.4707 5L9.45703 4.99707H4.99707Z" fill="black"/>
</svg>
