<svg width="24" height="24" viewBox="0 0 24 24" fill="none" xmlns="http://www.w3.org/2000/svg">
<path d="M10 2.08398C10.5523 2.08398 11 2.5317 11 3.08398V7.5459C11 9.09306 10.3626 10.496 9.3291 11.4229C9.09477 11.6331 9.00007 11.8594 9 12.0518V19.5C8.99999 20.8803 7.88028 22 6.5 22C5.11972 22 4.00001 20.8803 4 19.5V12.0518C3.99993 11.8594 3.90523 11.6331 3.6709 11.4229C2.6789 10.5332 2.05364 9.20486 2.00488 7.73145C2.00191 7.70001 2 7.66795 2 7.63574V3.08398C2 2.5317 2.44772 2.08398 3 2.08398C3.55228 2.08398 4 2.5317 4 3.08398V7.5459C4 8.54671 4.41234 9.40044 5.00684 9.93359C5.56831 10.4373 5.99993 11.1743 6 12.0518V19.5C6.00001 19.7757 6.22429 20 6.5 20C6.77571 20 6.99999 19.7757 7 19.5V12.0518C7.00007 11.1743 7.43169 10.4373 7.99316 9.93359C8.58766 9.40044 9 8.54671 9 7.5459V3.08398C9 2.5317 9.44772 2.08398 10 2.08398Z" fill="black"/>
<path fill-rule="evenodd" clip-rule="evenodd" d="M19 2.05176C20.1042 2.05176 20.9999 2.94759 21 4.05176V19.5C20.9999 20.8802 19.8802 22 18.5 22C17.1198 22 16.0001 20.8802 16 19.5V15.499C14.8112 14.8115 14 13.5354 14 12.0518V6.05176C14.0001 3.84259 15.7908 2.05176 18 2.05176H19ZM18 4.05176C16.8954 4.05176 16.0001 4.94715 16 6.05176V12.0518C16 12.9126 16.5518 13.6476 17.335 13.9258C17.7335 14.0675 17.9999 14.4451 18 14.8682V19.5C18.0001 19.7756 18.2244 20 18.5 20C18.7756 20 18.9999 19.7756 19 19.5V4.05176H18Z" fill="black"/>
<path d="M6.5 2C7.05228 2 7.5 2.44772 7.5 3V8C7.5 8.55228 7.05228 9 6.5 9C5.94772 9 5.5 8.55228 5.5 8V3C5.5 2.44772 5.94772 2 6.5 2Z" fill="black"/>
</svg>
