<svg width="24" height="24" viewBox="0 0 24 24" fill="none" xmlns="http://www.w3.org/2000/svg">
<path fill-rule="evenodd" clip-rule="evenodd" d="M14.8506 4.71506C15.2066 4.19534 15.8226 3.93082 16.4326 4.01194H16.4365L16.5488 4.03049L16.5527 4.03147L16.5576 4.03245L16.5645 4.0344L16.666 4.06174L16.667 4.06077L16.6768 4.06272L16.6924 4.06663L16.7998 4.10276L16.8066 4.10569L16.8096 4.10667L16.9238 4.15549C17.443 4.40201 17.801 4.90597 17.8594 5.48362L17.8672 5.60862C17.8671 5.61189 17.8654 5.61636 17.8652 5.61936C17.8656 5.622 17.8671 5.62524 17.8672 5.62815V9.30589H20.8535C21.2547 9.3023 21.6368 9.44531 21.9326 9.69846L22.0547 9.81467L22.0596 9.81956L22.1748 9.95628L22.1855 9.97092L22.1895 9.97776L22.293 10.1399L22.2979 10.1477L22.3057 10.1623L22.3086 10.1692L22.3867 10.3391L22.3965 10.3586L22.4541 10.5451C22.5618 10.9807 22.4853 11.4483 22.2334 11.8332C22.231 11.8385 22.2298 11.845 22.2266 11.8498L22.2227 11.8557L22.2217 11.8567L17.1533 19.2824C16.7487 19.8738 16.0076 20.1369 15.3203 19.9338C14.6332 19.7304 14.1547 19.1071 14.1367 18.3908V14.6916H11.1514C10.5504 14.6968 9.99373 14.3701 9.7041 13.842C9.4116 13.3073 9.44073 12.6522 9.78027 12.1457L9.78516 12.1379L9.78613 12.136L14.8496 4.71702L14.8506 4.71506ZM11.8291 12.6916H15.1367C15.6882 12.692 16.1358 13.1395 16.1367 13.6907V17.2209L20.1738 11.3059H16.8672C16.3154 11.3057 15.868 10.8572 15.8672 10.3059V6.77464L11.8291 12.6916Z" fill="black"/>
<path d="M9.5 17.0032C10.0518 17.0035 10.4996 17.4513 10.5 18.0032C10.4992 18.5546 10.0515 19.0028 9.5 19.0032H4.24805C3.69625 19.003 3.24881 18.5545 3.24805 18.0032C3.2484 17.4514 3.69604 17.0033 4.24805 17.0032H9.5Z" fill="black"/>
<path d="M6.87402 11.5002C7.42583 11.5004 7.87312 11.9481 7.87402 12.4992V12.5071L7.86914 12.5959L7.86816 12.6018C7.81664 13.1057 7.39154 13.5001 6.87402 13.5002H2.49707C1.97952 13.5 1.55442 13.1057 1.50293 12.6018L1.50195 12.5959L1.49707 12.5071V12.4992L1.50195 12.3977C1.55361 11.8941 1.97952 11.5004 2.49707 11.5002H6.87402Z" fill="black"/>
<path d="M9.5 5.99827C10.0518 5.99858 10.4996 6.44648 10.5 6.99827V7.0051L10.4951 7.09397L10.4941 7.09983C10.4426 7.60376 10.0173 7.99798 9.5 7.99827H4.24805C3.69629 7.99808 3.24864 7.54994 3.24805 6.99827C3.24843 6.44655 3.69603 5.99846 4.24805 5.99827H9.5Z" fill="black"/>
</svg>
