<svg width="24" height="24" viewBox="0 0 24 24" fill="none" xmlns="http://www.w3.org/2000/svg">
<path d="M14.625 15.5C15.1773 15.5 15.625 15.9477 15.625 16.5C15.625 17.0523 15.1773 17.5 14.625 17.5H9.375C8.82272 17.5 8.375 17.0523 8.375 16.5C8.375 15.9477 8.82272 15.5 9.375 15.5H14.625Z" fill="black"/>
<path d="M17.625 11C18.1773 11 18.625 11.4477 18.625 12C18.625 12.5523 18.1773 13 17.625 13H6.375C5.82272 13 5.375 12.5523 5.375 12C5.375 11.4477 5.82272 11 6.375 11H17.625Z" fill="black"/>
<path d="M21 6.5C21.5523 6.5 22 6.94772 22 7.5C22 8.05228 21.5523 8.5 21 8.5H3C2.44772 8.5 2 8.05228 2 7.5C2 6.94772 2.44772 6.5 3 6.5H21Z" fill="black"/>
</svg>
