<svg width="24" height="24" viewBox="0 0 24 24" fill="none" xmlns="http://www.w3.org/2000/svg">
<path fill-rule="evenodd" clip-rule="evenodd" d="M8.78125 2.00586H8.7832C10.1851 2.06319 11.3581 2.53527 12.3672 2.93359C13.4783 3.37219 14.4037 3.72532 15.499 3.72559L15.9355 3.71875C16.9057 3.6845 17.5418 3.54069 17.9199 3.41504C18.1353 3.34342 18.2698 3.27598 18.3379 3.23828L18.3867 3.20703C18.4009 3.19647 18.4195 3.18533 18.4248 3.18164C18.4272 3.17996 18.4295 3.17808 18.4316 3.17676C18.4353 3.17375 18.4416 3.17045 18.4482 3.16602C18.4934 3.13614 18.5408 3.11425 18.5693 3.10059C18.6003 3.08574 18.6317 3.07279 18.6631 3.06152C18.6925 3.05098 18.7269 3.03942 18.7646 3.03027C18.8357 3.0131 18.9149 3.00003 19 3L19.0762 3.00293C19.0863 3.00326 19.0988 3.00482 19.1084 3.00586C19.1595 3.01142 19.2082 3.02422 19.2334 3.03027C19.2698 3.03902 19.3067 3.04977 19.3418 3.0625L19.4209 3.09473L19.4277 3.09766L19.5137 3.14551L19.5195 3.14844C19.528 3.15355 19.5582 3.17065 19.583 3.18848C19.6472 3.2346 19.7109 3.29118 19.7686 3.36035C19.827 3.43075 19.8699 3.50524 19.9014 3.57129C19.9159 3.60193 19.9267 3.63207 19.9355 3.65625C19.9477 3.68927 19.9587 3.72396 19.9678 3.76074C19.9844 3.82862 20 3.9105 20 4V14.0273L19.9932 14.1309L19.9873 14.1719C19.9861 14.1781 19.9851 14.1826 19.9844 14.1855C19.984 14.1872 19.9834 14.1867 19.9834 14.1865L19.9648 14.2686C19.9593 14.2905 19.9494 14.336 19.9326 14.3799L19.9297 14.3877L19.9277 14.3867L19.9014 14.4463V14.4482C19.866 14.5232 19.817 14.6028 19.751 14.6787C19.7509 14.6788 19.7506 14.6796 19.75 14.6807L19.751 14.6816L19.749 14.6846L19.748 14.6836C19.7476 14.6843 19.7467 14.6847 19.7461 14.6855L19.7471 14.6865L19.7412 14.6934L19.7314 14.707L19.7012 14.7373L19.7002 14.7363C19.683 14.7537 19.6614 14.7762 19.6348 14.8008C19.5815 14.8497 19.5088 14.9116 19.4189 14.9785C19.2384 15.1128 18.9827 15.2725 18.6416 15.4248C17.9546 15.7315 16.9389 16 15.5 16C13.9714 15.9999 12.7093 15.4923 11.6328 15.0674C10.5211 14.6286 9.59572 14.2734 8.5 14.2734C7.28013 14.2735 6.51213 14.4414 6.08008 14.585C6.05187 14.5943 6.0258 14.6053 6 14.6152V21.0068L5.99512 21.0967L5.99414 21.1025C5.94254 21.6064 5.51774 22 5 22C4.48242 21.9999 4.05744 21.6063 4.00586 21.1025L4.00488 21.0967L4 21.0068V3.92969C4.00003 3.87496 4.0047 3.82316 4.01172 3.77734C4.01199 3.77544 4.01248 3.77371 4.0127 3.77246C4.0131 3.77012 4.01344 3.76775 4.01367 3.7666L4.01465 3.76465L4.01562 3.75488L4.04102 3.65625L4.04199 3.65137C4.04451 3.64274 4.05587 3.60077 4.06934 3.56641C4.08701 3.52129 4.10891 3.48189 4.12402 3.4541C4.12949 3.44411 4.14573 3.41175 4.16406 3.38379L4.18555 3.35059L4.18945 3.3457L4.20312 3.32715L4.20605 3.32324L4.20996 3.31836L4.21191 3.31543L4.26172 3.25684L4.26855 3.24902L4.27051 3.24609L4.28223 3.2334L4.30957 3.20703L4.31348 3.20312L4.38379 3.14062C4.43765 3.09339 4.50881 3.03549 4.59863 2.97168C4.77928 2.84341 5.03402 2.69079 5.37402 2.5459C6.05707 2.25497 7.06729 2.00003 8.5 2H8.50293L8.78125 2.00586ZM8.07422 4.00977C7.12854 4.05265 6.51658 4.23362 6.15723 4.38672C6.09867 4.41169 6.04689 4.43797 6 4.46191V12.5342C6.62251 12.3856 7.44132 12.2735 8.5 12.2734C10.0288 12.2734 11.2908 12.7821 12.3672 13.207C13.4786 13.6457 14.4043 13.9999 15.5 14C16.6852 14 17.4204 13.7802 17.8271 13.5986C17.8922 13.5695 17.9489 13.5386 18 13.5098V5.45996C17.4696 5.58727 16.7971 5.69298 15.9531 5.71973H15.9512L15.502 5.72656H15.5C13.9713 5.72651 12.7093 5.21889 11.6328 4.79395C10.5212 4.35513 9.5957 4.00001 8.5 4L8.07422 4.00977ZM18.4375 3.1748L18.4473 3.16992H18.4453C18.4432 3.17094 18.4405 3.17303 18.4375 3.1748Z" fill="black"/>
</svg>
