<svg width="24" height="24" viewBox="0 0 24 24" fill="none" xmlns="http://www.w3.org/2000/svg">
<path d="M7.79297 14.9795C8.18257 14.5911 8.81374 14.5906 9.2041 14.9775L9.21191 14.9844L9.22656 14.999C9.25136 15.0212 9.29525 15.0574 9.35547 15.1045C9.47618 15.199 9.66235 15.3322 9.90723 15.4658C10.3982 15.7335 11.1103 15.999 12 15.999C12.8891 15.999 13.6005 15.7336 14.0918 15.4658C14.3373 15.332 14.5238 15.1989 14.6445 15.1045C14.7046 15.0575 14.7484 15.0214 14.7734 14.999L14.7969 14.9756L14.8008 14.9727L14.8086 14.9658L14.8965 14.8916C15.288 14.594 15.8482 14.6228 16.2061 14.9795L16.208 14.9805C16.5955 15.3693 16.5965 15.9981 16.2119 16.3887C16.2099 16.391 16.2092 16.3943 16.207 16.3965L16.1973 16.4062C16.1955 16.4081 16.1923 16.4085 16.1904 16.4102C16.1843 16.416 16.1773 16.4236 16.1719 16.4287C16.1547 16.4449 16.131 16.4656 16.1045 16.4893C16.0499 16.538 15.9741 16.6047 15.877 16.6807C15.6831 16.8323 15.4036 17.0268 15.0479 17.2207C14.336 17.6087 13.2977 17.999 12 17.999C10.7018 17.999 9.66309 17.6089 8.95117 17.2207C8.59559 17.0268 8.31666 16.8321 8.12305 16.6807C8.0257 16.6045 7.94906 16.537 7.89453 16.4883C7.87808 16.4736 7.85774 16.4558 7.84082 16.4404L7.82129 16.4248L7.79297 16.3965C7.79068 16.3942 7.78921 16.3911 7.78711 16.3887C7.40287 15.9979 7.40434 15.3682 7.79297 14.9795Z" fill="black"/>
<path d="M8.75391 8.50488H8.76758C9.39643 8.56912 9.89062 9.10059 9.89062 9.75C9.89062 10.3971 9.39856 10.9288 8.76855 10.9932L8.7627 10.9941L8.64746 11H8.64062C7.9949 11 7.46352 10.5103 7.39746 9.88184L7.39648 9.87598L7.39551 9.86426L7.39062 9.76172V9.74316L7.39648 9.62793V9.62207C7.45997 8.98866 7.99616 8.50004 8.63965 8.5H8.65137L8.75391 8.50488Z" fill="black"/>
<path d="M15.4424 8.50488H15.4561C16.0852 8.56897 16.5791 9.10058 16.5791 9.75V9.75684L16.5732 9.87207V9.87793C16.509 10.5081 15.9762 11 15.3291 11C14.6834 11 14.152 10.5103 14.0859 9.88184L14.085 9.87598L14.084 9.86426L14.0791 9.76172V9.74316L14.085 9.62793V9.62207C14.1484 8.98866 14.6846 8.50004 15.3281 8.5H15.3398L15.4424 8.50488Z" fill="black"/>
<path fill-rule="evenodd" clip-rule="evenodd" d="M12 2C17.5143 2 22 6.48572 22 12C22 17.5142 17.5154 22 12 22C6.48472 22 2 17.5153 2 12C2 6.48472 6.48472 2 12 2ZM12 4C7.58928 4 4 7.58928 4 12C4 16.4107 7.58928 20 12 20C16.4106 20 20 16.4098 20 12C20 7.59028 16.4097 4 12 4Z" fill="black"/>
</svg>
