<svg width="24" height="24" viewBox="0 0 24 24" fill="none" xmlns="http://www.w3.org/2000/svg">
<path fill-rule="evenodd" clip-rule="evenodd" d="M13.1151 12.0211C13.2914 12.0325 13.4636 12.0907 13.6103 12.1891L16.5575 14.1696C16.9741 14.4499 17.1187 14.9973 16.8944 15.4469L15.8944 17.4469C15.7252 17.7848 15.3786 18.0004 14.9999 18.0006H11.9999C11.6659 18.0004 11.3532 17.8327 11.1679 17.5553L9.16788 14.5553C8.9035 14.1583 8.95624 13.6275 9.29386 13.2907L10.4032 12.1862L10.412 12.1774L10.4716 12.1247L10.4755 12.1208L10.4872 12.111L10.5526 12.0631L10.5575 12.0602C10.7378 11.9415 10.9547 11.8834 11.1728 11.8971L13.1151 12.0211ZM11.286 14.1276L12.5351 16.0006H14.3808L14.7108 15.3375L12.7167 13.9967L11.495 13.9196L11.286 14.1276Z" fill="black"/>
<path fill-rule="evenodd" clip-rule="evenodd" d="M2.03897 12.8991C1.5054 6.75447 6.4971 1.65781 12.6073 2.01724L12.8993 2.03872L13.3427 2.08755C17.9003 2.6975 21.5593 6.48665 21.9608 11.0993C22.5032 17.3426 17.3417 22.5028 11.0995 21.9606C6.33711 21.5462 2.45328 17.6614 2.03897 12.8991ZM13.9696 8.24282C13.8801 8.5998 13.601 8.87922 13.2441 8.96939L9.69229 9.86099L8.89347 11.4499C8.76011 11.7141 8.51488 11.9058 8.22745 11.9733C7.97625 12.0319 7.71187 11.9919 7.49112 11.862L7.39932 11.8004L4.38761 9.5397C4.06927 10.5298 3.93382 11.6053 4.03116 12.7262C4.3614 16.5207 7.47793 19.6371 11.2724 19.9674C16.2769 20.4021 20.4025 16.2776 19.9677 11.2721C19.7032 8.23549 17.651 5.63227 14.8925 4.54556L13.9696 8.24282ZM12.7255 4.03091C9.58528 3.75837 6.79419 5.28208 5.25577 7.69009L7.64249 9.48208L8.11124 8.55532L8.16593 8.46157C8.30281 8.25072 8.51493 8.09677 8.76065 8.03481L12.1728 7.17446L12.9521 4.0563C12.8767 4.04705 12.8008 4.03748 12.7255 4.03091Z" fill="black"/>
</svg>
