<svg width="24" height="24" viewBox="0 0 24 24" fill="none" xmlns="http://www.w3.org/2000/svg">
<path fill-rule="evenodd" clip-rule="evenodd" d="M9.38351 9.38379C10.8284 7.93895 13.171 7.93915 14.6159 9.38379L14.7468 9.52148C16.0593 10.9739 16.0158 13.2164 14.6159 14.6162C13.171 16.061 10.8284 16.0609 9.38351 14.6162C7.93891 13.1713 7.93879 10.8286 9.38351 9.38379ZM13.073 10.6807C12.4053 10.1363 11.4199 10.1755 10.7976 10.7979C10.1339 11.4617 10.134 12.5383 10.7976 13.2021C11.4614 13.8658 12.538 13.8659 13.2019 13.2021C13.8243 12.5797 13.8628 11.5945 13.3181 10.9268L13.2019 10.7979L13.073 10.6807Z" fill="black"/>
<path fill-rule="evenodd" clip-rule="evenodd" d="M13.4089 2C14.2927 2.00003 15.0531 2.60903 15.2546 3.45605L15.2868 3.62891L15.4939 5.08203C15.7521 5.21272 15.9993 5.35802 16.2361 5.51367L17.6023 4.96484C18.476 4.61538 19.4797 4.95674 19.9529 5.77637L21.364 8.21875C21.8385 9.03865 21.6348 10.0808 20.8923 10.6631L20.8913 10.6641L19.7341 11.5674C19.7433 11.7084 19.7497 11.8531 19.7497 12C19.7497 12.1466 19.7432 12.2909 19.7341 12.4316L20.8913 13.3359C21.636 13.918 21.8389 14.9624 21.365 15.7812L21.364 15.7803L19.9529 18.2236C19.4797 19.0412 18.4781 19.3858 17.6032 19.0352L16.2361 18.4854C15.9993 18.641 15.7521 18.7863 15.4939 18.917L15.2859 20.3721C15.1521 21.3073 14.3504 22 13.4079 22H10.5915C9.64872 22 8.84599 21.3068 8.71262 20.3711L8.50363 18.915C8.24843 18.7843 8.00324 18.6397 7.7673 18.4844L6.39816 19.0352H6.39621C5.52212 19.3847 4.5195 19.043 4.0466 18.2227L2.63644 15.7803C2.16197 14.9604 2.3656 13.9191 3.10812 13.3369L3.1091 13.3359L4.26535 12.4316C4.2562 12.2909 4.24972 12.1465 4.24972 12C4.24972 11.8531 4.25617 11.7084 4.26535 11.5674L3.1091 10.6641C2.36424 10.082 2.16147 9.03767 2.63547 8.21875L4.04758 5.77637C4.52075 4.95686 5.52253 4.61544 6.39621 4.96484H6.39816L7.7673 5.51465C8.00058 5.36198 8.2462 5.21688 8.50363 5.08496L8.71457 3.62793C8.84838 2.6927 9.65004 2 10.5925 2H13.4089ZM10.4763 5.42676C10.3809 6.08936 9.94993 6.59322 9.43137 6.85742C9.23331 6.95813 9.03675 7.07379 8.84347 7.20117L8.84152 7.20215C8.34507 7.52783 7.68967 7.63958 7.07297 7.3916L5.7341 6.85352L4.41183 9.14258L5.92941 10.3301C6.20633 10.5467 6.349 10.8933 6.30539 11.2422C6.27196 11.5096 6.24972 11.7611 6.24972 12C6.24972 12.2389 6.27196 12.4904 6.30539 12.7578C6.349 13.1067 6.20633 13.4533 5.92941 13.6699L4.41183 14.8564L5.7341 17.1455L7.07394 16.6084L7.19015 16.5654C7.77208 16.3747 8.37881 16.4925 8.84543 16.8018C9.035 16.9276 9.23064 17.042 9.43039 17.1436C9.9519 17.4082 10.3812 17.9115 10.4763 18.5752L10.6804 20H13.3191L13.5232 18.5762L13.5446 18.4531C13.6726 17.8491 14.0841 17.3887 14.5759 17.1416L14.8679 16.9834C14.9643 16.9272 15.0596 16.8672 15.154 16.8047C15.6457 16.4795 16.303 16.3582 16.9275 16.6094L18.2653 17.1455L19.5876 14.8564L18.071 13.6699C17.794 13.4533 17.6514 13.1067 17.695 12.7578C17.7285 12.4904 17.7497 12.2389 17.7497 12C17.7497 11.7611 17.7285 11.5096 17.695 11.2422C17.6514 10.8933 17.794 10.5467 18.071 10.3301L19.5876 9.14258L18.2653 6.85352L16.9284 7.39062C16.3068 7.63974 15.6487 7.5225 15.154 7.19531C14.9656 7.07054 14.7724 6.95705 14.5759 6.8584C14.0842 6.6113 13.6726 6.15074 13.5446 5.54688L13.5232 5.42383L13.32 4H10.6814L10.4763 5.42676Z" fill="black"/>
</svg>
