<svg width="24" height="24" viewBox="0 0 24 24" fill="none" xmlns="http://www.w3.org/2000/svg">
<path fill-rule="evenodd" clip-rule="evenodd" d="M15.6465 1.25684H15.6533C16.4098 1.33375 17 1.97335 17 2.75V4.75C17 5.52665 16.4098 6.16528 15.6533 6.24219L15.6465 6.24316L15.5059 6.25H13V6.82422C15.8566 7.23526 18.2004 9.37974 18.8262 12.25H19C20.1045 12.2501 21 13.1455 21 14.25V20.75H22C22.5523 20.75 23 21.1977 23 21.75C23 22.3023 22.5523 22.75 22 22.75H2C1.44789 22.7498 1 22.3022 1 21.75C1 21.1978 1.44789 20.7502 2 20.75H3V14.25C3 13.1455 3.89557 12.2501 5 12.25H5.17383C5.79958 9.3798 8.14353 7.23535 11 6.82422V2.75C11 1.92163 11.6717 1.25014 12.5 1.25H15.5059L15.6465 1.25684ZM5 20.75H7V14.25H5V20.75ZM9 20.75H11V14.25H9V20.75ZM13 20.75H15V14.25H13V20.75ZM17 20.75H19V14.2529L18.9854 14.25H17V20.75ZM12 8.75C9.7961 8.75011 7.88133 10.1909 7.23828 12.25H16.7617C16.1186 10.1908 14.204 8.74999 12 8.75ZM13 4.25H15V3.25H13V4.25Z" fill="black"/>
</svg>
