<svg width="24" height="24" viewBox="0 0 24 24" fill="none" xmlns="http://www.w3.org/2000/svg">
<path fill-rule="evenodd" clip-rule="evenodd" d="M18.2919 4.29173C18.6821 3.90185 19.3155 3.90248 19.7059 4.29173C20.0964 4.68225 20.0964 5.31724 19.7059 5.70774L14.953 10.4577C14.9492 10.4629 14.9432 10.4705 14.9344 10.4792C14.9298 10.4838 14.9247 10.4886 14.9208 10.4919L10.4911 14.9216L10.4862 14.9275L10.4794 14.9353C10.4747 14.9398 10.4696 14.9436 10.4657 14.947L7.68249 17.7302C7.67372 17.7392 7.66473 17.7475 7.65808 17.7536C7.65441 17.757 7.65074 17.7602 7.64831 17.7624L5.70593 19.7068C5.31567 20.096 4.68235 20.098 4.29187 19.7077C3.90201 19.3174 3.90249 18.6841 4.29187 18.2937L5.47937 17.1033C4.1844 15.921 3.06483 14.4742 2.23718 12.9441C1.92068 12.3569 1.92055 11.6445 2.23718 11.0574L2.24011 11.0525L2.42956 10.7126L2.43151 10.7087C3.42437 8.97878 4.78349 7.37032 6.34558 6.16282C8.00636 4.8793 9.96496 4 11.9999 3.99974C13.7482 3.99994 15.4381 4.65292 16.9315 5.64915L18.2919 4.29173ZM11.9999 5.99974C10.5405 5.99999 9.00095 6.63761 7.56823 7.74485C6.14327 8.84639 4.88472 10.3656 3.99987 11.9997L4.16589 12.2966L4.45495 12.7771C5.13248 13.8535 5.96873 14.8533 6.8944 15.6863L8.44421 14.1374C7.48413 12.5426 7.68982 10.4412 9.0653 9.06517C10.4413 7.68937 12.5427 7.48403 14.1376 8.44407L15.4842 7.09739C14.332 6.39453 13.1423 5.99992 11.9999 5.99974ZM12.6346 9.947C11.8973 9.71989 11.0621 9.89748 10.4794 10.4802C9.8974 11.0628 9.72108 11.8966 9.94812 12.6335L12.6346 9.947Z" fill="black"/>
<path d="M18.4286 8.16087C18.8483 7.80242 19.4799 7.85173 19.8387 8.27122C20.4001 8.92843 20.9158 9.63365 21.3661 10.3708L21.3671 10.3728L21.5546 10.6882L21.5575 10.6921L21.7587 11.0525L21.7616 11.0564C22.0598 11.6092 22.07 12.2675 21.8094 12.8308C21.799 12.8573 21.7833 12.9011 21.7606 12.9431C20.754 14.8046 19.3195 16.5488 17.6532 17.8366C15.9923 19.1201 14.035 19.9996 11.9999 19.9997H11.9921L11.6376 19.99H11.6317C10.776 19.9454 9.93605 19.7474 9.13464 19.4372C8.62038 19.2376 8.36398 18.6585 8.56237 18.1443C8.76183 17.63 9.34166 17.3743 9.85632 17.573L10.1268 17.6716C10.7578 17.8869 11.3871 17.9997 11.9999 17.9997C13.4592 17.9996 14.9977 17.3618 16.4305 16.2546C17.7662 15.2222 18.9545 13.8224 19.827 12.3054L19.994 12.0066C19.995 12.0045 19.995 12.0018 19.996 11.9997C19.5349 11.1487 18.9644 10.3266 18.3182 9.57005C17.9607 9.15042 18.0096 8.51947 18.4286 8.16087Z" fill="black"/>
</svg>
