<svg width="24" height="24" viewBox="0 0 24 24" fill="none" xmlns="http://www.w3.org/2000/svg">
<path fill-rule="evenodd" clip-rule="evenodd" d="M16.0547 3.01074H16.0576C19.719 3.22469 21.9999 6.68698 22 9.76074V9.76367L21.9922 10.0693V10.0723C21.9168 11.6244 21.2888 13.0555 20.4443 14.2988C19.543 15.6257 18.3579 16.7967 17.2012 17.7598C16.0403 18.726 14.8774 19.5073 13.9961 20.0459C13.5548 20.3156 13.1773 20.5282 12.9023 20.6748C12.7654 20.7478 12.6483 20.8057 12.5586 20.8486C12.5156 20.8692 12.4681 20.8917 12.4238 20.9102C12.4063 20.9175 12.3712 20.9321 12.332 20.9453C12.318 20.95 12.2831 20.9617 12.2422 20.9717C12.2149 20.9783 12.1208 21.001 12 21.001C11.8799 21.001 11.7866 20.9785 11.7588 20.9717C11.7186 20.9619 11.6843 20.9508 11.668 20.9453C11.6288 20.9321 11.5937 20.9175 11.5762 20.9102C11.5319 20.8917 11.4844 20.8692 11.4414 20.8486C11.3517 20.8057 11.2346 20.7478 11.0977 20.6748C10.8226 20.5281 10.4458 20.3153 10.0049 20.0459C9.12368 19.5074 7.96059 18.7259 6.7998 17.7598C5.64312 16.7968 4.45793 15.6255 3.55664 14.2988C2.71226 13.0556 2.08334 11.6244 2.00781 10.0723V10.0693L2 9.76367V9.76074L2.00684 9.46191C2.1533 6.36754 4.55135 3.00012 8.2998 3C9.93191 3 11.1474 3.6193 12 4.32422C12.8526 3.6193 14.0681 3 15.7002 3H15.7041L16.0547 3.01074ZM15.6982 5.00098C14.2552 5.00162 13.3212 5.71206 12.7578 6.36523C12.5671 6.58582 12.2893 6.70996 12 6.70996C11.7107 6.70996 11.4329 6.58582 11.2422 6.36523C10.6786 5.71177 9.74399 5.00098 8.2998 5.00098L8.07031 5.00781C5.71449 5.14927 4.00012 7.45112 4 9.76074L4.00586 9.97559L4.02051 10.1758C4.11445 11.1806 4.54181 12.1885 5.21094 13.1738C5.97169 14.2938 7.00853 15.3309 8.08105 16.2236C9.14946 17.1128 10.2282 17.8384 11.0488 18.3398C11.4358 18.5763 11.7628 18.7607 11.999 18.8877C12.2356 18.7606 12.5643 18.5768 12.9521 18.3398C13.7729 17.8383 14.8515 17.1129 15.9199 16.2236C16.9923 15.331 18.0284 14.2937 18.7891 13.1738C19.5498 12.0536 19.999 10.9045 20 9.76367L19.9941 9.53809C19.8879 7.30494 18.2093 5.14472 15.9307 5.00781L15.6982 5.00098Z" fill="black"/>
</svg>
