<svg width="24" height="24" viewBox="0 0 24 24" fill="none" xmlns="http://www.w3.org/2000/svg">
<path fill-rule="evenodd" clip-rule="evenodd" d="M11.5889 2.09205C11.9063 1.94825 12.2803 1.97701 12.5733 2.18189L20.5508 7.76588L20.5723 7.78053L20.5733 7.7815L22.5733 9.18189L22.6543 9.24439C23.0116 9.5532 23.1043 10.0737 22.8741 10.4866L22.8203 10.5735C22.5039 11.025 21.8798 11.1357 21.4278 10.8206L21.4268 10.8196L21.001 10.5208V21.0012C21.0001 21.5524 20.5526 22.0009 20.001 22.0012H4.00101C3.44925 22.001 3.00192 21.5524 3.00101 21.0012V10.5188L2.57328 10.8196C2.12087 11.1353 1.49804 11.0242 1.18168 10.5735C0.865443 10.1214 0.975373 9.49874 1.42679 9.18189L3.43168 7.7776C3.43283 7.77676 3.4344 7.7755 3.43558 7.77467L3.4473 7.76685L11.4239 2.18385L11.4317 2.17799C11.4353 2.17526 11.4395 2.17249 11.4434 2.17017L11.544 2.11158L11.5469 2.10963L11.587 2.09205H11.5889ZM5.00101 9.11939V20.0012H8.00101V15.0012C8.00101 13.344 9.34384 12.0014 11.001 12.0012H13.001C14.658 12.0016 16.001 13.3441 16.001 15.0012V20.0012H19.001V9.12037L12 4.22096L5.00101 9.11939ZM11.001 14.0012C10.4484 14.0014 10.001 14.4486 10.001 15.0012V20.0012H14.001V15.0012C14.001 14.4488 13.5535 14.0016 13.001 14.0012H11.001Z" fill="black"/>
</svg>
