<svg width="24" height="24" viewBox="0 0 24 24" fill="none" xmlns="http://www.w3.org/2000/svg">
<path fill-rule="evenodd" clip-rule="evenodd" d="M18.1074 9.99958C19.1405 9.99958 20.1326 10.4099 20.8633 11.1402C21.5936 11.8709 22.0038 12.8632 22.0039 13.8961V13.899L21.999 14.107V14.109C21.904 16.3013 20.3562 18.1768 18.2002 18.6705L16.7422 19.0015C15.477 20.8139 13.3791 22.0035 11 22.0035H9C5.25357 22.0035 2.19358 19.0608 2.00586 15.3609V15.358L1.99707 15.0045V11.9927L2.00684 11.8013V11.7955C2.10945 10.787 2.96154 9.99982 3.99707 9.99958H18.1074ZM3.99707 14.9986L4.00391 15.2584L4.02246 15.5045C4.27507 18.0306 6.40721 20.0035 9 20.0035H11C13.7626 20.0035 16.0025 17.7639 16.0029 15.0015V12.0142L16 12.0006L15.9932 11.9996H3.99707V14.9986ZM18.0029 15.0035L17.998 15.275V15.2779C17.9787 15.7702 17.9033 16.2487 17.7871 16.7095C19.0856 16.3958 20.0037 15.2349 20.0039 13.8961C20.0038 13.3933 19.8034 12.9097 19.4482 12.5543C19.0927 12.1999 18.6093 11.9996 18.1074 11.9996H18.0029V15.0035Z" fill="black"/>
<path d="M5.88672 2.20564C6.28709 1.89534 6.86565 1.93297 7.22266 2.3072C8.2564 3.39355 8.25659 5.10084 7.22266 6.18708C6.92417 6.50105 6.92412 6.99523 7.22266 7.30915C7.6025 7.70893 7.58681 8.3425 7.1875 8.72321C6.78782 9.10277 6.15423 9.08763 5.77344 8.68806C4.73953 7.60186 4.7399 5.8945 5.77344 4.80817C6.07228 4.49413 6.07223 4.00009 5.77344 3.6861C5.39289 3.2859 5.41059 2.65244 5.80957 2.27204L5.81348 2.26814L5.88086 2.20954L5.88672 2.20564Z" fill="black"/>
<path d="M9.31152 2.27204C9.71124 1.89213 10.3438 1.90807 10.7246 2.3072C11.7581 3.39353 11.7585 5.10089 10.7246 6.18708C10.426 6.50099 10.426 6.99512 10.7246 7.30915C11.1041 7.70881 11.0886 8.34053 10.6895 8.72126C10.2899 9.10094 9.65627 9.08741 9.27539 8.68806C8.24146 7.60181 8.24164 5.89452 9.27539 4.80817C9.57411 4.49424 9.57407 4.00015 9.27539 3.6861C8.89485 3.28591 8.91217 2.6525 9.31152 2.27204Z" fill="black"/>
<path d="M12.8896 2.20564C13.29 1.89535 13.8686 1.93304 14.2256 2.3072C15.2593 3.39354 15.2595 5.10084 14.2256 6.18708C13.9271 6.50105 13.9271 6.99525 14.2256 7.30915C14.6054 7.70893 14.5897 8.3425 14.1904 8.72321C13.7908 9.10268 13.1572 9.08766 12.7764 8.68806C11.7425 7.60187 11.7429 5.89449 12.7764 4.80817C13.0752 4.49413 13.0752 4.00008 12.7764 3.6861C12.3959 3.28592 12.4136 2.65242 12.8125 2.27204L12.8164 2.26814L12.8838 2.20954L12.8896 2.20564Z" fill="black"/>
</svg>
