<svg width="24" height="24" viewBox="0 0 24 24" fill="none" xmlns="http://www.w3.org/2000/svg">
<path d="M14.5186 7.93462H14.5244L14.5352 7.9356L14.5479 7.93755L14.5576 7.93951C14.9225 7.97506 15.2189 8.15452 15.4131 8.34869C15.6276 8.56355 15.83 8.90606 15.8301 9.33111V9.33794L15.8223 9.47857L15.8213 9.48638C15.7794 9.8396 15.601 10.1253 15.4131 10.3135C15.2249 10.5016 14.9383 10.68 14.585 10.7217L14.4297 10.7315C14.0045 10.7315 13.6631 10.5281 13.4482 10.3135C13.2603 10.1254 13.0816 9.84107 13.0391 9.48931L13.0381 9.48247L13.0371 9.47271L13.0293 9.34673C13.0287 9.33641 13.0287 9.32531 13.0293 9.31548L13.0371 9.18951L13.0381 9.17974L13.0391 9.1729C13.0816 8.8209 13.2592 8.53584 13.4473 8.34771C13.6202 8.1752 13.8738 8.01338 14.1846 7.95513L14.1914 7.95415L14.3164 7.93755H14.3193C14.3514 7.93395 14.3894 7.93072 14.4297 7.93072H14.4414L14.5186 7.93462Z" fill="black"/>
<path fill-rule="evenodd" clip-rule="evenodd" d="M11.3213 3.42388C12.2509 2.49449 13.4881 2.38562 14.5801 2.79497C14.5906 2.79894 14.6061 2.80478 14.6221 2.81158L18.1182 4.30962C18.8567 4.6105 19.445 5.2003 19.7471 5.93755L21.249 9.43755L21.251 9.44244L21.2637 9.47369L21.2666 9.48052C21.7078 10.6583 21.3972 11.8319 20.6973 12.6719C20.6788 12.6941 20.6588 12.7172 20.6377 12.7383L17.7373 15.6387C16.8076 16.568 15.5704 16.6769 14.4785 16.2676C14.4679 16.2637 14.4524 16.2578 14.4365 16.251L12.957 15.6163L7.4375 21.1387C7.25007 21.3257 6.99416 21.4316 6.72949 21.4317H3.5293C3.01165 21.4317 2.58694 21.0378 2.53516 20.5342L2.53418 20.5284L2.5293 20.4385V17.2315C2.52938 16.9635 2.63764 16.7063 2.82812 16.5186L8.33008 11.1055L7.7168 9.74126C7.70971 9.72547 7.70062 9.7046 7.69238 9.68267C7.25382 8.51287 7.54672 7.19915 8.4209 6.32427L11.3213 3.42388ZM13.2158 4.58013C13.0401 4.61077 12.8817 4.69278 12.7412 4.83111C12.7396 4.83299 12.739 4.83609 12.7373 4.83794L9.83691 7.73833C9.51733 8.05817 9.40816 8.53525 9.55859 8.96001L10.4414 10.921C10.6126 11.3023 10.5282 11.7508 10.2305 12.044L4.5293 17.6475V19.4317H6.31348L12.0293 13.7159L12.0371 13.709L12.124 13.6368L12.1299 13.6319L12.1436 13.6211L12.2402 13.5596L12.2471 13.5557C12.5119 13.41 12.8346 13.389 13.1221 13.5118L15.1963 14.3995C15.4495 14.492 15.6631 14.5125 15.8418 14.4815C16.0199 14.4505 16.1792 14.3655 16.3213 14.2237L19.1777 11.3653C19.4572 11.0165 19.544 10.6083 19.3984 10.2012L17.9092 6.72466C17.9063 6.71786 17.9045 6.71155 17.9033 6.70806L17.9023 6.70708L17.9004 6.7022C17.802 6.45686 17.6028 6.2585 17.3574 6.16021C17.355 6.15921 17.3526 6.15727 17.3506 6.1563C17.347 6.15507 17.3416 6.15382 17.3359 6.15142L13.8574 4.66021C13.6068 4.56961 13.393 4.54931 13.2158 4.58013Z" fill="black"/>
</svg>
