<svg width="24" height="24" viewBox="0 0 24 24" fill="none" xmlns="http://www.w3.org/2000/svg">
<path d="M7.09082 12.454L7.21191 12.4598C7.80771 12.5203 8.26737 13.0221 8.27246 13.6259L8.26758 13.7489C8.21449 14.3209 7.75554 14.7623 7.19531 14.8114C7.16133 14.8149 7.12671 14.8173 7.0918 14.8173C7.05656 14.8172 7.0216 14.815 6.9873 14.8114C6.389 14.7586 5.90918 14.2599 5.90918 13.6356C5.90938 12.9826 6.43777 12.4541 7.09082 12.454Z" fill="black"/>
<path d="M17.0303 12.4598C17.626 12.5204 18.0857 13.0221 18.0908 13.6259L18.0859 13.7489C18.0329 14.3208 17.5738 14.7622 17.0137 14.8114C16.9797 14.8149 16.9451 14.8172 16.9102 14.8173C16.8749 14.8173 16.84 14.815 16.8057 14.8114C16.2072 14.7587 15.7275 14.26 15.7275 13.6356C15.7277 13.0233 16.1918 12.5212 16.7881 12.4608C16.8278 12.4568 16.8684 12.454 16.9092 12.454L17.0303 12.4598Z" fill="black"/>
<path d="M13.7705 12.6405C14.3226 12.6408 14.7705 13.0884 14.7705 13.6405C14.7702 14.1924 14.3224 14.6402 13.7705 14.6405H10.2305C10.196 14.6405 10.1615 14.638 10.1279 14.6346C9.62375 14.5835 9.23072 14.1581 9.23047 13.6405C9.23047 13.0882 9.67818 12.6405 10.2305 12.6405H13.7705Z" fill="black"/>
<path d="M7.21191 9.18738C7.80783 9.24783 8.26755 9.74945 8.27246 10.3534L8.26758 10.4764C8.2144 11.0483 7.75547 11.4899 7.19531 11.5389C7.16134 11.5424 7.12669 11.5448 7.0918 11.5448C7.05656 11.5448 7.0216 11.5425 6.9873 11.5389C6.38904 11.4861 5.90927 10.9874 5.90918 10.3632C5.90918 9.75084 6.37358 9.248 6.96973 9.18738C7.00953 9.18333 7.04994 9.18153 7.09082 9.18152L7.21191 9.18738Z" fill="black"/>
<path d="M10.4844 9.18738C11.0802 9.24795 11.54 9.74953 11.5449 10.3534L11.54 10.4764C11.4869 11.0483 11.0278 11.4898 10.4678 11.5389C10.4338 11.5424 10.3992 11.5448 10.3643 11.5448C10.3294 11.5448 10.2947 11.5424 10.2607 11.5389C9.65516 11.4867 9.18777 10.9822 9.18164 10.3729V10.3632C9.18164 9.74725 9.64996 9.2473 10.2432 9.18738C10.2826 9.18339 10.3228 9.18152 10.3633 9.18152L10.4844 9.18738Z" fill="black"/>
<path d="M13.7568 9.18738C14.3528 9.24783 14.8125 9.74945 14.8174 10.3534L14.8125 10.4764C14.7593 11.0483 14.3004 11.4899 13.7402 11.5389C13.7063 11.5424 13.6716 11.5448 13.6367 11.5448C13.6018 11.5448 13.5672 11.5424 13.5332 11.5389C12.9277 11.4866 12.4602 10.9821 12.4541 10.3729V10.3632C12.4541 9.74742 12.9226 9.24752 13.5156 9.18738C13.5551 9.18337 13.5952 9.18153 13.6357 9.18152L13.7568 9.18738Z" fill="black"/>
<path d="M17.0303 9.18738C17.6261 9.24795 18.0859 9.74953 18.0908 10.3534L18.0859 10.4764C18.0328 11.0483 17.5737 11.4898 17.0137 11.5389C16.9797 11.5424 16.9451 11.5448 16.9102 11.5448C16.8749 11.5448 16.84 11.5425 16.8057 11.5389C16.2073 11.4862 15.7276 10.9875 15.7275 10.3632C15.7275 9.75068 16.1917 9.24778 16.7881 9.18738C16.8278 9.18335 16.8684 9.18152 16.9092 9.18152L17.0303 9.18738Z" fill="black"/>
<path fill-rule="evenodd" clip-rule="evenodd" d="M18.8164 4.99988C20.7131 5.00008 22.5 6.36279 22.5 8.33093V15.6708C22.4982 17.6371 20.7128 18.9999 18.8145 18.9999H5.18359C3.28691 18.9997 1.5 17.637 1.5 15.6688V8.33093C1.5 6.36304 3.28547 5.00008 5.18359 4.99988H18.8164ZM5.18359 6.99988C4.11602 7.00007 3.5 7.72305 3.5 8.33093V15.6688C3.5 16.2765 4.11687 16.9997 5.18359 16.9999H18.8145C19.8818 16.9999 20.4989 16.2773 20.5 15.6698V8.33093C20.5 7.72331 19.8831 7.00007 18.8164 6.99988H5.18359Z" fill="black"/>
</svg>
