<svg width="24" height="24" viewBox="0 0 24 24" fill="none" xmlns="http://www.w3.org/2000/svg">
<path fill-rule="evenodd" clip-rule="evenodd" d="M12.1662 2.40157C12.4395 2.03657 12.9256 1.90358 13.3469 2.07638C13.7681 2.24975 14.0195 2.68633 13.9573 3.1379L13.1477 9.00118H19.2492C19.6272 9.00127 19.9751 9.21445 20.1448 9.55294C20.2926 9.84892 20.2831 10.1968 20.1272 10.4817L20.051 10.5998L11.8342 21.5998C11.561 21.9645 11.0737 22.0985 10.6526 21.926C10.2318 21.7527 9.98051 21.3157 10.0422 20.8645L10.8518 15.0012H4.74925C4.41851 15.0009 4.11186 14.8365 3.92698 14.5695L3.9221 14.5627L3.8596 14.4563L3.85569 14.4494C3.68646 14.1111 3.72402 13.705 3.94944 13.4025L12.1662 2.40157ZM6.74437 13.0012H11.9992C12.2878 13.0012 12.5641 13.1261 12.7541 13.344L12.8205 13.4289C12.9632 13.634 13.0249 13.8878 12.9905 14.1379L12.553 17.2912L17.2551 11.0012H11.9992C11.7471 11.001 11.5052 10.9049 11.3215 10.7356L11.2463 10.6584C11.0569 10.441 10.9699 10.1505 11.009 9.86446L11.4436 6.70919L6.74437 13.0012Z" fill="black"/>
</svg>
