<svg width="24" height="24" viewBox="0 0 24 24" fill="none" xmlns="http://www.w3.org/2000/svg">
<path fill-rule="evenodd" clip-rule="evenodd" d="M12.2539 2.00684H12.2568C14.8985 2.14095 17 4.32506 17 7V9C18.6572 9.00011 20 10.3428 20 12V19C20 20.5537 18.8198 21.8307 17.3066 21.9844L17.2998 21.9854L17.0059 22H7C5.34285 21.9999 4 20.6572 4 19V12C4 10.3428 5.34285 9.00014 7 9H15V7C15 5.39528 13.739 4.08451 12.1543 4.00391L11.998 4C10.6039 4.00111 9.43349 4.96237 9.10352 6.26758C8.96807 6.80273 8.42459 7.12695 7.88965 6.99219C7.35505 6.85684 7.02923 6.31369 7.16406 5.77832C7.71012 3.61719 9.65553 2.00022 12 2H12.0029L12.2539 2.00684ZM7 11C6.44736 11.0001 6 11.4474 6 12V19C6 19.5526 6.44736 19.9999 7 20H16.9932L17.1084 19.9941C17.6099 19.9402 18 19.516 18 19V12C18 11.484 17.6099 11.0598 17.1084 11.0059L16.9932 11H7Z" fill="black"/>
</svg>
