<svg width="24" height="24" viewBox="0 0 24 24" fill="none" xmlns="http://www.w3.org/2000/svg">
<path d="M4.5 17C5.05228 17 5.5 17.4477 5.5 18C5.5 18.5523 5.05228 19 4.5 19H3.5C2.94809 18.9997 2.5 18.5522 2.5 18C2.5 17.4478 2.94809 17.0003 3.5 17H4.5Z" fill="black"/>
<path d="M20.5 17C21.0523 17 21.5 17.4477 21.5 18C21.5 18.5523 21.0523 19 20.5 19H8.5C7.94795 18.9998 7.5 18.5522 7.5 18C7.5 17.4478 7.94795 17.0002 8.5 17H20.5Z" fill="black"/>
<path d="M4.5 11C5.05228 11 5.5 11.4477 5.5 12C5.5 12.5523 5.05228 13 4.5 13H3.5C2.94809 12.9997 2.5 12.5522 2.5 12C2.5 11.4478 2.94809 11.0003 3.5 11H4.5Z" fill="black"/>
<path d="M20.5 11C21.0523 11 21.5 11.4477 21.5 12C21.5 12.5523 21.0523 13 20.5 13H8.5C7.94795 12.9998 7.5 12.5522 7.5 12C7.5 11.4478 7.94795 11.0002 8.5 11H20.5Z" fill="black"/>
<path d="M4.5 5C5.05228 5 5.5 5.44772 5.5 6C5.5 6.55228 5.05228 7 4.5 7H3.5C2.94789 6.99985 2.5 6.55224 2.5 6C2.5 5.44776 2.94789 5.00015 3.5 5H4.5Z" fill="black"/>
<path d="M20.5 5C21.0523 5 21.5 5.44772 21.5 6C21.5 6.55228 21.0523 7 20.5 7H8.5C7.94795 6.99981 7.5 6.55224 7.5 6C7.5 5.44776 7.94795 5.00019 8.5 5H20.5Z" fill="black"/>
</svg>
