<svg width="24" height="24" viewBox="0 0 24 24" fill="none" xmlns="http://www.w3.org/2000/svg">
<path d="M15 20.2481C15.552 20.2484 15.9997 20.6964 16 21.2481C15.9999 21.8001 15.552 22.2478 15 22.2481H9C8.44826 22.2477 8.00007 21.8003 8 21.2481C8.00032 20.6963 8.44825 20.2484 9 20.2481H15Z" fill="black"/>
<path fill-rule="evenodd" clip-rule="evenodd" d="M11.8779 1.75198C16.2132 1.68489 19.7497 5.17801 19.75 9.49807C19.7499 11.9128 18.6409 14.0662 16.9121 15.4834C16.3339 15.9576 15.9992 16.6634 15.999 17.4073V18.4727C15.999 19.0247 15.5509 19.4723 14.999 19.4727H8.99902C8.44722 19.4724 7.99909 19.0249 7.99902 18.4727V17.4073C7.99887 16.7123 7.69691 16.0447 7.16797 15.5567L7.05664 15.459L6.77734 15.2168C5.41398 13.9736 4.49368 12.2472 4.29199 10.3047L4.29297 10.3037L4.29102 10.2989L4.25977 9.89456L4.25879 9.88675L4.24902 9.48538C4.2664 5.35155 7.70104 1.81594 11.8779 1.75198ZM9.62207 15.625C9.8646 16.1776 9.99894 16.7812 9.99902 17.4073V17.4727H13.999V17.4073C13.9991 16.7852 14.1314 16.1804 14.373 15.625H9.62207ZM11.9082 3.751C8.73321 3.79964 6.10433 6.60704 6.25684 9.78128L6.28125 10.1006L6.31348 10.3604C6.50569 11.6339 7.12022 12.7683 8.00879 13.625H15.9922C17.0762 12.5802 17.7499 11.1195 17.75 9.49807C17.7497 6.29323 15.1258 3.70104 11.9082 3.751Z" fill="black"/>
</svg>
