<svg width="24" height="24" viewBox="0 0 24 24" fill="none" xmlns="http://www.w3.org/2000/svg">
<path d="M14.292 12.792C14.6823 12.4016 15.3165 12.4021 15.707 12.792C16.0975 13.1825 16.0985 13.8175 15.708 14.208L12.208 17.708C12.1597 17.7562 12.1062 17.799 12.0518 17.835C11.8296 17.9818 11.5614 18.0311 11.3096 17.9824C11.1528 17.9519 11 17.8829 10.8691 17.7764L10.8643 17.7725L10.8574 17.7666L10.8047 17.7178C10.8005 17.7145 10.7958 17.7118 10.792 17.708L8.79199 15.708C8.40218 15.3175 8.40197 14.6823 8.79199 14.292C9.18234 13.9016 9.81649 13.9022 10.207 14.292L11.5 15.584L14.292 12.792Z" fill="black"/>
<path fill-rule="evenodd" clip-rule="evenodd" d="M12.251 2.00684H12.2539C14.8973 2.14092 16.9999 4.32622 17 7.00293V8.5C18.6569 8.5 20 9.84315 20 11.5V19.0059L19.9854 19.2998V19.3066C19.8317 20.8195 18.5533 22 17 22H7C5.4469 21.9998 4.16931 20.8194 4.01562 19.3066L4.01465 19.2998L4 19.0059V11.5C4 9.84521 5.34022 8.5034 6.99414 8.5V7.00293C6.99418 5.6761 7.52087 4.40302 8.45898 3.46484C9.39711 2.52677 10.6703 2.00011 11.9971 2H12L12.251 2.00684ZM7 10.5C6.44783 10.5002 6 10.9479 6 11.5V18.9932L6.00586 19.1084C6.05982 19.6094 6.4845 19.9998 7 20H17C17.5156 20 17.9391 19.6096 17.9932 19.1084L18 19V11.5C18 10.9477 17.5523 10.5 17 10.5H7ZM11.9961 4C11.2003 4.00036 10.438 4.31794 9.875 4.88086C9.31181 5.44412 8.99418 6.20674 8.99414 7.00293V8.5H15V7.00293C14.9999 5.39658 13.7385 4.08474 12.1523 4.00391L11.9961 4Z" fill="black"/>
</svg>
