<svg width="24" height="24" viewBox="0 0 24 24" fill="none" xmlns="http://www.w3.org/2000/svg">
<path d="M19.1684 6.96777C19.2503 6.98578 19.32 7.04401 19.35 7.12402C19.6703 7.97969 19.847 8.90682 19.8471 9.87402V10.0459C19.8469 11.0999 19.518 12.216 19.0541 13.2803C18.5854 14.3553 17.9498 15.4455 17.2728 16.4639C16.2573 17.9916 15.1179 19.4038 14.2348 20.4336L14.2279 20.4414L14.2269 20.4424L13.4516 21.3252C13.4506 21.3263 13.4496 21.328 13.4486 21.3291C12.7227 22.1342 11.4992 22.184 10.7094 21.4824L10.7045 21.4795L10.6947 21.4707L10.5619 21.3389L10.5521 21.3291C9.93009 20.6387 8.98633 19.5447 8.01503 18.2637C7.94069 18.165 7.94886 18.0244 8.03749 17.9355L9.0707 16.9023C9.12233 16.8509 9.19384 16.8252 9.26503 16.8301C9.33805 16.8353 9.40481 16.8729 9.44765 16.9297L9.80898 17.4043C10.6433 18.4828 11.4411 19.4044 11.9896 20.0137L12.0023 20.0234C12.8713 19.0589 14.3732 17.3067 15.6508 15.3848C16.2896 14.4237 16.861 13.4386 17.2689 12.5029C17.6287 11.6776 17.8407 10.9358 17.8891 10.3105L17.8998 10.0459V9.87402C17.8998 9.37476 17.8369 8.8888 17.7201 8.42578C17.6992 8.34216 17.7226 8.25061 17.7855 8.1875L18.9389 7.03418C18.9999 6.97342 19.087 6.95031 19.1684 6.96777Z" fill="black"/>
<path d="M19.516 3.1709C19.8824 2.87252 20.4113 2.87257 20.7777 3.1709L20.8539 3.23926C21.2437 3.62965 21.2437 4.26294 20.8539 4.65332L5.70742 19.7031C5.31707 20.0927 4.68372 20.0929 4.29335 19.7031C3.90291 19.3127 3.90315 18.6786 4.29335 18.2881L19.4398 3.23926L19.516 3.1709Z" fill="black"/>
<path d="M12.0004 2.02734C14.111 2.0275 16.027 2.86344 17.4369 4.21875C17.4847 4.26523 17.5124 4.32987 17.5131 4.39648L17.5082 4.44629C17.4985 4.49511 17.475 4.54098 17.4398 4.57617L16.4164 5.59961C16.3207 5.69401 16.1666 5.69559 16.0687 5.60352C15.01 4.59522 13.5773 3.97476 12.0004 3.97461C8.74239 3.97491 6.1012 6.61598 6.10097 9.87402V10.041L6.11171 10.3057C6.15917 10.932 6.37135 11.6758 6.73183 12.5029C6.90881 12.9088 7.11668 13.3248 7.34804 13.7441L7.5873 14.1641C7.64382 14.2616 7.62885 14.3882 7.54824 14.4688L6.49257 15.5234C6.45201 15.5634 6.39856 15.5877 6.34316 15.5938H6.28652C6.21099 15.5846 6.14203 15.5406 6.10195 15.4746C5.66684 14.7555 5.26785 14.0147 4.94765 13.2803C4.48379 12.216 4.15389 11.0999 4.15371 10.0459V9.87402C4.15395 5.54083 7.66718 2.02764 12.0004 2.02734Z" fill="black"/>
<path d="M11.9994 6.02637C13.0045 6.02641 13.9254 6.39926 14.6264 7.0127C14.6772 7.05748 14.709 7.12239 14.7113 7.19238L14.7074 7.24414C14.6982 7.29453 14.6735 7.34036 14.6381 7.37598L13.6117 8.40332C13.5225 8.4923 13.3798 8.50243 13.2797 8.42285C12.9752 8.17792 12.5958 8.0176 12.1801 7.98145L11.9965 7.97363C10.8705 7.97561 9.97352 8.87766 9.97304 9.97266C9.97296 9.98306 9.97302 9.99559 9.97206 10.0049C9.97247 10.0112 9.97294 10.0178 9.97304 10.0234V10.0273L9.98085 10.2021C10.0167 10.6061 10.1757 10.9766 10.4203 11.2773C10.5009 11.3768 10.4927 11.521 10.4027 11.6113L9.37636 12.6387C9.32902 12.6859 9.26242 12.715 9.19179 12.7129C9.12339 12.7107 9.05869 12.6801 9.01308 12.6289C8.40057 11.9359 8.0259 11.0257 8.02578 10.0273V10.0234C8.02591 10.0161 8.02607 10.0072 8.02675 9.99902C8.02615 9.99169 8.02585 9.98331 8.02578 9.97461C8.02629 7.78694 9.81351 6.0268 11.9994 6.02637Z" fill="black"/>
</svg>
