<svg width="24" height="24" viewBox="0 0 24 24" fill="none" xmlns="http://www.w3.org/2000/svg">
<path d="M12.1016 14.2051L12.1074 14.2061L12.2051 14.2207C12.6866 14.3162 13.0497 14.7405 13.0498 15.25V15.2568L13.0449 15.3516L13.0439 15.3574C12.9931 15.8507 12.6013 16.2435 12.1074 16.2939L12.1016 16.2949L12.0068 16.2998H12C11.4567 16.2996 11.0106 15.8859 10.9561 15.3574L10.9551 15.3516L10.9502 15.2568V15.25L10.9561 15.1426C11.01 14.6134 11.4566 14.2004 12 14.2002H12.0068L12.1016 14.2051Z" fill="black"/>
<path d="M12.2998 6.26074H12.3066C13.8197 6.41464 15.0008 7.69357 15.001 9.24707V9.25293L14.9902 9.49707V9.50195C14.8892 10.6958 14.0867 11.6825 13 12.0674V12.7549L12.9951 12.8447L12.9941 12.8506C12.9457 13.3203 12.5726 13.694 12.1025 13.7422L12.0967 13.7432L12.0068 13.748H12C11.4481 13.7478 11.0006 13.2995 11 12.748V11.248C11.0003 10.6961 11.448 10.2482 12 10.248C12.5154 10.2479 12.9396 9.85672 12.9941 9.35547L13.001 9.24707C13.0008 8.73128 12.6099 8.30613 12.1084 8.25195L11.9961 8.24609C11.4454 8.24835 10.9992 8.69587 10.999 9.24707C10.9983 9.76385 10.6054 10.1896 10.1016 10.2412L10.0957 10.2422L10.0059 10.2471H9.99902C9.48165 10.2469 9.0569 9.85284 9.00488 9.34961L9.00391 9.34375L8.99902 9.25391V9.24707L9.00293 9.09277C9.08345 7.50742 10.3947 6.24625 12 6.24609H12.0059L12.2998 6.26074Z" fill="black"/>
<path fill-rule="evenodd" clip-rule="evenodd" d="M12.4004 2.03711H12.4033C16.5493 2.24736 19.8467 5.67588 19.8467 9.87402V10.0459L19.832 10.4443C19.7625 11.3786 19.4587 12.3489 19.0527 13.2803C18.584 14.3555 17.9495 15.4454 17.2725 16.4639C16.2567 17.9919 15.1166 19.4037 14.2334 20.4336L14.2275 20.4414L14.2266 20.4424L14.2256 20.4414L13.4521 21.3223C13.4506 21.3242 13.4499 21.3272 13.4482 21.3291C12.7224 22.1344 11.4989 22.1844 10.709 21.4824L10.7041 21.4795L10.6934 21.4707L10.5615 21.3389L10.5557 21.334L10.5518 21.3291C9.65474 20.3335 8.08145 18.5005 6.72754 16.4639C6.05055 15.4454 5.41597 14.3555 4.94727 13.2803C4.54128 12.3489 4.2375 11.3786 4.16797 10.4443L4.15332 10.0459V9.87402C4.15332 5.54045 7.66639 2.02637 12 2.02637H12.0029L12.4004 2.03711ZM11.998 3.97461C8.74054 3.97566 6.10059 6.61627 6.10059 9.87402V10.0459L6.11035 10.3066C6.1577 10.9322 6.36952 11.6748 6.73047 12.5029C7.13844 13.4388 7.71143 14.4232 8.35059 15.3848C9.62868 17.3074 11.1292 19.06 11.998 20.0244L12.001 20.0264L12.002 20.0254L12.7588 19.1641C13.6073 18.1739 14.6908 16.8268 15.6494 15.3848C16.2884 14.4234 16.8606 13.4388 17.2686 12.5029C17.6296 11.6746 17.8421 10.9321 17.8896 10.3066L17.8994 10.0459V9.87402C17.8994 6.71751 15.4209 4.14045 12.3037 3.98242L11.998 3.97461Z" fill="black"/>
</svg>
