<svg width="24" height="24" viewBox="0 0 24 24" fill="none" xmlns="http://www.w3.org/2000/svg">
<path fill-rule="evenodd" clip-rule="evenodd" d="M16.7833 4.64437C18.3885 4.0499 19.9519 5.61333 19.3575 7.21859L15.296 18.1776C14.6319 19.9652 12.1181 19.8834 11.5255 18.1414L11.5235 18.1366L11.4766 17.9735L11.4747 17.9686L10.3848 13.6229L6.02742 12.5301C4.12009 12.05 3.97616 9.39483 5.81941 8.7098L16.7833 4.64437ZM17.4591 6.52523L6.52449 10.5799C6.52173 10.5812 6.51856 10.5836 6.5157 10.5848H6.51375V10.5897C6.51399 10.5899 6.51468 10.5904 6.5157 10.5907L11.4552 11.8319L11.462 11.8338L11.4708 11.8358L11.5675 11.867L11.5694 11.868L11.5782 11.8709L11.5919 11.8758L11.6856 11.9198L11.6925 11.9237L11.7804 11.9774C11.9769 12.1136 12.1218 12.3194 12.1817 12.5584L13.4151 17.4823C13.4156 17.4839 13.4152 17.4844 13.4151 17.4842H13.4171L13.419 17.4832L13.42 17.4813L17.4825 6.52328L17.4835 6.5223C17.4835 6.52231 17.4822 6.52118 17.4815 6.52035L17.4591 6.52523Z" fill="black"/>
</svg>
