<svg width="24" height="24" viewBox="0 0 24 24" fill="none" xmlns="http://www.w3.org/2000/svg">
<path d="M5.84771 10.5151C6.23797 10.1251 6.87043 10.1254 7.2608 10.5141L7.26178 10.5151C7.65139 10.9055 7.65197 11.5388 7.26178 11.9292L4.92975 14.2622C3.60309 15.5894 3.60334 17.7423 4.93072 19.0708C6.258 20.3973 8.4099 20.398 9.73834 19.0708L12.0713 16.7368C12.4615 16.3482 13.0942 16.348 13.4844 16.7368L13.4854 16.7378C13.8746 17.1278 13.8753 17.7604 13.4864 18.1509L11.1524 20.4848C9.04321 22.5919 5.62313 22.5925 3.51471 20.4848C1.40774 18.3756 1.407 14.9565 3.51471 12.8481L5.84771 10.5151Z" fill="black"/>
<path d="M14.4024 8.18309C14.7927 7.79304 15.4251 7.79331 15.8155 8.18211L15.8165 8.18309C16.2065 8.57359 16.2066 9.20676 15.8165 9.59715L9.59674 15.8169C9.2065 16.2058 8.57309 16.2068 8.18268 15.8169L8.1817 15.8159C7.79285 15.4255 7.79346 14.7929 8.18268 14.4028L14.4024 8.18309Z" fill="black"/>
<path fill-rule="evenodd" clip-rule="evenodd" d="M12.8477 3.51415C14.9567 1.40669 18.3758 1.40709 20.4844 3.51415L20.4854 3.51512L20.6768 3.71629C22.5907 5.83654 22.5267 9.10934 20.4844 11.1518L18.1514 13.4848C17.7612 13.8738 17.1278 13.8748 16.7374 13.4848L16.7364 13.4839C16.3478 13.0935 16.3481 12.4609 16.7374 12.0708L19.0704 9.73778C20.3976 8.41038 20.3972 6.25676 19.0694 4.92821C17.7419 3.60285 15.5898 3.60221 14.2618 4.92918C14.258 4.93296 14.2533 4.93666 14.2491 4.93993L11.9297 7.26122C11.5394 7.65065 10.9051 7.65111 10.5147 7.26122L10.5137 7.26024C10.1255 6.87009 10.1244 6.2374 10.5137 5.84715L12.8477 3.51415Z" fill="black"/>
</svg>
