<svg width="24" height="24" viewBox="0 0 24 24" fill="none" xmlns="http://www.w3.org/2000/svg">
<path d="M13 3C13 2.44772 13.4477 2 14 2H19C20.6573 2 22 3.34272 22 5V19C22 20.6573 20.6573 22 19 22H14C13.4477 22 13 21.5523 13 21C13 20.4477 13.4477 20 14 20H19C19.5527 20 20 19.5527 20 19V5C20 4.44728 19.5527 4 19 4H14C13.4477 4 13 3.55228 13 3Z" fill="black"/>
<path d="M2.00195 11.9688L2.00391 11.9561C2.00349 11.9594 2.00218 11.9673 2.00195 11.9766L2.0166 11.832L2.05371 11.6836C2.1016 11.5392 2.18179 11.4051 2.29297 11.2939L7.29395 6.29297C7.68447 5.90245 8.31748 5.90245 8.70801 6.29297C8.95224 6.53721 9.04347 6.87677 8.98242 7.19141C8.95787 7.3178 8.90903 7.44016 8.83594 7.55078C8.81971 7.57531 8.79943 7.60357 8.77637 7.63184C8.75353 7.65981 8.7301 7.68494 8.70801 7.70703L5.41504 11H17.001C17.5533 11 18.001 11.4477 18.001 12L17.9961 12.1025C17.9448 12.6067 17.5187 13 17.001 13H5.41406L8.70801 16.2939C8.95224 16.5382 9.04348 16.8777 8.98242 17.1924C8.95787 17.3188 8.90901 17.4412 8.83594 17.5518C8.81969 17.5763 8.7994 17.6046 8.77637 17.6328L8.70801 17.708C8.68588 17.7301 8.66073 17.7536 8.63281 17.7764C8.26588 18.0757 7.73608 18.0757 7.36914 17.7764C7.3412 17.7535 7.31603 17.7301 7.29395 17.708L2.29297 12.708C2.25712 12.6722 2.22215 12.632 2.19043 12.5879C2.12892 12.5022 2.08284 12.4088 2.05176 12.3125C2.03602 12.2637 2.02393 12.2127 2.01562 12.1621C2.01021 12.129 2.00799 12.0947 2.00586 12.0596L2.00293 12.042C2.00158 12.0326 2 12.0182 2 12.001L2.00195 11.9688Z" fill="black"/>
</svg>
