<svg width="24" height="24" viewBox="0 0 24 24" fill="none" xmlns="http://www.w3.org/2000/svg">
<path fill-rule="evenodd" clip-rule="evenodd" d="M12 6.02734C14.1864 6.02745 15.9736 7.78522 15.9736 9.97363V10.0312L15.9688 10.2285V10.2324C15.8648 12.2574 14.2281 13.868 12.2031 13.9697H12.2002L12.0029 13.9746H12C9.88206 13.9746 8.13853 12.3248 8.03125 10.2324L8.02637 10.0283C8.02637 10.0183 8.02666 10.0089 8.02734 10.001C8.02667 9.99314 8.02642 9.9841 8.02637 9.97461C8.02637 7.78615 9.8135 6.02734 12 6.02734ZM11.9971 7.97461C10.8703 7.97617 9.97363 8.87805 9.97363 9.97363V9.9873L9.97168 9.99609L9.97363 10.0283C9.97393 11.1237 10.8706 12.0248 11.9971 12.0264L12.2158 12.0166C13.1697 11.9175 13.9173 11.1678 14.0156 10.2373L14.0264 10.0283V9.97363C14.0264 8.94804 13.2404 8.09182 12.2158 7.98535L11.9971 7.97461Z" fill="black"/>
<path fill-rule="evenodd" clip-rule="evenodd" d="M12.4004 2.03711H12.4033C16.5493 2.24736 19.8467 5.67588 19.8467 9.87402V10.0459L19.832 10.4443C19.7625 11.3786 19.4587 12.3489 19.0527 13.2803C18.584 14.3555 17.9495 15.4454 17.2725 16.4639C16.2567 17.9919 15.1166 19.4037 14.2334 20.4336L14.2275 20.4414L14.2266 20.4424L14.2256 20.4414L13.4521 21.3223C13.4506 21.3242 13.4499 21.3272 13.4482 21.3291C12.7224 22.1344 11.4989 22.1844 10.709 21.4824L10.7041 21.4795L10.6934 21.4707L10.5615 21.3389L10.5557 21.334L10.5518 21.3291C9.65474 20.3335 8.08145 18.5005 6.72754 16.4639C6.05055 15.4454 5.41597 14.3555 4.94727 13.2803C4.54128 12.3489 4.2375 11.3786 4.16797 10.4443L4.15332 10.0459V9.87402C4.15332 5.54045 7.66639 2.02637 12 2.02637H12.0029L12.4004 2.03711ZM11.998 3.97461C8.74054 3.97566 6.10059 6.61627 6.10059 9.87402V10.0459L6.11035 10.3066C6.1577 10.9322 6.36952 11.6748 6.73047 12.5029C7.13844 13.4388 7.71143 14.4232 8.35059 15.3848C9.62868 17.3074 11.1292 19.06 11.998 20.0244L12.001 20.0264L12.002 20.0254L12.7588 19.1641C13.6073 18.1739 14.6908 16.8268 15.6494 15.3848C16.2884 14.4234 16.8606 13.4388 17.2686 12.5029C17.6296 11.6746 17.8421 10.9321 17.8896 10.3066L17.8994 10.0459V9.87402C17.8994 6.71751 15.4209 4.14045 12.3037 3.98242L11.998 3.97461Z" fill="black"/>
</svg>
