<svg width="24" height="24" viewBox="0 0 24 24" fill="none" xmlns="http://www.w3.org/2000/svg">
<path d="M6.0918 14.9317C6.72304 14.9895 7.35187 15.0141 7.97656 14.9991H7.98242L8.07227 15.0011H8.0791C8.5842 15.0407 8.98739 15.4587 9 15.9757C9.01275 16.5275 8.57502 16.9858 8.02344 16.9991C7.31463 17.0161 6.60847 16.9881 5.9082 16.9239C5.3587 16.8732 4.95492 16.3864 5.00488 15.837C5.0559 15.288 5.54209 14.8815 6.0918 14.9317Z" fill="black"/>
<path fill-rule="evenodd" clip-rule="evenodd" d="M12 8.90928C13.6567 8.90931 14.9997 10.2527 15 11.9093V11.9161L14.9854 12.2101V12.2159C14.8315 13.7286 13.5532 14.9092 12 14.9093C10.3432 14.9093 9.00023 13.5659 9 11.9093C9.00026 10.2526 10.3433 8.90928 12 8.90928ZM11.9961 10.9093C11.4458 10.9114 11.0003 11.3585 11 11.9093L11.0049 12.0177C11.0588 12.5177 11.4823 12.9063 11.9961 12.9083L12.1084 12.9034C12.6094 12.8494 12.9998 12.4248 13 11.9093C12.9998 11.3919 12.6064 10.9664 12.1025 10.9151L11.9961 10.9093Z" fill="black"/>
<path d="M15.9746 7.004C16.6852 6.98592 17.3925 7.01515 18.0918 7.0792C18.6414 7.12998 19.0453 7.6176 18.9951 8.16709C18.9443 8.71657 18.4577 9.12152 17.9082 9.07139C17.2762 9.01352 16.6481 8.98816 16.0254 9.004C15.474 9.01778 15.0146 8.58194 15 8.03037C14.9865 7.47898 15.423 7.01836 15.9746 7.004Z" fill="black"/>
<path fill-rule="evenodd" clip-rule="evenodd" d="M12.4863 4.42783C14.9562 3.88313 17.5154 3.85674 19.999 4.35361C20.0033 4.35447 20.0072 4.35488 20.0098 4.35557C20.0108 4.35584 20.0119 4.35629 20.0127 4.35654L20.3906 4.43174L20.3965 4.43272L20.5576 4.47275L20.5625 4.47373C21.407 4.7216 21.9996 5.49805 22 6.39268V17.2394L21.9873 17.4571L21.9863 17.464C21.8549 18.6072 20.768 19.4248 19.6074 19.1925C17.255 18.7221 14.8278 18.7765 12.5 19.3546L12.4814 19.3614L12.252 19.4181C12.2611 19.4152 12.2683 19.4107 12.2744 19.4073C12.2664 19.412 12.2561 19.4185 12.2422 19.422C9.46737 20.1151 6.5735 20.1836 3.76855 19.6231C3.76511 19.6228 3.76077 19.6239 3.75684 19.6231L3.6084 19.5909C2.73057 19.4158 2.08506 18.6837 2.00781 17.8087L2 17.6319V6.79307C2.00029 5.53196 3.15261 4.58688 4.3877 4.83018L4.83594 4.91318C7.0561 5.29337 9.3322 5.20881 11.5205 4.66221L11.9941 4.54404H11.9961L12.4854 4.42881L12.4863 4.42783ZM19.6074 6.31455C17.3966 5.87222 15.1175 5.89502 12.918 6.37998L12.9189 6.38096L12.4766 6.48447L12.4756 6.4835L12.0049 6.60166C9.54758 7.21543 6.99143 7.31095 4.49805 6.88389L4.00293 6.79209H4.00098L4 6.79307V17.6241L4.00098 17.631L4.15234 17.6622C6.66795 18.1659 9.26513 18.1041 11.7549 17.4825L11.9873 17.4229L11.9951 17.421L12.457 17.3116C14.7718 16.7971 17.1654 16.7394 19.5029 17.1397L19.9863 17.2286L20 17.2296V6.39268L19.6074 6.31455Z" fill="black"/>
</svg>
