<svg width="24" height="24" viewBox="0 0 24 24" fill="none" xmlns="http://www.w3.org/2000/svg">
<path d="M21.5 4C22.0523 4 22.5 4.44772 22.5 5C22.5 5.55228 22.0523 6 21.5 6H2.5C1.94772 6 1.5 5.55228 1.5 5C1.5 4.44772 1.94772 4 2.5 4H21.5Z" fill="black"/>
<path d="M21.5 18C22.0523 18 22.5 18.4477 22.5 19C22.5 19.5523 22.0523 20 21.5 20H2.5C1.94772 20 1.5 19.5523 1.5 19C1.5 18.4477 1.94772 18 2.5 18H21.5Z" fill="black"/>
<path d="M21.5 11C22.0523 11 22.5 11.4477 22.5 12C22.5 12.5523 22.0523 13 21.5 13H2.5C1.94772 13 1.5 12.5523 1.5 12C1.5 11.4477 1.94772 11 2.5 11H21.5Z" fill="black"/>
</svg>
