<svg width="24" height="24" viewBox="0 0 24 24" fill="none" xmlns="http://www.w3.org/2000/svg">
<path d="M15 9.43953C15.552 9.43953 15.9995 9.8878 16 10.4395V16.3868L15.9951 16.4757L15.9941 16.4815C15.9429 16.9857 15.5181 17.38 15 17.38C14.4477 17.38 14.0004 16.9317 14 16.38V10.4395C14.0005 9.8878 14.448 9.43953 15 9.43953Z" fill="black"/>
<path d="M9 6.62019C9.55203 6.62019 9.99957 7.06829 10 7.62019V13.5675L9.99512 13.6563L9.99414 13.6622C9.94268 14.1659 9.51811 14.5606 9 14.5606C8.44784 14.5606 8.00091 14.1127 8 13.5616V7.62019C8.00043 7.06829 8.44797 6.62019 9 6.62019Z" fill="black"/>
<path fill-rule="evenodd" clip-rule="evenodd" d="M8.2832 3.25887C8.83197 3.12384 9.41147 3.14626 9.9502 3.32625L9.96484 3.33211L14.6826 4.90242C14.8882 4.97093 15.1117 4.97093 15.3174 4.90242L19.3662 3.55379L19.4883 3.51765C20.7439 3.18261 21.9992 4.1285 22 5.45027V15.8321L21.9932 16.0352V16.0391C21.9187 17.0908 21.2936 18.0343 20.3408 18.5108L16.3408 20.5108C15.4964 20.9335 14.5026 20.9334 13.6582 20.5108L9.44727 18.4053C9.20205 18.2826 8.91741 18.2655 8.66309 18.3565L8.54004 18.4112L4.89355 20.2345C3.60428 20.879 2.09707 19.9895 2.00391 18.5831V18.5782L2 18.4493V7.50594C2.00034 6.21528 2.8273 5.06744 4.05273 4.65926L8.0498 3.32625L8.2832 3.25887ZM9.31543 5.22371C9.13752 5.16445 8.9453 5.15637 8.76465 5.20027L8.67676 5.22664C8.67476 5.22724 8.67195 5.22618 8.66992 5.22664L4.68359 6.55574L4.68457 6.55672C4.27698 6.69274 4.00034 7.07579 4 7.50594V18.4444L7.66406 16.6134L7.81055 16.545C7.81264 16.544 7.81525 16.543 7.81738 16.5421C8.6253 16.1956 9.54944 16.2203 10.3408 16.6163L14.5518 18.7227C14.8328 18.8635 15.1662 18.8635 15.4473 18.7227L19.4473 16.7227C19.7858 16.5532 19.9999 16.2053 20 15.8272V5.45027L15.9482 6.80086C15.4767 6.95786 14.9762 6.99473 14.4912 6.91121L14.2842 6.86824L14.2803 6.86726L14.2764 6.86531L14.0625 6.80379L14.0498 6.80086L9.31543 5.22371Z" fill="black"/>
</svg>
