<svg width="24" height="24" viewBox="0 0 24 24" fill="none" xmlns="http://www.w3.org/2000/svg">
<path d="M3 9.875C4.1736 9.875 5.125 10.8264 5.125 12C5.125 13.1736 4.1736 14.125 3 14.125C1.82639 14.125 0.875 13.1736 0.875 12C0.875 10.8264 1.82639 9.875 3 9.875Z" fill="black"/>
<path d="M12 9.875C13.1736 9.875 14.125 10.8264 14.125 12C14.125 13.1736 13.1736 14.125 12 14.125C10.8264 14.125 9.875 13.1736 9.875 12C9.875 10.8264 10.8264 9.875 12 9.875Z" fill="black"/>
<path d="M21 9.875C22.1736 9.875 23.125 10.8264 23.125 12C23.125 13.1736 22.1736 14.125 21 14.125C19.8264 14.125 18.875 13.1736 18.875 12C18.875 10.8264 19.8264 9.875 21 9.875Z" fill="black"/>
</svg>
