<svg width="24" height="24" viewBox="0 0 24 24" fill="none" xmlns="http://www.w3.org/2000/svg">
<path d="M12.0009 5.00089C12.5527 5.00137 13.0008 5.44905 13.0009 6.00089V6.51066C14.6789 6.63863 16.0008 8.04008 16.0009 9.75089L15.996 9.79874C15.9868 9.84618 15.9637 9.89158 15.9277 9.92765C15.8797 9.97562 15.815 10.0007 15.7509 10.0009H14.2499C14.1125 10.0004 14.0014 9.88819 14.0009 9.75089L13.9941 9.62296C13.9301 8.99268 13.398 8.50134 12.7509 8.50089H11.1083C10.4968 8.50099 10.001 8.99676 10.0009 9.60831C10.0015 10.1152 10.3462 10.5581 10.8378 10.6816L13.6503 11.3866C15.0312 11.7337 16.0008 12.9753 16.0009 14.3993C16.0002 16.0791 14.6654 17.4458 13.0009 17.5028V18.0009C13.0005 18.5525 12.5525 19.0004 12.0009 19.0009C11.449 19.0008 11.0014 18.5527 11.0009 18.0009V17.4931C9.32283 17.3655 8.00134 15.9666 8.00092 14.2558C8.00115 13.7038 8.44881 13.2559 9.00092 13.2558C9.55273 13.2562 10.0007 13.704 10.0009 14.2558C10.0014 14.9461 10.5606 15.5057 11.2509 15.5058H11.9052C11.9326 15.5031 11.9662 15.5009 12.0009 15.5009C12.0355 15.5009 12.0685 15.5031 12.0956 15.5058H12.8935C13.5038 15.5053 14.0003 15.0098 14.0009 14.3993C14.0008 13.8922 13.6554 13.4489 13.164 13.3251L10.3515 12.621C8.97037 12.2744 8.00149 11.0322 8.00092 9.60831C8.00106 7.92808 9.33442 6.55941 11.0009 6.50284V6.00089C11.0011 5.44884 11.4488 5.00102 12.0009 5.00089Z" fill="black"/>
<path fill-rule="evenodd" clip-rule="evenodd" d="M4.92963 4.9296C8.59442 1.26487 14.3962 1.03939 18.3242 4.25284L18.6982 4.57511L18.7011 4.57706L19.0703 4.92765L19.0771 4.93449L19.4218 5.29777L19.4267 5.30265C22.9726 9.22831 22.8551 15.2892 19.0722 19.0722C15.1672 22.9771 8.83491 22.9765 4.92963 19.0722C1.02469 15.1669 1.0245 8.83474 4.92963 4.9296ZM17.0585 5.80265C13.9164 3.23222 9.27536 3.41206 6.3437 6.34367C3.21962 9.46774 3.21979 14.5339 6.3437 17.6581C9.46794 20.7815 14.5342 20.782 17.6581 17.6581C20.6842 14.632 20.7776 9.78379 17.9414 6.64347L17.663 6.34855L17.3583 6.06046L17.0585 5.80265Z" fill="black"/>
</svg>
