<svg width="24" height="24" viewBox="0 0 24 24" fill="none" xmlns="http://www.w3.org/2000/svg">
<path fill-rule="evenodd" clip-rule="evenodd" d="M9.76575 2.05231C10.3511 1.90326 10.9503 2.11916 11.3302 2.52399C11.7184 2.93808 11.8872 3.56029 11.589 4.20075C11.587 4.20504 11.5825 4.20791 11.5802 4.21149L11.5792 4.21247C11.5733 4.22206 11.5683 4.23001 11.5636 4.23493C11.5644 4.23421 11.5658 4.23383 11.5665 4.23298C11.57 4.22889 11.5733 4.22295 11.5773 4.21638C10.5303 6.46509 10.8092 9.0879 12.3712 10.9332L12.7052 11.2955L13.0695 11.6314L13.2413 11.772L13.4152 11.9039C15.2346 13.225 17.6801 13.4058 19.7941 12.4175L19.8136 12.4078L20.0099 12.3336L20.0216 12.3287L20.0323 12.3267C20.5806 12.1698 21.1169 12.3481 21.4738 12.6685C21.8752 13.0301 22.1098 13.623 21.9484 14.2447V14.2466C21.5026 15.9522 20.6246 17.5829 19.2706 18.9371C15.271 22.9362 8.83466 23.0473 4.89368 19.107C0.953145 15.1661 1.06626 8.72997 5.06555 4.73102C6.41961 3.37739 8.04869 2.4991 9.75598 2.05329C9.75904 2.05249 9.76263 2.05286 9.76575 2.05231ZM9.4093 4.2652C8.34269 4.66626 7.34086 5.28416 6.47961 6.14509C3.22589 9.39848 3.18336 14.5681 6.30774 17.6929C9.43303 20.8175 14.6028 20.7762 17.8566 17.523C18.7179 16.6615 19.332 15.6564 19.7325 14.5884C16.9308 15.5333 13.7649 15.0129 11.5118 12.9244L11.2902 12.7105C9.02642 10.4458 8.43276 7.16013 9.4093 4.2652ZM11.5529 4.24567C11.5513 4.24696 11.5495 4.24817 11.549 4.2486C11.55 4.24779 11.5533 4.24592 11.5558 4.24372L11.5568 4.24177C11.5552 4.24319 11.5539 4.24476 11.5529 4.24567Z" fill="black"/>
</svg>
