<svg width="24" height="24" viewBox="0 0 24 24" fill="none" xmlns="http://www.w3.org/2000/svg">
<path fill-rule="evenodd" clip-rule="evenodd" d="M19.2002 4C20.7522 4.00011 21.9997 5.24782 22 6.7998V6.80371L21.9961 6.91895L22 7V17.0059L21.9854 17.2988V17.3057C21.8313 18.8153 20.5492 20 19 20H5C3.45078 20 2.1697 18.8153 2.01562 17.3057L2.01465 17.2988L2 17.0059V7C2.00002 6.97031 2.00211 6.94122 2.00391 6.91895L2 6.80371V6.7998L2.01465 6.5127C2.15755 5.09678 3.34473 4.00011 4.7998 4H19.2002ZM5.41504 18H18.584L14.1797 13.5957C12.7905 14.2365 11.2338 14.2252 9.85059 13.5625L5.41504 18ZM15.9297 12.5137L20 16.584V9.80176L15.9297 12.5137ZM4 16.583L8.11914 12.4629L4 9.64648V16.583ZM4.7998 6C4.35237 6.0001 4.00023 6.35232 4 6.7998C4 7.01597 4.09262 7.24589 4.40625 7.50293L10.2139 11.4727L10.2148 11.4736L10.2812 11.5195L10.3389 11.5586C11.341 12.2026 12.5264 12.2437 13.5518 11.6816L13.7549 11.5605L19.6045 7.66016C19.903 7.26717 20 7.02255 20 6.7998C19.9998 6.38135 19.692 6.04604 19.2871 6.00391L19.1934 6H4.7998Z" fill="black"/>
</svg>
