<svg width="24" height="24" viewBox="0 0 24 24" fill="none" xmlns="http://www.w3.org/2000/svg">
<path d="M19 9C19.5523 9 20 9.44772 20 10V11C20 15.0795 16.9462 18.4433 13 18.9355V20H15C15.5523 20 16 20.4477 16 21C16 21.5523 15.5523 22 15 22H9C8.44772 22 8 21.5523 8 21C8 20.4477 8.44772 20 9 20H11V18.9355C7.05384 18.4433 4 15.0795 4 11V10C4 9.44772 4.44772 9 5 9C5.55228 9 6 9.44772 6 10V11L6.00781 11.3086C6.16843 14.4789 8.78979 17 12 17C15.2102 17 17.8316 14.4789 17.9922 11.3086L18 11V10C18 9.44772 18.4477 9 19 9Z" fill="black"/>
<path fill-rule="evenodd" clip-rule="evenodd" d="M12 1C14.7614 1 17 3.23858 17 6V11C17 13.7614 14.7614 16 12 16C9.23858 16 7 13.7614 7 11V6C7 3.23858 9.23858 1 12 1ZM12 3C10.3431 3 9 4.34315 9 6V11C9 12.6569 10.3431 14 12 14C13.6569 14 15 12.6569 15 11V6C15 4.34315 13.6569 3 12 3Z" fill="black"/>
</svg>
