<svg width="24" height="24" viewBox="0 0 24 24" fill="none" xmlns="http://www.w3.org/2000/svg">
<path fill-rule="evenodd" clip-rule="evenodd" d="M4.92871 4.92875C8.71181 1.14566 14.7727 1.02778 18.6982 4.57426L19.0713 4.92875L19.0752 4.93363L19.4209 5.29691L19.4258 5.3018C22.9721 9.22748 22.8544 15.2883 19.0713 19.0713C15.1661 22.9765 8.83392 22.9765 4.92871 19.0713C1.02388 15.1661 1.02365 8.83385 4.92871 4.92875ZM12 5.00101C11.4484 5.00151 11 5.44874 11 6.00101V6.50297C9.334 6.5599 7.99917 7.92734 7.99902 9.60746L8.01171 9.87211C8.12345 11.1836 9.05642 12.2962 10.3516 12.6211L13.1641 13.3243C13.6247 13.4402 13.9565 13.8373 13.9961 14.3047L14 14.3995C13.9994 14.9719 13.5639 15.443 13.0068 15.5L12.8935 15.5059H12.0635C12.0635 15.5059 12.06 15.5056 12.0547 15.5049L12 15.501C11.9758 15.501 11.9544 15.5037 11.9453 15.5049C11.9394 15.5057 11.9375 15.5057 11.9355 15.5059H11.25C10.5596 15.5055 10.0001 14.9452 9.99999 14.2549C9.99969 13.7378 9.60624 13.3124 9.10253 13.2608L8.99999 13.2559C8.44858 13.2564 7.99935 13.7039 7.99902 14.2559C7.99939 15.9389 9.27998 17.3219 10.9189 17.4883L10.9307 17.4893L11 17.4922V18.001C11.0005 18.5525 11.4484 19.0005 12 19.001C12.552 19.0007 12.9995 18.5524 13 18.001V17.502C14.665 17.4455 15.9994 16.0795 16 14.3995C16 12.9752 15.0315 11.7337 13.6504 11.3868L10.8379 10.6807C10.3764 10.5649 10.0436 10.1682 10.0039 9.70121L9.99999 9.60746C10.0001 9.03432 10.4362 8.56339 10.9951 8.50687L11.1084 8.50101H12.75C13.4405 8.50129 14 9.06047 14 9.75101C14 9.88907 14.1119 10.001 14.25 10.001H15.75C15.8878 10.0007 16 9.8889 16 9.75101C16 8.17337 14.8768 6.85819 13.3857 6.56254L13.083 6.51664L13.0693 6.51566L13 6.51176V6.00101C13 5.48351 12.6064 5.05746 12.1025 5.0059L12 5.00101Z" fill="black"/>
</svg>
