<svg width="24" height="24" viewBox="0 0 24 24" fill="none" xmlns="http://www.w3.org/2000/svg">
<path d="M13.4995 20C14.0515 20.0002 14.4995 20.4477 14.4995 21V21.0068L14.4946 21.0967V21.1025C14.4465 21.5733 14.0718 21.9465 13.6011 21.9941L13.5952 21.9951L13.5063 22H10.4995C9.94809 21.9994 9.49951 21.5522 9.49951 21C9.49951 20.4478 9.94809 20.0006 10.4995 20H13.4995Z" fill="black"/>
<path d="M19.4048 3.18457C19.7952 2.79471 20.4285 2.79498 20.8188 3.18457C21.2094 3.57509 21.2094 4.21006 20.8188 4.60059L4.59912 20.8154C4.20887 21.2046 3.57545 21.2051 3.18506 20.8154C2.79486 20.4249 2.79531 19.7898 3.18506 19.3994L19.4048 3.18457Z" fill="black"/>
<path d="M18.7017 7.45801C18.7895 7.4848 18.8564 7.5581 18.8745 7.64844L18.9312 7.97949C18.9803 8.31241 19.0063 8.65322 19.0063 9V13C19.0063 13.6818 19.3164 14.3282 19.8491 14.7568L20.1577 15.0049L20.1616 15.0078L20.3013 15.1289L20.3052 15.1328L20.4302 15.2598C21.6525 16.601 20.8027 18.8453 18.9458 18.9932H18.9409L18.7573 19H7.57764C7.50205 18.9998 7.43181 18.9655 7.38525 18.9092L7.34717 18.8457C7.30934 18.7541 7.32799 18.6458 7.3999 18.5732L8.90088 17.0723C8.94887 17.0246 9.01374 17.0002 9.07764 17H18.7524L18.8325 16.9873C19.005 16.9298 19.063 16.6917 18.9067 16.5654L18.5981 16.3174C17.5938 15.5101 17.0063 14.2897 17.0063 13V9.07129C17.0063 9.0054 17.0325 8.94219 17.0786 8.89551L18.4634 7.51074L18.4907 7.48926C18.4957 7.48533 18.5018 7.48164 18.5073 7.47852C18.5676 7.4449 18.6382 7.43894 18.7017 7.45801Z" fill="black"/>
<path d="M12.0005 2C14.108 2.00023 15.9987 2.93189 17.2827 4.40332C17.3689 4.50244 17.3639 4.65226 17.271 4.74512L16.2065 5.80859C16.1572 5.85728 16.0884 5.88377 16.019 5.88086C15.9486 5.87745 15.8826 5.84374 15.8384 5.79102C14.9198 4.69641 13.5418 4.00022 12.0005 4C9.2351 4.00035 6.99463 6.23948 6.99463 9V13C6.99463 14.2083 6.48076 15.3567 5.5874 16.1611L5.58447 16.1641L5.40576 16.3154L5.40283 16.3174L5.09424 16.5654C5.0092 16.6341 4.98707 16.7305 5.01221 16.8203C5.03699 16.9081 5.01165 17.0012 4.94873 17.0645L4.01025 18.0039C3.96677 18.0474 3.92544 18.0965 3.88525 18.1494C3.85056 18.1948 3.80098 18.2285 3.74561 18.2422L3.68799 18.249C3.6116 18.2493 3.53688 18.2147 3.48877 18.1533C2.79403 17.2644 2.7787 15.8592 3.84229 15.0049L4.15186 14.7568L4.34131 14.5869C4.75778 14.167 4.99463 13.5973 4.99463 13V9C4.99463 5.13294 8.1325 2.00035 12.0005 2Z" fill="black"/>
</svg>
