<svg width="24" height="24" viewBox="0 0 24 24" fill="none" xmlns="http://www.w3.org/2000/svg">
<path d="M12 17.875C13.1736 17.875 14.125 18.8264 14.125 20C14.125 21.1736 13.1736 22.125 12 22.125C10.8264 22.125 9.875 21.1736 9.875 20C9.875 18.8264 10.8264 17.875 12 17.875Z" fill="black"/>
<path d="M12 9.875C13.1736 9.875 14.125 10.8264 14.125 12C14.125 13.1736 13.1736 14.125 12 14.125C10.8264 14.125 9.875 13.1736 9.875 12C9.875 10.8264 10.8264 9.875 12 9.875Z" fill="black"/>
<path d="M12 1.875C13.1736 1.875 14.125 2.82639 14.125 4C14.125 5.1736 13.1736 6.125 12 6.125C10.8264 6.125 9.875 5.1736 9.875 4C9.875 2.82639 10.8264 1.875 12 1.875Z" fill="black"/>
</svg>
