<svg width="24" height="24" viewBox="0 0 24 24" fill="none" xmlns="http://www.w3.org/2000/svg">
<path fill-rule="evenodd" clip-rule="evenodd" d="M21.2929 1.29295C21.6834 0.90243 22.3164 0.90243 22.707 1.29295C23.0974 1.68348 23.0975 2.31652 22.707 2.70702L2.70696 22.707C2.31646 23.0975 1.68342 23.0975 1.29289 22.707C0.902369 22.3165 0.902369 21.6835 1.29289 21.293L3.00285 19.582C3.0008 19.5559 2.99994 19.5295 2.99992 19.5029V4.49706C3.0001 3.74133 3.42633 3.05044 4.10149 2.71092L5.09172 2.21288C5.6527 1.93096 6.31409 1.92872 6.87688 2.20702L8.00188 2.76366L9.09758 2.21385C9.6601 1.93129 10.3231 1.92949 10.8866 2.20995L11.9999 2.76463L13.1132 2.20995C13.6768 1.92951 14.3398 1.93127 14.9023 2.21385L15.997 2.76366L17.123 2.20702C17.6858 1.92873 18.3472 1.93097 18.9081 2.21288L19.8827 2.70213L21.2929 1.29295ZM16.4374 4.77733C16.1561 4.91644 15.8253 4.91525 15.5448 4.7744L14.0048 4.00096L12.4452 4.77635C12.1647 4.91598 11.8352 4.91594 11.5546 4.77635L9.99504 4.00096L8.455 4.7744C8.17456 4.91528 7.84375 4.91641 7.56242 4.77733L5.99016 3.99999L4.99992 4.49706V17.5859L9.58586 13H7.99992C7.44766 13 6.99996 12.5522 6.99992 12C6.99992 11.4477 7.44764 11 7.99992 11H11.5859L13.0859 9.49999H7.99992C7.44766 9.49999 6.99997 9.05224 6.99992 8.49999C6.99992 7.9477 7.44764 7.49999 7.99992 7.49999H14.9999C15.0276 7.49999 15.0549 7.50169 15.082 7.50389L18.3925 4.19237L18.0097 3.99999L16.4374 4.77733Z" fill="black"/>
<path d="M19.9999 6.99999C20.5522 7.00003 20.9999 7.44773 20.9999 7.99999V19.5029C20.9997 20.2588 20.5737 20.9506 19.8984 21.29L19.8974 21.289L18.9081 21.7871C18.3472 22.069 17.6857 22.0712 17.123 21.793L15.997 21.2363L14.9023 21.7861C14.3397 22.0687 13.6768 22.0705 13.1132 21.79L11.9999 21.2353L10.8866 21.79C10.3231 22.0704 9.66006 22.0686 9.09758 21.7861L7.55656 21.0127C7.06316 20.7647 6.86436 20.1634 7.11223 19.6699C7.36015 19.1764 7.96149 18.9777 8.455 19.2256L9.99602 19.999L11.5546 19.2236L11.662 19.1777C11.9169 19.0861 12.1998 19.1015 12.4452 19.2236L14.0048 19.999L15.5458 19.2256L15.6523 19.1787C15.9073 19.0859 16.1912 19.1009 16.4374 19.2226L18.0097 20L18.9999 19.5029V7.99999C18.9999 7.44773 19.4477 7.00003 19.9999 6.99999Z" fill="black"/>
<path d="M15.9999 14.5C16.5522 14.5 16.9999 14.9477 16.9999 15.5C16.9999 16.0522 16.5521 16.4999 15.9999 16.5H12.9999C12.4477 16.5 12 16.0522 11.9999 15.5C11.9999 14.9477 12.4476 14.5 12.9999 14.5H15.9999Z" fill="black"/>
</svg>
