<svg width="24" height="24" viewBox="0 0 24 24" fill="none" xmlns="http://www.w3.org/2000/svg">
<path d="M13.6035 20.0049C14.107 20.0567 14.501 20.4824 14.501 21C14.501 21.518 14.1063 21.9426 13.6025 21.9941L13.5967 21.9951L13.5078 22H10.501C9.94878 21.9999 9.50099 21.5522 9.50099 21C9.50099 20.4478 9.94878 20.0001 10.501 20H13.501L13.6035 20.0049Z" fill="black"/>
<path fill-rule="evenodd" clip-rule="evenodd" d="M12.3574 2.00879H12.3604C16.0612 2.19638 19.0068 5.25365 19.0068 9V13C19.0068 13.682 19.3167 14.3282 19.8496 14.7568L20.1582 15.0049C21.7616 16.2923 20.9263 18.8354 18.9463 18.9932H18.9414L18.7578 19H5.24903C3.13102 18.9999 2.18826 16.3335 3.84278 15.0049L4.15235 14.7568C4.68528 14.3287 4.99513 13.6825 4.99513 13V9C4.99513 5.13279 8.13276 2.00009 12.001 2H12.0039L12.3574 2.00879ZM11.999 4C9.23431 4.00112 6.99513 6.23993 6.99513 9V13C6.99513 14.289 6.40962 15.5095 5.40333 16.3174L5.09474 16.5654C4.91563 16.7096 5.01665 16.9999 5.24903 17H18.7529C18.9845 16.9993 19.0853 16.7096 18.9072 16.5654L18.5986 16.3174C17.5941 15.5101 17.0068 14.2897 17.0068 13V9C17.0068 6.32573 14.9034 4.141 12.2578 4.00684L11.999 4Z" fill="black"/>
</svg>
