<svg width="24" height="24" viewBox="0 0 24 24" fill="none" xmlns="http://www.w3.org/2000/svg">
<path fill-rule="evenodd" clip-rule="evenodd" d="M16.6429 3.04293C17.8333 1.85262 19.6672 1.85289 20.8577 3.04293C22.0105 4.19621 22.0471 5.95361 20.9661 7.14449L20.8577 7.25777L17.9349 10.1767L19.6214 18.5136L19.6478 18.6259L19.6488 18.6298C19.7717 19.2331 19.5809 19.9519 19.014 20.3984L18.3577 21.0576C17.8372 21.5781 17.1308 21.7113 16.5413 21.5937C15.9747 21.4801 15.3668 21.0979 15.1175 20.4111L13.0716 15.1396L11.0872 17.124L11.2464 18.8603L11.2503 18.9502C11.2502 19.4478 11.0873 20.027 10.6575 20.457L9.55695 21.5576C9.33946 21.7748 9.03377 21.8799 8.72883 21.8427C8.42402 21.8051 8.15205 21.6287 7.99348 21.3652L6.02082 18.0771L2.73567 16.1074C2.4917 15.9606 2.32105 15.7153 2.26789 15.4355C2.21533 15.156 2.28385 14.8664 2.45734 14.6406L3.45734 13.3408L3.46027 13.3369L3.46516 13.331L3.46711 13.3281L3.53156 13.2548L3.54328 13.2431C3.97305 12.8135 4.5514 12.6506 5.04914 12.6504C5.07908 12.6504 5.11151 12.6516 5.14094 12.6543L6.87336 12.8105L8.8509 10.833L3.49348 8.78414C3.46618 8.77369 3.43393 8.76067 3.40266 8.74508C2.29051 8.18846 1.78592 6.60011 2.84309 5.54293L3.55109 4.8359L3.63606 4.75777L3.64387 4.74996C3.88254 4.5489 4.15612 4.43476 4.36945 4.3691L4.37336 4.36812L4.55891 4.31832L4.56379 4.31734C4.76021 4.27283 4.96189 4.25005 5.14973 4.24996H5.17805L5.32649 4.26656L5.3343 4.26754C5.33902 4.26794 5.34432 4.26856 5.34895 4.26949L13.721 5.96285L16.6429 3.04293ZM18.7503 4.15035C18.51 4.15033 18.2646 4.24934 18.057 4.45699L14.7571 7.75777C14.5201 7.99453 14.1797 8.09636 13.8519 8.03023L5.0843 6.25582C5.06765 6.25757 5.0506 6.25897 5.03449 6.26168L4.95344 6.28121C4.93809 6.28601 4.92645 6.29071 4.91828 6.29391L4.27668 6.93648C4.2795 6.93965 4.28327 6.94312 4.28742 6.94625L11.0071 9.51656C11.3229 9.63754 11.5584 9.91093 11.6292 10.2421C11.6995 10.5733 11.5966 10.918 11.3577 11.1572L7.95734 14.5576C7.74773 14.7671 7.45483 14.8733 7.15949 14.8466L5.03059 14.6513C4.99776 14.6531 4.974 14.6586 4.9593 14.664L4.72492 14.9697L7.26399 16.4931C7.3689 16.5562 7.46285 16.6381 7.5384 16.7343L7.60774 16.8359L9.04621 19.2373L9.23078 19.0537C9.23078 19.0537 9.23293 19.0507 9.23371 19.0488C9.23926 19.0339 9.24575 19.006 9.24738 18.9658L9.05402 16.8408C9.02737 16.5454 9.1334 16.2526 9.34309 16.0429L12.7532 12.6337L12.8236 12.5712L12.8255 12.5693L12.8323 12.5634L12.8431 12.5556L12.9212 12.5019L12.9261 12.498C13.1414 12.3657 13.4032 12.3179 13.6566 12.3711C13.9868 12.4409 14.2608 12.6738 14.3831 12.9882L16.9583 19.6279L17.6458 18.9404L17.6595 18.9287L17.6644 18.9238L15.8704 10.0488C15.8043 9.72101 15.9061 9.38059 16.1429 9.14352L19.4437 5.84371C19.6513 5.63608 19.7502 5.39053 19.7503 5.15035C19.7503 4.94041 19.6746 4.72625 19.5169 4.53707L19.4437 4.45699C19.236 4.24956 18.9905 4.15048 18.7503 4.15035Z" fill="black"/>
</svg>
