<svg width="24" height="24" viewBox="0 0 24 24" fill="none" xmlns="http://www.w3.org/2000/svg">
<path fill-rule="evenodd" clip-rule="evenodd" d="M3.85496 4.32715C5.02656 3.15637 6.92595 3.15716 8.09715 4.32812L9.27 5.50098C10.2826 6.51367 10.2089 8.09688 9.18504 9.12109L8.48484 9.81934C9.01954 10.9763 9.80443 12.1262 10.8393 13.1611C11.874 14.1957 13.0237 14.979 14.1792 15.5127L14.9643 14.7295L15.1538 14.5576C16.1355 13.7568 17.5847 13.8149 18.4995 14.7295L19.6811 15.9121L19.8696 16.1221L19.8784 16.1309C20.8388 17.3096 20.7707 19.0478 19.6723 20.1465L19.021 20.7969C18.0325 21.785 16.6235 22.18 15.2593 21.9229C12.4223 21.3864 9.38441 19.7569 6.81395 17.1865C4.24365 14.6162 2.61413 11.5791 2.07762 8.74219C1.82041 7.37788 2.21438 5.96708 3.20262 4.97852L3.85496 4.32715ZM6.68309 5.74219C6.31898 5.37829 5.74323 5.35341 5.35105 5.66797L5.26023 5.75098L4.61668 6.39355L4.58543 6.42383C4.11434 6.91615 3.90425 7.63123 4.04344 8.37012L4.13914 8.82129C4.67432 11.093 6.04646 13.5898 8.22801 15.7715C10.5552 18.0986 13.2417 19.5053 15.6304 19.957C16.3847 20.099 17.1137 19.8757 17.6069 19.3828L18.2583 18.7314L18.3266 18.6553C18.6247 18.2891 18.6254 17.7608 18.3266 17.3936L18.2583 17.3174L17.0845 16.1445C16.8885 15.9488 16.5721 15.9499 16.3784 16.1436L15.4565 17.0664C14.9812 17.5414 14.2344 17.7257 13.5639 17.4316C12.1113 16.7955 10.6879 15.8378 9.42527 14.5752C8.16784 13.3177 7.2117 11.9009 6.57469 10.4541C6.27499 9.77443 6.46299 9.0156 6.9448 8.5332L7.77098 7.70703C8.08476 7.39297 8.01842 7.07758 7.85594 6.91504L6.68309 5.74219Z" fill="black"/>
<path d="M12.9878 5.99023C14.2741 5.97311 15.5748 6.45136 16.562 7.43848L16.5805 7.45898L16.7573 7.64746C17.6115 8.60541 18.0253 9.81466 18.0093 11.0127C18.0014 11.5649 17.5468 12.0061 16.9956 11.999C16.4445 11.9907 16.002 11.5382 16.0093 10.9863C16.0196 10.2114 15.7332 9.43885 15.147 8.85254C14.5608 8.26664 13.7887 7.97997 13.0141 7.99023C12.463 7.99701 12.0083 7.55665 12.0005 7.00488C11.9934 6.45311 12.436 5.99794 12.9878 5.99023Z" fill="black"/>
<path d="M13.4341 1.97461C15.598 2.07828 17.7357 2.95725 19.3891 4.61035C21.1529 6.37412 22.0354 8.68893 22.0356 10.999L22.0307 11.1016C21.9828 11.5719 21.6085 11.9461 21.1382 11.9941L21.0356 11.999C20.4843 11.9983 20.0356 11.5513 20.0356 10.999C20.0354 9.20279 19.3529 7.40839 17.9868 6.03613C17.9834 6.03315 17.9792 6.02953 17.9751 6.02539C16.6012 4.65162 14.8016 3.96402 13.0005 3.96387C12.4485 3.96364 12.0006 3.51594 12.0005 2.96387C12.0006 2.41173 12.4486 1.9641 13.0005 1.96387L13.4341 1.97461Z" fill="black"/>
</svg>
