<svg width="24" height="24" viewBox="0 0 24 24" fill="none" xmlns="http://www.w3.org/2000/svg">
<path d="M10 14.0061C12.752 14.0062 14.9997 16.2541 15 19.0061V19.013L14.9951 19.1028L14.9941 19.1087C14.9458 19.5812 14.5691 19.9562 14.0957 20.0013L14 20.0061C13.4479 20.006 13.0001 19.5583 13 19.0061C12.9998 17.4103 11.7304 16.091 10.1533 16.01L9.99707 16.0061H6C4.35255 16.0063 3.00024 17.3587 3 19.0061V19.013L2.99512 19.1028L2.99414 19.1087C2.94581 19.5812 2.56912 19.9562 2.0957 20.0013L2 20.0061C1.48249 20.006 1.05738 19.6126 1.00586 19.1087L1.00488 19.1028L1 19.013V19.0061L1.00684 18.7493C1.14163 16.1156 3.33406 14.0063 6 14.0061H10Z" fill="black"/>
<path d="M19 13.0061C21.2521 13.0062 22.9998 14.7541 23 17.0061V17.013L22.9951 17.1028L22.9941 17.1087C22.9458 17.5812 22.5692 17.9562 22.0957 18.0013L22 18.0061C21.4479 18.006 21.0001 17.5583 21 17.0061C20.9998 15.9316 20.2529 15.1167 19.2188 15.0159L18.9941 15.0061H16C15.4479 15.006 15.0001 14.5583 15 14.0061C15.0003 13.4542 15.448 13.0063 16 13.0061H19Z" fill="black"/>
<path fill-rule="evenodd" clip-rule="evenodd" d="M4.7666 5.32646C6.50635 3.45296 9.44772 3.66536 11.1797 5.27275C11.1868 5.27932 11.1966 5.28875 11.2061 5.29814C12.9809 7.07316 13.0211 9.92996 11.1797 11.6399C9.44832 13.2468 6.60646 13.4603 4.86621 11.5862C3.24725 9.84186 3.07602 7.14776 4.7666 5.32646ZM9.81055 6.73271C8.74459 5.75082 7.09232 5.76111 6.23242 6.68681C5.32339 7.66618 5.3545 9.17174 6.33301 10.2259C7.19476 11.1534 8.75346 11.1627 9.81934 10.1731C10.7727 9.28762 10.8153 7.75664 9.81055 6.73271Z" fill="black"/>
<path fill-rule="evenodd" clip-rule="evenodd" d="M15.1299 5.96317C16.4033 4.73032 18.4882 4.74949 19.8408 5.85282L19.9697 5.96317L19.9746 5.96708L20.0059 5.99833C21.3306 7.32328 21.4283 9.49139 20.1025 10.8235L19.9697 10.9495C18.6662 12.1225 16.4154 12.3851 15.0566 10.8763C13.884 9.57266 13.6213 7.32177 15.1299 5.96317ZM18.6104 7.43192C17.9698 6.87537 16.9938 6.92764 16.5078 7.41239C16.5003 7.41988 16.4851 7.4356 16.4697 7.4495C15.9748 7.89512 15.9225 8.84604 16.543 9.53642C16.9886 10.0315 17.9395 10.0838 18.6299 9.46317C19.163 8.98333 19.2211 8.0615 18.6104 7.43192Z" fill="black"/>
</svg>
