<svg width="24" height="24" viewBox="0 0 24 24" fill="none" xmlns="http://www.w3.org/2000/svg">
<path d="M21.9998 2.5C22.552 2.5 22.9998 2.9264 22.9998 3.45238V20.5476C22.9998 21.0736 22.552 21.5 21.9998 21.5C21.4475 21.5 20.9998 21.0736 20.9998 20.5476V3.45238C20.9998 2.9264 21.4475 2.5 21.9998 2.5Z" fill="black"/>
<path d="M5.54872 2.79206C5.93988 2.4023 6.57297 2.403 6.96283 2.79402L15.4582 11.3194C15.848 11.7105 15.8472 12.3436 15.4563 12.7335L6.956 21.2081C6.5649 21.598 5.93184 21.5972 5.54188 21.2061C5.15196 20.815 5.1528 20.182 5.54384 19.7921L13.3361 12.0225L5.54579 4.20612C5.15614 3.81496 5.15773 3.18187 5.54872 2.79206Z" fill="black"/>
</svg>
