<svg width="24" height="24" viewBox="0 0 24 24" fill="none" xmlns="http://www.w3.org/2000/svg">
<path fill-rule="evenodd" clip-rule="evenodd" d="M15.1532 2.00195H15.1581C15.9523 2.06568 16.639 2.59939 16.8944 3.36426C17.1642 4.17494 16.8889 5.06577 16.2108 5.58398L16.2118 5.58496L16.2108 5.58594C16.2067 5.59002 16.2018 5.59321 16.1971 5.59668L15.0858 6.42871V6.45312L15.6053 9.56836C17.1425 9.84181 18.409 10.9929 18.7899 12.5527L18.9208 13.0918L18.9247 13.1045L18.954 13.2412L18.9569 13.2529C19.0992 14.0263 18.9024 14.827 18.4139 15.4492C17.9251 16.0716 17.1932 16.4511 16.4081 16.4961L16.2508 16.501H12.996V21.0039C12.9957 21.5211 12.6023 21.9464 12.0985 21.998L12.0926 21.999L12.0028 22.0039H11.995C11.4439 22.0029 10.9963 21.5555 10.996 21.0039V16.501H7.74792C6.90398 16.5008 6.10519 16.113 5.58385 15.4492C5.06315 14.7855 4.87516 13.9184 5.07506 13.0986L5.20788 12.5527C5.20861 12.5489 5.2097 12.5448 5.21081 12.541L5.30065 12.2324L5.30358 12.2207C5.7716 10.8321 6.96257 9.82453 8.38561 9.56836L8.90905 6.43359V6.43164L7.79479 5.59668C7.10701 5.08015 6.82601 4.18136 7.09752 3.36523C7.36973 2.54902 8.13431 1.99655 8.99499 1.99609H15.0028L15.1532 2.00195ZM8.9237 11.5068C8.07523 11.5799 7.35648 12.1861 7.15124 13.0254L7.01745 13.5713C6.96326 13.7933 7.0142 14.0305 7.15514 14.2119L7.21374 14.2783L7.32799 14.373C7.45057 14.4553 7.59686 14.5009 7.74792 14.501H16.2508C16.4808 14.5008 16.6984 14.395 16.8407 14.2139C16.9832 14.0322 17.0348 13.7946 16.9803 13.5713L16.8465 13.0254C16.6408 12.1847 15.9209 11.5774 15.0712 11.5059L14.8993 11.499H9.09557L8.9237 11.5068ZM8.99401 3.99707L10.1171 4.83887L10.202 4.9082L10.2059 4.91016L10.2176 4.91992C10.7423 5.37399 10.9972 6.07177 10.8817 6.7627L10.4256 9.49902H13.5663L13.1131 6.77246L13.1122 6.76855L13.1092 6.75488L13.0946 6.6416L13.0936 6.63672L13.0917 6.62402C13.0257 5.93417 13.3232 5.25329 13.8827 4.83301L14.9891 4.00293L14.995 3.99707L14.9862 3.99609H9.0067L8.99401 3.99707Z" fill="black"/>
</svg>
