<svg width="24" height="24" viewBox="0 0 24 24" fill="none" xmlns="http://www.w3.org/2000/svg">
<path d="M2 2.5C1.44772 2.5 1 2.9264 1 3.45238V20.5476C1 21.0736 1.44772 21.5 2 21.5C2.55228 21.5 3 21.0736 3 20.5476V3.45238C3 2.9264 2.55228 2.5 2 2.5Z" fill="black"/>
<path d="M18.4513 2.79206C18.0601 2.4023 17.427 2.403 17.0372 2.79402L8.54176 11.3194C8.15204 11.7105 8.15281 12.3436 8.54371 12.7335L17.044 21.2081C17.4351 21.598 18.0682 21.5972 18.4581 21.2061C18.848 20.815 18.8472 20.182 18.4562 19.7921L10.6639 12.0225L18.4542 4.20612C18.8439 3.81496 18.8423 3.18187 18.4513 2.79206Z" fill="black"/>
</svg>
