<svg width="24" height="24" viewBox="0 0 24 24" fill="none" xmlns="http://www.w3.org/2000/svg">
<path fill-rule="evenodd" clip-rule="evenodd" d="M12.3926 2.66107C13.5874 1.70031 15.3224 1.78781 16.417 2.92572C17.491 4.0433 17.5708 5.78443 16.667 6.99994H20C21.104 7.00005 21.9998 7.89591 22 8.99994V11.0068L21.9902 11.1982V11.204C21.8876 12.2123 21.0352 12.9998 20 12.9999V20.0068L19.9902 20.1982V20.204C19.8876 21.2123 19.0352 21.9999 18 21.9999H6C4.96472 21.9999 4.11335 21.2123 4.01074 20.204L4.00977 20.1982L4 20.0068V12.9999C2.96472 12.9999 2.11335 12.2123 2.01074 11.204L2.00977 11.1982L2 11.0068V8.99994C2.00022 7.89587 2.89582 6.99994 4 6.99994H7.33301C6.42901 5.78441 6.50888 4.04334 7.58301 2.92572C8.74399 1.71879 10.6226 1.6959 11.8154 2.84857C11.843 2.87142 11.8727 2.898 11.9004 2.9267C11.9346 2.96235 11.9683 2.99912 12 3.03607C12.0317 2.99912 12.0654 2.96234 12.0996 2.9267C12.12 2.90552 12.1427 2.88332 12.167 2.86224L12.3877 2.66595L12.3926 2.66107ZM6 19.9853L6.00293 19.9999H11V12.9999H6V19.9853ZM13 19.9999H17.9902L18 19.998V12.9999H13V19.9999ZM4 10.9853L4.00293 10.9999H11V8.99994H4V10.9853ZM13 10.9999H19.9902L20 10.998V9.00287L19.9854 8.99994H13V10.9999ZM10.458 4.31342C10.0574 3.89715 9.42376 3.89713 9.02344 4.31342C8.60441 4.75064 8.60303 5.47489 9.01953 5.914C9.02114 5.91554 9.02289 5.91726 9.02441 5.91888C9.54648 6.46197 10.3115 6.75456 10.9883 6.89349C10.9962 6.71202 11.0022 6.51631 10.9961 6.31439C10.9833 5.89211 10.9361 5.46562 10.8379 5.09467C10.7391 4.72227 10.6048 4.47013 10.4639 4.32025L10.459 4.31537L10.458 4.31342ZM14.9756 4.31342C14.6003 3.92319 14.0211 3.89878 13.6201 4.24017L13.542 4.31342C13.5388 4.3166 13.535 4.31884 13.5322 4.32123C13.3925 4.4711 13.2605 4.72364 13.1621 5.09467C13.0639 5.46563 13.0167 5.89209 13.0039 6.31439C12.9978 6.51653 13.0024 6.71243 13.0098 6.89349C13.6847 6.75503 14.4472 6.46355 14.9697 5.92279C14.9705 5.92197 14.9742 5.91814 14.9785 5.914C15.3959 5.47472 15.3951 4.7507 14.9756 4.31342Z" fill="black"/>
</svg>
