<svg width="24" height="24" viewBox="0 0 24 24" fill="none" xmlns="http://www.w3.org/2000/svg">
<path fill-rule="evenodd" clip-rule="evenodd" d="M16.127 2.79389C16.9076 2.01347 18.1758 2.01172 18.957 2.79389L21.208 5.04486C21.9799 5.81787 21.9854 7.06319 21.2275 7.84564C21.2235 7.85254 21.2181 7.86284 21.208 7.87299L7.87695 21.2011L7.875 21.206C7.49866 21.5841 6.98723 21.7938 6.45898 21.7939H3.20801C2.69044 21.7939 2.2657 21.4 2.21387 20.8964L2.21289 20.8906L2.20801 20.8007V17.5429C2.20817 17.0149 2.41708 16.5032 2.79492 16.1269L16.127 2.79389ZM4.20898 17.5429L4.20801 19.7939H6.45801L16.334 9.91498L14.085 7.66596L4.20898 17.5429ZM15.499 6.24994L17.75 8.50092L19.792 6.45892L17.542 4.20795L15.499 6.24994Z" fill="black"/>
</svg>
