<svg width="24" height="24" viewBox="0 0 24 24" fill="none" xmlns="http://www.w3.org/2000/svg">
<path d="M7.90625 6.34082C8.31903 6.23464 8.77148 6.32257 9.11816 6.60547L9.22266 6.69922L9.31641 6.80371C9.70207 7.27627 9.72686 7.94607 9.38965 8.44336C9.3415 8.51438 9.28556 8.58161 9.22266 8.64453C8.9542 8.91299 8.60205 9.04783 8.25 9.04785C7.94198 9.04785 7.63388 8.94474 7.38184 8.73926C7.34576 8.70985 7.31097 8.67815 7.27734 8.64453C7.24372 8.6109 7.21203 8.57612 7.18262 8.54004C7.03586 8.35998 6.94132 8.15134 6.89941 7.93457C6.8659 7.76121 6.86587 7.58254 6.89941 7.40918C6.94135 7.19244 7.03584 6.98374 7.18262 6.80371C7.212 6.76768 7.24376 6.7328 7.27734 6.69922L7.38184 6.60547C7.41326 6.57983 7.44546 6.55565 7.47852 6.5332C7.54469 6.48826 7.61414 6.4501 7.68555 6.41797C7.75721 6.38574 7.83108 6.36015 7.90625 6.34082Z" fill="black"/>
<path fill-rule="evenodd" clip-rule="evenodd" d="M18 2C20.2093 2 22 3.79072 22 6V18C22 20.2093 20.2093 22 18 22H6C3.79072 22 2 20.2093 2 18V6C2 3.79072 3.79072 2 6 2H18ZM11.1387 14.9873C10.9924 15.1335 10.8119 15.2251 10.623 15.2617C10.5284 15.2801 10.4316 15.2845 10.3359 15.2754C10.1129 15.2541 9.89546 15.1581 9.72461 14.9873L8.31934 13.5811L4 17.9004V18C4 19.1047 4.89528 20 6 20H18C19.1047 20 20 19.1047 20 18V14.6953L15.7158 10.4111L11.1387 14.9873ZM6 4C4.89528 4 4 4.89528 4 6V15.0723L6.90527 12.167C7.24672 11.8257 7.68099 11.6329 8.12695 11.5898C8.25457 11.5775 8.38312 11.5777 8.51074 11.5898C8.95695 11.6324 9.3916 11.8247 9.7334 12.167L10.4316 12.8652L14.3018 8.99707C14.3993 8.89948 14.5044 8.81346 14.6152 8.74023C14.6705 8.70371 14.7272 8.67011 14.7852 8.63965C15.0173 8.51754 15.2685 8.44448 15.5234 8.41992C15.5874 8.41376 15.6516 8.41115 15.7158 8.41113L15.9072 8.41992C16.3534 8.46249 16.7881 8.6549 17.1299 8.99707L20 11.8672V6C20 4.89528 19.1047 4 18 4H6Z" fill="black"/>
</svg>
