<svg width="24" height="24" viewBox="0 0 24 24" fill="none" xmlns="http://www.w3.org/2000/svg">
<path d="M8.99927 16.0021C9.55119 16.0025 9.99916 16.4502 9.99927 17.0021C9.99914 17.5541 9.55118 18.0018 8.99927 18.0021H6.99829C6.44609 18.0021 5.99842 17.5543 5.99829 17.0021C5.9984 16.4499 6.44608 16.0021 6.99829 16.0021H8.99927Z" fill="black"/>
<path fill-rule="evenodd" clip-rule="evenodd" d="M17.5168 1.99628C18.8185 1.99622 19.9949 2.77276 20.5061 3.96991L21.6057 6.53241L21.6077 6.53632C21.871 7.15676 22.0058 7.82426 22.0042 8.49823V19.0031C22.0041 20.6603 20.6603 22.004 19.0032 22.0041H5.24731C3.45196 22.0041 1.99649 20.5484 1.99634 18.7531V8.49823C1.99607 7.82299 2.1338 7.15506 2.39966 6.53436L3.49341 3.96991C4.00464 2.77272 5.18089 1.99609 6.48267 1.99628H17.5168ZM4.99731 8.99823C4.47917 8.99823 4.05255 9.39207 4.00122 9.89667L3.99634 9.99921V18.7531C3.99649 19.4439 4.55653 20.0041 5.24731 20.0041H19.0032C19.5558 20.004 20.0041 19.5557 20.0042 19.0031V9.99921C20.0041 9.44657 19.5558 8.99832 19.0032 8.99823H4.99731ZM13.0002 6.99823H19.0032C19.2103 6.99824 19.4124 7.01979 19.6077 7.05975C19.6258 7.06346 19.6434 7.06939 19.6614 7.07343L18.6672 4.75702L18.6663 4.75507C18.4696 4.29482 18.0174 3.99622 17.5168 3.99628H13.0002V6.99823ZM6.48267 3.99628C5.98197 3.99615 5.52894 4.29462 5.33228 4.75507L4.34399 7.07147C4.36032 7.06785 4.3764 7.06311 4.39282 7.05975C4.58811 7.0198 4.79022 6.99823 4.99731 6.99823H11.0002V3.99628H6.48267Z" fill="black"/>
</svg>
