<svg width="24" height="24" viewBox="0 0 24 24" fill="none" xmlns="http://www.w3.org/2000/svg">
<path fill-rule="evenodd" clip-rule="evenodd" d="M12.0026 5.16445C12.1737 5.16451 12.3441 5.18083 12.5074 5.21425C12.6702 5.24767 12.8279 5.29804 12.9762 5.36073C13.0529 5.39323 13.1266 5.43058 13.194 5.46718L13.399 5.5912C13.4656 5.63568 13.5305 5.68373 13.5924 5.73476C13.9618 6.03981 14.244 6.45079 14.3902 6.9203C14.4389 7.07671 14.4728 7.24073 14.4899 7.40859C14.4984 7.49285 14.5025 7.57917 14.5026 7.66445L14.4957 7.80995C14.4805 7.95633 14.444 8.10925 14.3942 8.26113C14.3274 8.46425 14.2328 8.67702 14.1236 8.88905C14.014 9.10199 13.8861 9.31889 13.7516 9.53066C13.2235 10.362 12.5597 11.1537 12.3014 11.4525C12.1647 11.61 11.9324 11.6328 11.7692 11.5131L11.7633 11.5092L11.7584 11.5033L11.7145 11.4623L11.7037 11.4535C11.382 11.0813 10.4172 9.92747 9.88244 8.88905C9.77344 8.67722 9.67866 8.46411 9.61193 8.26113C9.54564 8.05915 9.50271 7.85503 9.50255 7.66445C9.50273 6.802 9.94068 6.04102 10.6041 5.59218C10.7366 5.50266 10.8793 5.42411 11.0289 5.36073L11.2594 5.27675C11.4944 5.20387 11.7446 5.16453 12.0026 5.16445ZM11.941 7.16738C11.8945 7.17302 11.8503 7.1862 11.8092 7.20351C11.7795 7.21609 11.7502 7.22995 11.7242 7.24745L11.7252 7.24843C11.6003 7.33292 11.5199 7.46704 11.5065 7.61952C11.508 7.6248 11.5103 7.63086 11.5123 7.6371C11.5365 7.7106 11.5832 7.82333 11.6608 7.97402C11.7548 8.15662 11.8744 8.34916 12.0035 8.5453C12.0232 8.51604 12.0444 8.48778 12.0631 8.45839C12.1738 8.28407 12.2697 8.12001 12.3453 7.97304C12.4228 7.82254 12.4695 7.70984 12.4938 7.63613L12.5006 7.61073L12.4811 7.51503C12.4531 7.4253 12.3964 7.34115 12.3199 7.27773C12.2975 7.25928 12.2705 7.24072 12.2399 7.22402L12.1969 7.20351C12.1608 7.18831 12.1296 7.17815 12.1061 7.17323C12.0801 7.16795 12.046 7.16471 12.0065 7.16445L11.941 7.16738Z" fill="black"/>
<path fill-rule="evenodd" clip-rule="evenodd" d="M7.86388 3.04823C10.2163 0.931386 13.7888 0.93164 16.1412 3.04823C18.5201 5.19054 18.8731 8.79688 16.9518 11.3588L15.7506 12.9564L19.6735 19.682C20.4109 20.9481 19.4984 22.5388 18.0328 22.5394H15.7145C15.0555 22.5391 14.4421 22.1962 14.0963 21.6351L12.0026 18.2309L9.9088 21.6351C9.56317 22.1966 8.94976 22.539 8.29064 22.5394H5.97228C4.5066 22.539 3.59267 20.9484 4.33068 19.682L8.25158 12.9564L7.05333 11.3588C5.13196 8.79669 5.48468 5.19043 7.86388 3.04823ZM14.8033 4.53456C13.2613 3.14701 10.9446 3.10392 9.35412 4.40468L9.20275 4.53456C7.59251 5.98424 7.3534 8.42414 8.65294 10.1576L10.4908 12.6068L10.4918 12.6078C10.5855 12.7348 10.5975 12.9084 10.5172 13.0473L6.14611 20.5394H8.234L11.6617 14.9701L11.6656 14.9633L11.6715 14.9564L11.7184 14.8988L11.7233 14.892L11.7291 14.8861C11.907 14.7197 12.2067 14.7489 12.3434 14.9701L15.7701 20.5394H17.859L13.4889 13.0482C13.4085 12.9094 13.4192 12.7355 13.5143 12.6078L15.3512 10.1576C16.6104 8.47841 16.4271 6.13605 14.9508 4.67323L14.8033 4.53456Z" fill="black"/>
</svg>
