<svg width="24" height="24" viewBox="0 0 24 24" fill="none" xmlns="http://www.w3.org/2000/svg">
<path d="M15.2871 8.80287C15.6776 8.4124 16.3107 8.41303 16.7012 8.80287C17.0917 9.19339 17.0917 9.82641 16.7012 10.2169L11.7021 15.216C11.3116 15.6064 10.6786 15.6064 10.2881 15.216L7.28809 12.216C6.89828 11.8255 6.89771 11.1924 7.28809 10.8019C7.67845 10.4122 8.31175 10.4121 8.70215 10.8019L10.9951 13.0949L15.2871 8.80287Z" fill="black"/>
<path fill-rule="evenodd" clip-rule="evenodd" d="M17.124 2.20717C17.6863 1.92941 18.3473 1.93124 18.9082 2.21303L19.8984 2.70912C20.5738 3.04867 21.0007 3.74182 21.001 4.49721V19.5031L20.9951 19.6437C20.9457 20.3432 20.5318 20.9708 19.8994 21.2892L18.9082 21.7863C18.418 22.0325 17.8508 22.0655 17.3398 21.8839L17.124 21.7921L15.998 21.2355L14.9023 21.7863C14.3398 22.0688 13.6759 22.0698 13.1123 21.7892L11.999 21.2345L10.8867 21.7892C10.3235 22.0694 9.66091 22.0684 9.09863 21.7863L8 21.2355L6.87695 21.7921C6.31404 22.0704 5.6524 22.0679 5.0918 21.7863L4.10156 21.2892C3.46851 20.9709 3.05436 20.3435 3.00488 19.6437V19.6349L3 19.5119V4.49721C3.00032 3.74178 3.42611 3.04864 4.10156 2.70912L5.0918 2.21303C5.6527 1.93131 6.31363 1.92931 6.87598 2.20717L8.00098 2.76283L9.09863 2.21303C9.66127 1.93083 10.3239 1.93102 10.8867 2.21107L10.8857 2.21205L11.999 2.76283L13.1123 2.21107C13.6754 1.93088 14.3395 1.93038 14.9023 2.21303L15.9971 2.76283L17.124 2.20717ZM18.0107 4.00111L16.4375 4.77748C16.1918 4.89891 15.9076 4.914 15.6523 4.82142L15.5449 4.77455L14.0039 4.00014L12.4453 4.7765C12.1651 4.91558 11.8342 4.91602 11.5537 4.7765L9.99609 4.00014L8.45605 4.77455C8.1752 4.91555 7.84231 4.91532 7.56152 4.7765L5.99023 4.00014L5 4.49818V19.4826L5.00293 19.5031L5.98926 19.9992L7.56152 19.2218L7.66895 19.1759C7.92431 19.085 8.20945 19.1005 8.45508 19.2238L9.99512 19.9982L11.5547 19.2238L11.5654 19.2179L11.6465 19.1828L11.6611 19.1769C11.9167 19.0851 12.1998 19.1023 12.4443 19.2238L14.0029 19.9982L14.0039 19.9992L15.5449 19.2238L15.6523 19.1779C15.9076 19.0855 16.1921 19.1007 16.4375 19.2218L18.0098 19.9982L19 19.5021L19.001 4.49721L19 4.49818L18.0107 4.00111Z" fill="black"/>
</svg>
