<svg width="24" height="24" viewBox="0 0 24 24" fill="none" xmlns="http://www.w3.org/2000/svg">
<path d="M17.1062 14.226H17.1091L17.1198 14.227L17.1286 14.2279L17.1364 14.2299L17.2624 14.2592L17.2712 14.2611C17.9602 14.4738 18.2455 15.3823 17.6853 15.9467L12.7106 20.9506C12.3138 21.3491 11.667 21.3505 11.2702 20.9506L6.31123 15.9467C5.67726 15.3059 6.1325 14.2183 7.03291 14.2172H16.9821L17.1062 14.226Z" fill="black"/>
<path d="M11.2878 3.05021C11.6846 2.65123 12.3303 2.65066 12.7272 3.05021L17.6862 8.05412C18.3213 8.69508 17.8663 9.78361 16.9646 9.78361H7.01533L6.89131 9.77482L6.88936 9.77384L6.87862 9.77287H6.8708C6.08019 9.64957 5.71641 8.65558 6.31221 8.05412L11.2878 3.05021Z" fill="black"/>
</svg>
