<svg width="24" height="24" viewBox="0 0 24 24" fill="none" xmlns="http://www.w3.org/2000/svg">
<path fill-rule="evenodd" clip-rule="evenodd" d="M12.1396 2.00586C12.8294 2.05412 13.4503 2.4572 13.7734 3.07617L16.0898 7.51758L20.331 8.23242C21.0651 8.35633 21.6709 8.87809 21.9013 9.58594C22.1311 10.2941 21.948 11.0736 21.4267 11.6055L18.2548 14.8369L18.9784 19.7051C19.0877 20.4416 18.778 21.1801 18.1757 21.6182C17.6105 22.0285 16.8743 22.1109 16.2353 21.8467L16.1093 21.79L11.9999 19.7451L7.89153 21.79C7.22494 22.1214 6.42786 22.0556 5.82512 21.6182C5.22271 21.1803 4.91213 20.442 5.02141 19.7051L5.74211 14.8359L2.57414 11.6055C2.05253 11.0736 1.86961 10.2943 2.09953 9.58594C2.32996 8.87813 2.9356 8.35624 3.66985 8.23242L7.90715 7.51758L10.2265 3.07617C10.5713 2.41607 11.2561 2.00105 12.0009 2.00098L12.1396 2.00586ZM9.45207 8.88379C9.40318 8.97747 9.34022 9.05154 9.28606 9.1084L9.23332 9.16211C9.20289 9.18952 9.172 9.21277 9.14739 9.23047L9.07219 9.28027C9.04189 9.29808 9.00977 9.31582 8.97844 9.33008L8.88567 9.36719C8.88016 9.36906 8.86275 9.37566 8.84856 9.37988C8.81665 9.38927 8.77563 9.39973 8.73137 9.40723L4.00188 10.2041L7.52141 13.793L7.52825 13.7998L7.60051 13.8857L7.60735 13.8926L7.60637 13.8936L7.61418 13.9043L7.61907 13.9111C7.62068 13.9137 7.62167 13.9165 7.62297 13.9189L7.67668 14.0059L7.68254 14.0156L7.72063 14.0938C7.7354 14.1275 7.74789 14.1603 7.75774 14.1914C7.76401 14.2112 7.77306 14.2419 7.7802 14.2734C7.78921 14.3135 7.7943 14.3517 7.79778 14.3828C7.79932 14.3966 7.80626 14.4431 7.80657 14.4863C7.80659 14.4905 7.80681 14.5039 7.80657 14.5156C7.8056 14.5571 7.80193 14.5994 7.79582 14.6406L7.0009 19.9971L11.5546 17.7334L11.6562 17.6904C11.6588 17.6893 11.6613 17.6875 11.664 17.6865C11.6769 17.682 11.6906 17.6787 11.6943 17.6777C11.6981 17.6767 11.7012 17.6753 11.7031 17.6748C11.7053 17.6742 11.7037 17.6753 11.7021 17.6758L11.7099 17.6729L11.7978 17.6523L11.8017 17.6514C11.8339 17.6449 11.8688 17.6402 11.9042 17.6367C11.9375 17.6335 11.97 17.6319 11.9989 17.6318C12.0283 17.6318 12.0615 17.6336 12.0947 17.6367C12.1306 17.6402 12.1653 17.6459 12.1972 17.6523H12.2011L12.288 17.6729L12.2948 17.6748L12.2958 17.6758C12.2965 17.676 12.2978 17.6756 12.2988 17.6758C12.3011 17.6765 12.305 17.6777 12.3085 17.6787C12.3149 17.6806 12.3242 17.6835 12.3329 17.6865C12.3666 17.6985 12.4072 17.714 12.4462 17.7334L16.9989 19.9971L16.204 14.6406C16.1976 14.5972 16.1952 14.5549 16.1943 14.5156C16.194 14.5039 16.1942 14.4904 16.1943 14.4863C16.1946 14.4387 16.2011 14.3928 16.204 14.3691C16.2057 14.3553 16.2093 14.3177 16.2167 14.2832L16.248 14.1738L16.2489 14.1709L16.2734 14.1045L16.2753 14.0977C16.2917 14.0597 16.3111 14.0263 16.3261 14C16.3357 13.9832 16.355 13.9483 16.3779 13.916L16.3984 13.8867L16.4013 13.8838C16.4245 13.8538 16.4508 13.8222 16.4794 13.793L19.998 10.2051L19.997 10.2031L15.2695 9.40723C15.2215 9.39912 15.1772 9.38623 15.1435 9.37598C15.1397 9.37481 15.1351 9.3732 15.1318 9.37207C15.1304 9.37175 15.1285 9.37156 15.1269 9.37109L15.122 9.36914L15.121 9.36816C15.1177 9.36703 15.1145 9.36566 15.1113 9.36426C15.0761 9.35202 15.044 9.33943 15.0234 9.33008L15.0185 9.32715L14.9306 9.28223L14.9228 9.27832C14.8982 9.2636 14.8758 9.24748 14.8573 9.23438L14.7656 9.16113C14.7439 9.14147 14.7243 9.1205 14.7128 9.1084C14.6559 9.04857 14.5953 8.97483 14.5478 8.88379L11.9999 4.00098L9.45207 8.88379Z" fill="black"/>
</svg>
