<svg width="24" height="24" viewBox="0 0 24 24" fill="none" xmlns="http://www.w3.org/2000/svg">
<path fill-rule="evenodd" clip-rule="evenodd" d="M11 2.5C15.6943 2.5 19.4999 6.3057 19.5 11C19.5 12.9861 18.8133 14.8092 17.6719 16.2559L21.208 19.792C21.5969 20.1822 21.5977 20.8167 21.208 21.207L21.207 21.208C20.8167 21.5972 20.1841 21.5968 19.7939 21.208L16.2568 17.6719C14.8101 18.8136 12.9864 19.5 11 19.5C6.30561 19.5 2.5 15.6944 2.5 11C2.50048 6.3059 6.30587 2.50038 11 2.5ZM11 4.5C7.41039 4.50034 4.50043 7.4104 4.5 11C4.5 14.5898 7.41018 17.5 11 17.5C14.5899 17.5 17.5 14.5899 17.5 11C17.4999 7.41026 14.5898 4.5 11 4.5Z" fill="black"/>
</svg>
