<svg width="24" height="24" viewBox="0 0 24 24" fill="none" xmlns="http://www.w3.org/2000/svg">
<path fill-rule="evenodd" clip-rule="evenodd" d="M3.14699 6.47389C2.13759 4.78601 3.91515 2.81293 5.69777 3.62916L19.9702 10.1809C20.7042 10.5178 21.0893 11.1924 21.1294 11.8792L21.1402 11.9944C21.1401 12.0467 21.1309 12.1001 21.1265 12.1292C21.0825 12.8109 20.7002 13.4803 19.9702 13.8157L5.7046 20.3674C3.91564 21.1874 2.14728 19.2051 3.15382 17.5208L6.45753 12.0032L3.14699 6.47389ZM8.188 13.0081L4.87062 18.5471L4.86964 18.5481L16.9536 12.9973L8.188 13.0081ZM8.19288 11.0061L16.9595 10.9983L4.86574 5.4485L8.19288 11.0061Z" fill="black"/>
</svg>
