<svg width="24" height="24" viewBox="0 0 24 24" fill="none" xmlns="http://www.w3.org/2000/svg">
<path d="M11.9873 13.5957C11.9901 13.5958 11.9933 13.5964 11.9961 13.5967H11.998C12.0006 13.597 12.0033 13.5971 12.0059 13.5977H12.0088C12.5927 13.6538 13.0498 14.1438 13.0498 14.7422L13.0449 14.8525C12.9928 15.3972 12.5604 15.8314 12.0166 15.8867L12.0098 15.8877L11.9053 15.8926H11.8994C11.3063 15.8926 10.8195 15.4433 10.7568 14.8672L10.7559 14.8613L10.7529 14.8477L10.749 14.7559V14.7363L10.7539 14.6367V14.6309C10.8027 14.113 11.1942 13.7037 11.6895 13.6123L11.6943 13.6113L11.791 13.5977H11.7959C11.8259 13.5946 11.8611 13.5918 11.8984 13.5918H11.9102L11.9873 13.5957Z" fill="black"/>
<path d="M11.9004 6.75977C13.3679 6.76 14.5593 7.94962 14.5596 9.41895V9.4248L14.5508 9.62891V9.63379C14.4623 10.6854 13.7384 11.2499 13.2959 11.5479L13.2949 11.5488C13.1147 11.6699 13.0192 11.7572 12.9648 11.8301L12.9639 11.8291C12.9266 11.8794 12.8995 11.9358 12.8994 12.0459V12.2598L12.8945 12.3496L12.8936 12.3555C12.8452 12.8254 12.472 13.1989 12.002 13.2471L11.9961 13.248L11.9062 13.2529H11.8994C11.3472 13.2529 10.8998 12.8047 10.8994 12.2529V12.0459C10.8996 10.8442 11.6939 10.2149 12.1777 9.88965L12.2959 9.80566C12.3986 9.72902 12.4612 9.66983 12.499 9.61914C12.527 9.58134 12.5462 9.54404 12.5547 9.48926L12.5586 9.41504C12.5564 9.07687 12.3006 8.79818 11.9717 8.7627L11.8984 8.75977C11.5341 8.76082 11.2405 9.05576 11.2402 9.41797C11.2398 9.93518 10.8466 10.3605 10.3428 10.4121L10.3369 10.4131L10.2471 10.418H10.2402C9.72259 10.418 9.29787 10.0241 9.24609 9.52051L9.24512 9.51465L9.24023 9.4248V9.41797L9.25391 9.14551C9.3907 7.80308 10.5259 6.75977 11.9004 6.75977Z" fill="black"/>
<path fill-rule="evenodd" clip-rule="evenodd" d="M12 2.0332C17.4087 2.0332 21.9998 6.03383 22 11.2158L21.9863 11.6982C21.7116 16.6439 17.2396 20.3984 12 20.3984C11.414 20.3984 10.8431 20.3457 10.2881 20.2568L7.04395 21.8633C6.73427 22.0163 6.36582 21.9984 6.07227 21.8164C5.77872 21.6339 5.5998 21.3109 5.59961 20.9658C5.59961 19.9836 5.59856 19.0329 5.59863 18.2529C3.49664 16.6427 2.09042 14.2381 2.00391 11.4854L2 11.2158C2.00022 6.03383 6.59134 2.0332 12 2.0332ZM12 4.03418C7.5063 4.03418 4.00021 7.31891 4 11.2158L4.01465 11.6465C4.15616 13.7831 5.34301 15.6799 7.16309 16.9238C7.43604 17.1106 7.5989 17.421 7.59863 17.751C7.59809 18.2117 7.59831 18.7588 7.59863 19.3545L9.6875 18.3223L9.69629 18.3184L9.70605 18.3145L9.8291 18.2656L9.83984 18.2617C9.99401 18.2148 10.1588 18.2056 10.3193 18.2363C10.8638 18.3409 11.425 18.3984 12 18.3984C16.3533 18.3984 19.7802 15.3148 19.9902 11.5791L20 11.2158C19.9998 7.31891 16.4937 4.03418 12 4.03418Z" fill="black"/>
</svg>
