<svg width="24" height="24" viewBox="0 0 24 24" fill="none" xmlns="http://www.w3.org/2000/svg">
<path fill-rule="evenodd" clip-rule="evenodd" d="M13.9385 3.00391L13.9443 3.00488C15.4171 3.15491 16.5664 4.39767 16.5664 5.91016V6.45508H19C20.6728 6.45522 22.0283 7.81056 22.0283 9.4834V17.9863L22.0244 18.1357V18.1396C21.9478 19.6396 20.7805 20.8515 19.2998 20.9971L19 21.0117H5C3.37968 21.0117 2.05728 19.7396 1.97559 18.1396V18.1357L1.97168 17.9863V9.4834C1.97168 7.81048 3.32709 6.45508 5 6.45508H7.43359V5.91016C7.43359 4.29667 8.74089 2.98828 10.3545 2.98828H13.6523L13.9385 3.00391ZM5 8.51172C4.46291 8.51172 4.02832 8.94631 4.02832 9.4834V17.9766L4.03418 18.0889C4.08694 18.576 4.49897 18.9551 5 18.9551H6.5V8.51172H5ZM8.5 18.9551H15.5V16.9834H13C12.4478 16.9834 12.0005 16.5351 12 15.9834V12.9834C12 12.4311 12.4477 11.9834 13 11.9834H15.5V8.51172H8.5V18.9551ZM17.5 11.9834H18C18.5521 11.9835 19 12.4312 19 12.9834V15.9902L18.9951 16.0801L18.9941 16.0859C18.9456 16.558 18.5691 16.9334 18.0957 16.9785L18 16.9834H17.5V18.9551H19L19.0928 18.9502C19.551 18.9067 19.9154 18.5454 19.9648 18.0889L19.9717 17.9834V9.4834C19.9717 8.98005 19.5898 8.5665 19.0996 8.5166L19 8.51172H17.5V11.9834ZM14 14.9834H17V13.9834H14V14.9834ZM10.3545 4.83105C9.75804 4.83105 9.27539 5.3137 9.27539 5.91016V6.45508H14.7246V5.91016C14.7246 5.35325 14.3032 4.894 13.7617 4.83594L13.6396 4.83105H10.3545Z" fill="black"/>
</svg>
