<svg width="24" height="24" viewBox="0 0 24 24" fill="none" xmlns="http://www.w3.org/2000/svg">
<path fill-rule="evenodd" clip-rule="evenodd" d="M18.1019 15.9291C18.4021 14.9871 19.7034 14.9578 20.0658 15.8412L20.098 15.9291L20.6225 17.5775L22.2709 18.1019C23.2432 18.4117 23.2432 19.7882 22.2709 20.098L20.6225 20.6225L20.098 22.2709C19.7882 23.243 18.4117 23.2431 18.1019 22.2709L17.5766 20.6225L15.9291 20.098C14.957 19.7882 14.9571 18.4119 15.9291 18.1019L17.5766 17.5766L18.1019 15.9291ZM18.7768 18.0961C18.6737 18.4196 18.4196 18.6738 18.0961 18.7768L17.0805 19.1L18.0961 19.4232C18.3792 19.5134 18.6089 19.719 18.7309 19.9857L18.7768 20.1039L19.1 21.1186L19.4232 20.1039L19.4691 19.9857C19.5911 19.7191 19.8209 19.5134 20.1039 19.4232L21.1186 19.1L20.1039 18.7768C19.7804 18.6737 19.5262 18.4197 19.4232 18.0961L19.1 17.0805L18.7768 18.0961Z" fill="black"/>
<path fill-rule="evenodd" clip-rule="evenodd" d="M8.77832 2.4414C9.39027 0.519525 12.1097 0.51954 12.7217 2.4414L14.2412 7.21386C14.248 7.23526 14.2647 7.25198 14.2861 7.25879L19.0586 8.77832C20.9804 9.39024 20.9805 12.1097 19.0586 12.7217L14.2861 14.2412C14.2648 14.248 14.248 14.2648 14.2412 14.2861L12.7217 19.0586C12.1097 20.9804 9.39025 20.9805 8.77832 19.0586L7.25879 14.2861C7.25196 14.2648 7.23523 14.248 7.21386 14.2412L2.4414 12.7217C0.519522 12.1097 0.519543 9.39026 2.4414 8.77832L7.21386 7.25879C7.23524 7.25197 7.25198 7.23525 7.25879 7.21386L8.77832 2.4414ZM10.7041 3.01074C10.7023 3.01197 10.7001 3.01318 10.6982 3.01562C10.6966 3.01784 10.6902 3.02704 10.6836 3.04785L9.16504 7.82129C8.9614 8.46058 8.45966 8.96151 7.82031 9.16504L3.04785 10.6836C3.02704 10.6902 3.01784 10.6966 3.01562 10.6982C3.01318 10.7001 3.01197 10.7023 3.01074 10.7041C3.00726 10.7094 3 10.725 3 10.75C3 10.775 3.00726 10.7906 3.01074 10.7959C3.01197 10.7977 3.01318 10.7999 3.01562 10.8018C3.01785 10.8034 3.02705 10.8098 3.04785 10.8164L7.82129 12.335C8.46059 12.5386 8.9615 13.0403 9.16504 13.6797L10.6846 18.4521C10.6912 18.4728 10.6976 18.4822 10.6992 18.4844C10.7009 18.4865 10.7024 18.4881 10.7041 18.4893C10.7094 18.4927 10.725 18.5 10.75 18.5C10.7749 18.5 10.7905 18.4928 10.7959 18.4893C10.7977 18.488 10.7999 18.4868 10.8018 18.4844C10.8034 18.4822 10.8098 18.4729 10.8164 18.4521L12.335 13.6797C12.5385 13.0402 13.0402 12.5385 13.6797 12.335L18.4521 10.8164C18.4729 10.8098 18.4822 10.8034 18.4844 10.8018C18.4868 10.7999 18.488 10.7977 18.4893 10.7959C18.4928 10.7905 18.5 10.7749 18.5 10.75C18.5 10.725 18.4927 10.7094 18.4893 10.7041C18.4881 10.7024 18.4865 10.7009 18.4844 10.6992C18.4822 10.6976 18.4728 10.6912 18.4521 10.6846L13.6797 9.16504C13.0403 8.96151 12.5386 8.46067 12.335 7.82129L10.8164 3.04785C10.8098 3.02705 10.8034 3.01784 10.8018 3.01562C10.7999 3.01318 10.7977 3.01197 10.7959 3.01074C10.7906 3.00726 10.775 3 10.75 3C10.725 3 10.7094 3.00726 10.7041 3.01074Z" fill="black"/>
</svg>
