<svg width="24" height="24" viewBox="0 0 24 24" fill="none" xmlns="http://www.w3.org/2000/svg">
<path d="M17.0962 4.00488L17.1021 4.00586C17.606 4.05739 17.9994 4.48254 17.9995 5V16.585L19.2925 15.292C19.6829 14.9021 20.3163 14.9026 20.7066 15.292C21.097 15.6825 21.097 16.3175 20.7066 16.708L17.7066 19.708C17.636 19.7785 17.5586 19.8277 17.4927 19.8652C17.4752 19.8753 17.4291 19.9031 17.3814 19.9229C17.3355 19.9418 17.2892 19.9529 17.2583 19.9609L17.2593 19.9619C17.2593 19.9619 17.2566 19.9632 17.2544 19.9639L17.2535 19.9629L17.2476 19.9658L17.1851 19.9814L17.1802 19.9824H17.1783L17.1773 19.9834H17.1753L17.1646 19.9854L17.0113 19.999L16.9995 20.001C16.9374 20.0009 16.8793 19.9924 16.8277 19.9834H16.8247L16.8189 19.9824C16.8158 19.9819 16.8111 19.9814 16.8111 19.9814L16.8062 19.9805L16.8013 19.9785C16.7844 19.9751 16.7652 19.9704 16.7515 19.9658C16.7473 19.9644 16.7437 19.9639 16.7437 19.9639L16.7388 19.9609C16.7086 19.9531 16.6621 19.9416 16.6167 19.9229C16.5697 19.9033 16.5254 19.8767 16.5054 19.8652C16.439 19.8272 16.3623 19.7776 16.2925 19.708L13.2925 16.708C12.9025 16.3175 12.9021 15.6824 13.2925 15.292C13.6829 14.9021 14.3163 14.9026 14.7066 15.292L15.9995 16.585V5C15.9997 4.44807 16.4477 4.00035 16.9995 4H17.0064L17.0962 4.00488Z" fill="black"/>
<path d="M7.03373 4.00098H7.03568L7.05814 4.00195C7.06279 4.00219 7.06729 4.00417 7.07181 4.00488C7.1181 4.00813 7.16532 4.0135 7.21146 4.02344L7.22025 4.02539L7.30717 4.05078L7.31107 4.05176C7.42744 4.08999 7.53236 4.14946 7.62357 4.22266C7.6294 4.2273 7.67429 4.26096 7.7056 4.29199L10.7066 7.29199C11.0969 7.68238 11.0965 8.31555 10.7066 8.70605C10.3164 9.09553 9.68314 9.09812 9.29252 8.70801L7.99955 7.41504V19C7.99955 19.5177 7.60607 19.9426 7.10209 19.9941L7.09623 19.9951L7.00638 20H6.99955C6.44772 19.9996 5.99955 19.5522 5.99955 19V7.41504L4.70658 8.70801C4.31625 9.09767 3.68296 9.09794 3.29252 8.70801C2.90252 8.31752 2.90214 7.68243 3.29252 7.29199L6.29642 4.28809L6.30619 4.28125L6.35404 4.2373L6.35892 4.23242L6.3726 4.2207L6.39896 4.20117L6.40482 4.19727C6.40939 4.19425 6.41319 4.19189 6.41556 4.19043C6.4348 4.17659 6.45569 4.16245 6.47513 4.15039C6.50462 4.13217 6.53684 4.11324 6.57181 4.09668C6.59809 4.08423 6.62461 4.07391 6.64701 4.06543L6.75248 4.0332C6.76851 4.02908 6.8132 4.016 6.85599 4.00977L6.86869 4.00879C6.87188 4.00843 6.87455 4.00781 6.87455 4.00781C6.9151 4.00275 6.95749 4.00003 6.99955 4H7.00346L7.03373 4.00098Z" fill="black"/>
</svg>
