<svg width="24" height="24" viewBox="0 0 24 24" fill="none" xmlns="http://www.w3.org/2000/svg">
<path fill-rule="evenodd" clip-rule="evenodd" d="M9.19602 9.19629C10.7438 7.64876 13.2533 7.64935 14.8015 9.19629L14.8054 9.2002L14.9353 9.33594L14.9431 9.34375L15.071 9.49219C16.3453 11.0495 16.2543 13.3508 14.8015 14.8037C13.2533 16.3508 10.7439 16.3513 9.19602 14.8037C7.64825 13.2556 7.64813 10.7444 9.19602 9.19629ZM13.278 10.416C12.4789 9.76935 11.3026 9.81829 10.5593 10.5615L10.5583 10.5605C9.76483 11.3551 9.76524 12.6437 10.5583 13.4385C11.3533 14.2334 12.6432 14.2333 13.4382 13.4385C14.1815 12.6949 14.23 11.5199 13.5827 10.7207L13.4343 10.5557L13.278 10.416Z" fill="black"/>
<path fill-rule="evenodd" clip-rule="evenodd" d="M11.9997 4C14.0347 4.00018 15.9922 4.87957 17.653 6.16309C19.0263 7.22454 20.2419 8.59585 21.1902 10.0869L21.3757 10.3867L21.3767 10.3877L21.5661 10.708C21.567 10.7095 21.5673 10.7114 21.5681 10.7129L21.7585 11.0537L21.7605 11.0576C21.7632 11.0619 21.7661 11.0667 21.7683 11.0713L21.8591 11.2686L21.863 11.2773L21.8659 11.2852C22.0733 11.8221 22.0385 12.4297 21.7614 12.9434C21.7606 12.9448 21.7584 12.9458 21.7575 12.9473L21.5671 13.29L21.5661 13.292C20.5732 15.0217 19.2151 16.6296 17.653 17.8369C15.9922 19.1204 14.0348 19.9998 11.9997 20C9.9646 19.9999 8.00634 19.1206 6.34543 17.8369C4.78328 16.6294 3.42423 15.021 2.43137 13.291L2.42746 13.2842L2.42648 13.2822L2.23996 12.9463C2.23913 12.945 2.23777 12.9438 2.23703 12.9424C1.92039 12.3552 1.92029 11.6439 2.23703 11.0566C3.24362 9.19527 4.67927 7.45086 6.34543 6.16309C8.00632 4.87959 9.96459 4.00013 11.9997 4ZM11.9997 6C10.5402 6.00013 9.0009 6.63693 7.56809 7.74414C6.14299 8.84552 4.88569 10.3651 4.0007 11.999L4.16672 12.2959L4.33371 12.5801C5.18875 13.9912 6.31376 15.2853 7.56809 16.2549C9.00099 17.3623 10.5402 17.9999 11.9997 18C13.4589 17.9998 14.9968 17.3627 16.4294 16.2559C17.8539 15.155 19.1089 13.635 19.9939 12.002L19.9948 12L19.9939 11.9971C19.109 10.3642 17.8534 8.84574 16.4294 7.74512C14.9967 6.63798 13.4589 6.00018 11.9997 6Z" fill="black"/>
</svg>
