<svg width="24" height="24" viewBox="0 0 24 24" fill="none" xmlns="http://www.w3.org/2000/svg">
<path d="M19.9989 11.0316C20.5504 11.0346 20.996 11.485 20.994 12.0365C20.9849 14.3235 20.1163 16.615 18.3671 18.3646C14.8528 21.8785 9.15403 21.878 5.63953 18.3646C5.59635 18.3214 5.55621 18.2748 5.51453 18.2308V19.3607C5.51434 19.9126 5.06635 20.3603 4.51453 20.3607C3.96248 20.3605 3.51471 19.9127 3.51453 19.3607V15.8246C3.51493 15.2727 3.96263 14.8248 4.51453 14.8246H8.04968C8.60118 14.8251 9.04928 15.2729 9.04968 15.8246C9.04959 16.3766 8.60133 16.8241 8.04968 16.8246H6.93249C6.9722 16.867 7.01257 16.9095 7.05359 16.9506C9.78705 19.6829 14.2198 19.6834 16.953 16.9506C18.226 15.6773 18.9001 14.0347 18.9852 12.3627L18.994 12.0258C18.9979 11.4752 19.4487 11.0304 19.9989 11.0316Z" fill="black"/>
<path d="M5.63953 5.63611C9.15406 2.1223 14.8537 2.12192 18.368 5.63611C18.4103 5.67838 18.4501 5.72305 18.4911 5.76599V4.63904C18.4915 4.08721 18.9391 3.63915 19.4911 3.63904C20.0423 3.63979 20.4907 4.08732 20.4911 4.63904V8.17517C20.4906 8.72666 20.0424 9.17442 19.4911 9.17517H15.9559C15.4038 9.17506 14.9564 8.72676 14.9559 8.17517C14.9563 7.62335 15.4039 7.17528 15.9559 7.17517H17.0741C17.0346 7.13303 16.9948 7.091 16.954 7.05017C14.2207 4.31704 9.78709 4.31739 7.05359 7.05017C5.71635 8.38741 5.03502 10.1299 5.00671 11.8851C4.99786 12.4369 4.54281 12.8777 3.99109 12.8695C3.43928 12.8606 2.99821 12.4059 3.00671 11.8539C3.04287 9.60183 3.91925 7.35639 5.63953 5.63611Z" fill="black"/>
</svg>
