<svg width="24" height="24" viewBox="0 0 24 24" fill="none" xmlns="http://www.w3.org/2000/svg">
<path d="M10.1328 9.87988C10.6368 9.93134 11.0301 10.3575 11.0303 10.875V16.5088L11.0254 16.5986L11.0244 16.6045C10.976 17.0768 10.5994 17.452 10.126 17.4971L10.0303 17.502C9.47833 17.5017 9.03058 17.0538 9.03027 16.502V10.875C9.03042 10.3229 9.47839 9.87524 10.0303 9.875L10.1328 9.87988Z" fill="black"/>
<path d="M14.0664 9.87988L14.0723 9.88086C14.576 9.93249 14.9696 10.3575 14.9697 10.875V16.5088L14.9648 16.5986L14.9639 16.6045C14.9157 17.0746 14.5424 17.4478 14.0723 17.4961L14.0664 17.4971L13.9766 17.502H13.9697C13.4177 17.5018 12.97 17.0538 12.9697 16.502V10.875C12.9699 10.3229 13.4177 9.87515 13.9697 9.875H13.9766L14.0664 9.87988Z" fill="black"/>
<path fill-rule="evenodd" clip-rule="evenodd" d="M15.0254 2.00684L15.0312 2.00781C16.1026 2.11687 16.9389 3.02111 16.9395 4.12109V5.37207H20.0039C20.5556 5.37248 21.0033 5.82068 21.0039 6.37207C21.0039 6.88976 20.6101 7.31447 20.1064 7.36621L20.1006 7.36719L20.0107 7.37207H19.6797L18.7852 19.0029C18.6629 20.5881 17.4161 21.8332 15.8643 21.9863L15.8652 21.9873L15.8594 21.9883C15.8545 21.9891 15.8496 21.99 15.8447 21.9902L15.5547 22.0039H8.45703C6.75871 22.0037 5.34542 20.6963 5.21484 19.0029L4.31934 7.37207H3.99707C3.44479 7.37207 2.99707 6.92436 2.99707 6.37207C2.99768 5.82065 3.44481 5.37207 3.99707 5.37207H7.06152V4.12109C7.06206 2.94792 8.01318 1.99638 9.18652 1.99609H14.8213L15.0254 2.00684ZM7.21094 18.8486C7.26119 19.5003 7.80372 20.0038 8.45703 20.0039H15.5361L15.6689 19.9971C16.2647 19.9371 16.7421 19.4577 16.7891 18.8486L17.6709 7.37305H6.3291L7.21094 18.8486ZM9.18652 3.99609C9.11805 3.99634 9.062 4.05207 9.06152 4.12109V5.37207H14.9395V4.12109C14.939 4.06134 14.8968 4.01025 14.8408 3.99805L14.8125 3.99609H9.18652Z" fill="black"/>
</svg>
