<svg width="24" height="24" viewBox="0 0 24 24" fill="none" xmlns="http://www.w3.org/2000/svg">
<path fill-rule="evenodd" clip-rule="evenodd" d="M20.3095 2.01172C21.5386 2.13652 22.4977 3.17469 22.4979 4.43652V13.0615C22.4977 14.3233 21.5386 15.3615 20.3095 15.4863L20.0604 15.499H17.2186L15.6102 20.2939C15.3985 20.9246 14.9434 21.4465 14.3466 21.7412C13.75 22.0354 13.059 22.0797 12.4296 21.8643L12.0399 21.7305C10.2211 21.1071 8.99828 19.3963 8.99794 17.4736V15.499H5.37392C4.18163 15.4985 3.05426 14.9494 2.32021 14.0098C1.58639 13.0696 1.3251 11.8419 1.61415 10.6846L3.05165 4.93457C3.48282 3.21008 5.03403 1.99974 6.81142 1.99902H20.0604L20.3095 2.01172ZM6.81142 3.99902C5.95174 3.99972 5.20066 4.58574 4.99208 5.41992L3.55458 11.1699C3.41501 11.7295 3.54166 12.3236 3.89638 12.7783C4.25129 13.2326 4.79711 13.4986 5.37392 13.499H9.99794C10.55 13.4992 10.9976 13.9473 10.9979 14.499V17.4688L11.0058 17.6729L11.0272 17.8555C11.1675 18.7628 11.8005 19.5344 12.6884 19.8389L13.078 19.9727C13.2026 20.0152 13.34 20.005 13.4589 19.9473L13.5468 19.8926C13.6232 19.8327 13.6822 19.7511 13.7138 19.6572L15.4979 14.334V3.99902H6.81142ZM17.4979 13.499H20.0604C20.2702 13.4989 20.4451 13.3501 20.4872 13.1523L20.4979 13.0615V4.43652C20.4977 4.22513 20.3477 4.04856 20.1483 4.00781L20.0604 3.99902H17.4979V13.499Z" fill="black"/>
</svg>
