<svg width="24" height="24" viewBox="0 0 24 24" fill="none" xmlns="http://www.w3.org/2000/svg">
<path fill-rule="evenodd" clip-rule="evenodd" d="M9.65039 2.2568C10.2471 1.96224 10.9378 1.91845 11.5674 2.13375L11.958 2.26754C13.7772 2.89065 14.9995 4.60156 15 6.52438V8.49899H18.624C19.8167 8.49915 20.9435 9.0484 21.6777 9.98824C22.4118 10.9285 22.6719 12.1561 22.3828 13.3134L20.9453 19.0634C20.514 20.7881 18.9643 21.9987 17.1865 21.999H3.9375C2.67547 21.999 1.63775 21.0395 1.5127 19.8105L1.51172 19.8037L1.5 19.5673V10.9365C1.50042 9.59073 2.59149 8.49899 3.9375 8.49899H6.78027L8.38867 3.70406C8.60039 3.07379 9.05369 2.55156 9.65039 2.2568ZM3.9375 10.499C3.69639 10.499 3.50042 10.695 3.5 10.9365V19.5615L3.50977 19.6523C3.55176 19.8505 3.72759 19.999 3.9375 19.999H6.5V10.499H3.9375ZM10.9199 4.02535C10.7945 3.9826 10.6563 3.99212 10.5371 4.05074C10.418 4.10956 10.3256 4.21446 10.2832 4.34078L8.5 9.65914V19.999H17.1816L17.3525 19.9922C18.1416 19.9222 18.8107 19.3584 19.0059 18.5781L20.4434 12.8281C20.5829 12.2683 20.4565 11.6744 20.1016 11.2197C19.7917 10.8231 19.3372 10.5697 18.8428 10.5117L18.6162 10.499H14C13.4478 10.499 13.0005 10.0506 13 9.49899V6.52438C12.9995 5.45654 12.3206 4.50546 11.3105 4.15914L10.9199 4.02535Z" fill="black"/>
</svg>
