<svg width="24" height="24" viewBox="0 0 24 24" fill="none" xmlns="http://www.w3.org/2000/svg">
<path d="M20 2C20.5523 2 21 1.55228 21 1C21 0.447715 20.5523 0 20 0H4C3.44772 0 3 0.447715 3 1C3 1.55228 3.44772 2 4 2H20Z" fill="black"/>
<path d="M12 24C12.5523 24 13 23.5523 13 23V9.25977L16.9072 13.166C17.3536 13.6115 18.0774 13.612 18.5234 13.166C18.9696 12.7198 18.9694 11.9951 18.5234 11.5488L12.8076 5.83398C12.5934 5.61974 12.302 5.49912 11.999 5.49902C11.6961 5.49913 11.4056 5.6198 11.1914 5.83398L5.47656 11.5498C5.0307 11.9962 5.03132 12.7199 5.47754 13.166C5.92396 13.6115 6.64773 13.6111 7.09375 13.165L11 9.25879V23C11 23.5523 11.4477 24 12 24Z" fill="black"/>
</svg>
