<svg width="24" height="24" viewBox="0 0 24 24" fill="none" xmlns="http://www.w3.org/2000/svg">
<path d="M16.7997 11.6783C17.3113 11.7516 17.6781 12.2006 17.6581 12.7066L17.6484 12.8082C17.4815 13.9795 16.9644 15.1287 16.0468 16.0465C14.0443 18.0485 10.93 18.2516 8.69621 16.6656L8.16008 17.0777C7.82394 17.3336 7.33465 17.1303 7.28019 16.7105L6.91691 13.8756C6.86435 13.4568 7.28424 13.1352 7.67473 13.2984L10.3114 14.401L10.3808 14.4361C10.6863 14.6168 10.7401 15.0432 10.4902 15.2945L10.4316 15.3453L10.4111 15.3599C11.7923 16.0135 13.4907 15.774 14.6327 14.6324C15.2184 14.0466 15.5577 13.3068 15.6689 12.5269C15.7471 11.9805 16.2537 11.6009 16.7997 11.6783Z" fill="black"/>
<path d="M7.955 7.95467C9.91652 5.9938 12.9452 5.75638 15.1679 7.23787L15.3857 6.99763L15.3905 6.99178L15.4335 6.94978L15.4404 6.94392C15.7304 6.69874 16.1921 6.81632 16.3163 7.19295L17.205 9.90974C17.3357 10.3121 16.9814 10.7053 16.5683 10.6187L13.7724 10.0299C13.3594 9.9426 13.1932 9.44126 13.4755 9.12556L13.8075 8.75252C12.3913 7.96344 10.572 8.16635 9.36906 9.36873C8.78428 9.95381 8.44314 10.6923 8.33195 11.4722C8.25398 12.0176 7.74887 12.4 7.20207 12.3228C6.65531 12.2448 6.27616 11.7368 6.35344 11.191L6.38859 10.9713C6.58652 9.87579 7.09628 8.81368 7.955 7.95467Z" fill="black"/>
<path fill-rule="evenodd" clip-rule="evenodd" d="M4.92961 4.92928C8.59469 1.26461 14.3972 1.03841 18.3251 4.25252L18.7001 4.57381L18.7021 4.57576L19.0702 4.92635L19.0722 4.9283L19.0741 4.93123L19.0771 4.93318L19.4228 5.29744L19.4267 5.30135C22.973 9.22687 22.8549 15.2887 19.0722 19.0719C15.1671 22.9766 8.83476 22.9764 4.92961 19.0719C1.02449 15.1667 1.02471 8.83453 4.92961 4.92928ZM17.0585 5.80135C13.9165 3.23113 9.27532 3.41211 6.34367 6.34334C3.21983 9.46754 3.2196 14.5337 6.34367 17.6578C9.46779 20.7813 14.5341 20.7814 17.6581 17.6578C20.684 14.6315 20.778 9.78235 17.9413 6.64217L17.663 6.34724L17.3583 6.05916L17.0585 5.80135Z" fill="black"/>
</svg>
