<svg width="24" height="24" viewBox="0 0 24 24" fill="none" xmlns="http://www.w3.org/2000/svg">
<path d="M6.79297 4.28751C7.18345 3.89736 7.81757 3.89729 8.20801 4.28751C8.59779 4.67792 8.59749 5.31127 8.20801 5.70158L6.91504 6.99455H13.5C17.2815 6.99464 20.4996 9.82374 20.5 13.4945V13.4985L20.4912 13.8324V13.8354C20.2987 17.3395 17.1638 19.9945 13.5 19.9945H5.5C4.94781 19.9945 4.5002 19.5466 4.5 18.9945C4.50032 18.4426 4.94785 17.9945 5.5 17.9945H13.4971L13.7646 17.9887C16.4771 17.8632 18.4998 15.8257 18.5 13.4945C18.4997 11.1634 16.477 9.12586 13.7646 9.00041L13.4971 8.99455H6.91504L8.20801 10.2875C8.59779 10.6779 8.59749 11.3113 8.20801 11.7016C7.81751 12.0919 7.18247 12.0918 6.79199 11.7016L3.79199 8.70158C3.74795 8.65742 3.7111 8.6099 3.67969 8.56486C3.65949 8.53584 3.64032 8.50551 3.62305 8.47404L3.57617 8.37541C3.56954 8.35921 3.56279 8.33979 3.55859 8.32658C3.55638 8.3196 3.55417 8.31274 3.55273 8.30802C3.55176 8.3048 3.55105 8.30295 3.55078 8.30216C3.52131 8.21102 3.50005 8.10692 3.5 7.99455V7.98869L3.50391 7.90666V7.9008C3.50694 7.87007 3.51179 7.8388 3.51758 7.809L3.52051 7.79826L3.55859 7.66544C3.55905 7.66333 3.56053 7.65856 3.56152 7.6547C3.56167 7.65414 3.56531 7.6359 3.57227 7.61857L3.57617 7.60978L3.58008 7.60001C3.601 7.55231 3.63105 7.50593 3.64062 7.48966C3.67783 7.42641 3.7257 7.35393 3.79199 7.28751L6.79297 4.28751Z" fill="black"/>
</svg>
