<svg width="24" height="24" viewBox="0 0 24 24" fill="none" xmlns="http://www.w3.org/2000/svg">
<path d="M21 16C21.5523 16 22 16.4477 22 17C22 19.7613 19.7613 22 17 22H7C4.23872 22 2 19.7613 2 17C2 16.4477 2.44772 16 3 16C3.55228 16 4 16.4477 4 17C4 18.6567 5.34328 20 7 20H17C18.6567 20 20 18.6567 20 17C20 16.4477 20.4477 16 21 16Z" fill="black"/>
<path d="M11.999 2C12.1318 2 12.2615 2.02724 12.3818 2.07715C12.4009 2.08503 12.4191 2.09452 12.4375 2.10352C12.4783 2.12345 12.5178 2.1455 12.5557 2.1709C12.5663 2.17806 12.5765 2.1858 12.5869 2.19336C12.6286 2.22373 12.6691 2.25605 12.7061 2.29297L17.707 7.29395C18.0976 7.68447 18.0976 8.31748 17.707 8.70801C17.5361 8.87889 17.3188 8.97476 17.0957 8.99609C17.032 9.00219 16.968 9.00217 16.9043 8.99609C16.7131 8.97781 16.5263 8.90453 16.3691 8.77637C16.343 8.75501 16.3174 8.73241 16.293 8.70801L13 5.41504V17.001C13 17.5533 12.5523 18.001 12 18.001C11.5859 18.001 11.23 17.7494 11.0781 17.3906C11.0527 17.3307 11.0338 17.2674 11.0205 17.2021C11.0139 17.1698 11.0083 17.1369 11.0049 17.1035C11.0015 17.0698 11 17.0356 11 17.001V5.41406L7.70605 8.70801C7.33997 9.0741 6.76094 9.09667 6.36816 8.77637C6.34198 8.75501 6.3164 8.73241 6.29199 8.70801C6.2676 8.68362 6.24498 8.658 6.22363 8.63184C6.18087 8.57941 6.14381 8.52395 6.11328 8.46582C6.08288 8.40795 6.05831 8.34778 6.04004 8.28613C5.98508 8.10069 5.98524 7.90229 6.04004 7.7168C6.05834 7.65484 6.08274 7.59429 6.11328 7.53613C6.14381 7.478 6.18087 7.42255 6.22363 7.37012C6.24497 7.34395 6.26761 7.31834 6.29199 7.29395L11.292 2.29297C11.3389 2.24606 11.3899 2.20424 11.4443 2.16797C11.6074 2.05924 11.8002 2.00001 11.999 2Z" fill="black"/>
</svg>
