<svg width="24" height="24" viewBox="0 0 24 24" fill="none" xmlns="http://www.w3.org/2000/svg">
<path fill-rule="evenodd" clip-rule="evenodd" d="M9.01855 7.32715C9.80193 6.88383 10.7639 6.89438 11.5361 7.35742L15.7012 9.85547C16.4541 10.3072 16.9149 11.122 16.915 12V12.0039L16.9102 12.1592V12.1631C16.8567 12.9778 16.4072 13.721 15.7012 14.1445L11.5361 16.6416C10.7638 17.1048 9.80207 17.1155 9.01855 16.6719C8.28415 16.2558 7.81101 15.5001 7.75488 14.665V14.6602L7.75 14.501V9.49707L7.75586 9.33789V9.33398C7.81211 8.49917 8.28411 7.74318 9.01855 7.32715ZM10.5068 9.07324C10.3721 8.99253 10.2083 8.98045 10.0645 9.03809L10.0635 9.03711L10.0039 9.06641C9.84717 9.15517 9.75014 9.32211 9.75 9.50195V14.4883L9.75488 14.5635L9.7832 14.6758C9.82401 14.7828 9.90085 14.8745 10.0029 14.9326L10.0635 14.9619C10.207 15.0193 10.3715 15.0069 10.5068 14.9258L14.6719 12.4277C14.8039 12.3483 14.8914 12.2138 14.9111 12.0645L14.915 12C14.9149 11.8245 14.8223 11.6616 14.6719 11.5713L10.5068 9.07324Z" fill="black"/>
<path fill-rule="evenodd" clip-rule="evenodd" d="M16 2C19.3137 2 22 4.68629 22 8V16C22 19.3137 19.3137 22 16 22H8C4.68629 22 2 19.3137 2 16V8C2 4.68629 4.68629 2 8 2H16ZM8 4C5.79086 4 4 5.79086 4 8V16C4 18.2091 5.79086 20 8 20H16C18.2091 20 20 18.2091 20 16V8C20 5.79086 18.2091 4 16 4H8Z" fill="black"/>
</svg>
