<svg width="24" height="24" viewBox="0 0 24 24" fill="none" xmlns="http://www.w3.org/2000/svg">
<path d="M12.023 14.7041L12.0259 14.705L12.2183 14.7236L12.2319 14.7246C12.2389 14.7251 12.2466 14.7268 12.2534 14.7285L12.3462 14.7519L12.3511 14.7529L12.4439 14.7851C12.9004 14.9624 13.2257 15.406 13.2261 15.9277L13.2202 16.0527C13.1572 16.6702 12.6343 17.153 12.0005 17.1533C11.3667 17.1525 10.8456 16.6696 10.7827 16.0527L10.7817 16.0468L10.7769 15.9345L10.7759 15.9277C10.7754 15.3145 11.2252 14.8174 11.8023 14.7226C11.8642 14.7101 11.9318 14.7032 12.0005 14.7031H12.0103L12.023 14.7041Z" fill="black"/>
<path d="M12.103 8.63669C12.6069 8.68809 13.0002 9.11435 13.0005 9.6318V12.998C13.0004 13.5501 12.5523 13.9977 12.0005 13.998C11.4491 13.9972 11.0006 13.5498 11.0005 12.998V9.6318C11.0008 9.08018 11.4492 8.6326 12.0005 8.6318L12.103 8.63669Z" fill="black"/>
<path fill-rule="evenodd" clip-rule="evenodd" d="M9.42432 4.22751C10.6859 2.33543 13.5418 2.39868 14.6958 4.41794L21.5894 16.4824C22.7709 18.5508 21.2764 21.1254 18.8941 21.1259H5.10694C2.72486 21.1249 1.23024 18.5511 2.41261 16.4824L9.30616 4.41794L9.31104 4.4111L9.41749 4.23727L9.42432 4.22751ZM12.9585 5.41012C12.5347 4.67 11.4681 4.67047 11.0444 5.4111L11.0435 5.41012L4.15089 17.4746C3.73075 18.2096 4.26011 19.1249 5.10694 19.1259H18.8941C19.7403 19.1255 20.2719 18.2101 19.8521 17.4746L12.9585 5.41012Z" fill="black"/>
</svg>
