<svg width="24" height="24" viewBox="0 0 24 24" fill="none" xmlns="http://www.w3.org/2000/svg">
<path d="M20.25 11.75C20.8023 11.75 21.25 12.1977 21.25 12.75V18.3066L21.2354 18.5957V18.6025C21.0939 19.9903 19.9903 21.0929 18.6025 21.2344L18.5957 21.2354L18.3066 21.25H12.75C12.1977 21.25 11.75 20.8023 11.75 20.25C11.75 19.6977 12.1977 19.25 12.75 19.25H18.2939L18.4014 19.2441C18.8449 19.1971 19.1971 18.8449 19.2441 18.4014L19.25 18.3008V12.75C19.25 12.1977 19.6977 11.75 20.25 11.75Z" fill="black"/>
<path d="M10.5 12.5C10.5653 12.5 10.6312 12.5056 10.6963 12.5186C10.7625 12.5318 10.8277 12.5525 10.8887 12.5781C10.9323 12.5966 10.9859 12.6309 10.9893 12.6328C11.0574 12.6712 11.1349 12.7211 11.2061 12.792C11.2787 12.8646 11.3324 12.9449 11.373 13.0186C11.4172 13.0987 11.4606 13.1947 11.4824 13.3047C11.4957 13.3717 11.5 13.4379 11.5 13.5V17.25C11.5 17.7677 11.1066 18.1927 10.6025 18.2441L10.5967 18.2451L10.5068 18.25H10.5C9.94771 18.25 9.5 17.8023 9.5 17.25V15.916L5.95801 19.458C5.56748 19.8485 4.93252 19.8485 4.54199 19.458C4.15156 19.0675 4.15147 18.4325 4.54199 18.042L8.08398 14.5H6.75C6.19771 14.5 5.75 14.0523 5.75 13.5C5.75008 12.9478 6.19771 12.5 6.75 12.5H10.5Z" fill="black"/>
<path d="M11.25 2.75C11.8023 2.75 12.25 3.19772 12.25 3.75C12.25 4.30228 11.8023 4.75 11.25 4.75H5.7002C5.17576 4.75016 4.75016 5.17576 4.75 5.7002V11.25C4.75 11.8023 4.30228 12.25 3.75 12.25C3.19772 12.25 2.75 11.8023 2.75 11.25V5.7002C2.75017 4.07121 4.07121 2.75017 5.7002 2.75H11.25Z" fill="black"/>
<path d="M18.042 4.54199C18.4325 4.15147 19.0675 4.15147 19.458 4.54199C19.8484 4.9325 19.8485 5.56748 19.458 5.95801L15.916 9.5H17.25C17.8023 9.5 18.25 9.94772 18.25 10.5V10.5068L18.2451 10.5967L18.2441 10.6025C18.1926 11.1065 17.7677 11.5 17.25 11.5H13.5C13.4347 11.5 13.3688 11.4944 13.3037 11.4814C13.2375 11.4682 13.1723 11.4475 13.1113 11.4219C13.0677 11.4034 13.0141 11.3691 13.0107 11.3672C12.9426 11.3288 12.8651 11.2789 12.7939 11.208C12.7213 11.1354 12.6676 11.0551 12.627 10.9814C12.5828 10.9013 12.5394 10.8053 12.5176 10.6953C12.5043 10.6283 12.5 10.5621 12.5 10.5V6.75C12.5 6.19772 12.9477 5.75 13.5 5.75C14.0523 5.75 14.5 6.19772 14.5 6.75V8.08398L18.042 4.54199Z" fill="black"/>
</svg>
