<svg width="24" height="24" viewBox="0 0 24 24" fill="none" xmlns="http://www.w3.org/2000/svg">
<path d="M7.54199 15.042C7.93252 14.6515 8.56748 14.6515 8.95801 15.042C9.34844 15.4325 9.34853 16.0675 8.95801 16.458L5.41602 20H6.75C7.30229 20 7.75 20.4477 7.75 21V21.0068L7.74512 21.0967L7.74414 21.1025C7.69264 21.6065 7.26774 22 6.75 22H3C2.93468 22 2.86876 21.9944 2.80371 21.9814C2.73753 21.9682 2.67227 21.9475 2.61133 21.9219C2.5677 21.9034 2.51413 21.8691 2.51074 21.8672C2.44264 21.8288 2.3651 21.7789 2.29395 21.708C2.22132 21.6354 2.16761 21.5551 2.12695 21.4814C2.08276 21.4013 2.03937 21.3053 2.01758 21.1953C2.01076 21.1609 2.00767 21.1273 2.00488 21.0967L2.00391 21.0908L2 21.0059V17.25C2 16.6977 2.44772 16.25 3 16.25C3.55229 16.25 4 16.6977 4 17.25V18.584L7.54199 15.042Z" fill="black"/>
<path d="M20.25 11.75C20.8023 11.75 21.25 12.1977 21.25 12.75V18.3066L21.2354 18.5957V18.6025C21.0939 19.9903 19.9903 21.0929 18.6025 21.2344L18.5957 21.2354L18.3066 21.25H12.75C12.1977 21.25 11.75 20.8023 11.75 20.25C11.75 19.6977 12.1977 19.25 12.75 19.25H18.2939L18.4014 19.2441C18.8449 19.1971 19.1971 18.8449 19.2441 18.4014L19.25 18.3008V12.75C19.25 12.1977 19.6977 11.75 20.25 11.75Z" fill="black"/>
<path d="M11.25 2.75C11.8023 2.75 12.25 3.19772 12.25 3.75C12.25 4.30228 11.8023 4.75 11.25 4.75H5.7002C5.17576 4.75016 4.75016 5.17576 4.75 5.7002V11.25C4.75 11.8023 4.30228 12.25 3.75 12.25C3.19772 12.25 2.75 11.8023 2.75 11.25V5.7002C2.75017 4.07121 4.07121 2.75017 5.7002 2.75H11.25Z" fill="black"/>
<path d="M21.0918 2.00391H21.0986C21.1311 2.00713 21.1638 2.01208 21.1963 2.01855C21.2625 2.0318 21.3277 2.05245 21.3887 2.07812C21.4323 2.09659 21.4859 2.1309 21.4893 2.13281C21.5574 2.17125 21.6349 2.2211 21.7061 2.29199C21.7787 2.36462 21.8324 2.44489 21.873 2.51855C21.9172 2.59867 21.9606 2.69469 21.9824 2.80469C21.9957 2.87173 22 2.93792 22 3V6.75C22 7.26773 21.6066 7.69269 21.1025 7.74414L21.0967 7.74512L21.0068 7.75H21C20.4477 7.75 20 7.30228 20 6.75V5.41602L16.458 8.95801C16.0675 9.34853 15.4325 9.34853 15.042 8.95801C14.6516 8.5675 14.6515 7.93252 15.042 7.54199L18.584 4H17.25C16.6977 4 16.25 3.55228 16.25 3C16.2501 2.44784 16.6977 2 17.25 2H21.0059L21.0918 2.00391Z" fill="black"/>
</svg>
