<svg width="24" height="24" viewBox="0 0 24 24" fill="none" xmlns="http://www.w3.org/2000/svg">
<path d="M13 17.25C13.4142 17.25 13.75 17.5858 13.75 18C13.75 18.4142 13.4142 18.75 13 18.75H6C5.58579 18.75 5.25 18.4142 5.25 18C5.25 17.5858 5.58579 17.25 6 17.25H13Z" fill="black"/>
<path d="M18 17.25C18.4142 17.25 18.75 17.5858 18.75 18C18.75 18.4142 18.4142 18.75 18 18.75H16C15.5858 18.75 15.25 18.4142 15.25 18C15.25 17.5858 15.5858 17.25 16 17.25H18Z" fill="black"/>
<path fill-rule="evenodd" clip-rule="evenodd" d="M18 5.25C18.4142 5.25 18.75 5.58579 18.75 6V15C18.75 15.4142 18.4142 15.75 18 15.75H6C5.58579 15.75 5.25 15.4142 5.25 15V6C5.25 5.58579 5.58579 5.25 6 5.25H18ZM6.75 14.25H17.25V6.75H6.75V14.25Z" fill="black"/>
<path fill-rule="evenodd" clip-rule="evenodd" d="M19 2.25C20.5192 2.25 21.75 3.48079 21.75 5V19C21.75 20.5192 20.5192 21.75 19 21.75H5C3.48079 21.75 2.25 20.5192 2.25 19V5C2.25 3.48079 3.48079 2.25 5 2.25H19ZM5 3.75C4.30921 3.75 3.75 4.30921 3.75 5V19C3.75 19.6908 4.30921 20.25 5 20.25H19C19.6908 20.25 20.25 19.6908 20.25 19V5C20.25 4.30921 19.6908 3.75 19 3.75H5Z" fill="black"/>
</svg>
