<svg width="24" height="24" viewBox="0 0 24 24" fill="none" xmlns="http://www.w3.org/2000/svg">
<path fill-rule="evenodd" clip-rule="evenodd" d="M8.64996 13.6002C9.61594 13.6003 10.3998 14.3842 10.4 15.3502V19.8502C10.3999 20.8163 9.61604 21.6 8.64996 21.6002H4.14996C3.18397 21.5999 2.4 20.8162 2.39996 19.8502V15.3502C2.40016 14.3843 3.18407 13.6004 4.14996 13.6002H8.64996ZM4.14996 15.1002C4.01249 15.1004 3.90016 15.2127 3.89996 15.3502V19.8502C3.9 19.9878 4.0124 20.0999 4.14996 20.1002H8.64996C8.78761 20.1 8.89992 19.9878 8.89996 19.8502V15.3502C8.89977 15.2126 8.78752 15.1003 8.64996 15.1002H4.14996Z" fill="black"/>
<path d="M17.5865 13.6002C18.0006 13.6002 18.3363 13.9361 18.3365 14.3502V16.8502H20.8365C21.2506 16.8502 21.5863 17.1861 21.5865 17.6002C21.5865 18.0144 21.2507 18.3502 20.8365 18.3502H18.3365V20.8502C18.3365 21.2644 18.0007 21.6002 17.5865 21.6002C17.1723 21.6001 16.8365 21.2643 16.8365 20.8502V18.3502H14.3365C13.9223 18.3501 13.5865 18.0143 13.5865 17.6002C13.5867 17.1862 13.9225 16.8502 14.3365 16.8502H16.8365V14.3502C16.8367 13.9362 17.1725 13.6002 17.5865 13.6002Z" fill="black"/>
<path fill-rule="evenodd" clip-rule="evenodd" d="M8.64996 2.39996C9.61594 2.4001 10.3998 3.184 10.4 4.14996V8.64996C10.4 9.6161 9.61607 10.3998 8.64996 10.4H4.14996C3.18375 10.4 2.39996 9.61618 2.39996 8.64996V4.14996C2.40016 3.18392 3.18387 2.39996 4.14996 2.39996H8.64996ZM4.14996 3.89996C4.0123 3.89996 3.90016 4.01234 3.89996 4.14996V8.64996C3.89996 8.78775 4.01218 8.89996 4.14996 8.89996H8.64996C8.78764 8.89983 8.89996 8.78767 8.89996 8.64996V4.14996C8.89977 4.01243 8.78752 3.9001 8.64996 3.89996H4.14996Z" fill="black"/>
<path fill-rule="evenodd" clip-rule="evenodd" d="M19.8394 2.39996C20.8054 2.4001 21.5892 3.18406 21.5894 4.14996V8.64996C21.5894 9.6161 20.8055 10.3998 19.8394 10.4H15.3394C14.3732 10.4 13.5894 9.61618 13.5894 8.64996V4.14996C13.5897 3.18397 14.3734 2.39996 15.3394 2.39996H19.8394ZM15.3394 3.89996C15.2018 3.89996 15.0897 4.0124 15.0894 4.14996V8.64996C15.0894 8.78775 15.2016 8.89996 15.3394 8.89996H19.8394C19.9771 8.89983 20.0894 8.78767 20.0894 8.64996V4.14996C20.0892 4.01248 19.9769 3.9001 19.8394 3.89996H15.3394Z" fill="black"/>
</svg>
