<svg width="24" height="24" viewBox="0 0 24 24" fill="none" xmlns="http://www.w3.org/2000/svg">
<path d="M14.5309 17.5299C14.2381 17.8227 13.7633 17.8225 13.4704 17.5299C13.1778 17.237 13.1776 16.7621 13.4704 16.4694L17.1901 12.7506H5.00067C4.58665 12.7506 4.25094 12.4146 4.25067 12.0006C4.2507 11.5864 4.5865 11.2506 5.00067 11.2506H17.1891L13.4704 7.53088C13.1775 7.23798 13.1775 6.76322 13.4704 6.47033C13.7633 6.17749 14.2381 6.17745 14.5309 6.47033L19.5222 11.4625C19.5249 11.4652 19.5282 11.4676 19.5309 11.4703C19.5872 11.5267 19.6291 11.5916 19.6638 11.6588C19.6734 11.6774 19.685 11.695 19.6931 11.7145C19.7138 11.7648 19.7296 11.8168 19.739 11.8697C19.7464 11.9122 19.7507 11.956 19.7507 12.0006C19.7506 12.0459 19.7467 12.0903 19.739 12.1334C19.7298 12.1843 19.7147 12.2343 19.695 12.2828L19.6911 12.2926C19.6819 12.3144 19.6691 12.3344 19.6579 12.3551C19.6241 12.4176 19.5838 12.478 19.5309 12.5309L14.5309 17.5299Z" fill="black"/>
</svg>
