<svg width="24" height="24" viewBox="0 0 24 24" fill="none" xmlns="http://www.w3.org/2000/svg">
<path d="M9.47015 6.47051C9.76297 6.1777 10.2378 6.17786 10.5307 6.47051C10.8233 6.76343 10.8235 7.23828 10.5307 7.53106L6.81097 11.2498H19.0004C19.4144 11.2499 19.7502 11.5859 19.7504 11.9998C19.7504 12.4139 19.4145 12.7497 19.0004 12.7498H6.81097L10.5307 16.4695C10.8235 16.7624 10.8236 17.2372 10.5307 17.5301C10.2378 17.823 9.76305 17.8229 9.47015 17.5301L4.47015 12.5301C4.41931 12.4792 4.38026 12.4211 4.34711 12.3611C4.33343 12.3365 4.31892 12.3122 4.30804 12.2859C4.28727 12.2356 4.27148 12.1837 4.26215 12.1307C4.25467 12.0882 4.25043 12.0444 4.25043 11.9998C4.25046 11.9545 4.25443 11.9101 4.26215 11.867C4.27125 11.8161 4.28641 11.7661 4.30609 11.7176L4.31 11.7078C4.31925 11.686 4.332 11.666 4.3432 11.6453C4.37695 11.5828 4.41733 11.5224 4.47015 11.4695L9.47015 6.47051Z" fill="black"/>
</svg>
