<svg width="24" height="24" viewBox="0 0 24 24" fill="none" xmlns="http://www.w3.org/2000/svg">
<path d="M15.0002 10.25C15.4144 10.25 15.7502 10.5858 15.7502 11C15.7502 11.4142 15.4144 11.75 15.0002 11.75H9.00024C8.58603 11.75 8.25024 11.4142 8.25024 11C8.25025 10.5858 8.58603 10.25 9.00024 10.25H15.0002Z" fill="black"/>
<path fill-rule="evenodd" clip-rule="evenodd" d="M21.0002 2.25C21.9665 2.25 22.7502 3.03379 22.7502 4V6C22.7502 6.8223 22.1819 7.50991 21.4172 7.69727V19C21.4172 20.5192 20.1864 21.75 18.6672 21.75H5.33325C3.81404 21.75 2.58325 20.5192 2.58325 19V7.69727C1.81856 7.50991 1.25024 6.8223 1.25024 6V4C1.25024 3.03379 2.03403 2.25 3.00024 2.25H21.0002ZM4.08325 7.75V19C4.08325 19.6908 4.64247 20.25 5.33325 20.25H18.6672C19.358 20.25 19.9172 19.6908 19.9172 19V7.75H4.08325ZM3.00024 3.75C2.86246 3.75 2.75024 3.86221 2.75024 4V6C2.75024 6.13779 2.86246 6.25 3.00024 6.25H21.0002C21.138 6.25 21.2502 6.13779 21.2502 6V4C21.2502 3.86221 21.138 3.75 21.0002 3.75H3.00024Z" fill="black"/>
</svg>
