<svg width="24" height="24" viewBox="0 0 24 24" fill="none" xmlns="http://www.w3.org/2000/svg">
<path d="M15 10.25C15.4141 10.2501 15.75 10.5859 15.75 11C15.75 11.4141 15.4141 11.7499 15 11.75H9C8.97404 11.75 8.94814 11.7487 8.92285 11.7461C8.54477 11.7076 8.25 11.3882 8.25 11C8.25 10.5858 8.58579 10.25 9 10.25H15Z" fill="black"/>
<path d="M15 7.25C15.4141 7.25013 15.75 7.58587 15.75 8C15.75 8.41413 15.4141 8.74987 15 8.75H9C8.97404 8.75 8.94814 8.74867 8.92285 8.74609C8.54477 8.70758 8.25 8.38825 8.25 8C8.25 7.58579 8.58579 7.25 9 7.25H15Z" fill="black"/>
<path fill-rule="evenodd" clip-rule="evenodd" d="M14.6123 2.25C15.3416 2.25006 16.0419 2.53999 16.5576 3.05566L18.4443 4.94238C18.96 5.4581 19.25 6.15841 19.25 6.8877V8.25H20.377C21.2111 8.25 21.9291 8.83927 22.0928 9.65723L22.7158 12.7676C22.7183 12.7798 22.7185 12.7924 22.7207 12.8047C22.7247 12.8194 22.7313 12.8335 22.7344 12.8486C22.7444 12.8975 22.75 12.9481 22.75 13V19C22.75 20.5188 21.5188 21.75 20 21.75H4C2.48122 21.75 1.25 20.5188 1.25 19V13C1.25 12.974 1.25131 12.9482 1.25391 12.9229C1.25806 12.8822 1.26793 12.8432 1.27832 12.8047C1.28051 12.7924 1.28172 12.7799 1.28418 12.7676L1.90625 9.65723C2.06984 8.83934 2.78801 8.25013 3.62207 8.25H4.75V5C4.75 3.48122 5.98122 2.25 7.5 2.25H14.6123ZM21.25 14.8398C21.1674 14.8518 21.0836 14.8604 20.999 14.8604H16.7051C16.6107 14.8606 16.5237 14.9137 16.4814 14.998L16.0127 15.9375C15.7162 16.5302 15.11 16.9043 14.4473 16.9043H9.55078C8.88786 16.9041 8.2816 16.5296 7.98535 15.9365L7.5166 14.999C7.47426 14.9143 7.38767 14.8604 7.29297 14.8604H3C2.91565 14.8603 2.83236 14.8518 2.75 14.8398V19C2.75 19.6904 3.30964 20.25 4 20.25H20C20.6904 20.25 21.25 19.6904 21.25 19V14.8398ZM7.37207 3.75684C6.74171 3.82081 6.25 4.35276 6.25 5V8.98047C6.25017 8.98697 6.25098 8.99346 6.25098 9C6.25098 9.00621 6.25015 9.01238 6.25 9.01855V13.3604H7.29297C7.95604 13.3603 8.56305 13.735 8.85938 14.3281L9.32715 15.2666C9.36946 15.3511 9.45633 15.4041 9.55078 15.4043H14.4473C14.5418 15.4043 14.6285 15.3511 14.6709 15.2666L15.1406 14.3281C15.437 13.7354 16.0425 13.3606 16.7051 13.3604H17.75V9.03809C17.7494 9.02546 17.748 9.01278 17.748 9C17.748 8.98689 17.7493 8.97389 17.75 8.96094V6.8877C17.75 6.55623 17.6181 6.23734 17.3838 6.00293L15.4971 4.11621C15.2919 3.91102 15.0218 3.78423 14.7354 3.75586L14.6123 3.75H7.5C7.45688 3.75 7.41407 3.75257 7.37207 3.75684ZM3.62207 9.75C3.50302 9.75013 3.40031 9.83441 3.37695 9.95117L2.75488 13.0615C2.74031 13.1348 2.75939 13.2107 2.80664 13.2686C2.85407 13.3264 2.92519 13.3603 3 13.3604H4.75V9.75H3.62207ZM19.25 13.3604H20.999C21.0739 13.3604 21.1449 13.3264 21.1924 13.2686C21.2398 13.2107 21.2588 13.1349 21.2441 13.0615L20.6221 9.95117C20.5987 9.83434 20.4961 9.75 20.377 9.75H19.25V13.3604Z" fill="black"/>
</svg>
