<svg width="24" height="24" viewBox="0 0 24 24" fill="none" xmlns="http://www.w3.org/2000/svg">
<path d="M6.47076 14.5306C6.17795 14.2378 6.17812 13.763 6.47076 13.47C6.76368 13.1775 7.23853 13.1773 7.53131 13.47L11.2501 17.1898V5.00032C11.2501 4.58628 11.5861 4.25058 12.0001 4.25032C12.4143 4.25032 12.75 4.58612 12.7501 5.00032V17.1907L16.4698 13.47C16.7627 13.1772 17.2374 13.1772 17.5303 13.47C17.8232 13.7629 17.8232 14.2377 17.5303 14.5306L12.5313 19.5306C12.4732 19.5887 12.4056 19.6313 12.336 19.6663C12.3193 19.6748 12.3036 19.6855 12.2862 19.6927C12.2361 19.7133 12.1846 19.7292 12.1319 19.7386C12.0891 19.7462 12.045 19.7503 12.0001 19.7503C11.9551 19.7503 11.911 19.7462 11.8682 19.7386C11.817 19.7295 11.7667 19.7145 11.7178 19.6947L11.7081 19.6907C11.6862 19.6815 11.6663 19.6687 11.6456 19.6575C11.583 19.6238 11.5226 19.5834 11.4698 19.5306L6.47076 14.5306Z" fill="black"/>
</svg>
