<svg width="24" height="24" viewBox="0 0 24 24" fill="none" xmlns="http://www.w3.org/2000/svg">
<path d="M17.5302 9.46989C17.823 9.7627 17.8228 10.2375 17.5302 10.5304C17.2372 10.823 16.7624 10.8232 16.4696 10.5304L12.7509 6.81071V19.0002C12.7508 19.4142 12.4148 19.7499 12.0009 19.7502C11.5867 19.7501 11.2509 19.4143 11.2509 19.0002V6.81071L7.53113 10.5304C7.23824 10.8233 6.76346 10.8233 6.47059 10.5304C6.17772 10.2376 6.17775 9.76279 6.47059 9.46989L11.4706 4.46989C11.5286 4.41198 11.5955 4.36911 11.6649 4.33415C11.6817 4.32569 11.6973 4.31499 11.7147 4.30778C11.7651 4.28701 11.817 4.27122 11.87 4.26188C11.9125 4.2544 11.9562 4.25017 12.0009 4.25016C12.0461 4.25019 12.0906 4.25417 12.1337 4.26188C12.1846 4.27099 12.2346 4.28614 12.2831 4.30583L12.2929 4.30973C12.3147 4.31898 12.3346 4.33174 12.3554 4.34294C12.4179 4.37669 12.4783 4.41707 12.5311 4.46989L17.5302 9.46989Z" fill="black"/>
</svg>
