<svg width="24" height="24" viewBox="0 0 24 24" fill="none" xmlns="http://www.w3.org/2000/svg">
<path fill-rule="evenodd" clip-rule="evenodd" d="M16.1587 2.25C20.252 2.25043 22.8746 6.05528 22.875 9.47314C22.875 13.0465 20.6624 16.1157 18.3164 18.2402C17.1319 19.3128 15.8802 20.1757 14.7861 20.7744C14.2393 21.0736 13.7217 21.3121 13.2642 21.4775C12.8217 21.6374 12.3792 21.75 12 21.75C11.6208 21.75 11.1783 21.6374 10.7358 21.4775C10.2783 21.3121 9.76069 21.0736 9.21387 20.7744C8.11978 20.1757 6.86807 19.3128 5.68359 18.2402C3.33755 16.1157 1.125 13.0465 1.125 9.47314C1.12544 6.05528 3.748 2.25043 7.84131 2.25C9.72209 2.25 11.0863 3.015 12 3.84814C12.9137 3.015 14.2779 2.25 16.1587 2.25ZM10.9526 8.25293C10.6804 8.22992 10.4158 8.35662 10.2642 8.58398L8.81982 10.7505H7.00049C6.58627 10.7505 6.25049 11.0863 6.25049 11.5005C6.25072 11.9145 6.58642 12.2505 7.00049 12.2505H9.22119C9.47169 12.2505 9.70606 12.1248 9.84521 11.9165L10.7563 10.5483L12.4263 14.3042C12.5373 14.5538 12.7752 14.7232 13.0474 14.7466C13.3197 14.7696 13.5842 14.6429 13.7358 14.4155L15.1802 12.2505H16.9995C17.4136 12.2505 17.7493 11.9145 17.7495 11.5005C17.7495 11.0863 17.4137 10.7505 16.9995 10.7505H14.7788C14.5595 10.7505 14.3519 10.8461 14.2104 11.0098L14.1548 11.0845L13.2422 12.4497L11.5737 8.69531C11.4627 8.4458 11.2247 8.27629 10.9526 8.25293Z" fill="black"/>
</svg>
