<svg width="24" height="24" viewBox="0 0 24 24" fill="none" xmlns="http://www.w3.org/2000/svg">
<path fill-rule="evenodd" clip-rule="evenodd" d="M18.551 2.25684C19.5415 2.32864 20.4234 2.93167 20.8459 3.8418L22.5872 7.59375C22.6943 7.82461 22.7502 8.07652 22.7502 8.33105V9.5C22.7502 10.8517 21.9244 12.0091 20.7502 12.499V20.25H22.0002C22.4145 20.25 22.7502 20.5858 22.7502 21C22.7502 21.4142 22.4145 21.75 22.0002 21.75H2.00024C1.58603 21.75 1.25024 21.4142 1.25024 21C1.25024 20.5858 1.58603 20.25 2.00024 20.25H3.25024V12.499C2.07613 12.0091 1.25024 10.8517 1.25024 9.5V8.33105C1.25026 8.07652 1.30614 7.82461 1.41333 7.59375L3.15454 3.8418C3.60525 2.87108 4.57844 2.25013 5.64868 2.25H18.3518L18.551 2.25684ZM17.0002 11.5752C16.4041 12.2926 15.5059 12.75 14.5002 12.75C13.4946 12.75 12.5964 12.2926 12.0002 11.5752C11.4041 12.2926 10.5059 12.75 9.50024 12.75C8.49461 12.75 7.59639 12.2926 7.00024 11.5752C6.45398 12.2326 5.65413 12.6705 4.75024 12.7393V20.25H8.75024V15C8.75024 14.5858 9.08603 14.25 9.50024 14.25H14.5002C14.9145 14.25 15.2502 14.5858 15.2502 15V20.25H19.2502V12.7393C18.3464 12.6705 17.5465 12.2326 17.0002 11.5752ZM10.2502 20.25H13.7502V15.75H10.2502V20.25ZM2.75024 9.5C2.75024 10.3408 3.34341 11.0425 4.13403 11.2109C4.14292 11.2125 4.15162 11.2149 4.1604 11.2168C4.27035 11.2384 4.38395 11.25 4.50024 11.25C5.46674 11.25 6.25024 10.4665 6.25024 9.5C6.25024 9.43036 6.26276 9.36378 6.28052 9.2998H2.75024V9.5ZM7.71997 9.2998C7.73109 9.33985 7.742 9.38041 7.74634 9.42285C7.74893 9.44819 7.75024 9.47397 7.75024 9.5C7.75028 10.4665 8.53377 11.25 9.50024 11.25C10.4667 11.25 11.2502 10.4665 11.2502 9.5C11.2502 9.47397 11.2516 9.4482 11.2542 9.42285C11.2585 9.38041 11.2694 9.33985 11.2805 9.2998H7.71997ZM12.72 9.2998C12.7377 9.36377 12.7502 9.43038 12.7502 9.5C12.7503 10.4665 13.5338 11.25 14.5002 11.25C15.4667 11.25 16.2502 10.4665 16.2502 9.5C16.2502 9.47397 16.2516 9.44819 16.2542 9.42285C16.2585 9.38041 16.2694 9.33985 16.2805 9.2998H12.72ZM17.72 9.2998C17.7377 9.36378 17.7502 9.43036 17.7502 9.5C17.7502 10.4665 18.5337 11.25 19.5002 11.25C19.6162 11.25 19.7295 11.2383 19.8391 11.2168C19.8479 11.2149 19.8566 11.2125 19.8655 11.2109C20.6566 11.0429 21.2502 10.3412 21.2502 9.5V9.2998H17.72ZM5.64868 3.75C5.16226 3.75013 4.71972 4.03242 4.51489 4.47363L2.97095 7.7998H21.0295L19.4856 4.47363C19.3063 4.08745 18.9449 3.82276 18.5315 3.7627L18.3518 3.75H5.64868Z" fill="black"/>
</svg>
