<svg width="24" height="24" viewBox="0 0 24 24" fill="none" xmlns="http://www.w3.org/2000/svg">
<path d="M10.9526 8.25293C11.2248 8.27629 11.4627 8.44578 11.5737 8.69531L13.2422 12.4497L14.1548 11.0845L14.2104 11.0098C14.3519 10.8461 14.5595 10.7505 14.7788 10.7505H16.9995C17.4137 10.7505 17.7495 11.0863 17.7495 11.5005C17.7493 11.9145 17.4136 12.2505 16.9995 12.2505H15.1802L13.7358 14.4155C13.5842 14.6429 13.3197 14.7696 13.0474 14.7466C12.7752 14.7232 12.5373 14.5538 12.4263 14.3042L10.7563 10.5483L9.84521 11.9165C9.70606 12.1247 9.47168 12.2505 9.22119 12.2505H7.00049C6.58643 12.2505 6.25074 11.9145 6.25049 11.5005C6.25049 11.0863 6.58627 10.7505 7.00049 10.7505H8.81982L10.2642 8.58398C10.4158 8.35662 10.6804 8.22992 10.9526 8.25293Z" fill="black"/>
<path fill-rule="evenodd" clip-rule="evenodd" d="M16.1587 2.25C20.252 2.25043 22.8746 6.05528 22.875 9.47314C22.875 13.0465 20.6624 16.1157 18.3164 18.2402C17.1319 19.3128 15.8802 20.1757 14.7861 20.7744C14.2393 21.0736 13.7217 21.3122 13.2642 21.4775C12.8217 21.6374 12.3792 21.75 12 21.75C11.6208 21.75 11.1783 21.6374 10.7358 21.4775C10.2783 21.3122 9.76069 21.0736 9.21387 20.7744C8.11978 20.1757 6.86807 19.3128 5.68359 18.2402C3.33755 16.1157 1.125 13.0465 1.125 9.47314C1.12544 6.05528 3.748 2.25043 7.84131 2.25C9.72209 2.25 11.0863 3.015 12 3.84814C12.9137 3.015 14.2779 2.25 16.1587 2.25ZM16.1587 3.75C14.3974 3.75 13.2477 4.61936 12.5698 5.4126C12.4273 5.57904 12.2191 5.6748 12 5.6748C11.7809 5.6748 11.5727 5.57904 11.4302 5.4126C10.7523 4.61936 9.60258 3.75 7.84131 3.75C4.79402 3.75044 2.62544 6.64791 2.625 9.47314C2.625 12.4257 4.47504 15.1214 6.69141 17.1284C7.78794 18.1213 8.9429 18.9163 9.93457 19.459C10.4301 19.7301 10.8763 19.9334 11.2456 20.0669C11.6299 20.2057 11.8794 20.25 12 20.25C12.1206 20.25 12.3701 20.2057 12.7544 20.0669C13.1237 19.9334 13.5699 19.7301 14.0654 19.459C15.0571 18.9163 16.2121 18.1213 17.3086 17.1284C19.525 15.1214 21.375 12.4257 21.375 9.47314C21.3746 6.64791 19.206 3.75044 16.1587 3.75Z" fill="black"/>
</svg>
