<svg width="24" height="24" viewBox="0 0 24 24" fill="none" xmlns="http://www.w3.org/2000/svg">
<path d="M19.2822 9.76419C20.6687 9.90542 21.75 11.0766 21.75 12.5005V19.4995C21.75 21.0184 20.5197 22.25 19.001 22.2505H5L4.71875 22.2359C3.33197 22.0949 2.25 20.9236 2.25 19.4995V12.5005C2.25005 10.9815 3.48104 9.74981 5 9.74954C5.41383 9.74981 5.74975 10.0857 5.75 10.4995C5.75 10.9136 5.41399 11.2493 5 11.2495C4.30947 11.2498 3.75005 11.8099 3.75 12.5005V19.4995C3.75 20.1471 4.24148 20.6797 4.87207 20.7437L5 20.7505H19.001C19.6479 20.75 20.1799 20.2585 20.2441 19.6284C20.2484 19.5862 20.25 19.5429 20.25 19.4995V12.5005C20.25 12.4573 20.2484 12.4137 20.2441 12.3716C20.1842 11.7833 19.7163 11.3171 19.1279 11.2574L19.001 11.2495C18.5868 11.2495 18.251 10.9138 18.251 10.4995C18.2512 10.0855 18.5869 9.74954 19.001 9.74954L19.2822 9.76419Z" fill="black"/>
<path d="M17 16.7495C17.414 16.7496 17.7498 17.0856 17.75 17.4995C17.75 17.9137 17.4142 18.2495 17 18.2495H7C6.58579 18.2495 6.25 17.9138 6.25 17.4995C6.25025 17.0855 6.58594 16.7495 7 16.7495H17Z" fill="black"/>
<path fill-rule="evenodd" clip-rule="evenodd" d="M15.5312 2.47318C16.4954 1.509 18.0599 1.50787 19.0254 2.47415C19.93 3.37872 19.9878 4.81029 19.1963 5.78079L19.0264 5.96829L11.251 13.7388C10.9241 14.0639 10.4802 14.2495 10.0146 14.2495H8C7.58581 14.2495 7.25 13.9137 7.25 13.4995V11.4849C7.25002 11.0211 7.43402 10.5763 7.7627 10.2476L12.9033 5.10208C13.0752 4.91911 13.0724 4.63308 12.8955 4.4556C12.7129 4.27382 12.418 4.27493 12.2373 4.4556L10.5967 6.09622C10.3039 6.38893 9.82904 6.3887 9.53613 6.09622C9.24346 5.80333 9.24336 5.32851 9.53613 5.03568L11.1768 3.39505C11.9439 2.62793 13.1876 2.62848 13.9551 3.39407L13.9561 3.39505C14.0687 3.50777 14.1627 3.63199 14.2422 3.76224L15.5312 2.47318ZM13.9814 6.14407L13.9561 6.17337L12.8145 7.31497C12.8097 7.31971 12.8037 7.32308 12.7988 7.32767L8.82324 11.3081C8.77596 11.3554 8.75002 11.4188 8.75 11.4849V12.7495H10.0146C10.0785 12.7495 10.1425 12.7243 10.1914 12.6763L15.4404 7.43021L14.0684 6.05814L13.9814 6.14407ZM17.9648 3.53372C17.5863 3.15498 16.9723 3.1552 16.5928 3.5347L16.5918 3.53372L15.1289 4.99759L16.501 6.36966L17.9658 4.90775L18.0322 4.83353C18.343 4.45229 18.3209 3.89008 17.9658 3.5347L17.9648 3.53372Z" fill="black"/>
<path d="M17 12.7495C17.4141 12.7495 17.7497 13.0855 17.75 13.4995C17.75 13.9138 17.4142 14.2495 17 14.2495H15C14.5858 14.2495 14.25 13.9138 14.25 13.4995C14.2503 13.0855 14.5859 12.7495 15 12.7495H17Z" fill="black"/>
</svg>
