<svg width="24" height="24" viewBox="0 0 24 24" fill="none" xmlns="http://www.w3.org/2000/svg">
<path fill-rule="evenodd" clip-rule="evenodd" d="M16.7461 11.4947C17.7881 11.4948 18.7676 11.6743 19.5146 11.9942C19.8869 12.1537 20.2378 12.3624 20.5049 12.6329C20.7749 12.9064 20.9951 13.2831 20.9956 13.7432L20.9941 16.7359C20.9942 16.7387 20.9955 16.7419 20.9956 16.7447C20.9956 16.7483 20.9943 16.7528 20.9941 16.7564V19.7242C20.9943 19.7309 20.9956 19.738 20.9956 19.7447C20.995 20.2049 20.7734 20.5816 20.5034 20.8551C20.2365 21.1253 19.8867 21.3342 19.5146 21.4937C18.7677 21.8138 17.7885 21.9946 16.7461 21.9947C15.7036 21.9947 14.7234 21.8138 13.9761 21.4937C13.6039 21.3343 13.2544 21.1256 12.9873 20.8551C12.7508 20.6154 12.5513 20.2976 12.5054 19.9132L12.4951 19.7447V13.7432L12.5054 13.5748C12.5519 13.1912 12.7513 12.8735 12.9873 12.6344C13.2543 12.3641 13.604 12.1537 13.9761 11.9942C14.7232 11.6741 15.7035 11.4947 16.7461 11.4947ZM19.4941 18.5011C18.7497 18.8158 17.7792 18.9946 16.7461 18.9947C15.7122 18.9947 14.74 18.8162 13.9951 18.5011V19.7257C14.0004 19.7365 14.015 19.7625 14.0537 19.8018C14.1409 19.8901 14.3056 20.0035 14.5664 20.1153C15.0861 20.3378 15.8569 20.4947 16.7461 20.4947C17.6351 20.4946 18.4048 20.338 18.9243 20.1153C19.1851 20.0035 19.3481 19.8888 19.4355 19.8004C19.4717 19.7637 19.4877 19.7392 19.4941 19.7271V18.5011ZM19.4941 15.5011C18.7497 15.8158 17.7792 15.9946 16.7461 15.9947C15.7122 15.9947 14.74 15.8162 13.9951 15.5011V16.7257L14.0537 16.8018C14.1409 16.8901 14.3056 17.0035 14.5664 17.1153C15.0861 17.3378 15.8569 17.4947 16.7461 17.4947C17.6351 17.4946 18.4048 17.338 18.9243 17.1153C19.1851 17.0035 19.3481 16.8888 19.4355 16.8004C19.4729 16.7625 19.4882 16.7373 19.4941 16.7257V15.5011ZM16.7461 12.9947C15.857 12.9947 15.086 13.15 14.5664 13.3726C14.3059 13.4843 14.1427 13.5992 14.0552 13.6876C14.0323 13.7107 14.0178 13.7299 14.0083 13.7432C14.0174 13.7567 14.0299 13.7776 14.0537 13.8018C14.1409 13.8901 14.3056 14.0035 14.5664 14.1153C15.0861 14.3378 15.8569 14.4947 16.7461 14.4947C17.6351 14.4946 18.4048 14.338 18.9243 14.1153C19.1851 14.0035 19.3481 13.8888 19.4355 13.8004C19.4587 13.7768 19.4716 13.7567 19.481 13.7432C19.4719 13.7297 19.4596 13.709 19.437 13.6861C19.3497 13.5979 19.186 13.4842 18.9258 13.3726C18.4062 13.1501 17.6352 12.9948 16.7461 12.9947Z" fill="black"/>
<path fill-rule="evenodd" clip-rule="evenodd" d="M11.7729 2.28523C11.9452 2.23051 12.133 2.24011 12.3003 2.31306L21.3003 6.24031C21.5731 6.35956 21.7497 6.62958 21.75 6.92732V9.93318C21.75 10.3474 21.4142 10.6832 21 10.6832H10.1074V17.2501H10.9995C11.4137 17.2501 11.7495 17.5859 11.7495 18.0001C11.7495 18.4143 11.4137 18.7501 10.9995 18.7501H4.46338L3.75 20.1768V20.2501H10.9995C11.4137 20.2501 11.7495 20.5859 11.7495 21.0001C11.7495 21.4143 11.4137 21.7501 10.9995 21.7501H3C2.58579 21.7501 2.25 21.4143 2.25 21.0001V19.9996L2.25439 19.9132C2.26443 19.8271 2.29026 19.7435 2.3291 19.6656L3.32959 17.6646C3.45675 17.4109 3.71666 17.2501 4.00049 17.2501H4.24951V10.6832H3C2.58579 10.6832 2.25 10.3474 2.25 9.93318V6.92732C2.25034 6.62958 2.42686 6.35956 2.69971 6.24031L11.6997 2.31306L11.7729 2.28523ZM5.74951 17.2501H8.60742V10.6832H5.74951V17.2501ZM3.75 7.41804V9.18318H20.25V7.41804L12 3.81746L3.75 7.41804Z" fill="black"/>
</svg>
