<svg width="24" height="24" viewBox="0 0 24 24" fill="none" xmlns="http://www.w3.org/2000/svg">
<path d="M11.7959 6.49023C12.1735 6.52882 12.4687 6.84817 12.4697 7.23535V12.4951C12.4698 12.583 12.5164 12.6648 12.5918 12.71L16.167 14.8447C16.5219 15.0573 16.6382 15.518 16.4268 15.873C15.6541 17.1651 12.1188 14.1767 11.335 13.709C11.1092 13.5741 10.9701 13.3285 10.9697 13.0645L10.9736 7.15918C11.0127 6.78172 11.3322 6.48659 11.7197 6.48633L11.7959 6.49023Z" fill="black"/>
<path fill-rule="evenodd" clip-rule="evenodd" d="M12 2.25C17.3848 2.25 21.75 6.61522 21.75 12C21.75 17.3848 17.3848 21.75 12 21.75C6.61522 21.75 2.25 17.3848 2.25 12C2.25 6.61522 6.61522 2.25 12 2.25ZM12 3.75C7.44365 3.75 3.75 7.44365 3.75 12C3.75 16.5563 7.44365 20.25 12 20.25C16.5563 20.25 20.25 16.5563 20.25 12C20.25 7.44365 16.5563 3.75 12 3.75Z" fill="black"/>
</svg>
