<svg width="24" height="24" viewBox="0 0 24 24" fill="none" xmlns="http://www.w3.org/2000/svg">
<path d="M12.0012 17.2009C12.4434 17.2009 12.801 17.5585 12.801 18.0007C12.801 18.4429 12.4434 18.8005 12.0012 18.8005C11.5676 18.8005 11.2168 18.4565 11.2034 18.0261L11.2014 18.0271C11.2012 18.0209 11.2025 18.0147 11.2024 18.0085C11.2024 18.006 11.2014 18.0033 11.2014 18.0007C11.1996 17.5877 11.4988 17.2865 11.8469 17.2166C11.8667 17.2124 11.8871 17.2103 11.9075 17.2078C11.9385 17.204 11.9698 17.2009 12.0012 17.2009Z" fill="black"/>
<path d="M8.0022 17.199C8.44439 17.199 8.80197 17.5566 8.802 17.9988C8.802 18.441 8.44441 18.7986 8.0022 18.7986C7.56001 18.7986 7.20239 18.441 7.20239 17.9988C7.20243 17.5674 7.55032 17.199 8.0022 17.199Z" fill="black"/>
<path d="M16.0022 17.199C16.4444 17.199 16.802 17.5566 16.802 17.9988C16.802 18.441 16.4444 18.7986 16.0022 18.7986C15.56 18.7985 15.2024 18.441 15.2024 17.9988L15.2063 17.9187C15.2462 17.5228 15.5786 17.199 16.0022 17.199Z" fill="black"/>
<path d="M12.0012 14.2009C12.4434 14.2009 12.801 14.5585 12.801 15.0007C12.801 15.4429 12.4434 15.8005 12.0012 15.8005C11.5676 15.8005 11.2168 15.4565 11.2034 15.0261L11.2014 15.0271C11.2012 15.0209 11.2025 15.0147 11.2024 15.0085C11.2024 15.006 11.2014 15.0033 11.2014 15.0007C11.1996 14.5877 11.4988 14.2865 11.8469 14.2166C11.8667 14.2124 11.8871 14.2103 11.9075 14.2078C11.9385 14.204 11.9698 14.2009 12.0012 14.2009Z" fill="black"/>
<path d="M8.0022 14.199C8.44439 14.199 8.80197 14.5566 8.802 14.9988C8.802 15.441 8.44441 15.7986 8.0022 15.7986C7.56001 15.7986 7.20239 15.441 7.20239 14.9988C7.20243 14.5674 7.55032 14.199 8.0022 14.199Z" fill="black"/>
<path d="M16.0022 14.199C16.4444 14.199 16.802 14.5566 16.802 14.9988C16.802 15.441 16.4444 15.7986 16.0022 15.7986C15.56 15.7985 15.2024 15.441 15.2024 14.9988L15.2063 14.9187C15.2462 14.5228 15.5786 14.199 16.0022 14.199Z" fill="black"/>
<path d="M12.0012 11.2009C12.4434 11.2009 12.801 11.5585 12.801 12.0007C12.801 12.4429 12.4434 12.8005 12.0012 12.8005C11.5676 12.8005 11.2168 12.4565 11.2034 12.0261L11.2014 12.0271C11.2012 12.0209 11.2025 12.0147 11.2024 12.0085C11.2024 12.006 11.2014 12.0033 11.2014 12.0007C11.1996 11.5877 11.4988 11.2865 11.8469 11.2166C11.8667 11.2124 11.8871 11.2103 11.9075 11.2078C11.9385 11.204 11.9698 11.2009 12.0012 11.2009Z" fill="black"/>
<path d="M8.0022 11.199C8.44439 11.199 8.80197 11.5566 8.802 11.9988C8.802 12.441 8.44441 12.7986 8.0022 12.7986C7.56001 12.7986 7.20239 12.441 7.20239 11.9988C7.20243 11.5674 7.55032 11.199 8.0022 11.199Z" fill="black"/>
<path d="M16.0022 11.199C16.4444 11.199 16.802 11.5566 16.802 11.9988C16.802 12.441 16.4444 12.7986 16.0022 12.7986C15.56 12.7985 15.2024 12.441 15.2024 11.9988L15.2063 11.9187C15.2462 11.5228 15.5786 11.199 16.0022 11.199Z" fill="black"/>
<path fill-rule="evenodd" clip-rule="evenodd" d="M17.3401 2.2644C18.6938 2.40196 19.75 3.54479 19.7502 4.93433V19.0652C19.75 20.4551 18.6943 21.5984 17.3411 21.7361L17.0667 21.7498H6.93384C5.45195 21.7495 4.25048 20.548 4.25024 19.0662V4.93433C4.25046 3.45243 5.45195 2.25095 6.93384 2.25073H17.0657L17.3401 2.2644ZM5.75024 19.0662C5.75048 19.7196 6.28038 20.2495 6.93384 20.2498H17.0667C17.7198 20.2495 18.25 19.7199 18.2502 19.0652V8.74976H5.75024V19.0662ZM6.93384 3.75073C6.28037 3.75095 5.75046 4.28086 5.75024 4.93433V7.24976H18.2502V4.93433C18.25 4.3219 17.7845 3.81736 17.1868 3.75659L17.0657 3.75073H6.93384Z" fill="black"/>
</svg>
