<svg width="24" height="24" viewBox="0 0 24 24" fill="none" xmlns="http://www.w3.org/2000/svg">
<path d="M19.4941 19.7271C19.4877 19.7392 19.4717 19.7637 19.4355 19.8004C19.3481 19.8888 19.1851 20.0035 18.9243 20.1153C18.4699 20.3101 17.8239 20.4542 17.0742 20.4874C16.9669 20.4921 16.8574 20.4947 16.7461 20.4947C16.5237 20.4947 16.3086 20.4851 16.103 20.4669C15.4869 20.4123 14.9561 20.2822 14.5664 20.1153C14.5015 20.0875 14.4425 20.0594 14.3892 20.0318C14.3356 20.004 14.2878 19.9765 14.2456 19.9498C14.1607 19.8963 14.0974 19.8461 14.0537 19.8018C14.0149 19.7624 14.0004 19.7365 13.9951 19.7257V18.5011C14.2746 18.6193 14.5862 18.7179 14.9209 18.7955C15.1439 18.8472 15.3771 18.8895 15.6182 18.9215C15.9797 18.9694 16.3585 18.9947 16.7461 18.9947C16.8751 18.9947 17.0032 18.9929 17.1299 18.9874C17.384 18.9764 17.6329 18.9536 17.874 18.9215C18.4757 18.8414 19.0291 18.6977 19.4941 18.5011V19.7271Z" fill="black"/>
<path d="M19.4941 16.7257C19.4882 16.7373 19.4729 16.7625 19.4355 16.8004C19.3481 16.8888 19.1851 17.0035 18.9243 17.1153C18.6646 17.2266 18.3421 17.3208 17.9736 17.3878C17.6974 17.438 17.3954 17.4732 17.0742 17.4874C16.9669 17.4921 16.8574 17.4947 16.7461 17.4947C15.8569 17.4947 15.0861 17.3378 14.5664 17.1153C14.3056 17.0035 14.1409 16.8901 14.0537 16.8018L13.9951 16.7257V15.5011C14.2746 15.6193 14.5862 15.7179 14.9209 15.7955C15.1439 15.8472 15.3771 15.8895 15.6182 15.9215C15.9797 15.9694 16.3585 15.9947 16.7461 15.9947C16.8751 15.9947 17.0032 15.9929 17.1299 15.9874C17.384 15.9764 17.6329 15.9536 17.874 15.9215C18.4757 15.8414 19.0291 15.6977 19.4941 15.5011V16.7257Z" fill="black"/>
<path d="M17.0742 13.002C17.3958 13.0161 17.6985 13.0502 17.9751 13.1002C18.3437 13.1668 18.6661 13.2614 18.9258 13.3726C19.1861 13.4842 19.3498 13.5979 19.437 13.6861C19.4588 13.7081 19.4712 13.7292 19.481 13.7432C19.4716 13.7567 19.4588 13.7768 19.4355 13.8004C19.3481 13.8888 19.1851 14.0035 18.9243 14.1153C18.6646 14.2266 18.3421 14.3208 17.9736 14.3878C17.6974 14.438 17.3954 14.4732 17.0742 14.4874C16.9669 14.4921 16.8574 14.4947 16.7461 14.4947C15.8569 14.4947 15.0861 14.3378 14.5664 14.1153C14.3056 14.0035 14.1409 13.8901 14.0537 13.8018C14.0298 13.7776 14.0174 13.7568 14.0083 13.7432C14.0178 13.7299 14.0323 13.7108 14.0552 13.6876C14.077 13.6655 14.1042 13.6421 14.1357 13.6173C14.1673 13.5925 14.2039 13.5662 14.2456 13.5396C14.2876 13.5129 14.3359 13.4853 14.3892 13.4576C14.4425 13.4298 14.5012 13.4006 14.5664 13.3726C14.8062 13.2699 15.0999 13.1831 15.4336 13.1178C15.5518 13.0946 15.675 13.0732 15.8027 13.0562C16.0957 13.0172 16.4125 12.9947 16.7461 12.9947L17.0742 13.002Z" fill="black"/>
<path fill-rule="evenodd" clip-rule="evenodd" d="M11.7729 2.28523C11.9452 2.23051 12.133 2.24011 12.3003 2.31306L21.3003 6.24031C21.5731 6.35956 21.7497 6.62958 21.75 6.92732V9.93318C21.75 10.3474 21.4142 10.6832 21 10.6832H20.2471C20.6887 10.8863 21.1681 11.1698 21.5728 11.5797C22.028 12.0411 22.4947 12.7747 22.4956 13.7418L22.4941 16.7169C22.4943 16.7259 22.4956 16.7354 22.4956 16.7447C22.4956 16.7524 22.4943 16.7622 22.4941 16.7696V19.7242C22.4942 19.7307 22.4956 19.7378 22.4956 19.7447C22.4944 20.7141 22.0249 21.4503 21.5713 21.9097C21.1241 22.3622 20.5866 22.6657 20.105 22.8721C19.2532 23.2371 18.2369 23.4395 17.1943 23.4844L16.7461 23.4947C15.5489 23.4947 14.3595 23.2892 13.3857 22.8721C12.9039 22.6657 12.3672 22.3619 11.9194 21.9083C11.8706 21.8588 11.8217 21.8059 11.7729 21.7501H3C2.58579 21.7501 2.25 21.4143 2.25 21.0001V19.9996L2.25439 19.9132C2.26444 19.8271 2.29025 19.7435 2.3291 19.6656L3.32959 17.6646C3.45677 17.411 3.71668 17.2501 4.00049 17.2501H4.24951V10.6832H3C2.58579 10.6832 2.25 10.3474 2.25 9.93318V6.92732C2.25034 6.62958 2.42686 6.35956 2.69971 6.24031L11.6997 2.31306L11.7729 2.28523ZM16.7461 11.4947C16.4646 11.4947 16.1875 11.5089 15.9185 11.5343C15.8846 11.5374 15.851 11.5409 15.8174 11.5445C15.709 11.5561 15.602 11.57 15.4966 11.5855C15.4439 11.5932 15.3917 11.6017 15.3398 11.6104C15.2567 11.6244 15.1746 11.6394 15.0938 11.6558C15.047 11.6653 15.0005 11.6748 14.9546 11.6851C14.8614 11.7061 14.7702 11.7297 14.6807 11.754C14.6464 11.7633 14.6118 11.7706 14.5781 11.7803C14.3647 11.8422 14.1631 11.9141 13.9761 11.9942C13.8831 12.0341 13.7914 12.0768 13.7021 12.1231C13.5237 12.2158 13.3549 12.3221 13.2026 12.4425C13.1263 12.5028 13.0542 12.5666 12.9873 12.6344C12.8693 12.7539 12.7605 12.8931 12.6753 13.0504C12.5901 13.2076 12.5286 13.3829 12.5054 13.5748L12.4951 13.7432V19.7447L12.5054 19.9132C12.5425 20.224 12.6822 20.4896 12.8584 20.7071C12.8991 20.7594 12.9419 20.8091 12.9873 20.8551C13.1211 20.9906 13.2753 21.1108 13.4429 21.2169C13.6099 21.3226 13.7902 21.4141 13.9761 21.4937C14.1959 21.5879 14.4365 21.6679 14.6924 21.7369C14.7267 21.7462 14.7615 21.7544 14.7964 21.7633C15.0959 21.8387 15.4152 21.8975 15.7485 21.9361C15.7773 21.9394 15.806 21.9433 15.835 21.9464C16.0062 21.9644 16.1808 21.9782 16.3579 21.9859C16.4861 21.9915 16.6156 21.9947 16.7461 21.9947C17.528 21.9946 18.2746 21.8936 18.9141 21.7076C19.127 21.6457 19.3281 21.5737 19.5146 21.4937C19.7004 21.4141 19.8808 21.3226 20.0479 21.2169C20.1316 21.1639 20.2119 21.1071 20.2881 21.0469C20.3643 20.9868 20.4366 20.9227 20.5034 20.8551C20.7734 20.5816 20.995 20.205 20.9956 19.7447C20.9956 19.7379 20.9943 19.7309 20.9941 19.7242V16.7564C20.9943 16.7528 20.9956 16.7483 20.9956 16.7447L20.9941 16.7359L20.9956 13.7432C20.9954 13.5704 20.9638 13.4095 20.9106 13.2613C20.8222 13.0149 20.6735 12.8037 20.5049 12.6329C20.2378 12.3623 19.8869 12.1537 19.5146 11.9942C19.1413 11.8344 18.7099 11.71 18.2417 11.6251C17.7727 11.5403 17.2669 11.4947 16.7461 11.4947ZM5.74951 17.2501H8.60742V10.6832H5.74951V17.2501ZM10.1074 17.2501H10.9951V13.7432L10.998 13.6524L11.0083 13.484L11.0156 13.3946C11.1131 12.5899 11.5242 11.9801 11.9194 11.5797C12.3215 11.1726 12.7983 10.8883 13.2437 10.6832H10.1074V17.2501ZM22.4722 17.0084L22.4736 17.0054V16.9996C22.4731 17.0028 22.4722 17.0084 22.4722 17.0084Z" fill="black"/>
</svg>
