<svg width="24" height="24" viewBox="0 0 24 24" fill="none" xmlns="http://www.w3.org/2000/svg">
<path fill-rule="evenodd" clip-rule="evenodd" d="M16 13.2498C16.9662 13.2498 17.75 14.0336 17.75 14.9998V16.2498H21C21.4142 16.2498 21.75 16.5856 21.75 16.9998C21.75 17.414 21.4142 17.7498 21 17.7498H17.75V18.9998C17.75 19.966 16.9662 20.7498 16 20.7498H14C13.0338 20.7497 12.25 19.9659 12.25 18.9998V17.7498H3C2.58579 17.7498 2.25 17.414 2.25 16.9998C2.25003 16.5856 2.58581 16.2498 3 16.2498H12.25V14.9998C12.25 14.0336 13.0339 13.2498 14 13.2498H16ZM14 14.7498C13.8623 14.7498 13.75 14.862 13.75 14.9998V18.9998C13.75 19.1375 13.8623 19.2497 14 19.2498H16C16.1378 19.2498 16.25 19.1375 16.25 18.9998V14.9998C16.25 14.862 16.1378 14.7498 16 14.7498H14Z" fill="black"/>
<path fill-rule="evenodd" clip-rule="evenodd" d="M10 3.24976C10.9662 3.24976 11.75 4.03357 11.75 4.99976V6.24976H21C21.4142 6.24976 21.75 6.58557 21.75 6.99976C21.75 7.41397 21.4142 7.74976 21 7.74976H11.75V8.99976C11.75 9.96597 10.9662 10.7498 10 10.7498H8C7.03384 10.7497 6.25 9.96593 6.25 8.99976V7.74976H3C2.58579 7.74976 2.25 7.41397 2.25 6.99976C2.25003 6.58557 2.58581 6.24976 3 6.24976H6.25V4.99976C6.25003 4.03361 7.03386 3.24982 8 3.24976H10ZM8 4.74976C7.86229 4.74982 7.75003 4.86204 7.75 4.99976V8.99976C7.75 9.1375 7.86227 9.24969 8 9.24976H10C10.1378 9.24976 10.25 9.13754 10.25 8.99976V4.99976C10.25 4.862 10.1378 4.74976 10 4.74976H8Z" fill="black"/>
</svg>
