<svg width="24" height="24" viewBox="0 0 24 24" fill="none" xmlns="http://www.w3.org/2000/svg">
<path fill-rule="evenodd" clip-rule="evenodd" d="M12 2.25C17.3852 2.25 21.75 6.61479 21.75 12C21.75 17.3852 17.3852 21.75 12 21.75C6.61479 21.75 2.25 17.3852 2.25 12C2.25 6.61479 6.61479 2.25 12 2.25ZM16.5303 9.1748C16.2374 8.88191 15.7626 8.88191 15.4697 9.1748L11 13.6445L8.53027 11.1748C8.23738 10.8819 7.76262 10.8819 7.46973 11.1748C7.1769 11.4677 7.17686 11.9425 7.46973 12.2354L10.4697 15.2354C10.7626 15.5282 11.2374 15.5282 11.5303 15.2354L16.5303 10.2354C16.8231 9.94248 16.8231 9.4677 16.5303 9.1748Z" fill="black"/>
</svg>
