<svg width="24" height="24" viewBox="0 0 24 24" fill="none" xmlns="http://www.w3.org/2000/svg">
<path d="M15.4644 8.97949C15.7571 8.6867 16.232 8.6869 16.5249 8.97949C16.8178 9.27239 16.8178 9.74715 16.5249 10.04L11.5254 15.0396C11.2325 15.3324 10.7577 15.3324 10.4648 15.0396L7.46484 12.0396C7.17226 11.7466 7.17205 11.2718 7.46484 10.979C7.75766 10.6866 8.23259 10.6865 8.52539 10.979L10.9951 13.4487L15.4644 8.97949Z" fill="black"/>
<path fill-rule="evenodd" clip-rule="evenodd" d="M12 2.25C17.3852 2.25 21.75 6.61479 21.75 12C21.75 17.3852 17.3852 21.75 12 21.75C6.61479 21.75 2.25 17.3852 2.25 12C2.25 6.61479 6.61479 2.25 12 2.25ZM12 3.75C7.44321 3.75 3.75 7.44321 3.75 12C3.75 16.5568 7.44321 20.25 12 20.25C16.5568 20.25 20.25 16.5568 20.25 12C20.25 7.44321 16.5568 3.75 12 3.75Z" fill="black"/>
</svg>
