<svg width="24" height="24" viewBox="0 0 24 24" fill="none" xmlns="http://www.w3.org/2000/svg">
<path d="M9.57031 12.2502C9.98435 12.2504 10.3203 12.5862 10.3203 13.0002C10.3203 13.4143 9.98433 13.75 9.57031 13.7502H7C6.58581 13.7502 6.25003 13.4144 6.25 13.0002C6.25 12.586 6.58579 12.2502 7 12.2502H9.57031Z" fill="black"/>
<path fill-rule="evenodd" clip-rule="evenodd" d="M18 4.25024C20.0712 4.25024 21.75 5.92903 21.75 8.00024V16.0002C21.75 18.0715 20.0712 19.7502 18 19.7502H6C3.92879 19.7502 2.25 18.0715 2.25 16.0002V8.00024C2.25 5.92903 3.92879 4.25024 6 4.25024H18ZM3.75 9.75024V16.0002C3.75 17.243 4.75721 18.2502 6 18.2502H18C19.2428 18.2502 20.25 17.243 20.25 16.0002V9.75024H3.75ZM6 5.75024C4.75721 5.75024 3.75 6.75746 3.75 8.00024V8.25024H20.25V8.00024C20.25 6.75746 19.2428 5.75024 18 5.75024H6Z" fill="black"/>
</svg>
