<svg width="24" height="24" viewBox="0 0 24 24" fill="none" xmlns="http://www.w3.org/2000/svg">
<path d="M7.57974 7.58052C10.0205 5.13974 13.9778 5.13975 16.4186 7.58052C16.7115 7.87341 16.7115 8.34817 16.4186 8.64106L8.64126 16.4194L8.52603 16.5131C8.40385 16.5944 8.25894 16.6381 8.11001 16.6381C7.91128 16.638 7.72028 16.5599 7.57974 16.4194C5.1391 13.9787 5.13937 10.0213 7.57974 7.58052Z" fill="black"/>
<path fill-rule="evenodd" clip-rule="evenodd" d="M5.10513 5.10493C8.91273 1.2974 15.0866 1.2974 18.8942 5.10493C22.7018 8.91252 22.7017 15.0864 18.8942 18.894C15.0866 22.7016 8.91274 22.7016 5.10513 18.894C1.29758 15.0864 1.29754 8.91252 5.10513 5.10493ZM17.8336 6.16548C14.6118 2.94373 9.38749 2.94373 6.16568 6.16548C2.94387 9.38728 2.94391 14.6116 6.16568 17.8334C9.3875 21.0553 14.6118 21.0553 17.8336 17.8334C21.0554 14.6116 21.0555 9.38728 17.8336 6.16548Z" fill="black"/>
</svg>
