<svg width="24" height="24" viewBox="0 0 24 24" fill="none" xmlns="http://www.w3.org/2000/svg">
<path d="M3 7.25C3.41421 7.25 3.75 7.58579 3.75 8V21C3.75 21.4142 3.41421 21.75 3 21.75C2.58579 21.75 2.25 21.4142 2.25 21V8C2.25 7.58579 2.58579 7.25 3 7.25Z" fill="black"/>
<path d="M9 12.25C9.41421 12.25 9.75 12.5858 9.75 13V21C9.75 21.4142 9.41421 21.75 9 21.75C8.58579 21.75 8.25 21.4142 8.25 21V13C8.25 12.5858 8.58579 12.25 9 12.25Z" fill="black"/>
<path d="M15 2.25C15.4142 2.25 15.75 2.58579 15.75 3V21C15.75 21.4142 15.4142 21.75 15 21.75C14.5858 21.75 14.25 21.4142 14.25 21V3C14.25 2.58579 14.5858 2.25 15 2.25Z" fill="black"/>
<path d="M21 7.25C21.4142 7.25 21.75 7.58579 21.75 8V21C21.75 21.4142 21.4142 21.75 21 21.75C20.5858 21.75 20.25 21.4142 20.25 21V8C20.25 7.58579 20.5858 7.25 21 7.25Z" fill="black"/>
</svg>
