<svg width="24" height="24" viewBox="0 0 24 24" fill="none" xmlns="http://www.w3.org/2000/svg">
<path d="M16.75 3C16.75 3.41419 16.4142 3.74997 16 3.75H3C2.58579 3.75 2.25 3.41421 2.25 3C2.25 2.58579 2.58579 2.25 3 2.25H16C16.4142 2.25003 16.75 2.58581 16.75 3Z" fill="black"/>
<path d="M11.75 9C11.75 9.41421 11.4142 9.75 11 9.75H3C2.58581 9.74997 2.25 9.41419 2.25 9C2.25 8.58581 2.58581 8.25003 3 8.25H11C11.4142 8.25 11.75 8.58579 11.75 9Z" fill="black"/>
<path d="M21.75 15C21.75 15.4142 21.4142 15.75 21 15.75H3C2.58579 15.75 2.25 15.4142 2.25 15C2.25 14.5858 2.58579 14.25 3 14.25H21C21.4142 14.25 21.75 14.5858 21.75 15Z" fill="black"/>
<path d="M16.75 21C16.75 21.4142 16.4142 21.75 16 21.75H3C2.58579 21.75 2.25 21.4142 2.25 21C2.25 20.5858 2.58579 20.25 3 20.25H16C16.4142 20.25 16.75 20.5858 16.75 21Z" fill="black"/>
</svg>
