<svg width="24" height="24" viewBox="0 0 24 24" fill="none" xmlns="http://www.w3.org/2000/svg">
<path d="M3 2C3.55228 2 4 2.44772 4 3V19C4 19.5527 4.44728 20 5 20H21C21.5523 20 22 20.4477 22 21C22 21.5523 21.5523 22 21 22H5C3.34272 22 2 20.6573 2 19V3C2 2.44772 2.44772 2 3 2Z" fill="black"/>
<path d="M7 11C7.55217 11.0001 8 11.4478 8 12V17C8 17.5522 7.55217 17.9999 7 18C6.44772 18 6 17.5523 6 17V12C6 11.4477 6.44772 11 7 11Z" fill="black"/>
<path d="M11 5C11.5523 5 12 5.44772 12 6V17C12 17.5523 11.5523 18 11 18C10.4478 17.9999 10 17.5522 10 17V6C10 5.4478 10.4478 5.00013 11 5Z" fill="black"/>
<path d="M15 9.90039C15.5523 9.90039 16 10.3481 16 10.9004V17C15.9998 17.5521 15.5522 18 15 18C14.4478 18 14.0002 17.5521 14 17V10.9004C14 10.3481 14.4477 9.90039 15 9.90039Z" fill="black"/>
<path d="M19 6C19.5522 6.00013 20 6.44781 20 7V17C20 17.5522 19.5522 17.9999 19 18C18.4477 18 18 17.5523 18 17V7C18 6.44773 18.4477 6 19 6Z" fill="black"/>
</svg>
