<svg width="24" height="24" viewBox="0 0 24 24" fill="none" xmlns="http://www.w3.org/2000/svg">
<path fill-rule="evenodd" clip-rule="evenodd" d="M12 2.25C17.3848 2.25 21.75 6.61522 21.75 12C21.75 17.3848 17.3848 21.75 12 21.75C6.61522 21.75 2.25 17.3848 2.25 12C2.25 6.61522 6.61522 2.25 12 2.25ZM11.7197 6.48633C11.3322 6.48659 11.0127 6.78172 10.9736 7.15918L10.9697 13.0645C10.9701 13.3285 11.1092 13.5741 11.335 13.709C12.1188 14.1767 15.6541 17.1651 16.4268 15.873C16.6382 15.518 16.5219 15.0573 16.167 14.8447L12.5918 12.71C12.5164 12.6648 12.4698 12.583 12.4697 12.4951V7.23535C12.4687 6.84817 12.1735 6.52882 11.7959 6.49023L11.7197 6.48633Z" fill="black"/>
</svg>
