<svg width="24" height="24" viewBox="0 0 24 24" fill="none" xmlns="http://www.w3.org/2000/svg">
<path d="M2.46167 2.39624C2.8758 2.39624 3.21154 2.73214 3.21167 3.14624V20.1042H21.5378C21.9519 20.1043 22.2877 20.4402 22.2878 20.8542C22.2878 21.2684 21.952 21.6042 21.5378 21.6042H2.46167C2.04754 21.6041 1.71167 21.2684 1.71167 20.8542V3.14624C1.7118 2.7322 2.04762 2.39634 2.46167 2.39624Z" fill="black"/>
<path d="M21.0076 6.39526C21.3005 6.10254 21.7753 6.10245 22.0681 6.39526C22.361 6.6881 22.3608 7.1629 22.0681 7.45581L16.9968 12.5271C16.3133 13.2103 15.2056 13.211 14.5222 12.5261L12.3816 10.3855C12.2832 10.2872 12.1256 10.2889 12.0291 10.3855L6.06812 16.3455C5.77522 16.6384 5.30046 16.6384 5.00757 16.3455C4.71487 16.0525 4.71474 15.5777 5.00757 15.2849L10.9675 9.32495C11.651 8.64082 12.7589 8.64193 13.4421 9.32495L15.5828 11.4666C15.6792 11.5633 15.8378 11.5647 15.9363 11.4666L21.0076 6.39526Z" fill="black"/>
</svg>
