<svg width="24" height="24" viewBox="0 0 24 24" fill="none" xmlns="http://www.w3.org/2000/svg">
<path d="M12.5774 2.28003C15.6908 2.46587 18.4472 4.11464 20.1057 6.59936C20.1779 6.70745 20.2477 6.81727 20.3157 6.92846C20.5872 7.37286 20.8243 7.84183 21.0237 8.33178C21.1234 8.57698 21.214 8.82739 21.2942 9.08276C21.3744 9.33803 21.4444 9.59843 21.5042 9.86303C22.4592 14.096 20.5003 18.4509 16.6995 20.5447C16.343 20.741 15.9783 20.9133 15.6077 21.0613C15.4843 21.1105 15.3602 21.157 15.2356 21.2009C12.9899 21.993 10.5531 21.9246 8.38599 21.0613C8.14512 20.9653 7.90765 20.8594 7.67407 20.7439C6.74014 20.282 5.86957 19.6646 5.10278 18.8972C4.91972 18.714 4.85058 18.4591 4.89673 18.2224C4.91517 18.1278 4.95211 18.036 5.00708 17.9529C5.03455 17.9113 5.06717 17.8723 5.10376 17.8357C5.21361 17.7261 5.34872 17.6569 5.49048 17.6296C5.58522 17.6114 5.68288 17.6121 5.77759 17.6306C5.91922 17.6582 6.05468 17.7269 6.16431 17.8367C8.35407 20.028 11.544 20.7754 14.4192 19.8914C14.5255 19.8587 14.6312 19.8231 14.7366 19.7859C15.1589 19.637 15.5737 19.4527 15.9758 19.2312C16.2772 19.0652 16.5649 18.8823 16.8381 18.6843C17.0204 18.5522 17.1963 18.4134 17.3655 18.2683C17.873 17.8332 18.3204 17.3416 18.7024 16.8074C18.8296 16.6294 18.9493 16.4465 19.0618 16.2595C19.1179 16.1661 19.1725 16.0718 19.2249 15.9763C19.3823 15.6893 19.5225 15.3931 19.6448 15.0896C20.2557 13.5731 20.419 11.8718 20.0403 10.1931C19.8634 9.40956 19.5779 8.67197 19.2014 7.99585C19.0939 7.80283 18.9786 7.61506 18.8567 7.43237C18.7347 7.2495 18.6056 7.07197 18.47 6.90014C18.4023 6.8144 18.3329 6.73008 18.262 6.64721C17.7645 6.06615 17.1887 5.55679 16.552 5.13452C16.2791 4.95355 15.9952 4.78825 15.7014 4.64038C15.1138 4.34467 14.487 4.11771 13.8323 3.9685C13.3957 3.86901 12.9467 3.80446 12.4885 3.7771C12.2595 3.76343 12.0312 3.75923 11.8049 3.7644C8.86284 3.83169 6.19268 5.46598 4.78345 8.01245C4.74045 8.09014 4.70004 8.16941 4.65942 8.24878H6.99829C7.41233 8.24893 7.74823 8.58471 7.74829 8.99878C7.74814 9.41276 7.41228 9.74862 6.99829 9.74878H2.99634C2.58222 9.74878 2.24649 9.41286 2.24634 8.99878V4.99682C2.2464 4.58267 2.58217 4.24682 2.99634 4.24682C3.41051 4.24682 3.74627 4.58267 3.74634 4.99682V6.82202C3.79094 6.75104 3.8348 6.67973 3.8811 6.6101C4.97028 4.97228 6.52571 3.71322 8.32251 2.9812C8.44227 2.93241 8.56298 2.88561 8.68481 2.84155C9.90361 2.40078 11.2236 2.19928 12.5774 2.28003Z" fill="#1C1C1C"/>
<path d="M12.0764 6.25171C12.4546 6.2901 12.7502 6.60947 12.7502 6.9978V11.9998C12.7502 12.1986 12.671 12.3894 12.5305 12.53L9.52954 15.531C9.23673 15.8238 8.76191 15.8237 8.46899 15.531C8.1763 15.2381 8.17617 14.7633 8.46899 14.4705L11.2502 11.6892V6.9978C11.2502 6.58368 11.5862 6.24795 12.0002 6.2478L12.0764 6.25171Z" fill="#1C1C1C"/>
</svg>
