<svg width="24" height="24" viewBox="0 0 24 24" fill="none" xmlns="http://www.w3.org/2000/svg">
<path d="M9.96924 13.9747C10.2621 13.6819 10.7369 13.6821 11.0298 13.9747C11.3227 14.2676 11.3227 14.7424 11.0298 15.0353L9.53857 16.5255C9.5357 16.5285 9.5337 16.5323 9.53076 16.5353C9.23787 16.8282 8.76213 16.8282 8.46924 16.5353L7.47021 15.5353C7.17732 15.2424 7.17732 14.7676 7.47021 14.4747C7.76313 14.1821 8.23795 14.1819 8.53076 14.4747L8.99951 14.9435L9.96924 13.9747Z" fill="black"/>
<path d="M15.9995 14.755C16.4137 14.755 16.7495 15.0908 16.7495 15.505C16.7495 15.9192 16.4137 16.255 15.9995 16.255H12.9995C12.5855 16.2548 12.2495 15.9191 12.2495 15.505C12.2495 15.0909 12.5855 14.7552 12.9995 14.755H15.9995Z" fill="black"/>
<path d="M16.0005 10.755C16.4145 10.7552 16.7505 11.0909 16.7505 11.505C16.7505 11.9191 16.4145 12.2548 16.0005 12.255H8.00049C7.58628 12.255 7.25049 11.9192 7.25049 11.505C7.25049 11.0908 7.58627 10.755 8.00049 10.755H16.0005Z" fill="black"/>
<path fill-rule="evenodd" clip-rule="evenodd" d="M15.0005 1.755C15.9668 1.75524 16.7505 2.53865 16.7505 3.505V3.755H17.9995C19.5183 3.755 20.7495 4.98622 20.7495 6.505V18.505C20.7495 20.0238 19.5183 21.255 17.9995 21.255H5.99951C4.48093 21.2548 3.24951 20.0236 3.24951 18.505V6.505C3.24951 4.98636 4.48092 3.75524 5.99951 3.755H7.25049V3.505C7.25049 2.53851 8.03399 1.755 9.00049 1.755H15.0005ZM5.99951 5.255C5.30935 5.25524 4.74951 5.81479 4.74951 6.505V18.505C4.74951 19.1952 5.30935 19.7548 5.99951 19.755H17.9995C18.6899 19.755 19.2495 19.1954 19.2495 18.505V6.505C19.2495 5.81465 18.6899 5.255 17.9995 5.255H16.7505V5.505C16.7505 6.47136 15.9668 7.25477 15.0005 7.255H9.00049C8.03399 7.255 7.25049 6.4715 7.25049 5.505V5.255H5.99951ZM9.00049 3.255C8.86242 3.255 8.75049 3.36693 8.75049 3.505V5.505C8.75049 5.64307 8.86242 5.755 9.00049 5.755H15.0005C15.1384 5.75477 15.2505 5.64293 15.2505 5.505V4.52356C15.2503 4.51739 15.2495 4.51121 15.2495 4.505C15.2495 4.49847 15.2503 4.49197 15.2505 4.48547V3.505C15.2505 3.36708 15.1384 3.25524 15.0005 3.255H9.00049Z" fill="black"/>
</svg>
