<svg width="24" height="24" viewBox="0 0 24 24" fill="none" xmlns="http://www.w3.org/2000/svg">
<path fill-rule="evenodd" clip-rule="evenodd" d="M16.5015 1.5C16.9155 1.5001 17.2513 1.83596 17.2515 2.25V3.00098H18.0034C20.0743 3.00115 21.7534 4.68001 21.7534 6.75098V17.2578C21.7534 19.3287 20.0743 21.0076 18.0034 21.0078H5.99561C3.9247 21.0077 2.24567 19.3287 2.24561 17.2578V6.75098C2.24561 4.68 3.92466 3.00112 5.99561 3.00098H6.74756V2.25C6.74769 1.83597 7.08353 1.50012 7.49756 1.5C7.91169 1.5 8.24743 1.8359 8.24756 2.25V3.00098H15.7515V2.25C15.7516 1.83597 16.0874 1.50011 16.5015 1.5ZM3.74561 9.50293V17.2578C3.74567 18.5003 4.75313 19.5077 5.99561 19.5078H18.0034C19.2459 19.5076 20.2534 18.5003 20.2534 17.2578V9.50293H3.74561ZM5.99561 4.50098C4.75309 4.50113 3.74561 5.50843 3.74561 6.75098V8.00293H20.2534V6.75098C20.2534 5.50844 19.2459 4.50114 18.0034 4.50098H17.2515V5.25098C17.2515 5.66513 16.9156 6.00088 16.5015 6.00098C16.0873 6.00086 15.7515 5.66512 15.7515 5.25098V4.50098H8.24756V5.25098C8.24756 5.66519 7.91177 6.00098 7.49756 6.00098C7.08345 6.00086 6.74756 5.66512 6.74756 5.25098V4.50098H5.99561Z" fill="black"/>
</svg>
