<svg width="24" height="24" viewBox="0 0 24 24" fill="none" xmlns="http://www.w3.org/2000/svg">
<path d="M13.4563 13.3391C15.2853 13.3391 16.7862 14.6812 17.0637 16.425C17.1287 16.834 16.8495 17.2182 16.4407 17.2834C16.0319 17.3483 15.6476 17.07 15.5823 16.6614C15.4176 15.6262 14.5284 14.8391 13.4563 14.8391H10.5432C9.47039 14.8392 8.58195 15.6261 8.41724 16.6614C8.35183 17.0701 7.96768 17.3485 7.55884 17.2834C7.15018 17.2181 6.87185 16.8338 6.93677 16.425C7.21433 14.6815 8.71318 13.3392 10.5432 13.3391H13.4563Z" fill="black"/>
<path fill-rule="evenodd" clip-rule="evenodd" d="M9.87817 7.12622C11.0504 5.9544 12.9502 5.95429 14.1223 7.12622C15.2945 8.29836 15.2942 10.1981 14.1223 11.3704C12.9501 12.5426 11.0504 12.5426 9.87817 11.3704C8.70613 10.1981 8.70598 8.29841 9.87817 7.12622ZM13.0618 8.18677C12.4754 7.60063 11.5252 7.60073 10.9387 8.18677C10.3523 8.77317 10.3525 9.72332 10.9387 10.3098C11.5252 10.8963 12.4753 10.8963 13.0618 10.3098C13.6479 9.72331 13.6481 8.77312 13.0618 8.18677Z" fill="black"/>
<path fill-rule="evenodd" clip-rule="evenodd" d="M17.0022 2.24634C19.6263 2.24635 21.7542 4.37417 21.7542 6.99829V17.0022C21.7541 19.6263 19.6263 21.7541 17.0022 21.7542H6.99829C4.37417 21.7542 2.24635 19.6263 2.24634 17.0022V6.99829C2.24634 4.37416 4.37416 2.24634 6.99829 2.24634H17.0022ZM6.99829 3.74634C5.20258 3.74634 3.74634 5.20258 3.74634 6.99829V17.0022C3.74635 18.7979 5.20259 20.2542 6.99829 20.2542H17.0022C18.7979 20.2541 20.2541 18.7979 20.2542 17.0022V6.99829C20.2542 5.20259 18.7979 3.74635 17.0022 3.74634H6.99829Z" fill="black"/>
</svg>
