<svg width="24" height="24" viewBox="0 0 24 24" fill="none" xmlns="http://www.w3.org/2000/svg">
<path fill-rule="evenodd" clip-rule="evenodd" d="M16 2.25C19.1752 2.25 21.75 4.82479 21.75 8V12C21.75 15.1752 19.1752 17.75 16 17.75H14.2363L9.46973 21.584C9.45624 21.5948 9.44172 21.6045 9.42773 21.6143C9.42314 21.6175 9.41874 21.6209 9.41406 21.624C9.38388 21.6441 9.35229 21.6606 9.32031 21.6758C9.29601 21.6873 9.27077 21.6962 9.24512 21.7051C9.22206 21.7131 9.19931 21.7209 9.17578 21.7266C9.13915 21.7354 9.10198 21.7429 9.06348 21.7461H9.05859C9.03922 21.7476 9.01976 21.75 9 21.75C8.93601 21.75 8.87473 21.7387 8.81543 21.7236C8.79161 21.7176 8.76831 21.7105 8.74512 21.7021C8.72006 21.6931 8.6956 21.6835 8.67188 21.6719C8.65314 21.6627 8.63521 21.6524 8.61719 21.6416C8.59409 21.6278 8.57218 21.6128 8.55078 21.5967C8.50237 21.5602 8.45578 21.5191 8.41602 21.4697C8.4054 21.4565 8.39629 21.4424 8.38672 21.4287C8.38288 21.4232 8.37772 21.4187 8.37402 21.4131C8.3544 21.3834 8.33913 21.3517 8.32422 21.3203C8.31193 21.2944 8.30228 21.2676 8.29297 21.2402C8.28624 21.2204 8.27942 21.2009 8.27441 21.1807C8.26001 21.1226 8.25 21.0625 8.25 21V17.75H8C4.82479 17.75 2.25 15.1752 2.25 12V8C2.25 4.82479 4.82479 2.25 8 2.25H16ZM8 3.75C5.65321 3.75 3.75 5.65321 3.75 8V12C3.75 14.3468 5.65321 16.25 8 16.25H9C9.41421 16.25 9.75 16.5858 9.75 17V19.4336L13.5303 16.3945C13.7146 16.2464 13.947 16.2028 14.1611 16.25H16C18.3468 16.25 20.25 14.3468 20.25 12V8C20.25 5.65321 18.3468 3.75 16 3.75H8Z" fill="black"/>
</svg>
