<svg width="24" height="24" viewBox="0 0 24 24" fill="none" xmlns="http://www.w3.org/2000/svg">
<path d="M15.47 7.47002C15.7629 7.17713 16.2376 7.17713 16.5305 7.47002C16.8233 7.76292 16.8234 8.23771 16.5305 8.53057L13.0608 12.0003L16.5305 15.47C16.8233 15.7629 16.8234 16.2377 16.5305 16.5306C16.2377 16.8234 15.7629 16.8233 15.47 16.5306L12.0002 13.0608L8.53052 16.5306C8.23767 16.8234 7.76288 16.8233 7.46998 16.5306C7.17708 16.2377 7.17708 15.7629 7.46998 15.47L10.9397 12.0003L7.46998 8.53057C7.17708 8.23767 7.17708 7.76291 7.46998 7.47002C7.76287 7.17713 8.23763 7.17713 8.53052 7.47002L12.0002 10.9397L15.47 7.47002Z" fill="black"/>
</svg>
