<svg width="24" height="24" viewBox="0 0 24 24" fill="none" xmlns="http://www.w3.org/2000/svg">
<path d="M12 2.25C17.3852 2.25 21.75 6.61479 21.75 12C21.75 17.3852 17.3852 21.75 12 21.75C6.61479 21.75 2.25 17.3852 2.25 12C2.25 6.61479 6.61479 2.25 12 2.25ZM15.3604 8.63965C15.0675 8.34678 14.5927 8.34683 14.2998 8.63965L12 10.9395L9.7002 8.63965C9.4073 8.34676 8.93254 8.34676 8.63965 8.63965C8.34676 8.93254 8.34676 9.4073 8.63965 9.7002L10.9395 12L8.63965 14.2998C8.34683 14.5927 8.34678 15.0675 8.63965 15.3604C8.93253 15.6531 9.40734 15.6531 9.7002 15.3604L12 13.0605L14.2998 15.3604C14.5927 15.653 15.0675 15.6532 15.3604 15.3604C15.6532 15.0675 15.653 14.5927 15.3604 14.2998L13.0605 12L15.3604 9.7002C15.6531 9.40734 15.6531 8.93253 15.3604 8.63965Z" fill="black"/>
</svg>
