<svg width="24" height="24" viewBox="0 0 24 24" fill="none" xmlns="http://www.w3.org/2000/svg">
<path d="M12 10.75C12.4142 10.7501 12.75 11.0858 12.75 11.5V16.5C12.75 16.9141 12.4141 17.2499 12 17.25C11.5858 17.25 11.25 16.9142 11.25 16.5V12.25H11C10.5858 12.25 10.25 11.9142 10.25 11.5C10.25 11.0858 10.5858 10.75 11 10.75H12Z" fill="black"/>
<path d="M11.8516 6.75488C12.355 6.80612 12.75 7.23064 12.75 7.75C12.75 8.30219 12.3022 8.74997 11.75 8.75C11.2324 8.75 10.8062 8.35661 10.7549 7.85254L10.75 7.75C10.7489 7.19502 11.1997 6.75 11.749 6.75L11.8516 6.75488Z" fill="black"/>
<path fill-rule="evenodd" clip-rule="evenodd" d="M12 2.25C17.3852 2.25 21.75 6.61479 21.75 12C21.75 17.3852 17.3852 21.75 12 21.75C6.61479 21.75 2.25 17.3852 2.25 12C2.25 6.61479 6.61479 2.25 12 2.25ZM12 3.75C7.44321 3.75 3.75 7.44321 3.75 12C3.75 16.5568 7.44321 20.25 12 20.25C16.5568 20.25 20.25 16.5568 20.25 12C20.25 7.44321 16.5568 3.75 12 3.75Z" fill="black"/>
</svg>
