<svg width="24" height="24" viewBox="0 0 24 24" fill="none" xmlns="http://www.w3.org/2000/svg">
<path d="M14.2998 8.63965C14.5927 8.34685 15.0675 8.34684 15.3604 8.63965C15.6531 8.93252 15.6531 9.40732 15.3604 9.7002L13.0605 12L15.3604 14.2998C15.6531 14.5927 15.6531 15.0675 15.3604 15.3604C15.0675 15.6532 14.5927 15.6531 14.2998 15.3604L12 13.0605L9.7002 15.3604C9.40732 15.6531 8.93251 15.6531 8.63965 15.3604C8.34685 15.0675 8.34688 14.5927 8.63965 14.2998L10.9395 12L8.63965 9.7002C8.34676 9.4073 8.34676 8.93254 8.63965 8.63965C8.93255 8.34682 9.40732 8.34678 9.7002 8.63965L12 10.9395L14.2998 8.63965Z" fill="black"/>
<path fill-rule="evenodd" clip-rule="evenodd" d="M12 2.25C17.3852 2.25 21.75 6.61479 21.75 12C21.75 17.3852 17.3852 21.75 12 21.75C6.61479 21.75 2.25 17.3852 2.25 12C2.25 6.61479 6.61479 2.25 12 2.25ZM12 3.75C7.44321 3.75 3.75 7.44321 3.75 12C3.75 16.5568 7.44321 20.25 12 20.25C16.5568 20.25 20.25 16.5568 20.25 12C20.25 7.44321 16.5568 3.75 12 3.75Z" fill="black"/>
</svg>
