<svg width="24" height="24" viewBox="0 0 24 24" fill="none" xmlns="http://www.w3.org/2000/svg">
<path fill-rule="evenodd" clip-rule="evenodd" d="M12.2871 8.25586C13.4228 8.30996 14.5429 8.77044 15.4102 9.6377L15.5781 9.81445C16.3131 10.6281 16.7157 11.6354 16.7861 12.6611C16.7962 12.8074 16.7994 12.9541 16.7959 13.1006C16.7889 13.3942 16.7546 13.6872 16.6934 13.9756C16.6627 14.1198 16.6252 14.2629 16.5811 14.4043C16.3602 15.1113 15.9701 15.7769 15.4102 16.3369C14.5429 17.2041 13.4228 17.6647 12.2871 17.7188C12.1358 17.726 11.9843 17.726 11.833 17.7188C10.6976 17.6645 9.57806 17.2038 8.71094 16.3369C7.14996 14.7759 6.90614 12.3967 7.97949 10.5801C8.05892 10.4456 8.14541 10.3142 8.23926 10.1865C8.38017 9.99478 8.53751 9.81113 8.71094 9.6377C9.57805 8.77066 10.6976 8.31007 11.833 8.25586C11.9843 8.24864 12.1358 8.24865 12.2871 8.25586ZM11.6826 9.77246C10.9842 9.8541 10.3073 10.1625 9.77148 10.6982C8.50736 11.9624 8.50736 14.0122 9.77148 15.2764C10.3245 15.8292 11.0278 16.1408 11.75 16.21C11.9565 16.2297 12.1646 16.2297 12.3711 16.21C13.0932 16.1408 13.7967 15.8293 14.3496 15.2764C15.574 14.0518 15.6116 12.09 14.4639 10.8193L14.3496 10.6982L14.2285 10.583C13.9108 10.296 13.5497 10.083 13.168 9.94434C12.977 9.87495 12.7807 9.82425 12.582 9.79199C12.4829 9.7759 12.3832 9.76466 12.2832 9.75781C12.0831 9.7441 11.882 9.74915 11.6826 9.77246Z" fill="black"/>
<path fill-rule="evenodd" clip-rule="evenodd" d="M14.6299 3.25C15.1673 3.25 15.6698 3.49628 15.999 3.90918L16.1289 4.09668L16.1299 4.09766L17.4238 6.25H19C20.5192 6.25 21.75 7.48079 21.75 9V18C21.75 19.5192 20.5192 20.75 19 20.75H5C3.48079 20.75 2.25 19.5192 2.25 18V9C2.25 7.48079 3.48079 6.25 5 6.25H6.56934L7.81445 4.11816L7.87598 4.01953C8.19988 3.5403 8.74266 3.25 9.32617 3.25H14.6299ZM9.32617 4.75C9.2367 4.75 9.15482 4.79775 9.11035 4.87402L7.64746 7.37793C7.51302 7.6082 7.26664 7.75 7 7.75H5C4.30921 7.75 3.75 8.30921 3.75 9V18C3.75 18.6908 4.30921 19.25 5 19.25H19C19.6908 19.25 20.25 18.6908 20.25 18V9C20.25 8.30921 19.6908 7.75 19 7.75H17C16.7369 7.75 16.4931 7.61213 16.3574 7.38672L14.8447 4.87012C14.7992 4.79488 14.7175 4.75 14.6299 4.75H9.32617Z" fill="black"/>
</svg>
