<svg width="24" height="24" viewBox="0 0 24 24" fill="none" xmlns="http://www.w3.org/2000/svg">
<path d="M3 2.25C3.41421 2.25 3.75 2.58579 3.75 3V19C3.75 19.6908 4.30921 20.25 5 20.25H21C21.4142 20.25 21.75 20.5858 21.75 21C21.75 21.4142 21.4142 21.75 21 21.75H5C3.48079 21.75 2.25 20.5192 2.25 19V3C2.25 2.58579 2.58579 2.25 3 2.25Z" fill="black"/>
<path d="M7 11.25C7.4141 11.2501 7.75 11.5859 7.75 12V17C7.75 17.4141 7.4141 17.7499 7 17.75C6.58579 17.75 6.25 17.4142 6.25 17V12C6.25 11.5858 6.58579 11.25 7 11.25Z" fill="black"/>
<path d="M11 5.25C11.4142 5.25 11.75 5.58579 11.75 6V17C11.75 17.4142 11.4142 17.75 11 17.75C10.5859 17.7499 10.25 17.4141 10.25 17V6C10.25 5.58587 10.5859 5.25013 11 5.25Z" fill="black"/>
<path d="M15 10.1504C15.4142 10.1504 15.75 10.4862 15.75 10.9004V17C15.7498 17.414 15.4141 17.75 15 17.75C14.5859 17.75 14.2502 17.414 14.25 17V10.9004C14.25 10.4862 14.5858 10.1504 15 10.1504Z" fill="black"/>
<path d="M19 6.25C19.4141 6.25013 19.75 6.58588 19.75 7V17C19.75 17.4141 19.4141 17.7499 19 17.75C18.5858 17.75 18.25 17.4142 18.25 17V7C18.25 6.5858 18.5858 6.25 19 6.25Z" fill="black"/>
</svg>
