<svg width="24" height="24" viewBox="0 0 24 24" fill="none" xmlns="http://www.w3.org/2000/svg">
<path fill-rule="evenodd" clip-rule="evenodd" d="M7.25024 13.2495C9.45916 13.2498 11.2493 15.041 11.2493 17.25C11.2493 18.0833 10.9939 18.8564 10.5579 19.4971L11.5305 20.4697C11.823 20.7626 11.8231 21.2375 11.5305 21.5303C11.2377 21.8231 10.7629 21.8229 10.47 21.5303L9.49585 20.5576C8.85544 20.9933 8.0832 21.2504 7.25024 21.2505C5.04112 21.2505 3.24977 19.4591 3.24976 17.25C3.24976 15.0409 5.0411 13.2495 7.25024 13.2495ZM7.25024 14.7495C5.86953 14.7495 4.74976 15.8693 4.74976 17.25C4.74977 18.6307 5.86954 19.7505 7.25024 19.7505C8.63072 19.7502 9.74925 18.6305 9.74927 17.25C9.74927 15.8695 8.63073 14.7498 7.25024 14.7495Z" fill="black"/>
<path fill-rule="evenodd" clip-rule="evenodd" d="M14.9436 2.25439C15.8703 2.3005 16.7498 2.68945 17.4089 3.34863L19.6516 5.59131C20.3545 6.29442 20.7501 7.24851 20.7502 8.24268V18C20.7502 20.0709 19.0711 21.7497 17.0002 21.75H14.9993C14.5853 21.7497 14.2493 21.4141 14.2493 21C14.2493 20.5859 14.5853 20.2503 14.9993 20.25H17.0002C18.2427 20.2497 19.2502 19.2425 19.2502 18V9.25049H16.4993C14.9807 9.25023 13.7498 8.01814 13.7498 6.49951V3.75H6.99976C5.75712 3.75 4.74976 4.75736 4.74976 6V10.9995C4.74976 11.4137 4.41397 11.7495 3.99976 11.7495C3.58554 11.7495 3.24976 11.4137 3.24976 10.9995V6C3.24976 3.92893 4.92869 2.25 6.99976 2.25H14.7576L14.9436 2.25439ZM15.2498 6.49951C15.2498 7.18971 15.8091 7.75023 16.4993 7.75049H19.1931C19.1005 7.33786 18.8947 6.95563 18.5911 6.65186L16.3484 4.40918C16.0446 4.1054 15.6625 3.89841 15.2498 3.80566V6.49951Z" fill="black"/>
</svg>
