<svg width="24" height="24" viewBox="0 0 24 24" fill="none" xmlns="http://www.w3.org/2000/svg">
<path d="M5.15411 6.47992C5.44691 6.18711 5.92174 6.18728 6.21465 6.47992L11.2147 11.4799C11.2328 11.4981 11.2505 11.517 11.2664 11.5366C11.2822 11.556 11.2968 11.5766 11.3104 11.5971C11.4201 11.7633 11.4572 11.9638 11.4207 12.1528C11.4116 12.2001 11.398 12.2472 11.3797 12.2924C11.3613 12.3376 11.3379 12.3816 11.3104 12.4233C11.283 12.4646 11.2511 12.5041 11.2147 12.5405L6.21563 17.5405C5.92302 17.8329 5.448 17.8324 5.15508 17.5405C4.86223 17.2476 4.86232 16.7728 5.15508 16.4799L9.62481 12.0112L5.15411 7.54046C4.86153 7.2476 4.86146 6.77274 5.15411 6.47992Z" fill="black"/>
<path d="M12.8045 6.47992C13.0974 6.1873 13.5722 6.18711 13.865 6.47992L18.8641 11.4799C19.0469 11.6629 19.1157 11.9166 19.0701 12.1528C19.061 12.2001 19.0474 12.2472 19.0291 12.2924C19.0108 12.3375 18.9882 12.3818 18.9607 12.4233C18.9334 12.4647 18.9005 12.504 18.8641 12.5405L13.865 17.5405C13.5723 17.8328 13.0973 17.8326 12.8045 17.5405C12.5117 17.2477 12.512 16.7728 12.8045 16.4799L17.2742 12.0102L12.8045 7.54046C12.5117 7.24765 12.5119 6.77283 12.8045 6.47992Z" fill="black"/>
</svg>
