<svg width="24" height="24" viewBox="0 0 24 24" fill="none" xmlns="http://www.w3.org/2000/svg">
<path d="M18.0264 15.6924C18.3193 15.4 18.7942 15.3997 19.0869 15.6924C19.3795 15.9851 19.3793 16.4601 19.0869 16.7529L17.1416 18.6982C17.0361 18.8037 16.902 18.8745 16.7578 18.9033C16.7099 18.9129 16.6609 18.9179 16.6113 18.918C16.5616 18.918 16.512 18.913 16.4639 18.9033C16.3199 18.8744 16.1865 18.8036 16.0811 18.6982L14.9141 17.5312C14.8042 17.4214 14.7354 17.2863 14.708 17.1445C14.6897 17.0501 14.6898 16.9528 14.708 16.8584C14.7354 16.7165 14.8042 16.5806 14.9141 16.4707C14.9505 16.4343 14.9898 16.4024 15.0312 16.375C15.0729 16.3475 15.1169 16.325 15.1621 16.3066C15.2525 16.27 15.3483 16.2509 15.4443 16.251C15.6361 16.251 15.8282 16.3244 15.9746 16.4707L16.6113 17.1074L18.0264 15.6924Z" fill="black"/>
<path fill-rule="evenodd" clip-rule="evenodd" d="M14.1719 2.25C14.901 2.25 15.6007 2.54021 16.1162 3.05566L18.9443 5.88379C19.4598 6.39928 19.75 7.09902 19.75 7.82812V12.3262L19.8643 12.3418L20.0371 12.3721C20.094 12.3846 20.1501 12.399 20.2051 12.416C20.9746 12.6534 21.551 13.3199 21.6602 14.1377L21.7773 15.0215L22.3203 15.7314C22.8926 16.4802 22.8926 17.5207 22.3203 18.2695C22.1559 18.4846 21.9908 18.701 21.8652 18.8652C21.833 18.9074 21.8025 18.9454 21.7764 18.9795L21.6582 19.8652C21.5411 20.7429 20.8866 21.443 20.0352 21.6299L19.8623 21.6611L18.9785 21.7773L18.2686 22.3213C17.8005 22.679 17.2184 22.813 16.665 22.7236C16.5542 22.7057 16.4443 22.6794 16.3369 22.6436C16.1226 22.572 15.9175 22.4643 15.7305 22.3213L15.0195 21.7773L14.8145 21.75H7C5.48079 21.75 4.25 20.5192 4.25 19V5C4.25 3.48079 5.48079 2.25 7 2.25H14.1719ZM16.8818 12.7627C16.8276 12.7737 16.7747 12.7929 16.7246 12.8193L16.6416 12.8721L15.7725 13.5361L15.7705 13.5342C15.67 13.6108 15.5506 13.6658 15.417 13.6836L14.335 13.8281C14.0701 13.8636 13.8634 14.0707 13.8281 14.334L13.8271 14.335L13.6826 15.4189C13.6639 15.5582 13.607 15.6829 13.5244 15.7852C13.4969 15.8193 13.4664 15.851 13.4336 15.8799C13.4402 15.8746 13.4466 15.8714 13.4502 15.8682C13.4775 15.8428 13.4973 15.8203 13.499 15.8184C13.5094 15.8067 13.5186 15.7959 13.5186 15.7959L13.4766 15.8506C13.4402 15.8981 13.3884 15.9664 13.3262 16.0479C13.2018 16.2105 13.0346 16.4288 12.8711 16.6426C12.8108 16.7215 12.7731 16.8118 12.7578 16.9053C12.7527 16.9363 12.7501 16.9676 12.75 16.999L12.7568 17.0938C12.7717 17.1875 12.8096 17.2787 12.8701 17.3584L13.5352 18.2275C13.6144 18.3313 13.6653 18.4546 13.6826 18.584L13.8271 19.665C13.8626 19.93 14.0696 20.1376 14.333 20.1729L14.9395 20.2529C14.9477 20.2537 14.9557 20.2558 14.9639 20.2568L15.418 20.3174L15.5137 20.3369C15.6076 20.3623 15.6967 20.4063 15.7744 20.4658L16.6416 21.1299C16.7208 21.1903 16.8116 21.2281 16.9053 21.2432C16.9676 21.2532 17.0314 21.2532 17.0938 21.2432C17.1874 21.228 17.2783 21.1903 17.3574 21.1299L18.2266 20.4648L18.2275 20.4658C18.2528 20.4465 18.279 20.4283 18.3066 20.4121C18.389 20.3639 18.4819 20.3307 18.582 20.3174L19.6641 20.1738C19.9291 20.1384 20.1366 19.9305 20.1719 19.667L20.3164 18.583C20.3308 18.4757 20.3673 18.3761 20.4209 18.2891L20.4805 18.2061C20.4898 18.194 20.5043 18.1751 20.5225 18.1514C20.5588 18.1039 20.6113 18.0358 20.6738 17.9541C20.7982 17.7914 20.9654 17.5723 21.1289 17.3584C21.2699 17.1737 21.2876 16.9251 21.1816 16.7246L21.1289 16.6426L20.4639 15.7734C20.3847 15.6697 20.3337 15.5464 20.3164 15.417L20.1729 14.3359C20.1373 14.071 19.9294 13.8643 19.666 13.8291L18.582 13.6836C18.4526 13.6663 18.3294 13.6154 18.2256 13.5361L17.3574 12.8721C17.2189 12.7662 17.0447 12.7296 16.8818 12.7627ZM7 3.75C6.30921 3.75 5.75 4.30921 5.75 5V19C5.75 19.6908 6.30921 20.25 7 20.25H12.4307C12.4243 20.2311 12.4169 20.2125 12.4111 20.1934C12.3955 20.1418 12.3818 20.0893 12.3701 20.0361L12.3398 19.8633L12.2217 18.9795L11.6797 18.2695C11.644 18.2228 11.6093 18.1748 11.5781 18.126C11.1088 17.3915 11.1426 16.4339 11.6797 15.7314C11.844 15.5165 12.0092 15.3009 12.1348 15.1367C12.167 15.0945 12.1965 15.0557 12.2227 15.0215L12.3408 14.1357C12.4658 13.1997 13.2022 12.4656 14.1367 12.3408L15.0205 12.2236L15.7305 11.6807C16.4327 11.1438 17.3909 11.1101 18.125 11.5801C18.1675 11.6073 18.2091 11.6364 18.25 11.667V8.75H15C14.0338 8.75 13.25 7.96621 13.25 7V3.75H7ZM20.5488 18.1328C20.5227 18.1571 20.5041 18.1791 20.501 18.1826C20.4972 18.1868 20.4931 18.191 20.4902 18.1943C20.5129 18.1679 20.5384 18.1441 20.5645 18.1211C20.5581 18.1262 20.5523 18.1297 20.5488 18.1328ZM14.75 7C14.75 7.13779 14.8622 7.25 15 7.25H18.1074C18.1057 7.24677 18.1043 7.24345 18.1025 7.24023C18.045 7.13235 17.9718 7.03235 17.8838 6.94434L15.0557 4.11621C14.9677 4.02821 14.8676 3.95499 14.7598 3.89746C14.7566 3.89575 14.7532 3.89426 14.75 3.89258V7Z" fill="black"/>
</svg>
