<svg width="24" height="24" viewBox="0 0 24 24" fill="none" xmlns="http://www.w3.org/2000/svg">
<path d="M11.9998 11.1289C12.414 11.1289 12.7498 11.4647 12.7498 11.8789V13.25H14.1208C14.5349 13.2502 14.8708 13.5859 14.8708 14C14.8708 14.4141 14.5349 14.7498 14.1208 14.75H12.7498V16.1211C12.7496 16.5352 12.4139 16.8711 11.9998 16.8711C11.5857 16.8711 11.2499 16.5352 11.2498 16.1211V14.75H9.87866C9.46445 14.75 9.12866 14.4142 9.12866 14C9.12866 13.5858 9.46445 13.25 9.87866 13.25H11.2498V11.8789C11.2498 11.4647 11.5856 11.1289 11.9998 11.1289Z" fill="black"/>
<path fill-rule="evenodd" clip-rule="evenodd" d="M14.7576 2.25C15.752 2.25012 16.7058 2.64548 17.4089 3.34863L19.6511 5.59082C20.3543 6.29397 20.7496 7.24779 20.7498 8.24219V18C20.7498 20.0711 19.0708 21.75 16.9998 21.75H6.99976C4.92869 21.75 3.24976 20.0711 3.24976 18V6C3.24976 3.92893 4.92869 2.25 6.99976 2.25H14.7576ZM6.99976 3.75C5.75712 3.75 4.74976 4.75736 4.74976 6V18C4.74976 19.2426 5.75712 20.25 6.99976 20.25H16.9998C18.2424 20.25 19.2498 19.2426 19.2498 18V9.25H16.4998C14.981 9.25 13.7498 8.01878 13.7498 6.5V3.75H6.99976ZM15.2498 6.5C15.2498 7.19036 15.8094 7.75 16.4998 7.75H19.1931C19.1004 7.33733 18.8943 6.95511 18.5906 6.65137L16.3484 4.40918C16.0446 4.10544 15.6624 3.89936 15.2498 3.80664V6.5Z" fill="black"/>
</svg>
