<svg width="24" height="24" viewBox="0 0 24 24" fill="none" xmlns="http://www.w3.org/2000/svg">
<path fill-rule="evenodd" clip-rule="evenodd" d="M9.25073 10.25C10.3551 10.2501 11.2506 11.1456 11.2507 12.25V14.751C11.2507 14.8891 11.2364 15.0241 11.2097 15.1543C11.203 15.187 11.1936 15.2189 11.1853 15.251H11.7498C12.8543 15.251 13.7498 16.1464 13.7498 17.251V19.75C13.7497 20.8545 12.8543 21.75 11.7498 21.75H9.25073C9.18182 21.75 9.11375 21.7461 9.04663 21.7393C8.71033 21.7051 8.39864 21.588 8.13257 21.4082C8.10286 21.3881 8.07517 21.3654 8.04663 21.3438C8.01808 21.3665 7.99042 21.3902 7.96069 21.4111C7.69939 21.5951 7.39444 21.7095 7.07495 21.7412L6.89136 21.75H4.25171C4.18279 21.75 4.11473 21.7461 4.04761 21.7393C3.03895 21.637 2.25174 20.7856 2.25171 19.75V17.251C2.25171 16.1464 3.14714 15.251 4.25171 15.251H4.81519C4.80691 15.2189 4.79747 15.187 4.79077 15.1543C4.7641 15.0241 4.74977 14.8891 4.74976 14.751V12.25C4.74985 11.1455 5.64525 10.25 6.74976 10.25H9.25073ZM4.15112 16.7607C3.92316 16.8073 3.75171 17.0093 3.75171 17.251V19.75C3.75174 20.0261 3.97559 20.25 4.25171 20.25H6.89136C6.91513 20.25 6.93871 20.2478 6.96167 20.2432C7.03072 20.2293 7.09469 20.1951 7.14526 20.1445C7.21264 20.0772 7.25062 19.9859 7.25073 19.8906V17.251C7.25073 17.0093 7.07928 16.8073 6.85132 16.7607L6.75073 16.751H4.25171C4.21728 16.751 4.1836 16.7541 4.15112 16.7607ZM9.15015 16.7607C8.9223 16.8074 8.75073 17.0094 8.75073 17.251V19.75C8.75077 20.026 8.97472 20.2499 9.25073 20.25H11.7498C11.7841 20.25 11.8179 20.2468 11.8503 20.2402C12.0784 20.1938 12.2497 19.9918 12.2498 19.75V17.251C12.2498 17.0092 12.0784 16.8072 11.8503 16.7607L11.7498 16.751H9.25073C9.2163 16.751 9.18262 16.7541 9.15015 16.7607ZM6.74976 11.75C6.47367 11.75 6.24985 11.9739 6.24976 12.25V14.751C6.24988 15.027 6.47369 15.251 6.74976 15.251H9.25073C9.5267 15.2509 9.75061 15.0269 9.75073 14.751V12.25C9.75063 11.974 9.52671 11.7501 9.25073 11.75H6.74976Z" fill="black"/>
<path d="M18.9998 2.25C20.5185 2.25 21.7498 3.48122 21.7498 5V19C21.7498 20.5188 20.5185 21.75 18.9998 21.75H16.9998C16.5857 21.7499 16.2498 21.4141 16.2498 21C16.2498 20.5859 16.5857 20.2501 16.9998 20.25H18.9998C19.6901 20.25 20.2498 19.6904 20.2498 19V5C20.2498 4.30964 19.6901 3.75 18.9998 3.75H7.99976C7.30951 3.75013 6.74976 4.30973 6.74976 5V7C6.74976 7.41421 6.41397 7.75 5.99976 7.75C5.58565 7.74987 5.24976 7.41413 5.24976 7V5C5.24976 3.4813 6.48108 2.25013 7.99976 2.25H18.9998Z" fill="black"/>
<path d="M17.9998 11.25C18.414 11.25 18.7498 11.5858 18.7498 12C18.7498 12.4142 18.414 12.75 17.9998 12.75H15.9998C15.5857 12.7499 15.2498 12.4141 15.2498 12C15.2498 11.5859 15.5857 11.2501 15.9998 11.25H17.9998Z" fill="black"/>
</svg>
