<svg width="24" height="24" viewBox="0 0 24 24" fill="none" xmlns="http://www.w3.org/2000/svg">
<path d="M21 16.25C21.4142 16.25 21.75 16.5858 21.75 17C21.75 19.6232 19.6232 21.75 17 21.75H7C4.37679 21.75 2.25 19.6232 2.25 17C2.25 16.5858 2.58579 16.25 3 16.25C3.41421 16.25 3.75 16.5858 3.75 17C3.75 18.7948 5.20521 20.25 7 20.25H17C18.7948 20.25 20.25 18.7948 20.25 17C20.25 16.5858 20.5858 16.25 21 16.25Z" fill="black"/>
<path d="M12 2.25C12.4142 2.25 12.75 2.58579 12.75 3V15.1885L16.4697 11.4697C16.7626 11.1768 17.2374 11.1768 17.5303 11.4697C17.8232 11.7626 17.8232 12.2374 17.5303 12.5303L12.5293 17.5312C12.4235 17.6371 12.2892 17.7077 12.1445 17.7363C12.1349 17.7382 12.1249 17.7377 12.1152 17.7393C12.0842 17.7441 12.0527 17.7472 12.0205 17.748C12.0133 17.7483 12.0062 17.751 11.999 17.751L11.9727 17.748C11.9415 17.7469 11.9109 17.7441 11.8809 17.7393C11.8712 17.7377 11.8612 17.7383 11.8516 17.7363C11.7557 17.7171 11.6644 17.6793 11.583 17.625C11.5422 17.5978 11.5039 17.5664 11.4688 17.5312L6.46875 12.5303C6.45048 12.512 6.43298 12.4932 6.41699 12.4736C6.33696 12.3755 6.28561 12.2616 6.2627 12.1436C6.24431 12.0488 6.24432 11.9512 6.2627 11.8564C6.2856 11.7384 6.33695 11.6245 6.41699 11.5264C6.43299 11.5068 6.45047 11.488 6.46875 11.4697C6.48704 11.4514 6.50577 11.434 6.52539 11.418C6.54489 11.4021 6.5653 11.3877 6.58594 11.374C6.66916 11.319 6.76084 11.282 6.85547 11.2637C7.0919 11.2178 7.34618 11.2866 7.5293 11.4697L11.25 15.1904V3C11.25 2.58579 11.5858 2.25 12 2.25Z" fill="black"/>
</svg>
