<svg width="24" height="24" viewBox="0 0 24 24" fill="none" xmlns="http://www.w3.org/2000/svg">
<path d="M18.8649 17.5387C18.5721 17.8315 18.0973 17.8314 17.8044 17.5387L12.8044 12.5387C12.7862 12.5205 12.7686 12.5016 12.7526 12.4821C12.7368 12.4627 12.7223 12.4421 12.7087 12.4215C12.599 12.2553 12.5619 12.0548 12.5983 11.8659C12.6075 11.8185 12.621 11.7714 12.6394 11.7262C12.6577 11.681 12.6811 11.637 12.7087 11.5954C12.736 11.554 12.768 11.5146 12.8044 11.4782L17.8034 6.47818C18.096 6.18571 18.571 6.18621 18.864 6.47818C19.1568 6.77103 19.1567 7.24582 18.864 7.53873L14.3942 12.0075L18.8649 16.4782C19.1575 16.771 19.1576 17.2459 18.8649 17.5387Z" fill="black"/>
<path d="M11.2145 17.5387C10.9216 17.8313 10.4468 17.8315 10.154 17.5387L5.15498 12.5387C4.97213 12.3558 4.90331 12.102 4.94892 11.8659C4.95806 11.8185 4.97161 11.7714 4.98994 11.7262C5.00825 11.6812 5.03086 11.6369 5.0583 11.5954C5.08568 11.5539 5.1185 11.5147 5.15498 11.4782L10.154 6.47818C10.4467 6.18587 10.9217 6.18602 11.2145 6.47818C11.5073 6.77095 11.5071 7.2458 11.2145 7.53873L6.74482 12.0085L11.2145 16.4782C11.5074 16.771 11.5072 17.2458 11.2145 17.5387Z" fill="black"/>
</svg>
