<svg width="24" height="24" viewBox="0 0 24 24" fill="none" xmlns="http://www.w3.org/2000/svg">
<path d="M14.5 11.25C14.9142 11.25 15.25 11.5858 15.25 12V13.75H17C17.4142 13.75 17.75 14.0858 17.75 14.5C17.75 14.9142 17.4142 15.25 17 15.25H15.25V17C15.25 17.4142 14.9142 17.75 14.5 17.75C14.0858 17.75 13.75 17.4142 13.75 17V15.25H12C11.5858 15.25 11.25 14.9142 11.25 14.5C11.25 14.0858 11.5858 13.75 12 13.75H13.75V12C13.75 11.5858 14.0858 11.25 14.5 11.25Z" fill="black"/>
<path fill-rule="evenodd" clip-rule="evenodd" d="M19.5547 7.25C20.7666 7.25 21.75 8.23278 21.75 9.44434V19.5547C21.75 20.7666 20.7672 21.75 19.5557 21.75H9.44434C8.23315 21.75 7.25 20.7669 7.25 19.5557V9.44434C7.25 8.23314 8.23315 7.25003 9.44434 7.25H19.5547ZM9.44434 8.75C9.06158 8.75003 8.75 9.06157 8.75 9.44434V19.5557C8.75 19.9384 9.06158 20.25 9.44434 20.25H19.5557C19.9381 20.25 20.25 19.9388 20.25 19.5547V9.44434C20.25 9.06189 19.9388 8.75 19.5547 8.75H9.44434Z" fill="black"/>
<path d="M14.5547 2.25C15.7666 2.25 16.75 3.23278 16.75 4.44434V5C16.75 5.41421 16.4142 5.75 16 5.75C15.5858 5.75 15.25 5.41421 15.25 5V4.44434C15.25 4.06189 14.9388 3.75 14.5547 3.75H4.44434C4.06155 3.75 3.75 4.06155 3.75 4.44434V14.5557C3.75 14.9385 4.06155 15.25 4.44434 15.25H5C5.41421 15.25 5.75 15.5858 5.75 16C5.75 16.4142 5.41421 16.75 5 16.75H4.44434C3.23312 16.75 2.25 15.7669 2.25 14.5557V4.44434C2.25 3.23312 3.23312 2.25 4.44434 2.25H14.5547Z" fill="black"/>
</svg>
