<svg width="24" height="24" viewBox="0 0 24 24" fill="none" xmlns="http://www.w3.org/2000/svg">
<path d="M19.9998 20.25C20.414 20.25 20.7498 20.5858 20.7498 21C20.7498 21.4142 20.414 21.75 19.9998 21.75H3.99976C3.58554 21.75 3.24976 21.4142 3.24976 21C3.24976 20.5858 3.58554 20.25 3.99976 20.25H19.9998Z" fill="black"/>
<path d="M11.9998 2.25C12.414 2.25 12.7498 2.58579 12.7498 3V15.1885L16.4695 11.4697C16.7624 11.1769 17.2371 11.1769 17.53 11.4697C17.8229 11.7626 17.8229 12.2374 17.53 12.5303L12.5291 17.5312C12.419 17.6413 12.2779 17.711 12.1267 17.7373C12.0909 17.7434 12.0546 17.7482 12.0173 17.749C12.0111 17.7492 12.005 17.751 11.9988 17.751C11.9916 17.751 11.9845 17.7483 11.9773 17.748C11.9434 17.747 11.9103 17.7436 11.8777 17.7383C11.7239 17.713 11.5802 17.6429 11.4685 17.5312L6.46851 12.5303C6.17568 12.2374 6.17564 11.7626 6.46851 11.4697C6.76141 11.1769 7.2362 11.1769 7.52905 11.4697L11.2498 15.1904V3C11.2498 2.58581 11.5856 2.25003 11.9998 2.25Z" fill="black"/>
</svg>
