<svg width="24" height="24" viewBox="0 0 24 24" fill="none" xmlns="http://www.w3.org/2000/svg">
<path fill-rule="evenodd" clip-rule="evenodd" d="M14.6277 2.25C15.6222 2.25 16.5768 2.64537 17.28 3.34863L19.6511 5.71973C20.3544 6.42299 20.7498 7.37751 20.7498 8.37207V18C20.7498 20.0711 19.0708 21.75 16.9998 21.75H6.99976C4.92869 21.75 3.24976 20.0711 3.24976 18V6C3.24976 3.92893 4.92869 2.25 6.99976 2.25H14.6277ZM6.99976 3.75C5.75712 3.75 4.74976 4.75736 4.74976 6V18C4.74976 19.2426 5.75712 20.25 6.99976 20.25H16.9998C18.2424 20.25 19.2498 19.2426 19.2498 18V9.25H16.4998C14.981 9.25 13.7498 8.01878 13.7498 6.5V3.75H6.99976ZM15.2498 6.5C15.2498 7.19036 15.8094 7.75 16.4998 7.75H19.1599C19.0554 7.38697 18.8623 7.052 18.5906 6.78027L16.2195 4.40918C15.9477 4.13739 15.6129 3.94334 15.2498 3.83887V6.5Z" fill="black"/>
</svg>
