<svg width="24" height="24" viewBox="0 0 24 24" fill="none" xmlns="http://www.w3.org/2000/svg">
<path d="M7.25098 14.7495C8.63117 14.7501 9.75 15.8697 9.75 17.25C9.74998 18.6303 8.63116 19.7499 7.25098 19.7505C5.87027 19.7505 4.7505 18.6307 4.75049 17.25C4.75049 15.8693 5.87026 14.7495 7.25098 14.7495Z" fill="black"/>
<path fill-rule="evenodd" clip-rule="evenodd" d="M13.7505 6.49951C13.7505 8.01829 14.9812 9.25049 16.5 9.25049H20.7275V18C20.7275 20.0709 19.0484 21.7498 16.9775 21.75H13.1206C13.0367 21.9879 12.9133 22.2152 12.7471 22.4194L12.5918 22.5908C11.7128 23.4699 10.2882 23.4676 9.41016 22.5908L9.20508 22.3872C8.7246 22.5708 8.212 22.6929 7.67725 22.7344L7.25098 22.7505C4.30824 22.7505 1.90503 20.4389 1.75781 17.5327L1.75049 17.25C1.75049 15.8 2.31145 14.4813 3.22852 13.4985V6C3.22852 3.92893 4.90745 2.25 6.97852 2.25H13.7505V6.49951ZM7.25098 13.2495C5.04184 13.2495 3.25049 15.0409 3.25049 17.25C3.2505 19.4591 5.04185 21.2505 7.25098 21.2505C8.08369 21.2503 8.85634 20.9932 9.49658 20.5576L10.4707 21.5303C10.7636 21.8226 11.2386 21.823 11.5312 21.5303C11.8234 21.2375 11.8233 20.7625 11.5312 20.4697L10.5586 19.4971C10.9945 18.8565 11.25 18.0832 11.25 17.25C11.25 15.0412 9.4596 13.2501 7.25098 13.2495Z" fill="black"/>
<path d="M15.2505 2.28516C16.0547 2.39691 16.8072 2.76812 17.3877 3.34863L19.6289 5.59131C20.2147 6.17726 20.583 6.93798 20.6909 7.75049H16.5C15.8096 7.75049 15.2505 7.18987 15.2505 6.49951V2.28516Z" fill="black"/>
</svg>
