<svg width="24" height="24" viewBox="0 0 24 24" fill="none" xmlns="http://www.w3.org/2000/svg">
<path d="M10 4.25C10.4142 4.25 10.75 4.58579 10.75 5C10.75 5.41421 10.4142 5.75 10 5.75H5C4.30921 5.75 3.75 6.30921 3.75 7V19C3.75 19.6908 4.30921 20.25 5 20.25H17C17.6908 20.25 18.25 19.6908 18.25 19V14C18.25 13.5858 18.5858 13.25 19 13.25C19.4142 13.25 19.75 13.5858 19.75 14V19C19.75 20.5192 18.5192 21.75 17 21.75H5C3.48079 21.75 2.25 20.5192 2.25 19V7C2.25 5.48079 3.48079 4.25 5 4.25H10Z" fill="black"/>
<path d="M21 2.25C21.0449 2.25 21.0891 2.25414 21.1318 2.26172C21.1374 2.2627 21.1429 2.26354 21.1484 2.26465C21.1618 2.26733 21.1744 2.27298 21.1875 2.27637C21.2207 2.28495 21.2541 2.29343 21.2861 2.30664C21.3371 2.3277 21.3851 2.35449 21.4297 2.38574C21.4649 2.41046 21.4988 2.43824 21.5303 2.46973C21.5787 2.51812 21.616 2.5732 21.6484 2.62988C21.664 2.65703 21.6803 2.68375 21.6924 2.71289C21.6999 2.73096 21.704 2.75007 21.71 2.76855C21.7338 2.84177 21.75 2.91882 21.75 3V8C21.75 8.41421 21.4142 8.75 21 8.75C20.5858 8.74993 20.25 8.41417 20.25 8V4.81055L14.5303 10.5303C14.2374 10.8231 13.7626 10.8231 13.4697 10.5303C13.1768 10.2374 13.1769 9.76262 13.4697 9.46973L19.1895 3.75H16C15.5858 3.74993 15.25 3.41417 15.25 3C15.25 2.58583 15.5858 2.25007 16 2.25H21Z" fill="black"/>
</svg>
