<svg width="24" height="24" viewBox="0 0 24 24" fill="none" xmlns="http://www.w3.org/2000/svg">
<path fill-rule="evenodd" clip-rule="evenodd" d="M12 2.25C17.3852 2.25 21.75 6.61479 21.75 12C21.75 17.3852 17.3852 21.75 12 21.75C6.61479 21.75 2.25 17.3852 2.25 12C2.25 6.61479 6.61479 2.25 12 2.25ZM11.999 15.25C11.4498 15.2502 10.9989 15.6951 11 16.25L11.0049 16.3525C11.0562 16.8565 11.4826 17.2498 12 17.25C12.552 17.2497 13 16.802 13 16.25C13 15.7308 12.6048 15.3063 12.1016 15.2549L11.999 15.25ZM12.001 6.75C11.5868 6.75 11.251 7.08579 11.251 7.5V12.5C11.251 12.9142 11.5868 13.25 12.001 13.25C12.4147 13.2495 12.751 12.9139 12.751 12.5V7.5C12.751 7.08611 12.4147 6.75053 12.001 6.75Z" fill="black"/>
</svg>
