<svg width="24" height="24" viewBox="0 0 24 24" fill="none" xmlns="http://www.w3.org/2000/svg">
<path fill-rule="evenodd" clip-rule="evenodd" d="M17.2346 2.4321C17.727 2.18873 18.3054 2.18987 18.7961 2.4365L19.7864 2.93308C20.3772 3.23011 20.7501 3.83623 20.7502 4.49753V19.5034C20.75 20.1645 20.3769 20.7693 19.7864 21.0664L18.7961 21.563C18.3054 21.8095 17.7269 21.8121 17.2346 21.5688L15.9968 20.9565L14.7898 21.563C14.2975 21.8102 13.717 21.8114 13.2239 21.5659L11.9993 20.9565L10.7747 21.5659C10.2817 21.8111 9.70228 21.8101 9.21021 21.563L8.00171 20.9565L6.76538 21.5688C6.27297 21.8123 5.69468 21.8096 5.20386 21.563L4.21362 21.0664C3.65973 20.7879 3.29745 20.2388 3.25415 19.6264L3.24976 19.5034V4.49753C3.24993 3.8362 3.62273 3.2301 4.21362 2.93308L5.20386 2.4365C5.6947 2.18985 6.27296 2.1886 6.76538 2.4321L8.00171 3.04294L9.21021 2.4365C9.70227 2.18955 10.2817 2.18976 10.7747 2.43503L11.9993 3.04294L13.2239 2.43503C13.717 2.18955 14.2976 2.18931 14.7898 2.4365L15.9968 3.04294L17.2346 2.4321ZM8.00024 14.75C7.58609 14.75 7.25034 15.0858 7.25024 15.5C7.25024 15.9142 7.58603 16.25 8.00024 16.25H11.9993C12.4135 16.25 12.7493 15.9142 12.7493 15.5C12.7492 15.0858 12.4134 14.75 11.9993 14.75H8.00024ZM14.9993 14.75C14.5853 14.7502 14.2494 15.086 14.2493 15.5C14.2493 15.914 14.5853 16.2497 14.9993 16.25H15.9998C16.414 16.25 16.7498 15.9142 16.7498 15.5C16.7497 15.0858 16.4139 14.75 15.9998 14.75H14.9993ZM8.00024 11.2505C7.58603 11.2505 7.25024 11.5862 7.25024 12.0005C7.25039 12.4145 7.58612 12.7505 8.00024 12.7505H15.9998C16.4139 12.7505 16.7496 12.4145 16.7498 12.0005C16.7498 11.5862 16.414 11.2505 15.9998 11.2505H8.00024ZM8.00024 7.74948C7.58603 7.74948 7.25024 8.08673 7.25024 8.50095C7.25064 8.91482 7.58628 9.25095 8.00024 9.25095H11.9993C12.4132 9.25095 12.7489 8.91482 12.7493 8.50095C12.7493 8.08673 12.4135 7.74948 11.9993 7.74948H8.00024Z" fill="black"/>
</svg>
