<svg width="24" height="24" viewBox="0 0 24 24" fill="none" xmlns="http://www.w3.org/2000/svg">
<path d="M11.9993 14.75C12.4134 14.75 12.7492 15.0859 12.7493 15.5C12.7493 15.9142 12.4135 16.25 11.9993 16.25H8.00024C7.58603 16.25 7.25024 15.9142 7.25024 15.5C7.25036 15.0859 7.5861 14.75 8.00024 14.75H11.9993Z" fill="black"/>
<path d="M15.9998 14.75C16.4139 14.75 16.7496 15.0859 16.7498 15.5C16.7498 15.9142 16.414 16.25 15.9998 16.25H14.9993C14.5853 16.2497 14.2493 15.914 14.2493 15.5C14.2494 15.086 14.5854 14.7502 14.9993 14.75H15.9998Z" fill="black"/>
<path d="M15.9998 11.2505C16.414 11.2505 16.7498 11.5862 16.7498 12.0005C16.7496 12.4145 16.4139 12.7505 15.9998 12.7505H8.00024C7.58612 12.7505 7.25039 12.4145 7.25024 12.0005C7.25024 11.5862 7.58603 11.2505 8.00024 11.2505H15.9998Z" fill="black"/>
<path d="M11.9993 7.74948C12.4132 7.74949 12.7489 8.08559 12.7493 8.49948C12.7493 8.9137 12.4135 9.24948 11.9993 9.24948H8.00024C7.58603 9.24948 7.25024 8.9137 7.25024 8.49948C7.25062 8.08559 7.58626 7.74948 8.00024 7.74948H11.9993Z" fill="black"/>
<path fill-rule="evenodd" clip-rule="evenodd" d="M17.2346 2.4321C17.727 2.18873 18.3054 2.18987 18.7961 2.4365L19.7864 2.93308C20.3772 3.23011 20.7501 3.83623 20.7502 4.49753V19.5034C20.75 20.1645 20.3769 20.7693 19.7864 21.0664L18.7961 21.563C18.3054 21.8096 17.7269 21.8121 17.2346 21.5688L15.9968 20.9565L14.7898 21.563C14.2975 21.8102 13.717 21.8114 13.2239 21.5659L11.9993 20.9565L10.7747 21.5659C10.2817 21.8111 9.70228 21.8101 9.21021 21.563L8.00171 20.9565L6.76538 21.5688C6.27297 21.8123 5.69468 21.8096 5.20386 21.563L4.21362 21.0664C3.65973 20.7879 3.29745 20.2388 3.25415 19.6264L3.24976 19.5034V4.49753C3.24993 3.8362 3.62273 3.2301 4.21362 2.93308L5.20386 2.4365C5.6947 2.18985 6.27296 2.1886 6.76538 2.4321L8.00171 3.04294L9.21021 2.4365C9.70227 2.18955 10.2817 2.18976 10.7747 2.43503L11.9993 3.04294L13.2239 2.43503C13.717 2.18955 14.2976 2.18931 14.7898 2.4365L15.9968 3.04294L17.2346 2.4321ZM18.1223 3.77683C18.0523 3.74175 17.9699 3.74223 17.8997 3.77683L16.3264 4.55319C16.1154 4.65748 15.8673 4.65738 15.657 4.55173L14.116 3.77683C14.0458 3.74182 13.9621 3.74186 13.8918 3.77683L12.3333 4.55319C12.1229 4.65765 11.8755 4.65782 11.6653 4.55319L10.1067 3.77683C10.0367 3.74226 9.95392 3.74212 9.88403 3.77683L8.34302 4.55173C8.13267 4.6574 7.88313 4.65754 7.67212 4.55319L6.10034 3.77683C6.03007 3.74209 5.94775 3.7417 5.87769 3.77683L4.88745 4.27487C4.80329 4.31729 4.74993 4.4033 4.74976 4.49753V19.5034L4.76001 19.5708C4.77895 19.6369 4.82421 19.6942 4.88745 19.726L5.87769 20.2241C5.94769 20.2592 6.03013 20.2588 6.10034 20.2241L7.67212 19.4463C7.88313 19.3419 8.13267 19.3421 8.34302 19.4477L9.88403 20.2226C9.95412 20.2576 10.0365 20.2574 10.1067 20.2226L11.6653 19.4477L11.7458 19.4126C11.937 19.3438 12.1491 19.3562 12.3333 19.4477L13.8918 20.2226C13.9622 20.2576 14.0457 20.2578 14.116 20.2226L15.657 19.4477C15.8671 19.3423 16.1156 19.3422 16.3264 19.4463L17.8997 20.2241C17.9698 20.2586 18.0524 20.2591 18.1223 20.2241L19.1125 19.726C19.1965 19.6836 19.25 19.5975 19.2502 19.5034V4.49753C19.2501 4.40344 19.1965 4.31735 19.1125 4.27487L18.1223 3.77683Z" fill="black"/>
</svg>
