<svg width="24" height="24" viewBox="0 0 24 24" fill="none" xmlns="http://www.w3.org/2000/svg">
<path d="M14.55 14.8621C17.4703 14.8621 19.6916 17.2054 19.6917 20.0037C19.6914 20.4127 19.3595 20.7447 18.9504 20.7449C18.5412 20.7449 18.2094 20.4129 18.2092 20.0037C18.2092 18.0021 16.6297 16.3445 14.55 16.3445H9.45044C7.44878 16.3445 5.79132 17.9241 5.79126 20.0037C5.79105 20.4129 5.45927 20.7449 5.05005 20.7449C4.64083 20.7449 4.30905 20.4129 4.30884 20.0037C4.3089 17.0834 6.65217 14.8621 9.45044 14.8621H14.55Z" fill="black"/>
<path fill-rule="evenodd" clip-rule="evenodd" d="M8.5354 4.65799C10.5241 2.78624 13.5749 2.78633 15.5637 4.65799C15.5653 4.65952 15.567 4.66132 15.5686 4.66287C15.5723 4.66638 15.5767 4.67002 15.5803 4.67362C17.5636 6.6573 17.5873 9.8451 15.5637 11.7498C13.606 13.592 10.4266 13.7612 8.50317 11.7176C6.66111 9.76003 6.49245 6.58148 8.5354 4.65799ZM14.5237 5.73905C13.1123 4.42199 10.971 4.4254 9.56372 5.74979C8.20791 7.02624 8.23884 9.24707 9.59595 10.6892C10.8722 12.0453 13.0931 12.0148 14.5354 10.658C15.91 9.36422 15.9352 7.15554 14.5237 5.73905Z" fill="black"/>
</svg>
