<svg width="24" height="24" viewBox="0 0 24 24" fill="none" xmlns="http://www.w3.org/2000/svg">
<path d="M12.4536 5.74463C12.6723 5.46162 13.1255 5.61647 13.1255 5.97412V10.8745H16.4858C16.7973 10.8745 16.9732 11.2325 16.7827 11.479L11.5464 18.2554C11.3277 18.5384 10.8745 18.3835 10.8745 18.0259V13.1255H7.51416C7.20265 13.1255 7.02681 12.7675 7.21729 12.521L12.4536 5.74463Z" fill="black"/>
<path fill-rule="evenodd" clip-rule="evenodd" d="M11.9995 2.24561C17.3862 2.24569 21.7533 6.61283 21.7534 11.9995C21.7533 17.3862 17.3862 21.7533 11.9995 21.7534C6.61283 21.7533 2.24569 17.3862 2.24561 11.9995C2.24574 6.61286 6.61286 2.24574 11.9995 2.24561ZM11.9995 3.74561C7.44129 3.74574 3.74574 7.44129 3.74561 11.9995C3.74569 16.5578 7.44126 20.2533 11.9995 20.2534C16.5578 20.2533 20.2533 16.5578 20.2534 11.9995C20.2533 7.44126 16.5578 3.74569 11.9995 3.74561Z" fill="black"/>
</svg>
