<svg width="24" height="24" viewBox="0 0 24 24" fill="none" xmlns="http://www.w3.org/2000/svg">
<path fill-rule="evenodd" clip-rule="evenodd" d="M15.0579 4.85688C15.3801 4.38642 15.9524 4.16096 16.5032 4.2768L16.6126 4.30415L16.72 4.34028C17.2455 4.54274 17.6033 5.04441 17.6175 5.61469L16.8675 5.63325H17.6175V9.55512H20.8538C21.2994 9.55043 21.7167 9.7599 21.9788 10.1118L22.0823 10.2739L22.1624 10.4477C22.3202 10.8632 22.2696 11.3348 22.0179 11.7104L22.015 11.7153L16.9466 19.1411C16.6031 19.6433 15.9744 19.8673 15.3909 19.6948C14.8074 19.5222 14.402 18.9926 14.387 18.3842V14.4409H11.1517C10.6416 14.4461 10.1688 14.1703 9.92316 13.7221C9.6751 13.269 9.69982 12.7146 9.98761 12.2856L9.99152 12.2807L15.0569 4.85786L15.0579 4.85688ZM11.3568 12.9409H15.137C15.5508 12.9412 15.8867 13.2772 15.887 13.6909V18.0317L20.6487 11.0551H16.8675C16.4534 11.0551 16.1177 10.7192 16.1175 10.3051V5.96528L11.3568 12.9409Z" fill="black"/>
<path d="M9.50031 17.2524C9.91425 17.2526 10.2502 17.5884 10.2503 18.0024C10.2501 18.4163 9.91422 18.7522 9.50031 18.7524H4.24835C3.83424 18.7524 3.49852 18.4165 3.49835 18.0024C3.49846 17.5883 3.83421 17.2524 4.24835 17.2524H9.50031Z" fill="black"/>
<path d="M6.87433 11.7495C7.28822 11.7496 7.62399 12.0856 7.62433 12.4995C7.62433 12.9136 7.28843 13.2493 6.87433 13.2495H2.49738C2.08316 13.2495 1.74738 12.9137 1.74738 12.4995C1.74771 12.0855 2.08337 11.7495 2.49738 11.7495H6.87433Z" fill="black"/>
<path d="M9.50031 6.24751C9.91424 6.24774 10.2502 6.58355 10.2503 6.99751C10.2503 7.41158 9.91432 7.74727 9.50031 7.74751H4.24835C3.83414 7.74751 3.49835 7.41172 3.49835 6.99751C3.49849 6.58341 3.83422 6.24751 4.24835 6.24751H9.50031Z" fill="black"/>
</svg>
