<svg width="24" height="24" viewBox="0 0 24 24" fill="none" xmlns="http://www.w3.org/2000/svg">
<path fill-rule="evenodd" clip-rule="evenodd" d="M14.8142 2.25488C15.741 2.30091 16.6208 2.68937 17.28 3.34863L19.6511 5.71973C20.3544 6.42299 20.7498 7.37751 20.7498 8.37207V18C20.7498 20.0711 19.0708 21.75 16.9998 21.75H11.4998C11.0855 21.75 10.7498 21.4142 10.7498 21C10.7498 20.5858 11.0855 20.25 11.4998 20.25H16.9998C18.2424 20.25 19.2498 19.2426 19.2498 18V9.25H16.4998C14.981 9.25 13.7498 8.01878 13.7498 6.5V3.75H6.99976C5.75712 3.75 4.74976 4.75736 4.74976 6V9C4.74976 9.41421 4.41397 9.75 3.99976 9.75C3.58554 9.75 3.24976 9.41421 3.24976 9V6C3.24976 3.92893 4.92869 2.25 6.99976 2.25H14.6277L14.8142 2.25488ZM15.2498 6.5C15.2498 7.19036 15.8094 7.75 16.4998 7.75H19.1599C19.0554 7.38697 18.8623 7.052 18.5906 6.78027L16.2195 4.40918C15.9476 4.13728 15.6129 3.94241 15.2498 3.83789V6.5Z" fill="black"/>
<path d="M8.49976 9.75C9.74197 9.75 10.7498 10.7578 10.7498 12V16.5C10.7498 18.5712 9.07097 20.25 6.99976 20.25C4.92854 20.25 3.24976 18.5712 3.24976 16.5V13.5C3.24976 13.0858 3.58554 12.75 3.99976 12.75C4.41397 12.75 4.74976 13.0858 4.74976 13.5V16.5C4.74976 17.7428 5.75697 18.75 6.99976 18.75C8.24254 18.75 9.24976 17.7428 9.24976 16.5V12C9.24976 11.5862 8.91354 11.25 8.49976 11.25C8.08597 11.25 7.74976 11.5862 7.74976 12V15.5C7.74976 15.9142 7.41397 16.25 6.99976 16.25C6.58554 16.25 6.24976 15.9142 6.24976 15.5V12C6.24976 10.7578 7.25754 9.75 8.49976 9.75Z" fill="black"/>
</svg>
