<svg width="24" height="24" viewBox="0 0 24 24" fill="none" xmlns="http://www.w3.org/2000/svg">
<path fill-rule="evenodd" clip-rule="evenodd" d="M9.46924 3.2478C10.0491 3.24694 10.5919 3.53224 10.9185 4.01147L10.9194 4.01245L12.3198 6.0769L12.3208 6.07788C12.366 6.14466 12.4407 6.18489 12.521 6.18726H12.5239C12.5304 6.18726 12.537 6.18807 12.5435 6.18823H19.0024C20.5216 6.18832 21.7534 7.42002 21.7534 8.93921V18.0027C21.7533 19.5218 20.5215 20.7536 19.0024 20.7537H4.99658C3.47754 20.7535 2.24575 19.5217 2.24561 18.0027V5.9978C2.24561 4.47864 3.47745 3.24696 4.99658 3.24683L9.46924 3.2478ZM12.519 7.68726C12.4588 7.68847 12.401 7.71143 12.3569 7.75073L12.3169 7.79663L10.9165 9.86206L10.9155 9.86401C10.5897 10.3422 10.0479 10.6284 9.46924 10.6287H3.74561V18.0027C3.74575 18.6933 4.30597 19.2535 4.99658 19.2537H19.0024C19.6931 19.2536 20.2533 18.6933 20.2534 18.0027V8.93921C20.2534 8.24845 19.6932 7.68832 19.0024 7.68823H12.5288C12.5256 7.68823 12.5223 7.68727 12.519 7.68726ZM4.99658 4.74683C4.30588 4.74696 3.74561 5.30707 3.74561 5.9978V9.12866H9.46924L9.52979 9.12085C9.58861 9.10608 9.64134 9.07056 9.67627 9.01929L11.0757 6.95483C11.0803 6.9481 11.0857 6.94098 11.0903 6.93433C11.0864 6.92861 11.0815 6.92349 11.0776 6.91772L9.67822 4.85522C9.63134 4.78756 9.5536 4.74662 9.47119 4.74683H4.99658Z" fill="black"/>
</svg>
