<svg width="24" height="24" viewBox="0 0 24 24" fill="none" xmlns="http://www.w3.org/2000/svg">
<path d="M11.9844 13.9385C13.2312 13.9385 14.2298 14.3125 14.9141 14.6855C15.256 14.872 15.5226 15.0608 15.707 15.2051C15.7992 15.2772 15.8725 15.3389 15.9238 15.3848C15.9493 15.4075 15.9702 15.4271 15.9854 15.4414C15.9926 15.4483 15.9991 15.4543 16.0039 15.459C16.0061 15.4612 16.0081 15.4641 16.0098 15.4658C16.0105 15.4665 16.012 15.4672 16.0127 15.4678L16.0146 15.4697C16.3073 15.7626 16.3073 16.2384 16.0146 16.5312C15.7228 16.8225 15.25 16.8235 14.957 16.5342L14.9531 16.5303C14.948 16.5254 14.9379 16.5155 14.9238 16.5029C14.8949 16.4771 14.8475 16.4361 14.7832 16.3857C14.6534 16.2842 14.455 16.1441 14.1963 16.0029C13.6777 15.7202 12.9247 15.4385 11.9844 15.4385C11.0447 15.4386 10.2922 15.7202 9.77344 16.0029C9.51447 16.1442 9.31549 16.2851 9.18555 16.3867C9.12123 16.4371 9.07379 16.4781 9.04492 16.5039C9.03106 16.5163 9.02078 16.5254 9.01562 16.5303C9.01399 16.5318 9.01235 16.5335 9.01172 16.5342C8.71852 16.8236 8.24581 16.822 7.9541 16.5303C7.66163 16.2374 7.66147 15.7625 7.9541 15.4697L8.28027 15.7959C7.99149 15.5068 7.95764 15.4736 7.9541 15.4697L7.95605 15.4678L7.95898 15.4658C7.96066 15.4641 7.96263 15.4612 7.96484 15.459C7.96974 15.4543 7.97698 15.4484 7.98438 15.4414C7.99952 15.4271 8.02046 15.4075 8.0459 15.3848C8.09717 15.339 8.16975 15.277 8.26172 15.2051C8.44616 15.0608 8.7137 14.872 9.05566 14.6855C9.73991 14.3126 10.7382 13.9386 11.9844 13.9385Z" fill="black"/>
<path d="M8.48438 8.25C8.89834 8.2502 9.23424 8.58602 9.23438 9V10C9.23438 10.4141 8.89842 10.7498 8.48438 10.75C8.0703 10.7498 7.73438 10.4141 7.73438 10V9C7.73451 8.586 8.07038 8.25016 8.48438 8.25Z" fill="black"/>
<path d="M15.4854 8.25C15.8991 8.25046 16.2352 8.58624 16.2354 9V10C16.2354 10.4139 15.8992 10.7495 15.4854 10.75C15.0711 10.75 14.7354 10.4142 14.7354 10V9C14.7355 8.58596 15.0713 8.25 15.4854 8.25Z" fill="black"/>
<path fill-rule="evenodd" clip-rule="evenodd" d="M12 2.25C17.3762 2.25 21.75 6.62379 21.75 12C21.75 17.3762 17.3773 21.75 12 21.75C6.62279 21.75 2.25 17.3772 2.25 12C2.25 6.62279 6.62279 2.25 12 2.25ZM12 3.75C7.45121 3.75 3.75 7.45121 3.75 12C3.75 16.5488 7.45121 20.25 12 20.25C16.5487 20.25 20.25 16.5478 20.25 12C20.25 7.45221 16.5478 3.75 12 3.75Z" fill="black"/>
</svg>
