<svg width="24" height="24" viewBox="0 0 24 24" fill="none" xmlns="http://www.w3.org/2000/svg">
<path d="M15 14.501C15.414 14.5012 15.75 14.8369 15.75 15.251C15.7497 15.6648 15.4139 16.0008 15 16.001H9C8.58595 16.001 8.25026 15.665 8.25 15.251C8.25 14.8368 8.58579 14.501 9 14.501H15Z" fill="black"/>
<path d="M15.4307 9.02539C15.9339 9.07677 16.3291 9.50126 16.3291 10.0205C16.3291 10.5726 15.8811 11.0203 15.3291 11.0205C14.8115 11.0205 14.3853 10.6271 14.334 10.123L14.3291 10.0205C14.328 9.46553 14.7788 9.02051 15.3281 9.02051L15.4307 9.02539Z" fill="black"/>
<path d="M8.74219 9.00488C9.24514 9.05643 9.64044 9.48105 9.64062 10C9.64062 10.552 9.19248 10.9996 8.64062 11C8.12303 11 7.69687 10.6066 7.64551 10.1025L7.64062 10C7.63975 9.44519 8.09041 9 8.63965 9L8.74219 9.00488Z" fill="black"/>
<path fill-rule="evenodd" clip-rule="evenodd" d="M12 2.25C17.3762 2.25 21.75 6.62379 21.75 12C21.75 17.3762 17.3773 21.75 12 21.75C6.62279 21.75 2.25 17.3772 2.25 12C2.25 6.62279 6.62279 2.25 12 2.25ZM12 3.75C7.45121 3.75 3.75 7.45121 3.75 12C3.75 16.5488 7.45121 20.25 12 20.25C16.5487 20.25 20.25 16.5478 20.25 12C20.25 7.45221 16.5478 3.75 12 3.75Z" fill="black"/>
</svg>
