<svg width="24" height="24" viewBox="0 0 24 24" fill="none" xmlns="http://www.w3.org/2000/svg">
<path d="M14.625 15.75C15.0392 15.75 15.375 16.0858 15.375 16.5C15.375 16.9142 15.0392 17.25 14.625 17.25H9.375C8.96079 17.25 8.625 16.9142 8.625 16.5C8.625 16.0858 8.96079 15.75 9.375 15.75H14.625Z" fill="black"/>
<path d="M17.625 11.25C18.0392 11.25 18.375 11.5858 18.375 12C18.375 12.4142 18.0392 12.75 17.625 12.75H6.375C5.96079 12.75 5.625 12.4142 5.625 12C5.625 11.5858 5.96079 11.25 6.375 11.25H17.625Z" fill="black"/>
<path d="M21 6.75C21.4142 6.75 21.75 7.08579 21.75 7.5C21.75 7.91421 21.4142 8.25 21 8.25H3C2.58579 8.25 2.25 7.91421 2.25 7.5C2.25 7.08579 2.58579 6.75 3 6.75H21Z" fill="black"/>
</svg>
