<svg width="24" height="24" viewBox="0 0 24 24" fill="none" xmlns="http://www.w3.org/2000/svg">
<path fill-rule="evenodd" clip-rule="evenodd" d="M14.9844 13.25C15.3983 13.2502 15.7341 13.5861 15.7344 14C15.7344 16.0811 14.0654 17.7498 11.9844 17.75C9.90336 17.7498 8.23438 16.0811 8.23438 14C8.23461 13.5861 8.5705 13.2502 8.98438 13.25H14.9844ZM9.86328 14.75C10.169 15.6276 10.9958 16.2498 11.9844 16.25C12.973 16.2498 13.7998 15.6277 14.1055 14.75H9.86328Z" fill="black"/>
<path d="M8.48438 8.25C8.89834 8.2502 9.23424 8.58602 9.23438 9V10C9.23438 10.4141 8.89842 10.7498 8.48438 10.75C8.0703 10.7498 7.73438 10.4141 7.73438 10V9C7.73451 8.586 8.07038 8.25016 8.48438 8.25Z" fill="black"/>
<path d="M15.4854 8.25C15.8991 8.25046 16.2352 8.58624 16.2354 9V10C16.2354 10.4139 15.8992 10.7495 15.4854 10.75C15.0711 10.75 14.7354 10.4142 14.7354 10V9C14.7355 8.58596 15.0713 8.25 15.4854 8.25Z" fill="black"/>
<path fill-rule="evenodd" clip-rule="evenodd" d="M12 2.25C17.3762 2.25 21.75 6.62379 21.75 12C21.75 17.3762 17.3773 21.75 12 21.75C6.62279 21.75 2.25 17.3772 2.25 12C2.25 6.62279 6.62279 2.25 12 2.25ZM12 3.75C7.45121 3.75 3.75 7.45121 3.75 12C3.75 16.5488 7.45121 20.25 12 20.25C16.5487 20.25 20.25 16.5478 20.25 12C20.25 7.45221 16.5478 3.75 12 3.75Z" fill="black"/>
</svg>
