<svg width="24" height="24" viewBox="0 0 24 24" fill="none" xmlns="http://www.w3.org/2000/svg">
<path d="M14.9727 15.1543C15.2657 14.8645 15.7384 14.8656 16.0303 15.1572C16.3229 15.4501 16.3229 15.925 16.0303 16.2178L15.5 15.6875L16.0293 16.2188L16.0195 16.2285C16.0146 16.2333 16.0075 16.2399 16 16.2471C15.9848 16.2614 15.964 16.281 15.9385 16.3037C15.8871 16.3495 15.8147 16.4114 15.7227 16.4834C15.5382 16.6277 15.2709 16.8154 14.9287 17.002C14.2444 17.375 13.2466 17.749 12 17.749C10.7528 17.749 9.75461 17.3751 9.07031 17.002C8.72842 16.8155 8.46174 16.6277 8.27734 16.4834C8.18506 16.4112 8.11187 16.3486 8.06055 16.3027C8.03515 16.28 8.01412 16.2614 7.99902 16.2471L7.9707 16.2188C7.9728 16.2162 8.00553 16.182 8.5 15.6875L7.96973 16.2178C7.67709 15.9249 7.67695 15.45 7.96973 15.1572C8.26255 14.8646 8.73741 14.8646 9.03027 15.1572L9.03125 15.1582C9.03636 15.163 9.04653 15.172 9.06055 15.1846C9.08941 15.2104 9.13666 15.2513 9.20117 15.3018C9.33094 15.4033 9.52926 15.5434 9.78809 15.6846C10.3067 15.9674 11.0593 16.249 12 16.249C12.9401 16.249 13.692 15.9675 14.2109 15.6846C14.4702 15.5432 14.6688 15.4034 14.7988 15.3018C14.8633 15.2513 14.9105 15.2104 14.9395 15.1846C14.9538 15.1718 14.9637 15.162 14.9688 15.1572C14.971 15.1551 14.9724 15.1546 14.9727 15.1543Z" fill="black"/>
<path d="M8.74219 8.75488C9.24544 8.80626 9.64062 9.23075 9.64062 9.75C9.64062 10.3021 9.19267 10.7498 8.64062 10.75C8.12306 10.75 7.69687 10.3566 7.64551 9.85254L7.64062 9.75C7.63955 9.19504 8.09031 8.75003 8.63965 8.75L8.74219 8.75488Z" fill="black"/>
<path d="M15.4307 8.75488C15.9341 8.8061 16.3291 9.23063 16.3291 9.75C16.3291 10.3022 15.8813 10.75 15.3291 10.75C14.8115 10.75 14.3854 10.3566 14.334 9.85254L14.3291 9.75C14.328 9.19505 14.7788 8.75003 15.3281 8.75L15.4307 8.75488Z" fill="black"/>
<path fill-rule="evenodd" clip-rule="evenodd" d="M12 2.25C17.3762 2.25 21.75 6.62379 21.75 12C21.75 17.3762 17.3773 21.75 12 21.75C6.62279 21.75 2.25 17.3772 2.25 12C2.25 6.62279 6.62279 2.25 12 2.25ZM12 3.75C7.45121 3.75 3.75 7.45121 3.75 12C3.75 16.5488 7.45121 20.25 12 20.25C16.5487 20.25 20.25 16.5478 20.25 12C20.25 7.45221 16.5478 3.75 12 3.75Z" fill="black"/>
</svg>
