<svg width="24" height="24" viewBox="0 0 24 24" fill="none" xmlns="http://www.w3.org/2000/svg">
<path fill-rule="evenodd" clip-rule="evenodd" d="M8.50024 2.25C9.97512 2.25001 11.1951 2.73948 12.2756 3.16602C13.3825 3.60296 14.3502 3.97656 15.5002 3.97656C16.7433 3.97656 17.5375 3.80452 17.9983 3.65137C18.2287 3.57478 18.3777 3.5022 18.4592 3.45703L18.5315 3.41406C18.5301 3.41515 18.5284 3.41654 18.5266 3.41797L18.5256 3.41895C18.5398 3.40735 18.5548 3.3971 18.5696 3.38672C18.5755 3.38256 18.5811 3.37801 18.5872 3.37402C18.616 3.35496 18.6465 3.33982 18.677 3.3252C18.6999 3.31422 18.7232 3.30455 18.7473 3.2959C18.7725 3.28685 18.7977 3.2787 18.8235 3.27246C18.8802 3.25873 18.9393 3.25 19.0002 3.25C19.0193 3.25 19.0382 3.25153 19.0569 3.25293C19.065 3.25355 19.0732 3.25303 19.0813 3.25391C19.1134 3.25735 19.1443 3.2651 19.175 3.27246C19.2025 3.27904 19.2294 3.2872 19.2561 3.29688C19.2764 3.30427 19.2962 3.31224 19.3157 3.32129C19.3409 3.33298 19.3649 3.34674 19.3889 3.36133C19.4051 3.3712 19.4214 3.38057 19.4368 3.3916C19.4876 3.42807 19.5356 3.47019 19.5774 3.52051C19.6181 3.56957 19.6488 3.62364 19.675 3.67871C19.6849 3.6994 19.6934 3.7205 19.7014 3.74219C19.711 3.76835 19.7193 3.79448 19.7258 3.82129C19.7399 3.87876 19.7502 3.93818 19.7502 4V14.0195C19.7502 14.0496 19.7478 14.0792 19.7444 14.1084C19.7431 14.1199 19.7404 14.1311 19.7385 14.1426C19.7349 14.1643 19.7283 14.185 19.7229 14.2061C19.7158 14.2343 19.709 14.2625 19.6985 14.29C19.6917 14.3075 19.6831 14.324 19.675 14.3408C19.6448 14.4049 19.6085 14.4679 19.5588 14.5234L19.5549 14.5195L19.554 14.5205C19.5564 14.5228 19.5575 14.524 19.5579 14.5244L19.552 14.5312C19.5497 14.5338 19.5469 14.5372 19.5442 14.54C19.5385 14.5461 19.5312 14.5529 19.5237 14.5605C19.5082 14.5762 19.4886 14.5955 19.4651 14.6172C19.4176 14.6608 19.3533 14.7159 19.2708 14.7773C19.1047 14.9009 18.865 15.0513 18.5403 15.1963C17.8883 15.4874 16.9078 15.75 15.5002 15.75C14.0255 15.75 12.8053 15.2615 11.7249 14.835C10.6179 14.398 9.65035 14.0234 8.50024 14.0234C7.25717 14.0234 6.46302 14.1955 6.0022 14.3486C5.90357 14.3814 5.8201 14.4139 5.75024 14.4434V21C5.75008 21.4141 5.41435 21.75 5.00024 21.75C4.58613 21.75 4.25041 21.4141 4.25024 21V3.92969C4.25026 3.89078 4.25428 3.85273 4.26001 3.81543C4.26052 3.8122 4.26044 3.80889 4.26099 3.80566C4.2658 3.77685 4.27447 3.74928 4.28247 3.72168C4.28867 3.70047 4.29388 3.67892 4.302 3.6582C4.31351 3.62867 4.32801 3.60082 4.34302 3.57324C4.3527 3.55554 4.36207 3.53756 4.37329 3.52051C4.37934 3.51127 4.38541 3.50211 4.39185 3.49316C4.39565 3.4879 4.3996 3.48272 4.40356 3.47754L4.45337 3.41895L4.45435 3.41699L4.4563 3.41504L4.46021 3.41016C4.4666 3.40352 4.47311 3.39702 4.47974 3.39062L4.48853 3.38281C4.50424 3.3676 4.52426 3.34904 4.5481 3.32812C4.59593 3.28617 4.66058 3.23363 4.74341 3.1748C4.90956 3.05682 5.14837 2.91423 5.47192 2.77637C6.12099 2.49984 7.09729 2.25 8.50024 2.25ZM8.50024 3.75C7.27826 3.75 6.50451 3.96679 6.05981 4.15625C5.93135 4.21099 5.82929 4.26465 5.75024 4.31055V12.8564C6.37793 12.6749 7.27042 12.5234 8.50024 12.5234C9.97514 12.5234 11.1951 13.0129 12.2756 13.4395C13.3825 13.8764 14.3502 14.25 15.5002 14.25C16.7173 14.25 17.4872 14.0244 17.929 13.8271C18.0646 13.7666 18.1698 13.7054 18.2502 13.6553V5.1416C17.6226 5.32324 16.7304 5.47656 15.5002 5.47656C14.0254 5.47656 12.8054 4.98805 11.7249 4.56152C10.6179 4.12457 9.65033 3.75001 8.50024 3.75Z" fill="black"/>
</svg>
