<svg width="24" height="24" viewBox="0 0 24 24" fill="none" xmlns="http://www.w3.org/2000/svg">
<path d="M10 2.33398C10.4142 2.33398 10.75 2.66977 10.75 3.08398V7.5459C10.75 8.93234 10.2141 10.1913 9.34082 11.0664L9.16211 11.2363C8.88686 11.4832 8.75007 11.7738 8.75 12.0518V19.5C8.74999 20.7422 7.74221 21.75 6.5 21.75C5.25779 21.75 4.25001 20.7422 4.25 19.5V12.0518C4.24994 11.8085 4.14512 11.5559 3.93457 11.3311L3.83789 11.2363C2.89635 10.3918 2.29789 9.12484 2.25391 7.71289C2.25133 7.68761 2.25 7.66171 2.25 7.63574V3.08398C2.25 2.66977 2.58579 2.33398 3 2.33398C3.41421 2.33398 3.75 2.66977 3.75 3.08398V7.5459C3.75 8.61491 4.19057 9.53677 4.83984 10.1191C5.36034 10.5861 5.74993 11.26 5.75 12.0518V19.5C5.75001 19.9138 6.08622 20.25 6.5 20.25C6.91378 20.25 7.24999 19.9138 7.25 19.5V12.0518C7.25007 11.26 7.63966 10.5871 8.16016 10.1201C8.80943 9.53775 9.25 8.61491 9.25 7.5459V3.08398C9.25 2.66977 9.58579 2.33398 10 2.33398Z" fill="black"/>
<path fill-rule="evenodd" clip-rule="evenodd" d="M19 2.30176C19.9661 2.30176 20.7499 3.08566 20.75 4.05176V19.5C20.7499 20.7421 19.7421 21.75 18.5 21.75C17.2579 21.75 16.2501 20.7421 16.25 19.5V15.3545C15.0661 14.7289 14.25 13.4932 14.25 12.0518V6.05176C14.2501 3.98066 15.9289 2.30176 18 2.30176H19ZM18 3.80176C16.7573 3.80176 15.7501 4.80908 15.75 6.05176V12.0518C15.75 13.0234 16.3729 13.8493 17.251 14.1611C17.55 14.2674 17.7499 14.5508 17.75 14.8682V19.5C17.7501 19.9137 18.0863 20.25 18.5 20.25C18.9137 20.25 19.2499 19.9137 19.25 19.5V4.05176C19.2499 3.91408 19.1377 3.80176 19 3.80176H18Z" fill="black"/>
<path d="M6.5 2.25C6.91421 2.25 7.25 2.58579 7.25 3V8C7.25 8.41421 6.91421 8.75 6.5 8.75C6.08579 8.75 5.75 8.41421 5.75 8V3C5.75 2.58579 6.08579 2.25 6.5 2.25Z" fill="black"/>
</svg>
