<svg width="24" height="24" viewBox="0 0 24 24" fill="none" xmlns="http://www.w3.org/2000/svg">
<path fill-rule="evenodd" clip-rule="evenodd" d="M11.9844 12.8701C14.0654 12.8703 15.7344 14.539 15.7344 16.6201C15.7343 17.0342 15.3984 17.3699 14.9844 17.3701H8.98438C8.5704 17.3699 8.23444 17.0341 8.23438 16.6201C8.23438 14.539 9.90336 12.8703 11.9844 12.8701ZM11.9844 14.3701C10.9958 14.3703 10.169 14.9925 9.86328 15.8701H14.1055C13.7998 14.9925 12.973 14.3703 11.9844 14.3701Z" fill="black"/>
<path d="M8.48438 8.25C8.89834 8.2502 9.23424 8.58602 9.23438 9V10C9.23438 10.4141 8.89842 10.7498 8.48438 10.75C8.0703 10.7498 7.73438 10.4141 7.73438 10V9C7.73451 8.586 8.07038 8.25016 8.48438 8.25Z" fill="black"/>
<path d="M15.4854 8.25C15.8991 8.25046 16.2352 8.58624 16.2354 9V10C16.2354 10.4139 15.8992 10.7495 15.4854 10.75C15.0711 10.75 14.7354 10.4142 14.7354 10V9C14.7355 8.58596 15.0713 8.25 15.4854 8.25Z" fill="black"/>
<path fill-rule="evenodd" clip-rule="evenodd" d="M12 2.25C17.3762 2.25 21.75 6.62379 21.75 12C21.75 17.3762 17.3773 21.75 12 21.75C6.62279 21.75 2.25 17.3772 2.25 12C2.25 6.62279 6.62279 2.25 12 2.25ZM12 3.75C7.45121 3.75 3.75 7.45121 3.75 12C3.75 16.5488 7.45121 20.25 12 20.25C16.5487 20.25 20.25 16.5478 20.25 12C20.25 7.45221 16.5478 3.75 12 3.75Z" fill="black"/>
</svg>
