<svg width="24" height="24" viewBox="0 0 24 24" fill="none" xmlns="http://www.w3.org/2000/svg">
<path fill-rule="evenodd" clip-rule="evenodd" d="M13.4108 2.25C14.2207 2.25013 14.9307 2.86024 15.0407 3.66016L15.2604 5.16992C15.2604 5.23992 15.3408 5.28004 15.3708 5.29004C15.6307 5.42002 15.8806 5.57051 16.1306 5.73047C16.1509 5.74061 16.2309 5.77971 16.2907 5.75977L17.7106 5.19043C18.4706 4.89043 19.3407 5.19039 19.7507 5.90039L21.1608 8.33984C21.5708 9.04981 21.3906 9.95995 20.7507 10.46L19.4909 11.4502C19.5109 11.6301 19.5104 11.8101 19.5104 12C19.5104 12.1899 19.5109 12.3699 19.4909 12.5498L20.7507 13.54C21.3906 14.0401 21.5708 14.9602 21.1608 15.6602L19.7507 18.0996C19.3407 18.7996 18.4706 19.1096 17.7106 18.8096L16.2907 18.2402C16.2309 18.2103 16.1509 18.2593 16.1306 18.2695C15.8906 18.4295 15.6307 18.58 15.3708 18.71C15.3508 18.72 15.2704 18.7601 15.2604 18.8301L15.0407 20.3398C14.9307 21.1498 14.2207 21.7499 13.4108 21.75H10.5808C9.77076 21.75 9.06088 21.1398 8.95088 20.3398L8.73017 18.8301C8.73017 18.7702 8.65094 18.7201 8.6208 18.71C8.36084 18.58 8.111 18.4295 7.86103 18.2695C7.84103 18.2595 7.77064 18.2202 7.71064 18.2402L6.29072 18.8096C5.53072 19.1096 4.65068 18.8096 4.25068 18.0996L2.84053 15.6602C2.43053 14.9502 2.61068 14.04 3.25068 13.54L4.51045 12.5498C4.49047 12.3699 4.49092 12.1899 4.49092 12C4.49092 11.8101 4.49047 11.6301 4.51045 11.4502L3.25068 10.46C2.61068 9.95996 2.43053 9.04984 2.84053 8.33984L4.25068 5.90039C4.66068 5.20039 5.53072 4.89043 6.29072 5.19043L7.71064 5.75977C7.78063 5.78976 7.85078 5.74048 7.8708 5.73047C8.11079 5.57047 8.36058 5.42004 8.63057 5.29004C8.69057 5.26004 8.73092 5.20992 8.74092 5.16992L8.96064 3.66016C9.07064 2.85017 9.78055 2.25003 10.5905 2.25H13.4108ZM11.9997 9C10.343 9.00016 8.99971 10.3432 8.99971 12C8.99971 13.6568 10.343 14.9998 11.9997 15C13.6566 15 14.9997 13.6569 14.9997 12C14.9997 10.3431 13.6566 9 11.9997 9Z" fill="black"/>
</svg>
