<svg width="24" height="24" viewBox="0 0 24 24" fill="none" xmlns="http://www.w3.org/2000/svg">
<path fill-rule="evenodd" clip-rule="evenodd" d="M15.5002 1.5C16.1906 1.50003 16.7502 2.05966 16.7502 2.75V4.75C16.7502 5.44034 16.1906 5.99997 15.5002 6H12.7502V7.04297C15.6667 7.36751 18.075 9.56146 18.6252 12.5H19.0002C19.9667 12.5001 20.7502 13.2835 20.7502 14.25V21H22.0002C22.4145 21 22.7502 21.3358 22.7502 21.75C22.7502 22.1642 22.4145 22.5 22.0002 22.5H2.00024C1.58603 22.5 1.25024 22.1642 1.25024 21.75C1.25024 21.3358 1.58603 21 2.00024 21H3.25024V14.25C3.25024 13.2835 4.03375 12.5 5.00024 12.5H5.37524C5.9255 9.56147 8.33378 7.36751 11.2502 7.04297V2.75C11.2502 2.05964 11.8099 1.5 12.5002 1.5H15.5002ZM16.7502 21H19.2502V14.25C19.2502 14.112 19.1383 14.0001 19.0002 14H16.7502V21ZM5.00024 14C4.86217 14 4.75024 14.1119 4.75024 14.25V21H7.25024V14H5.00024ZM8.75024 21H11.2502V14H8.75024V21ZM12.7502 21H15.2502V14H12.7502V21ZM12.0002 8.5C9.57149 8.5 7.47713 10.1659 6.90942 12.5H17.0911C16.5234 10.1659 14.429 8.49999 12.0002 8.5ZM12.7502 4.5H15.2502V3H12.7502V4.5Z" fill="black"/>
</svg>
