<svg width="24" height="24" viewBox="0 0 24 24" fill="none" xmlns="http://www.w3.org/2000/svg">
<path fill-rule="evenodd" clip-rule="evenodd" d="M13.0994 12.2713C13.2319 12.2798 13.3603 12.3232 13.4705 12.3973L16.4178 14.3778C16.7308 14.5882 16.8394 14.9984 16.6707 15.3358L15.6707 17.3358C15.5436 17.5897 15.2838 17.7508 14.9998 17.7508H11.9998C11.7493 17.7508 11.5149 17.6251 11.3758 17.4168L9.37578 14.4168C9.17725 14.119 9.21712 13.7213 9.47051 13.4686L10.5799 12.3641L10.6395 12.3104C10.7846 12.1939 10.9694 12.1354 11.157 12.1473L13.0994 12.2713ZM10.9646 14.0965L12.4012 16.2508H14.5359L15.034 15.2537L12.8016 13.7537L11.3992 13.6649L10.9646 14.0965Z" fill="black"/>
<path fill-rule="evenodd" clip-rule="evenodd" d="M2.28789 12.8778C1.75883 6.78989 6.78986 1.75886 12.8777 2.28792C17.519 2.69282 21.308 6.48031 21.7117 11.1209C22.2409 17.21 17.2089 22.2409 11.1209 21.7117C6.47923 21.3081 2.69156 17.5194 2.28789 12.8778ZM13.7273 8.18245C13.6602 8.45038 13.4512 8.65981 13.1834 8.72737L9.52031 9.64827L8.66973 11.3377C8.5698 11.5359 8.38682 11.6797 8.1707 11.7303C7.95467 11.7808 7.72708 11.7336 7.54961 11.6004L4.25957 9.13069C3.84932 10.2419 3.67073 11.4671 3.78203 12.7479C4.1226 16.6637 7.33498 19.876 11.2508 20.2166C16.4104 20.6651 20.665 16.4113 20.2166 11.2508C19.9353 8.01844 17.6959 5.26572 14.7195 4.21175L13.7273 8.18245ZM12.7479 3.78206C9.4257 3.49337 6.48059 5.15565 4.92266 7.75276L7.73223 9.86214L8.33476 8.6678C8.43273 8.47333 8.6109 8.33129 8.82207 8.27815L12.3807 7.38265L13.2645 3.84554C13.0937 3.81928 12.9216 3.79721 12.7479 3.78206Z" fill="black"/>
</svg>
