<svg width="24" height="24" viewBox="0 0 24 24" fill="none" xmlns="http://www.w3.org/2000/svg">
<path fill-rule="evenodd" clip-rule="evenodd" d="M9.5603 9.56055C10.9075 8.21335 13.0919 8.21357 14.4392 9.56055L14.5613 9.68945C15.7848 11.0438 15.7444 13.1343 14.4392 14.4395C13.092 15.7866 10.9076 15.7865 9.5603 14.4395C8.21336 13.0921 8.21321 10.9078 9.5603 9.56055ZM13.2302 10.4873C12.4643 9.8629 11.3347 9.90727 10.6209 10.6211C9.85954 11.3825 9.8597 12.6174 10.6209 13.3789C11.3824 14.1402 12.6172 14.1403 13.3787 13.3789C14.0925 12.6651 14.1368 11.5354 13.5125 10.7695L13.3787 10.6211L13.2302 10.4873Z" fill="black"/>
<path fill-rule="evenodd" clip-rule="evenodd" d="M13.4089 2.25C14.2275 2.25006 14.924 2.85183 15.0398 3.66406L15.2556 5.17578L15.28 5.22949C15.296 5.25093 15.3218 5.2747 15.3621 5.29492C15.6256 5.42728 15.8783 5.57541 16.1199 5.73535L16.1716 5.7627C16.2191 5.78056 16.2556 5.77459 16.2761 5.7666L17.696 5.19727L17.697 5.19629C18.4559 4.8931 19.3255 5.19027 19.7361 5.90137L21.1482 8.34473C21.5598 9.05624 21.3826 9.96017 20.738 10.4658L20.7371 10.4668L19.4753 11.4531C19.4899 11.6306 19.4998 11.8139 19.4998 12C19.4998 12.1858 19.4899 12.3687 19.4753 12.5459L20.7371 13.5332L20.8523 13.6318C21.4032 14.1503 21.5338 14.9887 21.1482 15.6553L19.7361 18.0986C19.3252 18.8086 18.4557 19.1073 17.696 18.8027L16.2761 18.2334L16.2751 18.2324C16.2569 18.225 16.221 18.2191 16.1726 18.2373L16.1199 18.2646C15.8783 18.4246 15.6256 18.5727 15.3621 18.7051C15.282 18.7454 15.2595 18.7977 15.2556 18.8242L15.0388 20.3369C14.9226 21.1487 14.2262 21.7499 13.408 21.75H10.5916C9.77332 21.75 9.07694 21.1487 8.96069 20.3369L8.7439 18.8232C8.73994 18.796 8.71859 18.7453 8.63745 18.7041C8.50585 18.6372 8.37625 18.5663 8.24976 18.4922L7.87866 18.2598C7.81157 18.2154 7.75674 18.2198 7.7273 18.2314L7.72632 18.2324L6.30444 18.8027L6.30347 18.8037C5.54421 19.1073 4.67383 18.8096 4.26343 18.0977L2.85132 15.6553C2.43987 14.9437 2.61781 14.0397 3.26245 13.5342L3.26343 13.5332L4.52417 12.5459C4.50966 12.3687 4.49976 12.1858 4.49976 12C4.49976 11.8139 4.50962 11.6306 4.52417 11.4531L3.26343 10.4668C2.61692 9.96165 2.44027 9.0556 2.85132 8.34473L4.26343 5.90137C4.674 5.18998 5.54447 4.89285 6.30347 5.19629L6.30444 5.19727L7.72534 5.76855C7.7473 5.77722 7.78531 5.78197 7.83179 5.76465L7.88159 5.73926C8.12106 5.58148 8.37272 5.432 8.63648 5.29785L8.68726 5.26465C8.72784 5.23108 8.74109 5.19629 8.7439 5.17676L8.96167 3.66309C9.07792 2.85133 9.77429 2.25 10.5925 2.25H13.4089ZM10.5925 3.75C10.5191 3.75 10.4572 3.80429 10.447 3.87598L10.446 3.87695L10.2283 5.39062C10.1563 5.89116 9.86236 6.29051 9.48413 6.53809L9.31714 6.63477C9.10962 6.74029 8.90575 6.86042 8.70581 6.99219L8.70483 6.99316C8.26938 7.27888 7.6994 7.37411 7.16675 7.16016L5.74683 6.58887C5.67634 6.56067 5.59891 6.58972 5.56323 6.65137L5.56226 6.65234L4.15015 9.0957C4.1137 9.15871 4.13003 9.24045 4.18726 9.28516L5.77515 10.5273C5.98278 10.6898 6.09004 10.9493 6.05737 11.2109C6.02329 11.4836 5.99976 11.7466 5.99976 12C5.99976 12.2534 6.02329 12.5164 6.05737 12.7891C6.09004 13.0507 5.98278 13.3102 5.77515 13.4727L4.18726 14.7148C4.14354 14.7495 4.12442 14.8035 4.13257 14.8545L4.15015 14.9043L5.56226 17.3477L5.56323 17.3486C5.58998 17.3948 5.63999 17.4229 5.69312 17.4219L5.74683 17.4102L7.16773 16.8398C7.70021 16.6259 8.27156 16.7207 8.70776 17.0098L9.00855 17.1973C9.10997 17.2566 9.21282 17.3132 9.31714 17.3662C9.77568 17.5989 10.1461 18.0378 10.2283 18.6104L10.4451 20.123L10.446 20.124C10.4563 20.1957 10.5182 20.25 10.5916 20.25H13.408C13.4813 20.2499 13.5433 20.1957 13.5535 20.124L13.7703 18.6113C13.8525 18.0379 14.2269 17.5959 14.6882 17.3643C14.8943 17.2608 15.0957 17.1435 15.2917 17.0137C15.7239 16.7279 16.2959 16.624 16.8347 16.8408L18.2546 17.4111L18.3064 17.4219C18.3589 17.4229 18.4104 17.3956 18.4382 17.3477L19.8494 14.9043C19.8765 14.8572 19.8751 14.7995 19.8484 14.7549L19.8132 14.7148L18.2253 13.4727C18.0176 13.3102 17.9104 13.0507 17.9431 12.7891C17.9772 12.5164 17.9998 12.2534 17.9998 12C17.9998 11.7466 17.9772 11.4836 17.9431 11.2109C17.9104 10.9493 18.0176 10.6898 18.2253 10.5273L19.8132 9.28516C19.8715 9.23876 19.8861 9.15765 19.8503 9.0957L18.4382 6.65234L18.4373 6.65137C18.4016 6.58964 18.3242 6.56169 18.2537 6.58984L18.2527 6.58887L16.8357 7.15918C16.2991 7.37407 15.7271 7.27357 15.2927 6.98633C15.0967 6.85653 14.8943 6.73823 14.6882 6.63477C14.2269 6.40317 13.8525 5.96205 13.7703 5.38867L13.5544 3.87598C13.5442 3.80432 13.4823 3.75006 13.4089 3.75H10.5925Z" fill="black"/>
</svg>
