<svg width="24" height="24" viewBox="0 0 24 24" fill="none" xmlns="http://www.w3.org/2000/svg">
<path d="M5.83374 12.2488C6.62166 12.2489 7.28749 12.7716 7.50659 13.488L7.50952 13.4851L7.45093 20.657C7.19044 21.2965 6.56657 21.7496 5.83374 21.7498H3.85034C2.88417 21.7497 2.09987 20.9654 2.09985 19.9993V13.9993C2.10004 13.0332 2.88427 12.2488 3.85034 12.2488H5.83374Z" fill="black"/>
<path d="M11.1995 12.1213C11.6424 12.1214 12.0847 12.1762 12.5149 12.2839L14.7986 12.8582C15.5134 13.037 16.071 13.5467 16.3367 14.197C16.4232 14.6875 16.3997 15.134 16.262 15.4348C15.7476 16.5576 14.4929 16.8748 13.4993 16.8748C13.2925 16.8751 13.1244 17.0429 13.1243 17.2498C13.1244 17.4565 13.2925 17.6244 13.4993 17.6248C14.5727 17.6248 16.2374 17.2872 16.9431 15.7468C17.0583 15.4953 17.1161 15.2094 17.1321 14.9104L18.2351 14.0798L18.408 13.9626C19.2907 13.4179 20.4445 13.5431 21.1897 14.2908C22.0144 15.1198 22.0659 16.4312 21.3435 17.3201L21.1897 17.4929L19.1257 19.5642C18.4656 20.2265 17.6234 20.6807 16.7058 20.865L13.7864 21.4509C13.0994 21.5887 12.389 21.5723 11.7078 21.4011L9.06958 20.739H9.06665C8.81325 20.6747 8.55042 20.6424 8.28589 20.6423H8.20093L8.26392 12.99L8.52759 12.8274C9.34034 12.3658 10.2619 12.1214 11.1995 12.1213Z" fill="black"/>
<path d="M11.0588 2.9397C12.1413 2.00544 13.7327 2.03045 14.7854 2.95728C15.7696 2.09035 17.2236 2.01448 18.2981 2.77271L18.5222 2.94702L18.5603 2.98071C19.6751 3.94509 19.876 5.63821 18.9456 6.81861C17.8873 8.16124 16.6493 9.52026 15.2424 10.595C14.9737 10.8002 14.6001 10.8001 14.3313 10.595C12.959 9.54643 11.7463 8.22655 10.7058 6.91675C9.75101 5.71401 9.87833 3.95888 11.0588 2.9397Z" fill="black"/>
</svg>
