<svg width="24" height="24" viewBox="0 0 24 24" fill="none" xmlns="http://www.w3.org/2000/svg">
<path fill-rule="evenodd" clip-rule="evenodd" d="M11.2079 12.1219C11.6507 12.122 12.0934 12.1768 12.5234 12.2845L14.8071 12.8587C15.8144 13.1112 16.5164 14.0183 16.5165 15.0545V15.3578C16.5165 15.3658 16.5152 15.3747 16.5151 15.3827L18.2436 14.0804L18.4164 13.9632C19.2993 13.4186 20.453 13.5436 21.1982 14.2913C22.0222 15.1204 22.0743 16.432 21.352 17.3206L21.1982 17.4935L19.1342 19.5648C18.4742 20.227 17.6317 20.6812 16.7143 20.8656L13.7949 21.4515C13.1081 21.5893 12.3973 21.5727 11.7162 21.4017L9.07806 20.7396H9.07513C8.82191 20.6753 8.55874 20.643 8.29437 20.6429L7.45941 20.6444C7.20235 21.2912 6.573 21.7502 5.8349 21.7503H3.8515C2.88529 21.7503 2.10101 20.9661 2.10101 19.9998V13.9998C2.10112 13.0337 2.88535 12.2494 3.8515 12.2494H5.8349C6.6245 12.2495 7.29156 12.7742 7.50922 13.493L8.19623 13.0389L8.53607 12.828C9.34883 12.3664 10.2704 12.1219 11.2079 12.1219ZM3.8515 13.7494C3.71378 13.7494 3.60112 13.8621 3.60101 13.9998V19.9998C3.60101 20.1376 3.71371 20.2503 3.8515 20.2503H5.8349C5.97251 20.2501 6.08539 20.1375 6.08539 19.9998V13.9998C6.08528 13.8623 5.97245 13.7496 5.8349 13.7494H3.8515ZM11.2079 13.6234C10.5303 13.6234 9.8644 13.7998 9.27728 14.1331L9.03119 14.2855L7.58539 15.2406V19.1444L8.29437 19.1429C8.6801 19.143 9.06635 19.1901 9.44135 19.285L12.0825 19.9471C12.5465 20.0635 13.0307 20.0747 13.499 19.9808L16.4184 19.3949C17.044 19.2691 17.6193 18.9602 18.0707 18.5072L20.1347 16.4344C20.4314 16.1367 20.4319 15.6502 20.1347 15.3504C19.8677 15.0826 19.4462 15.0533 19.1445 15.2801L16.7392 17.0921C16.2644 17.4497 15.686 17.6428 15.0927 17.6429H12.7695C12.3559 17.6427 12.0201 17.3064 12.0195 16.8929C12.0195 16.7378 12.0647 16.5921 12.1454 16.4725C12.2783 16.2628 12.5117 16.1227 12.7783 16.1224H14.2578C14.6732 16.122 15.016 15.7824 15.0165 15.3578V15.0545C15.0164 14.7459 14.8328 14.4752 14.5624 14.3558L14.4423 14.3133L12.1586 13.7406C11.8478 13.6627 11.5279 13.6235 11.2079 13.6234Z" fill="black"/>
<path fill-rule="evenodd" clip-rule="evenodd" d="M11.06 2.94027C12.1425 2.0059 13.7338 2.03091 14.7866 2.95785C15.7708 2.09082 17.2247 2.01495 18.2993 2.77328L18.5248 2.94906L18.5615 2.98129C19.6763 3.94569 19.8772 5.63878 18.9467 6.81918C17.8885 8.16184 16.6505 9.52082 15.2436 10.5955C14.9749 10.8008 14.6012 10.8007 14.3325 10.5955C12.9601 9.54699 11.7475 8.22716 10.707 6.91732C9.75205 5.71456 9.87938 3.95947 11.06 2.94027ZM17.5405 4.07992C16.9873 3.60484 16.1725 3.65164 15.683 4.17367L15.3359 4.54574C15.1942 4.69717 14.9954 4.7829 14.788 4.78305C14.581 4.78305 14.3834 4.69814 14.2416 4.54721L13.8901 4.17367C13.4287 3.68226 12.6843 3.61364 12.1454 3.9935L12.0414 4.07553C11.489 4.55218 11.4102 5.39126 11.8803 5.98422C12.7554 7.08577 13.7276 8.15618 14.7866 9.03988C15.8763 8.13083 16.8745 7.02534 17.769 5.89047C18.186 5.36093 18.1089 4.57256 17.58 4.11508L17.5405 4.07992Z" fill="black"/>
</svg>
