<svg width="24" height="24" viewBox="0 0 24 24" fill="none" xmlns="http://www.w3.org/2000/svg">
<path d="M18.3417 19.4023C16.6366 20.8645 14.4226 21.7504 12.0004 21.7505C9.57853 21.7505 7.36404 20.8654 5.65906 19.4038L9.46033 15.604C9.46454 15.5994 9.46778 15.5924 9.47205 15.5879L9.57312 15.4854C10.2615 15.9656 11.0974 16.2499 12.0004 16.25C12.9023 16.2499 13.7368 15.9647 14.4247 15.4854L18.3417 19.4023Z" fill="black"/>
<path d="M8.51257 9.57178C8.0325 10.2601 7.75089 11.0977 7.75085 12.0005C7.75096 12.9026 8.03312 13.7383 8.51257 14.4263L4.59851 18.3418C3.1362 16.6367 2.25046 14.4229 2.25037 12.0005C2.25037 9.57769 3.13439 7.36151 4.59705 5.65625L8.51257 9.57178Z" fill="black"/>
<path d="M19.4037 5.65918C20.8653 7.36416 21.7504 9.57866 21.7504 12.0005C21.7503 14.4223 20.8639 16.6354 19.4022 18.3403L15.6068 14.5449L15.5995 14.5391L15.4867 14.4263C15.9664 13.7382 16.2512 12.9029 16.2513 12.0005C16.2513 11.0973 15.9671 10.2602 15.4867 9.57178L15.5848 9.4751C15.5913 9.46942 15.6007 9.46511 15.6068 9.45898L19.4037 5.65918Z" fill="black"/>
<path d="M12.0004 9.24951C13.5188 9.24986 14.7513 10.482 14.7513 12.0005C14.7511 13.5188 13.5187 14.7497 12.0004 14.75C10.4819 14.7498 9.25112 13.5189 9.25085 12.0005C9.25094 10.4819 10.4818 9.24967 12.0004 9.24951Z" fill="black"/>
<path d="M12.0004 2.25049C14.4232 2.25057 16.6379 3.13589 18.3431 4.59863L14.4261 8.5127C13.7382 8.03334 12.9024 7.74965 12.0004 7.74951C11.0983 7.74957 10.2626 8.03332 9.57458 8.5127L5.65906 4.59717C7.36409 3.13536 9.57836 2.25049 12.0004 2.25049Z" fill="black"/>
</svg>
