<svg width="24" height="24" viewBox="0 0 24 24" fill="none" xmlns="http://www.w3.org/2000/svg">
<path d="M11.5698 2.38609C11.8281 2.20533 12.1719 2.20533 12.4302 2.38609L22.4302 9.3861C22.7694 9.62363 22.8522 10.0907 22.6147 10.43C22.3772 10.7694 21.9092 10.8521 21.5698 10.6146L20.7505 10.0404V21.0004C20.7504 21.4144 20.4145 21.7502 20.0005 21.7504H16.2505V15.0004C16.2505 13.4812 15.0196 12.2505 13.5005 12.2504H10.5005C8.98127 12.2504 7.75048 13.4811 7.75048 15.0004V21.7504H4.00048C3.58634 21.7504 3.25059 21.4145 3.25048 21.0004V10.0404L2.43017 10.6146C2.09088 10.852 1.62374 10.7692 1.38622 10.43C1.14879 10.0909 1.23086 9.62373 1.56982 9.3861L11.5698 2.38609Z" fill="black"/>
<path d="M13.5005 13.7504C14.1911 13.7505 14.7505 14.3097 14.7505 15.0004V21.7504H9.25048V15.0004C9.25048 14.3096 9.80969 13.7504 10.5005 13.7504H13.5005Z" fill="black"/>
</svg>
