<svg width="24" height="24" viewBox="0 0 24 24" fill="none" xmlns="http://www.w3.org/2000/svg">
<path fill-rule="evenodd" clip-rule="evenodd" d="M11.6714 2.32634C11.9135 2.208 12.2044 2.22704 12.4302 2.38493L22.4307 9.38542C22.7695 9.623 22.8525 10.0907 22.6152 10.4299C22.3778 10.769 21.9101 10.8515 21.5708 10.6144L20.7505 10.0387V21.0002C20.7502 21.4142 20.4145 21.7502 20.0005 21.7502H4C3.5862 21.7499 3.25025 21.414 3.25 21.0002V10.0387L2.42969 10.6144C2.09061 10.8513 1.62426 10.7685 1.38672 10.4299C1.14935 10.0905 1.23202 9.62291 1.57129 9.38542L3.5752 7.98063C3.57809 7.97864 3.58106 7.97673 3.58398 7.97477L11.5703 2.38493L11.6714 2.32634ZM4.75 8.98991V20.2502H8.25098V15.0002C8.25098 13.481 9.48131 12.2492 11.0005 12.2492H13C14.5192 12.2492 15.751 13.481 15.751 15.0002V20.2502H19.2505V8.98845L12.001 3.91423L4.75 8.98991ZM11.0005 13.7492C10.3097 13.7492 9.75098 14.3094 9.75098 15.0002V20.2502H14.251V15.0002C14.251 14.3094 13.6908 13.7492 13 13.7492H11.0005Z" fill="black"/>
</svg>
