<svg width="24" height="24" viewBox="0 0 24 24" fill="none" xmlns="http://www.w3.org/2000/svg">
<path d="M15.7002 3.25049C19.3938 3.25061 21.7499 6.68497 21.75 9.76025C21.7499 11.3666 21.1206 12.8572 20.2373 14.1577C19.3535 15.4589 18.1875 16.6135 17.041 17.5679C15.8914 18.5248 14.7391 19.2985 13.8652 19.8325C13.4279 20.0998 13.0558 20.3093 12.7852 20.4536C12.6509 20.5252 12.5375 20.5823 12.4512 20.6235C12.4092 20.6436 12.3664 20.6633 12.3281 20.6792C12.3098 20.6868 12.2821 20.6984 12.252 20.7085C12.2371 20.7135 12.2131 20.7218 12.1836 20.729C12.1651 20.7335 12.0927 20.7505 12 20.7505C11.9082 20.7505 11.8367 20.7337 11.8174 20.729C11.7877 20.7218 11.7629 20.7135 11.748 20.7085C11.7179 20.6984 11.6902 20.6868 11.6719 20.6792C11.6336 20.6633 11.5908 20.6436 11.5488 20.6235C11.4625 20.5823 11.3491 20.5252 11.2148 20.4536C10.9443 20.3094 10.5729 20.0996 10.1357 19.8325C9.26198 19.2986 8.10952 18.5247 6.95996 17.5679C5.8136 16.6136 4.64751 15.4588 3.76367 14.1577C2.88038 12.8572 2.2501 11.3666 2.25 9.76025C2.25012 6.68497 4.60622 3.25061 8.2998 3.25049C9.96688 3.25049 11.1777 3.92103 12 4.65088C12.8223 3.92103 14.0331 3.25049 15.7002 3.25049Z" fill="black"/>
</svg>
