<svg width="24" height="24" viewBox="0 0 24 24" fill="none" xmlns="http://www.w3.org/2000/svg">
<path fill-rule="evenodd" clip-rule="evenodd" d="M18.1074 10.2495C19.0744 10.2495 20.0027 10.6341 20.6865 11.3178C21.3701 12.0016 21.7538 12.9291 21.7539 13.896C21.7539 16.063 20.256 17.9428 18.1436 18.4262L16.5977 18.7788C15.3839 20.5736 13.3298 21.7534 11 21.7534H9C5.27079 21.7534 2.24723 18.7306 2.24707 15.0014V11.9995C2.24739 11.0332 3.03073 10.2497 3.99707 10.2495H18.1074ZM3.99707 11.7495C3.85916 11.7497 3.74739 11.8616 3.74707 11.9995V15.0014C3.74723 17.9022 6.09922 20.2534 9 20.2534H11C13.9008 20.2534 16.2528 17.9022 16.2529 15.0014V11.9995C16.2526 11.8616 16.1408 11.7497 16.0029 11.7495H3.99707ZM17.7334 11.7495C17.7451 11.8312 17.7529 11.9145 17.7529 11.9995V15.0014C17.7529 15.7151 17.6408 16.4026 17.4355 17.0483L17.8096 16.9633C19.24 16.6358 20.2539 15.3634 20.2539 13.896C20.2538 13.3269 20.0283 12.7809 19.626 12.3784C19.2234 11.976 18.6766 11.7495 18.1074 11.7495H17.7334Z" fill="black"/>
<path d="M5.98145 2.45358C6.28129 2.16818 6.75537 2.17942 7.04102 2.47897C7.98381 3.46892 7.98381 5.02516 7.04102 6.01511C6.65057 6.42563 6.6505 7.07045 7.04102 7.48093C7.3266 7.78081 7.31537 8.25579 7.01562 8.54147C6.71569 8.8269 6.24068 8.81588 5.95508 8.51608C5.01234 7.52621 5.01247 5.9699 5.95508 4.97995C6.34594 4.56935 6.34596 3.92472 5.95508 3.51413C5.66948 3.21425 5.6817 2.73927 5.98145 2.45358Z" fill="black"/>
<path d="M9.4834 2.45358C9.78324 2.1682 10.2573 2.17942 10.543 2.47897C11.4855 3.46893 11.4857 5.02523 10.543 6.01511C10.1523 6.42562 10.1524 7.07037 10.543 7.48093C10.8283 7.78081 10.8172 8.25586 10.5176 8.54147C10.2177 8.82704 9.74273 8.81573 9.45703 8.51608C8.51423 7.52613 8.51423 5.9699 9.45703 4.97995C9.84782 4.56943 9.8477 3.92472 9.45703 3.51413C9.17137 3.21418 9.18345 2.73924 9.4834 2.45358Z" fill="black"/>
<path d="M12.9844 2.45358C13.2842 2.1682 13.7583 2.17946 14.0439 2.47897C14.9868 3.46892 14.9868 5.02516 14.0439 6.01511C13.6536 6.42562 13.6535 7.07046 14.0439 7.48093C14.3295 7.78081 14.3183 8.25579 14.0186 8.54147C13.7186 8.82685 13.2436 8.81587 12.958 8.51608C12.0153 7.52622 12.0155 5.9699 12.958 4.97995C13.3489 4.56935 13.3489 3.92471 12.958 3.51413C12.6725 3.21427 12.6847 2.73926 12.9844 2.45358Z" fill="black"/>
</svg>
