<svg width="24" height="24" viewBox="0 0 24 24" fill="none" xmlns="http://www.w3.org/2000/svg">
<path fill-rule="evenodd" clip-rule="evenodd" d="M12 2.25C17.3848 2.25 21.75 6.61522 21.75 12C21.75 17.3848 17.3848 21.75 12 21.75C6.61522 21.75 2.25 17.3848 2.25 12C2.25 6.61522 6.61522 2.25 12 2.25ZM6.7207 18.3384C8.15143 19.5313 9.99151 20.25 12 20.25C14.0081 20.25 15.8472 19.5309 17.2778 18.3384L14.4258 15.4863C13.7376 15.9661 12.9025 16.2495 12 16.2495C11.0975 16.2495 10.2624 15.9661 9.57422 15.4863L6.7207 18.3384ZM15.4863 9.57275C15.9665 10.2612 16.2495 11.097 16.2495 12C16.2495 12.9025 15.9661 13.7376 15.4863 14.4258L18.3384 17.2778C19.5309 15.8472 20.25 14.0081 20.25 12C20.25 9.99151 19.5313 8.15143 18.3384 6.7207L15.4863 9.57275ZM5.66016 6.7207C4.46755 8.15133 3.75 9.99185 3.75 12C3.75 14.0077 4.46798 15.8473 5.66016 17.2778L8.51221 14.4258C8.03274 13.7377 7.75049 12.9022 7.75049 12C7.75049 11.0973 8.03233 10.261 8.51221 9.57275L5.66016 6.7207ZM12 9.25049C10.4812 9.25049 9.25049 10.4812 9.25049 12C9.25049 13.5188 10.4812 14.7495 12 14.7495C13.5188 14.7495 14.7495 13.5188 14.7495 12C14.7495 10.4812 13.5188 9.25049 12 9.25049ZM12 3.75C9.99185 3.75 8.15133 4.46755 6.7207 5.66016L9.57275 8.51221C10.261 8.03233 11.0973 7.75049 12 7.75049C12.9022 7.75049 13.7377 8.03274 14.4258 8.51221L17.2778 5.66016C15.8473 4.46798 14.0077 3.75 12 3.75Z" fill="black"/>
</svg>
