<svg width="24" height="24" viewBox="0 0 24 24" fill="none" xmlns="http://www.w3.org/2000/svg">
<path fill-rule="evenodd" clip-rule="evenodd" d="M18.4696 4.46997C18.7625 4.17709 19.2373 4.17711 19.5302 4.46997C19.8231 4.76286 19.8231 5.23762 19.5302 5.53052L14.7665 10.2932C14.7636 10.2962 14.7616 10.3001 14.7587 10.303C14.7557 10.3059 14.7519 10.3079 14.7489 10.3108L10.3114 14.7483C10.3086 14.7512 10.3065 14.7551 10.3036 14.7581C10.3007 14.761 10.2968 14.763 10.2938 14.7659L7.50673 17.553C7.49589 17.5648 7.48398 17.5752 7.47255 17.5862L5.53017 19.5305C5.23726 19.8233 4.76246 19.8234 4.46962 19.5305C4.1768 19.2377 4.17688 18.7629 4.46962 18.47L5.84169 17.0959C4.48529 15.9028 3.31415 14.4084 2.4579 12.8254C2.18111 12.3123 2.18111 11.6902 2.4579 11.177L2.64833 10.8342C3.6265 9.12964 4.96454 7.54656 6.49892 6.3606C8.13137 5.09893 10.0367 4.25037 11.9999 4.25024C13.7526 4.25031 15.4593 4.92835 16.9667 5.97192L18.4696 4.46997ZM11.9999 5.75024C10.4684 5.75037 8.87741 6.41852 7.41591 7.5481C5.95864 8.67456 4.67755 10.2244 3.77724 11.8899C3.74072 11.9582 3.74073 12.0432 3.77724 12.1116L3.95009 12.4221C4.72554 13.7724 5.74805 15.0322 6.90419 16.0334L8.76356 14.175C7.74245 12.6586 7.90195 10.5836 9.24306 9.24243C10.5842 7.90126 12.6592 7.74184 14.1757 8.76294L15.8866 7.052C14.6244 6.22591 13.291 5.75031 11.9999 5.75024ZM13.0809 9.85767C12.1809 9.40386 11.0551 9.55148 10.3036 10.303C9.55216 11.0545 9.40446 12.1803 9.85829 13.0803L13.0809 9.85767Z" fill="black"/>
<path d="M18.5917 8.35083C18.9066 8.08185 19.3803 8.11898 19.6493 8.43384C20.2818 9.17432 20.8547 9.9755 21.3397 10.8147L21.5419 11.176C21.8044 11.6625 21.8141 12.2449 21.579 12.7415C21.568 12.7694 21.5565 12.7974 21.5419 12.8245C20.5503 14.6582 19.1376 16.375 17.5009 17.6399C15.8683 18.9015 13.9633 19.7502 11.9999 19.7502L11.6454 19.7405C10.8192 19.6975 10.0057 19.5073 9.22548 19.2053C8.83934 19.0559 8.64757 18.6208 8.79677 18.2346C8.94638 17.8487 9.3804 17.6567 9.76649 17.8059C10.5126 18.0947 11.2641 18.2502 11.9999 18.2502C13.5315 18.2502 15.1222 17.5819 16.5839 16.4524C18.0387 15.328 19.3176 13.7821 20.2177 12.1204C20.2191 12.1175 20.2201 12.1144 20.2216 12.1116C20.2585 12.0429 20.2586 11.9576 20.2216 11.8889C19.7507 11.0182 19.1676 10.18 18.5087 9.40845C18.2397 9.09352 18.2768 8.61987 18.5917 8.35083Z" fill="black"/>
</svg>
