<svg width="24" height="24" viewBox="0 0 24 24" fill="none" xmlns="http://www.w3.org/2000/svg">
<path fill-rule="evenodd" clip-rule="evenodd" d="M15.8877 10.2527C16.3756 10.2257 16.8537 10.3824 17.2295 10.6873L17.3838 10.826L17.3847 10.8279L18.4941 11.9471L18.6338 12.1024C18.9383 12.4798 19.0943 12.9589 19.0674 13.4481C19.0365 14.007 18.7696 14.5265 18.333 14.8768L18.331 14.8777L17.9541 15.1775L20.9394 17.7039C21.5956 18.2558 21.8901 19.1281 21.7021 19.9647C21.5139 20.8011 20.8744 21.4636 20.0449 21.6815C19.2158 21.899 18.3347 21.6364 17.7597 21.0008L15.084 18.0555L14.8603 18.3348L14.8594 18.3338C14.5117 18.7693 13.9951 19.0372 13.4385 19.0682C12.8811 19.099 12.3363 18.8898 11.9424 18.494L10.8271 17.3738L10.8281 17.3729C10.433 16.9766 10.2242 16.4314 10.2549 15.8729C10.2858 15.3139 10.5537 14.7944 10.9902 14.4441L10.9922 14.4422L12.457 13.2752L12.6816 13.0858C12.9004 12.8907 13.103 12.6774 13.2871 12.449L14.4678 10.9852C14.8153 10.5502 15.3313 10.2837 15.8877 10.2527ZM16.7607 16.1326C16.5706 16.292 16.3915 16.464 16.2256 16.6483L16.0361 16.8709L18.8701 19.993L18.872 19.9949C19.0713 20.2151 19.3767 20.3057 19.664 20.2303C19.9512 20.1548 20.173 19.9255 20.2383 19.6356C20.3033 19.3459 20.2017 19.0436 19.9746 18.8524L19.9726 18.8504L16.7607 16.1326ZM15.9707 11.7508C15.8407 11.7581 15.7199 11.8206 15.6386 11.9227L15.6357 11.9266L14.4551 13.3904C14.1406 13.7804 13.7842 14.1357 13.3926 14.4481L11.9267 15.616C11.8234 15.6998 11.7603 15.8232 11.7529 15.9559C11.7456 16.0898 11.7952 16.2206 11.8896 16.3152L13.0058 17.4363L13.081 17.4969C13.1617 17.5493 13.2576 17.5755 13.3554 17.5701C13.4856 17.5628 13.6072 17.5004 13.6885 17.3983L13.6904 17.3953L14.8672 15.9315L15.1113 15.6453C15.3626 15.3662 15.6366 15.108 15.9306 14.8738L16.3017 14.577C16.3053 14.5741 16.3088 14.571 16.3125 14.5682L17.3965 13.7049C17.4995 13.6212 17.563 13.4976 17.5703 13.365C17.5775 13.2318 17.5279 13.1011 17.4336 13.0066L17.4306 13.0047L16.3203 11.8846L16.2451 11.824C16.1645 11.7718 16.0684 11.7454 15.9707 11.7508Z" fill="#1C1C1C"/>
<path d="M16.002 2.24597C17.5209 2.24619 18.7518 3.47796 18.752 4.99695V7.99792C18.752 8.41214 18.4162 8.74792 18.002 8.74792C17.588 8.74763 17.252 8.41196 17.252 7.99792V4.99695C17.2518 4.30637 16.6925 3.74619 16.002 3.74597H4.99707C4.3064 3.74605 3.74623 4.3063 3.74609 4.99695V19.0028C3.74619 19.6934 4.30637 20.2537 4.99707 20.2538H7.99805L8.0752 20.2577C8.45313 20.2963 8.74792 20.6157 8.74805 21.0038C8.74786 21.3918 8.45313 21.7113 8.0752 21.7499L7.99805 21.7538H4.99707C3.47797 21.7537 2.24619 20.5219 2.24609 19.0028V4.99695C2.24623 3.47786 3.47798 2.24605 4.99707 2.24597H16.002ZM14 20.2372C14.3783 20.2754 14.6737 20.5949 14.6738 20.9833C14.6738 21.3717 14.3783 21.6911 14 21.7294L13.9238 21.7333H11.9229C11.5087 21.7332 11.1729 21.3974 11.1729 20.9833C11.173 20.5692 11.5088 20.2334 11.9229 20.2333H13.9238L14 20.2372ZM9.0752 11.2538C9.4535 11.2921 9.74902 11.6115 9.74902 11.9999C9.74902 12.3883 9.4535 12.7077 9.0752 12.746L8.99902 12.7499H6.99805C6.58383 12.7499 6.24805 12.4141 6.24805 11.9999C6.24805 11.5857 6.58383 11.2499 6.99805 11.2499H8.99902L9.0752 11.2538ZM13.0771 7.25183C13.4552 7.29025 13.7509 7.60972 13.751 7.99792C13.751 8.38622 13.4553 8.70557 13.0771 8.74402L13.001 8.74792H6.99805C6.58383 8.74792 6.24805 8.41214 6.24805 7.99792C6.24818 7.58382 6.58391 7.24792 6.99805 7.24792H13.001L13.0771 7.25183Z" fill="#1C1C1C"/>
</svg>
