<svg width="24" height="24" viewBox="0 0 24 24" fill="none" xmlns="http://www.w3.org/2000/svg">
<path fill-rule="evenodd" clip-rule="evenodd" d="M16.8582 11.7642C17.0009 11.7362 17.1508 11.7493 17.2874 11.8052L21.2878 13.4429C21.5695 13.5582 21.7535 13.8329 21.7537 14.1372V15.9214C21.7534 16.3354 21.4177 16.6713 21.0037 16.6714H20.7532V19.7534H21.0037C21.4178 19.7535 21.7535 20.0893 21.7537 20.5034C21.7534 20.9174 21.4177 21.2534 21.0037 21.2534H13.0012C12.5871 21.2534 12.2514 20.9174 12.2512 20.5034C12.2513 20.0893 12.5871 19.7534 13.0012 19.7534H13.2502V16.6714H13.0012C12.5872 16.6714 12.2515 16.3354 12.2512 15.9214V14.1372C12.2514 13.8329 12.4354 13.5582 12.717 13.4429L16.719 11.8052L16.8582 11.7642ZM14.7502 19.7534H16.2517V16.6714H14.7502V19.7534ZM17.7517 19.7534H19.2532V16.6714H17.7517V19.7534ZM13.7512 14.6411V15.1714H20.2537V14.6411L17.0032 13.311L13.7512 14.6411Z" fill="black"/>
<path d="M17.5027 2.74658C19.298 2.74672 20.7531 4.20168 20.7532 5.99707V9.49951C20.7526 9.91323 20.417 10.2495 20.0032 10.2495C19.5895 10.2493 19.2538 9.91307 19.2532 9.49951V5.99707C19.2531 5.03011 18.4696 4.24672 17.5027 4.24658H5.49683C5.03271 4.24679 4.58723 4.43108 4.25903 4.75928C3.93094 5.0876 3.74636 5.5329 3.74634 5.99707V13.9995C3.74634 14.9663 4.53011 15.751 5.49683 15.7515H9.99976C10.4137 15.7516 10.7496 16.0875 10.7498 16.5015C10.7495 16.9154 10.4137 17.2513 9.99976 17.2515H5.49683C3.70169 17.251 2.24634 15.7947 2.24634 13.9995V5.99707C2.24636 5.13507 2.58909 4.30836 3.19849 3.69873C3.80799 3.08923 4.63488 2.74679 5.49683 2.74658H17.5027Z" fill="black"/>
<path d="M6.99829 12.75C7.41215 12.7503 7.74813 13.0861 7.74829 13.5C7.74829 13.914 7.41225 14.2497 6.99829 14.25H5.9978C5.58359 14.25 5.2478 13.9142 5.2478 13.5C5.24796 13.0859 5.58369 12.75 5.9978 12.75H6.99829Z" fill="black"/>
<path d="M9.20142 7.69922C10.4708 6.43037 12.5286 6.43056 13.7981 7.69922C14.091 7.99209 14.0909 8.46687 13.7981 8.75977C13.5052 9.05266 13.0304 9.05266 12.7375 8.75977C12.0538 8.07689 10.9456 8.0767 10.262 8.75977C9.57816 9.44357 9.57821 10.553 10.262 11.2368C10.5548 11.5296 10.5546 12.0045 10.262 12.2974C9.96907 12.5902 9.49429 12.5902 9.20142 12.2974C7.93187 11.0277 7.93183 8.96881 9.20142 7.69922Z" fill="black"/>
<path d="M17.0017 5.74658C17.4157 5.74658 17.7513 6.08273 17.7517 6.49658C17.7517 6.9108 17.4159 7.24658 17.0017 7.24658H16.0012C15.5873 7.24621 15.2512 6.91057 15.2512 6.49658C15.2516 6.08296 15.5876 5.74695 16.0012 5.74658H17.0017Z" fill="black"/>
</svg>
