<svg width="24" height="24" viewBox="0 0 24 24" fill="none" xmlns="http://www.w3.org/2000/svg">
<path d="M14.505 2.25C15.5732 2.25 16.4969 2.86022 16.9523 3.75H18.505C19.4714 3.75011 20.255 4.53357 20.255 5.5V5.75H21.505C21.9192 5.75 22.255 6.08581 22.255 6.5C22.255 6.91421 21.9192 7.25 21.505 7.25H20.255V7.5C20.255 8.46643 19.4714 9.24989 18.505 9.25H17.2423C17.1389 10.3972 16.3314 11.3377 15.255 11.6426V12.4268C15.2548 13.7098 14.2148 14.7498 12.9318 14.75H10.546L10.0197 16.3271C10.735 16.5469 11.255 17.2126 11.255 18V20C11.255 20.9665 10.4715 21.75 9.505 21.75H3.505C2.53853 21.75 1.755 20.9665 1.755 20V18C1.75504 17.0476 2.51598 16.2743 3.46301 16.252L5.04114 11.5186C3.13435 10.9013 1.755 9.11238 1.755 7C1.755 4.37665 3.88165 2.25 6.505 2.25H14.505ZM3.505 17.75C3.36698 17.75 3.25504 17.862 3.255 18V20C3.255 20.1381 3.36696 20.25 3.505 20.25H9.505C9.64308 20.25 9.755 20.1381 9.755 20V18C9.75497 17.862 9.64306 17.75 9.505 17.75H3.505ZM5.04602 16.25H8.46399L9.96399 11.75H6.54602L5.04602 16.25ZM11.046 13.25H12.9318C13.3863 13.2498 13.7548 12.8813 13.755 12.4268V11.75H11.546L11.046 13.25ZM6.505 3.75C4.71008 3.75 3.255 5.20507 3.255 7C3.255 8.65862 4.49768 10.0254 6.10266 10.2236L6.10461 10.2246C6.23586 10.2407 6.3694 10.25 6.505 10.25H14.505C15.1954 10.25 15.755 9.69036 15.755 9V5C15.755 4.30964 15.1954 3.75 14.505 3.75H6.505ZM9.10364 6.25C9.51778 6.25008 9.85364 6.58584 9.85364 7C9.8536 7.41413 9.51776 7.74992 9.10364 7.75H6.505C6.09081 7.75 5.75504 7.41419 5.755 7C5.755 6.58579 6.09079 6.25 6.505 6.25H9.10364ZM17.255 7.75H18.505C18.643 7.74989 18.755 7.638 18.755 7.5V5.5C18.755 5.362 18.643 5.25011 18.505 5.25H17.255V7.75Z" fill="#1C1C1C"/>
</svg>
