<svg width="24" height="24" viewBox="0 0 24 24" fill="none" xmlns="http://www.w3.org/2000/svg">
<path d="M17.8333 5.10572C18.1262 4.81282 18.6019 4.81282 18.8948 5.10572C19.1873 5.39854 19.1873 5.87344 18.8948 6.16626L6.16627 18.8948C5.87344 19.1873 5.39856 19.1873 5.10573 18.8948C4.81283 18.6019 4.81283 18.1261 5.10573 17.8333L17.8333 5.10572Z" fill="#1C1C1C"/>
<path d="M20.25 12C20.25 7.44321 16.5568 3.75 12 3.75C7.44321 3.75 3.75 7.44321 3.75 12C3.75 16.5568 7.44321 20.25 12 20.25C16.5568 20.25 20.25 16.5568 20.25 12ZM21.75 12C21.75 17.3852 17.3852 21.75 12 21.75C6.61479 21.75 2.25 17.3852 2.25 12C2.25 6.61479 6.61479 2.25 12 2.25C17.3852 2.25 21.75 6.61479 21.75 12Z" fill="#1C1C1C"/>
</svg>
