<svg width="24" height="24" viewBox="0 0 24 24" fill="none" xmlns="http://www.w3.org/2000/svg">
<path d="M7.12288 7.86236C7.41577 7.56947 7.89053 7.56947 8.18343 7.86236L12.1854 11.8643L12.2362 11.921C12.4766 12.2155 12.46 12.6502 12.1854 12.9249C11.9107 13.1995 11.4761 13.2161 11.1815 12.9756L11.1248 12.9249L7.12288 8.92291C6.82999 8.63002 6.82999 8.15526 7.12288 7.86236Z" fill="#1C1C1C"/>
<path d="M10.8634 4.12091C11.1563 3.82801 11.6311 3.82801 11.924 4.12091L15.9259 8.12286L15.9767 8.1795C16.2172 8.47409 16.2006 8.90875 15.9259 9.18341C15.6513 9.45806 15.2166 9.47464 14.922 9.23419L14.8654 9.18341L10.8634 5.18145C10.5705 4.88856 10.5705 4.4138 10.8634 4.12091Z" fill="#1C1C1C"/>
<path d="M13.587 20.2537L13.6632 20.2576C14.0414 20.296 14.3369 20.6154 14.337 21.0037C14.337 21.3921 14.0414 21.7114 13.6632 21.7498L13.587 21.7537H2.99622C2.582 21.7537 2.24622 21.4179 2.24622 21.0037C2.24633 20.5896 2.58207 20.2537 2.99622 20.2537H13.587Z" fill="#1C1C1C"/>
<path d="M4.60753 21.242C4.47615 21.6344 4.05191 21.8466 3.65929 21.7156C3.2664 21.5844 3.05445 21.1593 3.18565 20.7664L4.60753 21.242ZM10.2472 17.2527C11.3582 17.2517 12.3527 17.9179 12.7814 18.9275L12.8595 19.1346L13.4015 20.7684C13.5315 21.1614 13.3179 21.5853 12.9249 21.7156C12.5318 21.8458 12.108 21.6331 11.9776 21.24L11.4357 19.6072C11.2647 19.0969 10.7865 18.7521 10.2482 18.7527H6.33702L6.23741 18.7566C5.74155 18.7973 5.31269 19.1302 5.15343 19.6082L4.60753 21.242L3.89659 21.0037L3.18565 20.7664L3.73058 19.1336C4.1043 18.0126 5.15236 17.2554 6.33409 17.2527H10.2472Z" fill="#1C1C1C"/>
<path d="M13.3697 2.25177C14.0984 2.21318 14.8092 2.48643 15.3238 3.00372L16.9977 4.68731C17.5148 5.20814 17.7867 5.92524 17.7447 6.65802C17.7027 7.39066 17.351 8.07075 16.7779 8.52911L14.5768 10.2859C14.0961 10.6704 13.6588 11.1061 13.273 11.5858L11.4957 13.7928C11.0386 14.3614 10.361 14.7083 9.63242 14.7469C8.99493 14.7806 8.37114 14.5759 7.88046 14.1775L7.67831 13.9949L6.00253 12.3104L6.00156 12.3094C5.48445 11.7886 5.21255 11.0724 5.25449 10.3397C5.29649 9.60699 5.64913 8.92596 6.22226 8.46759L8.42343 6.71173C8.90459 6.32789 9.34227 5.89244 9.72812 5.4129L11.5074 3.20489C11.9645 2.63685 12.6416 2.29039 13.3697 2.25177ZM13.4488 3.74981C13.1465 3.76595 12.8651 3.90935 12.6754 4.14532L10.8961 6.35235C10.4411 6.91785 9.92541 7.43199 9.358 7.88458L7.15781 9.64044L7.15683 9.63946C6.91657 9.83194 6.77014 10.1182 6.75253 10.4256C6.73495 10.7329 6.84846 11.0331 7.06503 11.2518L8.74179 12.9363C8.95544 13.1511 9.25082 13.2649 9.55331 13.2488C9.85568 13.2328 10.137 13.0893 10.3268 12.8533L10.3277 12.8524L12.1041 10.6453C12.5587 10.0802 13.0737 9.56609 13.6402 9.1131L15.8424 7.35724C16.0825 7.16478 16.2291 6.87931 16.2467 6.57208C16.2643 6.26439 16.1504 5.96363 15.9332 5.74493L14.2603 4.06134C14.0467 3.84671 13.7512 3.7338 13.4488 3.74981Z" fill="#1C1C1C"/>
<path d="M13.8043 9.00177C14.0551 8.70534 14.4869 8.65204 14.8004 8.867L14.8619 8.91388L20.7877 13.9285L20.7887 13.9295C21.5654 14.5895 21.9117 15.6268 21.6861 16.6209C21.4604 17.6151 20.7002 18.402 19.7144 18.6619C18.7288 18.9217 17.6802 18.6117 16.9937 17.8582L16.9928 17.8572L11.7564 12.0916L11.7086 12.032C11.4825 11.7262 11.5206 11.2932 11.8082 11.032C12.0958 10.7709 12.5304 10.7747 12.8131 11.0291L12.8678 11.0828L18.1021 16.8484C18.4124 17.1888 18.8872 17.3282 19.3326 17.2108C19.7779 17.0932 20.1213 16.738 20.2232 16.2889C20.325 15.8402 20.169 15.3723 19.8189 15.074L13.8922 10.0584C13.5763 9.79083 13.5369 9.31786 13.8043 9.00177Z" fill="#1C1C1C"/>
</svg>
