<svg width="24" height="24" viewBox="0 0 24 24" fill="none" xmlns="http://www.w3.org/2000/svg">
<path d="M14.1738 2.75C15.693 2.75009 16.9238 3.98084 16.9238 5.5V6.75H19C20.5192 6.75 21.75 7.98079 21.75 9.5V18.5C21.75 20.0192 20.5192 21.25 19 21.25H5C3.48079 21.25 2.25 20.0192 2.25 18.5V9.5C2.25 7.98079 3.48079 6.75 5 6.75H7.07617V5.5C7.07617 3.98079 8.30696 2.75 9.82617 2.75H14.1738ZM3.75 18.5C3.75 19.1908 4.30921 19.75 5 19.75H19C19.6908 19.75 20.25 19.1908 20.25 18.5V10.8936L15.0625 14.3174C14.6128 14.6144 14.0857 14.7725 13.5469 14.7725H10.4531C9.91426 14.7725 9.38724 14.6135 8.9375 14.3164L3.75 10.8926V18.5ZM5 8.25C4.43701 8.25 3.96139 8.62143 3.80469 9.13281L9.76465 13.0654C9.96884 13.2002 10.2081 13.2725 10.4531 13.2725H13.5469C13.792 13.2725 14.0321 13.2004 14.2363 13.0654L20.1943 9.13281C20.0375 8.62157 19.5629 8.25 19 8.25H5ZM9.82617 4.25C9.13539 4.25 8.57617 4.80921 8.57617 5.5V6.75H15.4238V5.5C15.4238 4.80927 14.8645 4.25009 14.1738 4.25H9.82617Z" fill="#1C1C1C"/>
</svg>
