<svg width="24" height="24" viewBox="0 0 24 24" fill="none" xmlns="http://www.w3.org/2000/svg">
<path fill-rule="evenodd" clip-rule="evenodd" d="M16.8582 11.7642C17.0007 11.7363 17.1495 11.7509 17.2859 11.8066L21.2878 13.4443C21.5694 13.5598 21.7537 13.8343 21.7537 14.1387V15.9229C21.7528 16.3363 21.4172 16.6727 21.0037 16.6729H20.7532V19.7534H21.0037C21.4176 19.7536 21.7534 20.0895 21.7537 20.5034C21.7533 20.9172 21.4175 21.2533 21.0037 21.2534H12.9998C12.5862 21.2529 12.2501 20.917 12.2498 20.5034C12.25 20.0897 12.5861 19.7539 12.9998 19.7534H13.2502V16.6729H12.9998C12.5865 16.6724 12.2506 16.3361 12.2498 15.9229V14.1387C12.2498 13.8346 12.4344 13.56 12.7156 13.4443L16.7175 11.8066L16.8582 11.7642ZM14.7502 19.7534H16.2517V16.6729H14.7502V19.7534ZM17.7517 19.7534H19.2532V16.6729H17.7517V19.7534ZM13.7498 14.6411V15.1729H13.9871C13.9914 15.1728 13.9959 15.1714 14.0002 15.1714C14.0044 15.1714 14.0092 15.1727 14.0134 15.1729H16.9885C16.9928 15.1728 16.9974 15.1714 17.0017 15.1714C17.006 15.1714 17.0106 15.1727 17.0149 15.1729H19.99C19.9943 15.1728 19.9989 15.1714 20.0032 15.1714C20.0075 15.1714 20.012 15.1727 20.0164 15.1729H20.2537V14.6411L17.0017 13.311L13.7498 14.6411Z" fill="black"/>
<path fill-rule="evenodd" clip-rule="evenodd" d="M17.4587 2.73779C17.6938 2.73779 17.9231 2.76283 18.1443 2.80957C19.5294 3.08701 20.5961 4.24509 20.7371 5.6748C20.7501 5.79398 20.759 5.91544 20.759 6.03809V10.4707C20.7587 10.7174 20.6372 10.9492 20.4338 11.0889C20.2306 11.2281 19.971 11.259 19.741 11.1709L17.3459 10.251C17.1018 10.1573 16.8307 10.1573 16.5872 10.2524L11.9451 12.0659C11.2551 12.3357 10.7999 13.0008 10.7996 13.7417V16.5C10.7992 16.9138 10.4634 17.2498 10.0496 17.25H10.0276C10.0184 17.2504 10.009 17.2529 9.99976 17.2529H5.49683C3.70206 17.2525 2.24695 15.7957 2.24634 14.001V5.99707C2.24648 5.13525 2.5892 4.30825 3.19849 3.69873C3.6598 3.23741 4.24594 2.92939 4.8772 2.80664C5.09422 2.76167 5.31924 2.73784 5.54956 2.73779H17.4587ZM5.9978 12.7515C5.58377 12.7516 5.24792 13.0874 5.2478 13.5015C5.24854 13.915 5.58415 14.2513 5.9978 14.2515H6.99683C7.41058 14.2515 7.74608 13.915 7.74683 13.5015C7.74671 13.0873 7.41097 12.7515 6.99683 12.7515H5.9978ZM13.7981 7.70068C12.5285 6.43141 10.471 6.43138 9.20142 7.70068C7.93226 8.97031 7.93202 11.0294 9.20142 12.2988C9.4942 12.5908 9.96927 12.591 10.262 12.2988C10.5546 12.0062 10.5541 11.5312 10.262 11.2383C9.57835 10.5546 9.5786 9.44507 10.262 8.76123C10.9457 8.07772 12.0538 8.07775 12.7375 8.76123C13.0302 9.05369 13.5052 9.05335 13.7981 8.76123C14.0909 8.4684 14.0908 7.99358 13.7981 7.70068ZM16.0012 5.74805C15.5874 5.74842 15.2513 6.08416 15.2512 6.49805C15.2517 6.91161 15.5876 7.24767 16.0012 7.24805H17.0017C17.4156 7.24803 17.7512 6.91183 17.7517 6.49805C17.7516 6.08394 17.4158 5.74806 17.0017 5.74805H16.0012Z" fill="black"/>
</svg>
