<svg width="24" height="24" viewBox="0 0 24 24" fill="none" xmlns="http://www.w3.org/2000/svg">
<path d="M12.0005 2.24609C17.3854 2.24631 21.7542 6.61505 21.7544 12C21.7543 17.3851 17.3855 21.7537 12.0005 21.7539L11.4985 21.7412C6.3435 21.48 2.24666 17.2169 2.24658 12C2.24681 6.61508 6.61218 2.24609 12.0005 2.24609ZM12.0005 3.74609C7.44094 3.74609 3.74681 7.44318 3.74658 12C3.74666 16.4146 7.21352 20.0221 11.5757 20.2432L12.0005 20.2539L12.4253 20.2432C16.7847 20.0217 20.2543 16.4142 20.2544 12C20.2542 7.44347 16.557 3.74631 12.0005 3.74609ZM12.5005 5.24805C13.4667 5.24821 14.2503 6.0319 14.2505 6.99805V8.14551L15.2446 7.57227L15.4048 7.49023C16.214 7.12739 17.1821 7.42848 17.6353 8.21289L18.1362 9.0791C18.6193 9.91594 18.3322 10.9874 17.4956 11.4707L16.5015 12.0439L17.4956 12.6182C18.3322 13.1014 18.6193 14.1729 18.1362 15.0098L17.6353 15.876C17.152 16.7125 16.0814 16.9997 15.2446 16.5166L14.2505 15.9424V17.0908C14.2502 18.057 13.4666 18.8407 12.5005 18.8408H11.4995C10.5334 18.8406 9.74976 18.0569 9.74951 17.0908V15.9424L8.75537 16.5166C7.91855 16.9996 6.84798 16.7125 6.36475 15.876L5.86377 15.0098C5.38066 14.1729 5.66785 13.1014 6.50439 12.6182L7.49756 12.0439L6.50439 11.4707C5.66606 10.9867 5.38149 9.9147 5.86377 9.0791L6.36475 8.21289C6.848 7.37633 7.91854 7.08921 8.75537 7.57227L9.74951 8.14551V6.99805C9.74974 6.03192 10.5334 5.24825 11.4995 5.24805H12.5005ZM11.4995 6.74805C11.3618 6.74825 11.2497 6.86034 11.2495 6.99805V9.44531C11.2494 9.71305 11.1063 9.96077 10.8745 10.0947C10.6425 10.2286 10.3565 10.2286 10.1245 10.0947L8.00537 8.87109C7.88605 8.80236 7.73263 8.84363 7.66357 8.96289L7.16357 9.8291C7.10299 9.93432 7.12679 10.0648 7.21338 10.1416L7.25439 10.1709L9.37354 11.3955C9.60553 11.5295 9.74854 11.777 9.74854 12.0449C9.7483 12.3126 9.60537 12.5605 9.37354 12.6943L7.25439 13.918C7.13543 13.9872 7.09475 14.1406 7.16357 14.2598L7.66357 15.126C7.7326 15.2452 7.88606 15.2864 8.00537 15.2178L10.1245 13.9941C10.3565 13.8602 10.6425 13.8602 10.8745 13.9941C11.1064 14.1281 11.2495 14.3757 11.2495 14.6436V17.0908C11.2498 17.2285 11.3618 17.3406 11.4995 17.3408H12.5005C12.6382 17.3407 12.7502 17.2285 12.7505 17.0908V14.6436C12.7505 14.3758 12.8936 14.1281 13.1255 13.9941C13.3575 13.8602 13.6435 13.8602 13.8755 13.9941L15.9946 15.2178C16.1139 15.2865 16.2674 15.2452 16.3364 15.126L16.8364 14.2598C16.9054 14.1403 16.8641 13.987 16.7446 13.918L14.6265 12.6943C14.3946 12.5605 14.2517 12.3126 14.2515 12.0449C14.2515 11.7771 14.3946 11.5295 14.6265 11.3955L16.7446 10.1719C16.8641 10.1029 16.9052 9.94852 16.8364 9.8291L16.3364 8.96289C16.2674 8.84371 16.1144 8.80247 15.9937 8.87207L13.8755 10.0947C13.6435 10.2286 13.3575 10.2286 13.1255 10.0947C12.8936 9.96078 12.7506 9.71307 12.7505 9.44531V6.99805C12.7503 6.86032 12.6382 6.74821 12.5005 6.74805H11.4995Z" fill="#1C1C1C"/>
</svg>
