<svg width="24" height="24" viewBox="0 0 24 24" fill="none" xmlns="http://www.w3.org/2000/svg">
<path d="M14.2549 3.39729C15.1182 2.53402 16.5185 2.53413 17.3818 3.39729L22.1026 8.118C22.9658 8.98133 22.9659 10.3817 22.1026 11.2449L21.7451 11.6024C20.9391 12.4084 19.666 12.4605 18.7979 11.7616L14.1162 16.4442C13.6006 16.9598 12.9011 17.2497 12.1719 17.2498H9.31055L5.53027 21.0301C5.2374 21.323 4.76262 21.3229 4.46972 21.0301C4.17683 20.7372 4.17685 20.2625 4.46972 19.9696L8.25 16.1893V13.328C8.2501 12.5987 8.54004 11.8993 9.05567 11.3836L13.7373 6.701C13.0393 5.8329 13.0918 4.56036 13.8975 3.75471L14.2549 3.39729ZM10.1162 12.4442C9.88189 12.6785 9.7501 12.9966 9.75 13.328V15.7498H12.1719C12.5033 15.7497 12.8213 15.618 13.0557 15.3836L13.9395 14.4998L11 11.5604L10.1162 12.4442ZM12.0606 10.4998L15 13.4393L17.7276 10.7117L14.7881 7.77229L12.0606 10.4998ZM16.3213 4.45784C16.0438 4.18046 15.5929 4.18035 15.3154 4.45784L14.958 4.81624C14.6808 5.09375 14.6807 5.54367 14.958 5.82112L19.6787 10.5418C19.9563 10.8193 20.4071 10.8193 20.6846 10.5418L21.042 10.1844C21.3195 9.90689 21.3195 9.45609 21.042 9.17854L16.3213 4.45784Z" fill="#1C1C1C"/>
<path d="M15.4697 16.9696C15.7626 16.6767 16.2374 16.6767 16.5303 16.9696L19.5303 19.9696L19.582 20.0262C19.8223 20.3208 19.8049 20.7555 19.5303 21.0301C19.2557 21.3047 18.8209 21.3222 18.5264 21.0819L18.4697 21.0301L15.4697 18.0301C15.1768 17.7372 15.1769 17.2625 15.4697 16.9696ZM6.61816 3.3973C7.4815 2.53412 8.88184 2.53402 9.74512 3.3973L10.1025 3.75472C10.9082 4.56038 10.9607 5.83291 10.2627 6.70101L10.5303 6.96859L10.5811 7.02621C10.8213 7.32079 10.8049 7.75552 10.5303 8.03011C10.2557 8.30469 9.82094 8.32118 9.52636 8.08089L9.46875 8.03011L9.21093 7.7723L6.27245 10.7118L7.03027 11.4696C7.3231 11.7625 7.32314 12.2372 7.03027 12.5301C6.73739 12.823 6.26262 12.823 5.96972 12.5301L5.20116 11.7616C4.33304 12.46 3.06069 12.4082 2.25487 11.6024L1.89745 11.245C1.03415 10.3817 1.03421 8.98134 1.89745 8.118L6.61816 3.3973ZM8.68359 4.45785C8.40608 4.18062 7.95617 4.18054 7.67871 4.45785L2.958 9.17855C2.68064 9.45601 2.68075 9.9059 2.958 10.1834L3.31542 10.5418C3.59293 10.8193 4.04374 10.8193 4.32128 10.5418L8.6709 6.19125C8.67424 6.18777 8.67724 6.18393 8.68066 6.1805C8.68408 6.17708 8.68794 6.17408 8.6914 6.17074L9.04199 5.82113C9.31938 5.54358 9.31948 5.09276 9.04199 4.81527L8.68359 4.45785Z" fill="#1C1C1C"/>
</svg>
