<svg width="24" height="24" viewBox="0 0 24 24" fill="none" xmlns="http://www.w3.org/2000/svg">
<path d="M19.2405 7.07457C19.2385 6.94234 19.1385 6.83222 19.0071 6.81773V6.81676C16.7544 6.64099 14.5953 5.84132 12.7727 4.50523L12.7678 4.5023C12.3063 4.1589 11.6746 4.15891 11.2131 4.5023L11.2083 4.50523C9.38541 5.84152 7.22593 6.64113 4.9729 6.81676L4.97388 6.81773C4.84245 6.83222 4.74243 6.94234 4.74048 7.07457V12.515C4.74048 14.0845 5.71447 15.5432 7.0979 16.807C8.46512 18.0559 10.1132 19.004 11.1936 19.5531L11.1946 19.5541C11.6956 19.809 12.2887 19.808 12.7893 19.5521L12.7903 19.5511C13.8718 19.0014 15.5189 18.0548 16.885 16.807C18.267 15.5446 19.2405 14.0868 19.2405 12.515V7.07457ZM20.7405 12.515C20.7405 14.7179 19.3909 16.5496 17.8967 17.9144C16.3871 19.2933 14.6045 20.3108 13.4709 20.8871L13.4719 20.888C12.5433 21.3627 11.4434 21.3631 10.5139 20.89C9.38079 20.3142 7.59699 19.2945 6.08618 17.9144C4.59139 16.5489 3.24048 14.7162 3.24048 12.515V7.05308L3.25024 6.88804C3.33806 6.07368 3.98204 5.41727 4.81079 5.32652C4.81901 5.32562 4.82793 5.3252 4.83618 5.32457C6.81826 5.17388 8.71838 4.47054 10.3215 3.29527V3.29625C11.3127 2.56126 12.6671 2.56156 13.6584 3.29625C15.1615 4.39816 16.9267 5.0838 18.7747 5.28941L19.1448 5.32457L19.1702 5.32652C20.0542 5.42332 20.7277 6.16382 20.7405 7.05308V12.515Z" fill="#1C1C1C"/>
</svg>
