<svg width="24" height="24" viewBox="0 0 24 24" fill="none" xmlns="http://www.w3.org/2000/svg">
<path d="M18.4308 2.24634C19.3119 2.24614 20.1572 2.59606 20.7804 3.21899C21.4036 3.842 21.754 4.68734 21.754 5.5686V14.429L21.7501 14.594C21.7096 15.4151 21.3653 16.1943 20.7814 16.7786C20.1584 17.4018 19.313 17.7522 18.4318 17.7522H14.8507L15.1632 20.2542H15.8585L15.9357 20.2581C16.3136 20.2967 16.6084 20.6161 16.6085 21.0042C16.6083 21.418 16.2724 21.754 15.8585 21.7542H8.14172C7.72767 21.7542 7.39199 21.4181 7.39172 21.0042C7.39184 20.59 7.72758 20.2542 8.14172 20.2542H8.83704L9.14954 17.7522H5.56848C4.68744 17.7522 3.84191 17.4026 3.21887 16.7795C2.59584 16.1565 2.24622 15.311 2.24622 14.4299V5.5686C2.24622 4.68756 2.59584 3.84203 3.21887 3.21899C3.84191 2.59596 4.68744 2.24634 5.56848 2.24634H18.4308ZM10.3488 20.2542H13.6515L13.339 17.7522H10.6613L10.3488 20.2542ZM5.56848 3.74634C5.0852 3.74634 4.62111 3.93785 4.27942 4.27954C3.93773 4.62123 3.74622 5.08532 3.74622 5.5686V14.4299C3.74622 14.9132 3.93773 15.3773 4.27942 15.719C4.62111 16.0607 5.08521 16.2522 5.56848 16.2522H18.4318C18.915 16.2522 19.3781 16.0598 19.7198 15.718C20.0616 15.3762 20.2542 14.9123 20.254 14.429V5.5686C20.254 5.08528 20.0617 4.62129 19.7198 4.27954C19.4208 3.98067 19.0285 3.79649 18.6115 3.75513L18.4308 3.74634H5.56848ZM11.5148 5.82251C11.8304 5.72386 12.1688 5.7239 12.4845 5.82251L15.1105 6.64282C15.789 6.85488 16.2511 7.48369 16.2511 8.19458V9.18481C16.2509 11.3217 14.9248 13.2353 12.924 13.9856L12.4171 14.176C12.1483 14.2767 11.8509 14.2768 11.5822 14.176L11.0753 13.9856C9.07454 13.2352 7.74838 11.3216 7.74817 9.18481V8.19458C7.74817 7.48385 8.21047 6.85502 8.88879 6.64282L11.5148 5.82251ZM11.962 7.25415L9.33606 8.07446C9.28399 8.09096 9.24817 8.13988 9.24817 8.19458V9.18481C9.24838 10.6964 10.1864 12.0495 11.6017 12.5803L11.9991 12.7288L12.3976 12.5803C13.813 12.0495 14.7509 10.6964 14.7511 9.18481V8.19458C14.7511 8.13973 14.7155 8.09082 14.6632 8.07446L12.0372 7.25415C12.0129 7.2466 11.9863 7.24656 11.962 7.25415Z" fill="#1C1C1C"/>
</svg>
