<svg width="24" height="24" viewBox="0 0 24 24" fill="none" xmlns="http://www.w3.org/2000/svg">
<path d="M14.5625 6.07251C14.5625 4.65728 13.4153 3.51001 12 3.51001C10.5848 3.51001 9.43753 4.65728 9.43753 6.07251C9.43753 7.48774 10.5848 8.63501 12 8.63501C13.4153 8.63501 14.5625 7.48774 14.5625 6.07251ZM16.0625 6.07251C16.0625 8.31617 14.2437 10.135 12 10.135C9.75637 10.135 7.93753 8.31617 7.93753 6.07251C7.93753 3.82885 9.75637 2.01001 12 2.01001C14.2437 2.01001 16.0625 3.82885 16.0625 6.07251Z" fill="#1C1C1C"/>
<path d="M15.25 21.26V12.7024C15.25 12.2882 15.5858 11.9524 16 11.9524C16.4142 11.9524 16.75 12.2882 16.75 12.7024V21.26C16.75 21.6742 16.4142 22.01 16 22.01C15.5858 22.01 15.25 21.6742 15.25 21.26Z" fill="#1C1C1C"/>
<path d="M19.2499 19.26V17.6047C19.2544 15.648 17.9208 13.9416 16.0214 13.4739C13.3763 12.8546 10.6235 12.8556 7.97841 13.4748C6.07923 13.9427 4.74539 15.6481 4.74989 17.6047V20.26C4.7499 20.6742 4.4141 21.01 3.99989 21.01C3.58575 21.0099 3.24991 20.6741 3.24989 20.26V17.6067C3.24447 14.9556 5.05436 12.6454 7.62977 12.0158L7.63661 12.0139C10.3273 11.3839 13.1206 11.3445 15.8241 11.8957L16.3632 12.0139L16.37 12.0158C18.9454 12.6454 20.7553 14.9556 20.7499 17.6067V19.26C20.7499 20.7788 19.5187 22.01 17.9999 22.01H8.99989C8.03345 22.0099 7.24989 21.2264 7.24989 20.26V18.76C7.2499 17.5174 8.25732 16.5101 9.49989 16.51H11.9999C12.4141 16.51 12.7499 16.8458 12.7499 17.26C12.7499 17.6742 12.4141 18.01 11.9999 18.01H9.49989C9.08574 18.01 8.7499 18.3458 8.74989 18.76V20.26C8.74989 20.398 8.86188 20.5099 8.99989 20.51H17.9999C18.6902 20.51 19.2499 19.9503 19.2499 19.26Z" fill="#1C1C1C"/>
<path d="M11.25 21.26V12.26C11.25 11.8458 11.5858 11.51 12 11.51C12.4142 11.51 12.75 11.8458 12.75 12.26V21.26C12.75 21.6742 12.4142 22.01 12 22.01C11.5858 22.01 11.25 21.6742 11.25 21.26Z" fill="#1C1C1C"/>
</svg>
