<svg width="24" height="24" viewBox="0 0 24 24" fill="none" xmlns="http://www.w3.org/2000/svg">
<path d="M15.8369 3.23999C17.3413 3.24014 18.6491 4.27262 18.999 5.73608L19.5225 7.93239C19.5418 8.01357 19.6237 8.06335 19.7047 8.04315L20.8223 7.7644C21.224 7.6642 21.631 7.90859 21.7315 8.3103C21.8318 8.71209 21.5874 9.11903 21.1856 9.21948L20.3257 9.4337C20.2125 9.4619 20.1734 9.60283 20.2559 9.68531L20.6543 10.0837C21.3581 10.7876 21.7539 11.742 21.7539 12.7371V18.9968C21.7537 19.9631 20.9693 20.7468 20.0029 20.7468H18.002C17.0359 20.7465 16.2522 19.9629 16.252 18.9968V18.3958C16.252 18.313 16.1848 18.2458 16.102 18.2458H7.89806C7.81522 18.2458 7.74806 18.313 7.74806 18.3958V18.9968C7.74787 19.9631 6.96341 20.7468 5.99708 20.7468H3.99611C3.03007 20.7465 2.2463 19.9629 2.24611 18.9968V12.7371C2.24616 11.7422 2.64157 10.7878 3.34572 10.0847L3.74389 9.68522C3.82614 9.60269 3.787 9.46198 3.67393 9.43378L2.81447 9.21948C2.4128 9.11895 2.16824 8.71202 2.26857 8.3103C2.36272 7.93367 2.72644 7.69546 3.10255 7.74976L3.17775 7.7644L4.3177 8.04896C4.39718 8.0688 4.47788 8.0212 4.49897 7.94205L5.10841 5.65503L5.19044 5.39331C5.64947 4.1112 6.86905 3.24019 8.24904 3.23999H15.8369ZM3.74611 18.9968C3.7463 19.1345 3.85849 19.2465 3.99611 19.2468H5.99708C6.13498 19.2468 6.24787 19.1347 6.24806 18.9968V18.3958C6.24806 18.313 6.1809 18.2458 6.09806 18.2458H3.89611C3.81326 18.2458 3.74611 18.313 3.74611 18.3958V18.9968ZM17.752 18.9968C17.7522 19.1345 17.8643 19.2465 18.002 19.2468H20.0029C20.1408 19.2468 20.2537 19.1347 20.2539 18.9968V18.3958C20.2539 18.313 20.1868 18.2458 20.1039 18.2458H17.902C17.8191 18.2458 17.752 18.313 17.752 18.3958V18.9968ZM4.40529 11.1462C3.98354 11.5674 3.74616 12.1398 3.74611 12.7371C3.74611 12.7746 3.77488 12.8059 3.81228 12.809L6.05958 12.9968C6.47227 13.0312 6.77936 13.3937 6.74513 13.8064C6.71075 14.219 6.34813 14.526 5.93556 14.4919L3.90857 14.3229C3.82112 14.3156 3.74611 14.3846 3.74611 14.4724V16.5958C3.74611 16.6787 3.81326 16.7458 3.89611 16.7458H7.34896C7.41351 16.7458 7.47082 16.7045 7.49125 16.6433L8.28712 14.2576L8.334 14.1482C8.46151 13.9036 8.71582 13.7452 8.99806 13.7449H15.001L15.1201 13.7546C15.3926 13.7984 15.6236 13.9896 15.7129 14.2576L16.5078 16.6433C16.5282 16.7045 16.5856 16.7458 16.6501 16.7458H20.1039C20.1868 16.7458 20.2539 16.6787 20.2539 16.5958V14.4724C20.2539 14.3846 20.1789 14.3156 20.0914 14.3229L18.0654 14.4919C17.6527 14.5263 17.2903 14.2192 17.2559 13.8064C17.2216 13.3938 17.5279 13.0313 17.9404 12.9968L20.1877 12.809C20.2252 12.8059 20.2539 12.7746 20.2539 12.7371C20.2539 12.1398 20.0162 11.5668 19.5938 11.1443L18.8242 10.3747C18.7398 10.2903 18.6254 10.2429 18.506 10.2429H5.49417C5.37474 10.2429 5.2602 10.2904 5.1758 10.3749L4.40529 11.1462ZM9.10484 16.5484C9.07248 16.6456 9.14478 16.7458 9.24715 16.7458H14.7528C14.8552 16.7458 14.9275 16.6455 14.895 16.5484L14.4942 15.3474C14.4738 15.2862 14.4164 15.2449 14.3519 15.2449H9.64721C9.58264 15.2449 9.52531 15.2862 9.5049 15.3475L9.10484 16.5484ZM8.24904 4.73999C7.50633 4.74019 6.84977 5.20929 6.60255 5.89917L6.55861 6.04077L5.88822 8.55426C5.86282 8.64949 5.9346 8.74292 6.03315 8.74292H17.9839C18.0808 8.74292 18.1523 8.6524 18.1298 8.55813L17.5401 6.08472C17.3514 5.29612 16.6469 4.74014 15.8369 4.73999H8.24904Z" fill="#1C1C1C"/>
</svg>
