<svg width="24" height="24" viewBox="0 0 24 24" fill="none" xmlns="http://www.w3.org/2000/svg">
<path d="M6.21788 6.77713C8.25138 3.27389 12.5666 1.8248 16.2999 3.38357C16.3079 3.38639 16.3155 3.39025 16.3233 3.39334C16.3305 3.39634 16.3377 3.3991 16.3448 3.40213C16.353 3.40559 16.3611 3.40938 16.3692 3.41287C16.3741 3.41515 16.3791 3.41732 16.3839 3.41971C20.1024 5.02107 22.0595 9.13363 20.9503 13.032L20.8849 13.2635C20.6891 13.9521 20.2065 14.5239 19.5606 14.8328C18.9148 15.1416 18.1668 15.1586 17.5079 14.8787L13.088 13.0017L11.212 17.4275C13.0359 17.767 14.7303 18.6481 16.0607 19.9783C16.3534 20.2712 16.3534 20.746 16.0607 21.0388C15.7678 21.3317 15.293 21.3316 15.0001 21.0388C13.5469 19.5858 11.5757 18.7695 9.52061 18.7693C7.46531 18.7693 5.49352 19.5856 4.04014 21.0388C3.74728 21.3317 3.2725 21.3316 2.9796 21.0388C2.68687 20.7459 2.68676 20.2711 2.9796 19.9783C4.71428 18.2438 7.06748 17.2693 9.52061 17.2693C9.56362 17.2693 9.60657 17.2716 9.64952 17.2722L11.7071 12.4158L7.28038 10.5369V10.5359C6.62165 10.2561 6.11416 9.70708 5.8878 9.0281C5.66155 8.34888 5.73832 7.60426 6.09776 6.98514L6.2169 6.7781L6.21788 6.77713ZM17.1642 5.59842C17.5614 7.99713 17.0754 10.4573 15.8019 12.5242L18.0948 13.4978C18.3575 13.6094 18.6557 13.6031 18.9132 13.4803C19.1706 13.3571 19.3633 13.1287 19.4415 12.8543L19.5069 12.6228L19.5079 12.6219C20.2621 9.97132 19.2739 7.19958 17.1642 5.59842ZM15.5616 5.24392C13.5236 6.44538 12.0801 8.43065 11.5577 10.7224L12.9757 11.325C12.9785 11.3261 12.9816 11.3267 12.9845 11.3279C12.9867 11.3289 12.9891 11.3299 12.9913 11.3308L14.4015 11.9295C15.6876 9.9615 16.1137 7.54493 15.5616 5.24392ZM14.1944 4.33767C11.578 3.9328 8.8988 5.14736 7.51573 7.53006L7.39561 7.73709L7.39463 7.73904C7.25134 7.98606 7.22037 8.28352 7.31065 8.55447C7.38981 8.79156 7.5554 8.98881 7.77159 9.10916L7.86729 9.15603L10.1573 10.1277C10.7598 7.77631 12.1934 5.71815 14.1944 4.33767Z" fill="#1C1C1C"/>
</svg>
