<svg width="24" height="24" viewBox="0 0 24 24" fill="none" xmlns="http://www.w3.org/2000/svg">
<path d="M7.09082 12.704L7.18652 12.7089C7.65609 12.7566 8.01835 13.1519 8.02246 13.6278C8.0274 14.1262 7.64403 14.523 7.16895 14.5624C7.14361 14.565 7.11781 14.5673 7.0918 14.5673C6.58207 14.5671 6.15918 14.1561 6.15918 13.6356C6.15938 13.1207 6.57584 12.7041 7.09082 12.704Z" fill="black"/>
<path d="M17.0049 12.7089C17.4744 12.7567 17.8367 13.1519 17.8408 13.6278C17.8458 14.1261 17.4623 14.5229 16.9873 14.5624C16.962 14.565 16.9362 14.5672 16.9102 14.5673C16.8783 14.5673 16.8465 14.5665 16.8154 14.5634C16.3489 14.5163 15.9775 14.1237 15.9775 13.6356C15.9777 13.1528 16.3434 12.7565 16.8135 12.7089C16.8448 12.7057 16.877 12.704 16.9092 12.704L17.0049 12.7089Z" fill="black"/>
<path d="M13.7705 12.8905C14.1845 12.8908 14.5205 13.2265 14.5205 13.6405C14.5202 14.0543 14.1843 14.3902 13.7705 14.3905H10.2305C10.2046 14.3905 10.1785 14.3892 10.1533 14.3866C9.77525 14.3482 9.48072 14.0286 9.48047 13.6405C9.48047 13.2263 9.81626 12.8905 10.2305 12.8905H13.7705Z" fill="black"/>
<path d="M7.18652 9.4364C7.65621 9.48418 8.01853 9.87925 8.02246 10.3553C8.0273 10.8536 7.64397 11.2506 7.16895 11.2899C7.14363 11.2925 7.11779 11.2948 7.0918 11.2948C7.05985 11.2948 7.02825 11.2931 6.99707 11.2899C6.53081 11.2426 6.15927 10.8509 6.15918 10.3632C6.15918 9.88002 6.52564 9.48387 6.99609 9.4364C7.02725 9.43326 7.05883 9.43153 7.09082 9.43152L7.18652 9.4364Z" fill="black"/>
<path d="M10.459 9.4364C10.9285 9.4843 11.291 9.87934 11.2949 10.3553C11.2998 10.8535 10.9163 11.2505 10.4414 11.2899C10.4161 11.2925 10.3903 11.2948 10.3643 11.2948C10.3379 11.2948 10.3118 11.2926 10.2861 11.2899C9.80706 11.2503 9.4367 10.8528 9.43164 10.371V10.3632C9.43164 9.87755 9.8008 9.48364 10.2686 9.4364C10.2997 9.43326 10.3314 9.43152 10.3633 9.43152L10.459 9.4364Z" fill="black"/>
<path d="M13.7314 9.4364C14.2011 9.48418 14.5635 9.87925 14.5674 10.3553C14.5722 10.8536 14.1889 11.2506 13.7139 11.2899C13.6886 11.2925 13.6627 11.2948 13.6367 11.2948C13.6104 11.2948 13.5842 11.2926 13.5586 11.2899C13.0796 11.2502 12.7092 10.8527 12.7041 10.371V10.3632C12.7041 9.87772 13.0735 9.48386 13.541 9.4364C13.5722 9.43324 13.6038 9.43153 13.6357 9.43152L13.7314 9.4364Z" fill="black"/>
<path d="M17.0049 9.4364C17.4744 9.4843 17.8369 9.87934 17.8408 10.3553C17.8457 10.8535 17.4622 11.2505 16.9873 11.2899C16.962 11.2925 16.9362 11.2948 16.9102 11.2948C16.8783 11.2948 16.8465 11.2931 16.8154 11.2899C16.3489 11.2429 15.9776 10.8511 15.9775 10.3632C15.9775 9.88019 16.3433 9.48409 16.8135 9.4364C16.8449 9.43322 16.8769 9.43152 16.9092 9.43152L17.0049 9.4364Z" fill="black"/>
<path fill-rule="evenodd" clip-rule="evenodd" d="M18.8164 5.24988C20.6093 5.25008 22.25 6.53286 22.25 8.33093V15.6708C22.2483 17.4672 20.6089 18.7499 18.8145 18.7499H5.18359C3.39065 18.7497 1.75 17.4669 1.75 15.6688V8.33093C1.75 6.53305 3.38928 5.25008 5.18359 5.24988H18.8164ZM5.18359 6.74988C4.01219 6.75007 3.25 7.55305 3.25 8.33093V15.6688C3.25 16.4465 4.01312 17.2497 5.18359 17.2499H18.8145C19.9858 17.2499 20.7489 16.4471 20.75 15.6698V8.33093C20.75 7.55325 19.9869 6.75007 18.8164 6.74988H5.18359Z" fill="black"/>
</svg>
