<svg width="24" height="24" viewBox="0 0 24 24" fill="none" xmlns="http://www.w3.org/2000/svg">
<path d="M14.5069 8.18455C14.5097 8.18493 14.5129 8.18618 14.5157 8.1865C14.8202 8.21115 15.0705 8.36048 15.2354 8.52537C15.4156 8.70561 15.5801 8.98728 15.5801 9.33103C15.5801 9.67476 15.4156 9.95642 15.2354 10.1367C15.0552 10.3169 14.7734 10.4813 14.4297 10.4814C14.0859 10.4814 13.8044 10.3169 13.6241 10.1367C13.4664 9.97897 13.3211 9.74368 13.2872 9.45701L13.2794 9.33103L13.2872 9.20505C13.3211 8.91846 13.4664 8.68306 13.6241 8.52537C13.7889 8.36069 14.0387 8.21127 14.3428 8.1865C14.3712 8.18323 14.4005 8.18064 14.4297 8.18064L14.5069 8.18455Z" fill="black"/>
<path fill-rule="evenodd" clip-rule="evenodd" d="M11.4991 3.60056C12.3459 2.75388 13.4726 2.64703 14.4922 3.02927C14.503 3.03329 14.514 3.03746 14.5245 3.04197L18.0245 4.54197C18.7019 4.81795 19.2414 5.35881 19.5176 6.03611L21.0186 9.53611L21.0313 9.56736C21.4376 10.6509 21.1562 11.7313 20.5059 12.5117C20.4915 12.529 20.476 12.5455 20.46 12.5615L17.5596 15.4619C16.7128 16.3085 15.5861 16.4154 14.5665 16.0332C14.5558 16.0292 14.5448 16.025 14.5342 16.0205L12.9005 15.3203L7.25983 20.9619C7.11923 21.1024 6.92834 21.1816 6.72955 21.1816H3.52936C3.11529 21.1816 2.7796 20.8456 2.77936 20.4316V17.2314C2.77937 17.0303 2.86059 16.8373 3.00397 16.6963L8.63092 11.1621L7.94537 9.63865C7.93886 9.62416 7.9324 9.60958 7.92682 9.5947C7.52276 8.51716 7.79263 7.30719 8.59869 6.50095L11.4991 3.60056ZM13.9551 4.42966C13.3799 4.21729 12.9105 4.3104 12.5596 4.66111L9.65924 7.5615C9.26842 7.95249 9.13827 8.5371 9.32819 9.05662L10.213 11.0234C10.3418 11.3097 10.2786 11.6461 10.0547 11.8662L4.27936 17.5439V19.6816H6.41803L12.1993 13.9004L12.2852 13.8271C12.4969 13.6714 12.7778 13.6365 13.0245 13.7422L15.1026 14.6318C15.6784 14.8448 16.148 14.7515 16.4991 14.4004L19.3643 11.5351C19.7026 11.1204 19.8159 10.6111 19.629 10.1035L18.1397 6.62693C18.1373 6.62134 18.1351 6.615 18.1329 6.60935C18.0091 6.30025 17.7603 6.05148 17.4512 5.92771C17.4456 5.92545 17.4393 5.92327 17.4337 5.92087L13.9551 4.42966Z" fill="black"/>
</svg>
