<svg width="24" height="24" viewBox="0 0 24 24" fill="none" xmlns="http://www.w3.org/2000/svg">
<path d="M16.8706 4.87891C18.2758 4.35807 19.6443 5.72663 19.1236 7.13184L15.062 18.0908C14.4626 19.7057 12.1369 19.5784 11.7173 17.9082L10.5923 13.418L6.0884 12.2881C4.41862 11.8684 4.29236 9.54363 5.90676 8.94434L16.8706 4.87891ZM17.3921 6.28516L6.42824 10.3506C6.19487 10.4374 6.21454 10.7727 6.45461 10.833L11.3941 12.0742L11.4917 12.1055C11.7125 12.1944 11.8802 12.3843 11.939 12.6191L13.1724 17.543C13.2331 17.7842 13.5682 17.8021 13.6548 17.5693L17.7173 6.61036C17.7828 6.43305 17.6398 6.25977 17.4673 6.26954L17.3921 6.28516Z" fill="black"/>
</svg>
