<svg width="24" height="24" viewBox="0 0 24 24" fill="none" xmlns="http://www.w3.org/2000/svg">
<path d="M19.1157 7.21155C19.4258 8.03998 19.5971 8.93703 19.5972 9.87366V10.0455C19.597 11.0511 19.282 12.131 18.8247 13.1803C18.3638 14.2376 17.7361 15.3137 17.064 16.3248C16.0558 17.8414 14.924 19.2456 14.0444 20.2711L13.2632 21.1608C12.6293 21.8646 11.5592 21.9081 10.8706 21.2926L10.7378 21.1608C10.119 20.474 9.18032 19.3869 8.21434 18.1129L9.24755 17.0797C10.2197 18.3756 11.1824 19.4921 11.813 20.192C11.9146 20.304 12.0865 20.3053 12.188 20.193C13.0605 19.2246 14.5709 17.4606 15.8589 15.5231C16.5027 14.5545 17.0818 13.5559 17.4975 12.6022C17.9166 11.6406 18.1498 10.77 18.1499 10.0455V9.87366C18.1499 9.35322 18.0841 8.84749 17.9624 8.36487L19.1157 7.21155Z" fill="black"/>
<path d="M19.6167 3.41663C19.9096 3.12385 20.3844 3.12377 20.6772 3.41663C20.97 3.70949 20.97 4.1843 20.6772 4.47717L5.53075 19.525C5.23788 19.8179 4.7631 19.8178 4.4702 19.525C4.17731 19.2321 4.17731 18.7574 4.4702 18.4645L19.6167 3.41663Z" fill="black"/>
<path d="M12.0005 2.27698C14.0439 2.27709 15.8978 3.08556 17.2632 4.39807L16.2397 5.42151C15.1365 4.37083 13.6443 3.72436 12.0005 3.72424C8.60423 3.72434 5.8513 6.47744 5.85106 9.87366V10.0455C5.85119 10.7699 6.08341 11.6407 6.50243 12.6022C6.74335 13.1548 7.03996 13.7226 7.37157 14.2906L6.31591 15.3453C5.88467 14.6326 5.49098 13.9022 5.17626 13.1803C4.71895 12.131 4.40392 11.0511 4.4038 10.0455V9.87366C4.40403 5.67839 7.80518 2.27708 12.0005 2.27698Z" fill="black"/>
<path d="M11.9995 6.276C12.9419 6.276 13.8043 6.62476 14.4614 7.19983L13.435 8.22717C13.0443 7.91287 12.5455 7.72327 11.9995 7.72327C10.7357 7.7235 9.72362 8.73631 9.72313 9.97229C9.72309 9.98111 9.72066 9.99088 9.7202 9.99963C9.72057 10.0084 9.72298 10.0182 9.72313 10.027C9.72319 10.5589 9.91185 11.049 10.2261 11.4352L9.1997 12.4625C8.62564 11.813 8.27593 10.9618 8.27587 10.027C8.27602 10.0182 8.27843 10.0084 8.2788 9.99963C8.27833 9.9909 8.27591 9.98109 8.27587 9.97229C8.27635 7.92475 9.94927 6.27623 11.9995 6.276Z" fill="black"/>
</svg>
