<svg width="24" height="24" viewBox="0 0 24 24" fill="none" xmlns="http://www.w3.org/2000/svg">
<path fill-rule="evenodd" clip-rule="evenodd" d="M12.0002 2.25C14.6234 2.25011 16.7502 4.37686 16.7502 7V9.25H17.0002C18.5194 9.2501 19.7502 10.4808 19.7502 12V19C19.7502 20.5192 18.5194 21.7499 17.0002 21.75H7.00024C5.48103 21.75 4.25024 20.5192 4.25024 19V12C4.25025 10.4808 5.48103 9.25 7.00024 9.25H15.2502V7C15.2502 5.20528 13.7949 3.75011 12.0002 3.75C10.4864 3.7501 9.21856 4.79376 8.86157 6.20703C8.76001 6.60844 8.35193 6.85139 7.95044 6.75C7.54898 6.64847 7.3051 6.24038 7.40649 5.83887C7.92559 3.78445 9.77442 2.2501 12.0002 2.25ZM7.00024 10.75C6.30946 10.75 5.75025 11.3092 5.75024 12V19C5.75024 19.6908 6.30946 20.25 7.00024 20.25H17.0002C17.6909 20.2499 18.2502 19.6907 18.2502 19V12C18.2502 11.3093 17.6909 10.7501 17.0002 10.75H7.00024Z" fill="black"/>
</svg>
