<svg width="24" height="24" viewBox="0 0 24 24" fill="none" xmlns="http://www.w3.org/2000/svg">
<path d="M18.75 20.4292L17.9253 20.2227C17.6594 20.1562 17.3809 20.1549 17.1138 20.2153C17.1007 20.2182 17.0872 20.2194 17.0742 20.2227L16.2495 20.4292V18.3125C16.6449 18.4341 17.0652 18.5 17.5005 18.5C17.9354 18.5 18.3549 18.4339 18.75 18.3125V20.4292Z" fill="black"/>
<path d="M17.5005 11.4995C19.019 11.4998 20.25 12.7319 20.25 14.2505C20.2497 15.7689 19.0189 16.9997 17.5005 17C15.9819 17 14.7498 15.769 14.7495 14.2505C14.7495 12.7317 15.9817 11.4995 17.5005 11.4995Z" fill="black"/>
<path fill-rule="evenodd" clip-rule="evenodd" d="M19.0503 1.99561C20.5412 1.99576 21.7498 3.20438 21.75 4.69531V10.376C22.6821 11.3977 23.2498 12.7572 23.25 14.249C23.25 15.7407 22.6818 17.1 21.75 18.1221V20.75C21.75 20.7769 21.7485 20.8038 21.7471 20.8306L21.7397 20.9741C21.7381 21.0043 21.7359 21.0349 21.7324 21.0649C21.6589 21.7022 21.3635 22.2934 20.9004 22.7363L20.6924 22.9165C20.0252 23.4373 19.1549 23.6223 18.334 23.4175L17.499 23.208L16.6655 23.4175C15.8445 23.6223 14.9743 23.4374 14.3071 22.9165C13.7244 22.4612 13.3511 21.793 13.2671 21.0649C13.2636 21.035 13.2614 21.0043 13.2598 20.9741L13.2524 20.8306C13.251 20.8038 13.2495 20.7768 13.2495 20.75V19.5005H4.94971C3.45895 19.5003 2.25046 18.2915 2.25 16.8008V4.69531C2.25016 3.20438 3.45877 1.99576 4.94971 1.99561H19.0503ZM17.5005 9.99951C15.1533 9.99951 13.2495 11.9033 13.2495 14.2505C13.2497 15.5473 13.8337 16.7054 14.7495 17.4849V20.75L14.7568 20.8936C14.7855 21.141 14.8886 21.3733 15.0498 21.5615C15.0766 21.5929 15.1047 21.6235 15.1348 21.6523C15.1649 21.6812 15.1968 21.7084 15.23 21.7344C15.2805 21.7738 15.3345 21.8075 15.3896 21.8384C15.4153 21.8527 15.4408 21.8669 15.4673 21.8794C15.4726 21.8819 15.478 21.8843 15.4834 21.8867C15.517 21.902 15.5512 21.9155 15.5859 21.9277C15.5995 21.9325 15.6132 21.9366 15.627 21.9409C15.6564 21.9501 15.6863 21.9573 15.7163 21.9644C15.7305 21.9677 15.7445 21.9718 15.7588 21.9746C15.7869 21.9802 15.8153 21.9842 15.8438 21.9878C15.8608 21.99 15.8778 21.9922 15.895 21.9937C15.9286 21.9965 15.9623 21.9979 15.9961 21.998C16.0049 21.9981 16.0137 21.9982 16.0225 21.998C16.0688 21.9972 16.1153 21.9953 16.1616 21.9893L16.3022 21.9629L17.439 21.6787C17.4585 21.6738 17.479 21.6715 17.499 21.6714C17.5196 21.6713 17.5406 21.6738 17.5605 21.6787L18.6973 21.9629C18.739 21.9733 18.7811 21.9803 18.8232 21.9863C18.8461 21.9896 18.8692 21.9902 18.8921 21.9922C18.9146 21.9941 18.9369 21.9973 18.9595 21.998C18.9781 21.9986 18.9966 21.9983 19.0151 21.998C19.0436 21.9977 19.0718 21.996 19.1001 21.9937C19.1158 21.9924 19.1314 21.9911 19.147 21.9893C19.1761 21.9858 19.2047 21.9801 19.2334 21.9746C19.2481 21.9718 19.2627 21.9692 19.2773 21.9658C19.3045 21.9596 19.3312 21.9519 19.3579 21.9438C19.377 21.9381 19.3962 21.9329 19.415 21.9263C19.4299 21.921 19.4443 21.9145 19.459 21.9087C19.5689 21.8651 19.6743 21.8087 19.7695 21.7344C19.8234 21.6923 19.8718 21.6447 19.9175 21.5952C19.9233 21.5888 19.9293 21.5827 19.9351 21.5762C20.1042 21.3853 20.2133 21.1481 20.2427 20.8936L20.25 20.75V17.4849C21.166 16.7054 21.7498 15.5474 21.75 14.2505C21.75 11.9034 19.8475 9.99977 17.5005 9.99951ZM7.00049 13.5005C6.58627 13.5005 6.25049 13.8363 6.25049 14.2505C6.25074 14.6645 6.58643 15.0005 7.00049 15.0005H10.0005C10.4143 15.0002 10.7502 14.6643 10.7505 14.2505C10.7505 13.8364 10.4145 13.5008 10.0005 13.5005H7.00049ZM7.00049 9.99951C6.58643 9.99951 6.25074 10.3355 6.25049 10.7495C6.25049 11.1637 6.58627 11.4995 7.00049 11.4995H10.9995C11.4137 11.4995 11.7495 11.1637 11.7495 10.7495C11.7493 10.3355 11.4136 9.99951 10.9995 9.99951H7.00049ZM7.00049 6.5C6.58627 6.5 6.25049 6.83579 6.25049 7.25C6.25049 7.66421 6.58627 8 7.00049 8H16.0005C16.4145 7.99973 16.7505 7.66405 16.7505 7.25C16.7505 6.83595 16.4145 6.50027 16.0005 6.5H7.00049Z" fill="black"/>
</svg>
