<svg width="24" height="24" viewBox="0 0 24 24" fill="none" xmlns="http://www.w3.org/2000/svg">
<path d="M14.9998 20.4983C15.4139 20.4983 15.7497 20.8342 15.7498 21.2483C15.7498 21.6625 15.414 21.9983 14.9998 21.9983H8.99981C8.58579 21.9981 8.24981 21.6624 8.24981 21.2483C8.24997 20.8344 8.58589 20.4985 8.99981 20.4983H14.9998Z" fill="black"/>
<path fill-rule="evenodd" clip-rule="evenodd" d="M11.8816 2.00221C16.0775 1.93699 19.4996 5.3174 19.4998 9.4983C19.4997 11.835 18.4276 13.9184 16.7537 15.2903C16.1176 15.8118 15.749 16.5881 15.7488 17.4075V18.4729C15.7488 18.8871 15.413 19.2229 14.9988 19.2229H8.99883C8.58478 19.2227 8.24883 18.887 8.24883 18.4729V17.4075C8.24872 16.6379 7.91398 15.9044 7.33477 15.3714L7.21563 15.2669C5.74781 14.0506 4.74796 12.2842 4.53985 10.2796L4.5086 9.87526C4.30296 5.71199 7.71154 2.06588 11.8816 2.00221ZM9.22247 15.3753C9.5606 15.9879 9.74876 16.6824 9.74883 17.4075V17.7229H14.2488V17.4075C14.2489 16.6875 14.433 15.9905 14.7703 15.3753H9.22247ZM11.9041 3.50123C8.58485 3.55199 5.84281 6.48291 6.00665 9.80104L6.03106 10.1233C6.1841 11.5994 6.87604 12.9143 7.90606 13.8753H16.0945C17.2677 12.7812 17.9998 11.2265 17.9998 9.4983C17.9996 6.15377 15.2617 3.44878 11.9041 3.50123Z" fill="black"/>
</svg>
