<svg width="24" height="24" viewBox="0 0 24 24" fill="none" xmlns="http://www.w3.org/2000/svg">
<path d="M14.47 12.9697C14.7629 12.6768 15.2376 12.6768 15.5305 12.9697C15.8234 13.2626 15.8234 13.7374 15.5305 14.0303L12.0305 17.5303C11.994 17.5667 11.9547 17.5986 11.9133 17.626C11.7468 17.7361 11.546 17.7731 11.3567 17.7363C11.2386 17.7134 11.1247 17.6621 11.0266 17.582L10.97 17.5303L8.96997 15.5303C8.67714 15.2374 8.67718 14.7626 8.96997 14.4697C9.26285 14.1768 9.73762 14.1769 10.0305 14.4697L11.5002 15.9395L14.47 12.9697Z" fill="black"/>
<path fill-rule="evenodd" clip-rule="evenodd" d="M11.9973 2.25C14.6222 2.2501 16.7502 4.37801 16.7502 7.00293V8.75H17.0002C18.519 8.75 19.7502 9.98122 19.7502 11.5V19C19.7502 20.5188 18.519 21.75 17.0002 21.75H7.00024C5.48155 21.7499 4.25024 20.5187 4.25024 19V11.5C4.25024 9.98128 5.48155 8.7501 7.00024 8.75H7.24438V7.00293C7.24442 5.74239 7.74562 4.53392 8.63696 3.64258C9.52829 2.7513 10.7368 2.25004 11.9973 2.25ZM7.00024 10.25C6.30997 10.2501 5.75024 10.8097 5.75024 11.5V19C5.75024 19.6903 6.30997 20.2499 7.00024 20.25H17.0002C17.6906 20.25 18.2502 19.6904 18.2502 19V11.5C18.2502 10.8096 17.6906 10.25 17.0002 10.25H7.00024ZM11.9973 3.75C11.1346 3.75004 10.3075 4.09315 9.69751 4.70312C9.08747 5.31316 8.74442 6.14021 8.74438 7.00293V8.75H15.2502V7.00293C15.2502 5.20643 13.7938 3.7501 11.9973 3.75Z" fill="black"/>
</svg>
