<svg width="24" height="24" viewBox="0 0 24 24" fill="none" xmlns="http://www.w3.org/2000/svg">
<path fill-rule="evenodd" clip-rule="evenodd" d="M17.5005 9.99951C19.8475 9.99978 21.75 11.9034 21.75 14.2505C21.7499 15.5474 21.166 16.7054 20.25 17.4849V20.75L20.2427 20.8936C20.2045 21.2238 20.0346 21.5272 19.7695 21.7344C19.4663 21.9711 19.0705 22.056 18.6973 21.9629L17.5605 21.6787C17.5208 21.6688 17.4787 21.6688 17.439 21.6787L16.3022 21.9629C15.9291 22.0559 15.5331 21.9711 15.23 21.7344C14.9651 21.5273 14.7965 21.2236 14.7583 20.8936L14.7495 20.75V17.4849C13.8337 16.7054 13.2497 15.5473 13.2495 14.2505C13.2495 11.9033 15.1533 9.99951 17.5005 9.99951ZM18.75 18.3125C18.3549 18.4339 17.9354 18.5 17.5005 18.5C17.0652 18.5 16.6449 18.4341 16.2495 18.3125V20.4292L17.0757 20.2227C17.3542 20.1531 17.6468 20.153 17.9253 20.2227L18.75 20.4292V18.3125ZM17.5005 11.4995C15.9817 11.4995 14.7495 12.7317 14.7495 14.2505C14.7498 15.769 15.9819 17 17.5005 17C19.0189 16.9997 20.2497 15.7689 20.25 14.2505C20.25 12.7319 19.019 11.4998 17.5005 11.4995Z" fill="black"/>
<path d="M19.0005 2C20.5189 2.00026 21.7497 3.23112 21.75 4.74951V8.75C21.75 9.16421 21.4142 9.5 21 9.5C20.5858 9.5 20.25 9.16421 20.25 8.75V4.74951C20.2497 4.05954 19.6905 3.50026 19.0005 3.5H4.99951C4.30954 3.50026 3.75026 4.05954 3.75 4.74951V16.7495C3.75 17.4397 4.30938 18.0002 4.99951 18.0005H12C12.4142 18.0005 12.75 18.3363 12.75 18.7505C12.7497 19.1645 12.4141 19.5005 12 19.5005H4.99951C3.48095 19.5002 2.25 18.2681 2.25 16.7495V4.74951C2.25026 3.23112 3.48112 2.00026 4.99951 2H19.0005Z" fill="black"/>
<path d="M10.0005 13.5005C10.4145 13.5008 10.7505 13.8364 10.7505 14.2505C10.7502 14.6643 10.4143 15.0002 10.0005 15.0005H7.00049C6.58644 15.0005 6.25075 14.6645 6.25049 14.2505C6.25049 13.8363 6.58627 13.5005 7.00049 13.5005H10.0005Z" fill="black"/>
<path d="M10.9995 9.99951C11.4136 9.99951 11.7492 10.3355 11.7495 10.7495C11.7495 11.1637 11.4137 11.4995 10.9995 11.4995H7.00049C6.58627 11.4995 6.25049 11.1637 6.25049 10.7495C6.25075 10.3355 6.58644 9.99951 7.00049 9.99951H10.9995Z" fill="black"/>
<path d="M16.0005 6.5C16.4145 6.50026 16.7505 6.83595 16.7505 7.25C16.7505 7.66405 16.4145 7.99974 16.0005 8H7.00049C6.58627 8 6.25049 7.66421 6.25049 7.25C6.25049 6.83579 6.58627 6.5 7.00049 6.5H16.0005Z" fill="black"/>
</svg>
