<svg width="24" height="24" viewBox="0 0 24 24" fill="none" xmlns="http://www.w3.org/2000/svg">
<path d="M4.50024 17.25C4.91446 17.25 5.25024 17.5858 5.25024 18C5.25024 18.4142 4.91446 18.75 4.50024 18.75H3.50024C3.08611 18.7499 2.75024 18.4142 2.75024 18C2.75024 17.5858 3.08611 17.2501 3.50024 17.25H4.50024Z" fill="black"/>
<path d="M20.5002 17.25C20.9145 17.25 21.2502 17.5858 21.2502 18C21.2502 18.4142 20.9145 18.75 20.5002 18.75H8.50024C8.08606 18.75 7.75024 18.4142 7.75024 18C7.75024 17.5858 8.08606 17.25 8.50024 17.25H20.5002Z" fill="black"/>
<path d="M4.50024 11.25C4.91446 11.25 5.25024 11.5858 5.25024 12C5.25024 12.4142 4.91446 12.75 4.50024 12.75H3.50024C3.08611 12.7499 2.75024 12.4142 2.75024 12C2.75024 11.5858 3.08611 11.2501 3.50024 11.25H4.50024Z" fill="black"/>
<path d="M20.5002 11.25C20.9145 11.25 21.2502 11.5858 21.2502 12C21.2502 12.4142 20.9145 12.75 20.5002 12.75H8.50024C8.08606 12.75 7.75024 12.4142 7.75024 12C7.75024 11.5858 8.08606 11.25 8.50024 11.25H20.5002Z" fill="black"/>
<path d="M4.50024 5.25C4.91446 5.25 5.25024 5.58579 5.25024 6C5.25024 6.41421 4.91446 6.75 4.50024 6.75H3.50024C3.08603 6.75 2.75024 6.41421 2.75024 6C2.75024 5.58579 3.08603 5.25 3.50024 5.25H4.50024Z" fill="black"/>
<path d="M20.5002 5.25C20.9145 5.25 21.2502 5.58579 21.2502 6C21.2502 6.41421 20.9145 6.75 20.5002 6.75H8.50024C8.08606 6.74997 7.75024 6.41419 7.75024 6C7.75024 5.58581 8.08606 5.25003 8.50024 5.25H20.5002Z" fill="black"/>
</svg>
