<svg width="24" height="24" viewBox="0 0 24 24" fill="none" xmlns="http://www.w3.org/2000/svg">
<path d="M12 14.4496C12.4417 14.4497 12.7997 14.8078 12.7998 15.2495C12.7994 15.6909 12.4415 16.0492 12 16.0493C11.5585 16.0491 11.2006 15.6908 11.2002 15.2495C11.2003 14.8078 11.5584 14.4498 12 14.4496Z" fill="black"/>
<path d="M12 6.49554C13.519 6.49572 14.7508 7.72755 14.751 9.24652C14.7507 10.5051 13.9039 11.5633 12.75 11.8901V12.7475C12.7497 13.1614 12.4139 13.4973 12 13.4975C11.5861 13.4973 11.2503 13.1614 11.25 12.7475V11.2475C11.2502 10.8335 11.586 10.4976 12 10.4975C12.6905 10.4973 13.2506 9.93694 13.251 9.24652C13.2508 8.55598 12.6905 7.99572 12 7.99554C11.3094 7.99569 10.7492 8.55596 10.749 9.24652C10.7487 9.66039 10.4129 9.99642 9.99902 9.99652C9.58514 9.99637 9.24936 9.66036 9.24902 9.24652C9.24922 7.72754 10.481 6.49569 12 6.49554Z" fill="black"/>
<path fill-rule="evenodd" clip-rule="evenodd" d="M12 2.27679C16.1955 2.27682 19.5967 5.67797 19.5967 9.87347V10.0453C19.5967 11.0512 19.2817 12.1305 18.8242 13.1801C18.3633 14.2376 17.7357 15.3134 17.0635 16.3246C16.0552 17.8414 14.9236 19.2453 14.0439 20.2709L13.2627 21.1606C12.6287 21.8647 11.5587 21.9084 10.8701 21.2924L10.7373 21.1606C9.84386 20.169 8.28077 18.3468 6.93652 16.3246C6.26429 15.3134 5.63674 14.2376 5.17578 13.1801C4.71828 12.1305 4.40332 11.0512 4.40332 10.0453V9.87347C4.40332 5.67795 7.80448 2.27679 12 2.27679ZM12 3.72406C8.60352 3.72406 5.85059 6.477 5.85059 9.87347V10.0453C5.85059 10.7699 6.0827 11.6401 6.50195 12.602C6.91779 13.556 7.49762 14.5541 8.1416 15.5229C9.42967 17.4606 10.94 19.2234 11.8125 20.1918C11.9141 20.3044 12.0859 20.3054 12.1875 20.1928C13.0601 19.2244 14.5704 17.4606 15.8584 15.5229C16.5023 14.5542 17.0812 13.5559 17.4971 12.602C17.9164 11.6401 18.1494 10.77 18.1494 10.0453V9.87347C18.1494 6.47701 15.3965 3.72409 12 3.72406Z" fill="black"/>
</svg>
