<svg width="24" height="24" viewBox="0 0 24 24" fill="none" xmlns="http://www.w3.org/2000/svg">
<path d="M12.3662 2.55078C12.571 2.27687 12.9355 2.17678 13.252 2.30664C13.5682 2.43662 13.7567 2.76377 13.71 3.10254L12.8613 9.25H19.25C19.5338 9.25 19.7937 9.41033 19.9209 9.66406C20.0479 9.91774 20.0204 10.2219 19.8506 10.4492L11.6338 21.4492C11.429 21.7231 11.0645 21.8232 10.7481 21.6934C10.4318 21.5634 10.2433 21.2362 10.29 20.8975L11.1387 14.75H4.75001C4.46619 14.75 4.20628 14.5897 4.07911 14.3359C3.95208 14.0823 3.97962 13.7781 4.14942 13.5508L12.3662 2.55078ZM6.2461 13.25H12C12.2167 13.25 12.423 13.3435 12.5654 13.5068C12.7078 13.6703 12.7728 13.8878 12.7432 14.1025L12.1738 18.2178L17.7539 10.75H12C11.7833 10.75 11.577 10.6565 11.4346 10.4932C11.2922 10.3297 11.2272 10.1122 11.2568 9.89746L11.8252 5.78125L6.2461 13.25Z" fill="black"/>
</svg>
