<svg width="24" height="24" viewBox="0 0 24 24" fill="none" xmlns="http://www.w3.org/2000/svg">
<path fill-rule="evenodd" clip-rule="evenodd" d="M12 6.27679C14.0506 6.27689 15.7236 7.92505 15.7236 9.97308V10.0278C15.7236 12.0758 14.0506 13.724 12 13.7241C9.94929 13.7241 8.2764 12.0758 8.27637 10.0278C8.27637 10.0186 8.27895 10.0095 8.2793 10.0004C8.27896 9.99135 8.27638 9.98225 8.27637 9.97308C8.27637 7.92499 9.94927 6.27679 12 6.27679ZM12 7.72406C10.7357 7.72406 9.72363 8.73656 9.72363 9.97308C9.72362 9.98225 9.72104 9.99135 9.7207 10.0004C9.72105 10.0095 9.72363 10.0186 9.72363 10.0278C9.72367 11.2643 10.7357 12.2768 12 12.2768C13.2642 12.2767 14.2763 11.2642 14.2764 10.0278V9.97308C14.2764 8.73662 13.2642 7.72416 12 7.72406Z" fill="black"/>
<path fill-rule="evenodd" clip-rule="evenodd" d="M12 2.27679C16.1955 2.27682 19.5967 5.67797 19.5967 9.87347V10.0453C19.5967 11.0512 19.2817 12.1305 18.8242 13.1801C18.3633 14.2376 17.7357 15.3134 17.0635 16.3246C16.0552 17.8414 14.9236 19.2453 14.0439 20.2709L13.2627 21.1606C12.6287 21.8647 11.5587 21.9084 10.8701 21.2924L10.7373 21.1606C9.84386 20.169 8.28077 18.3468 6.93652 16.3246C6.26429 15.3134 5.63674 14.2376 5.17578 13.1801C4.71828 12.1305 4.40332 11.0512 4.40332 10.0453V9.87347C4.40332 5.67795 7.80448 2.27679 12 2.27679ZM12 3.72406C8.60352 3.72406 5.85059 6.477 5.85059 9.87347V10.0453C5.85059 10.7699 6.0827 11.6401 6.50195 12.602C6.91779 13.556 7.49762 14.5541 8.1416 15.5229C9.42967 17.4606 10.94 19.2234 11.8125 20.1918C11.9141 20.3044 12.0859 20.3054 12.1875 20.1928C13.0601 19.2244 14.5704 17.4606 15.8584 15.5229C16.5023 14.5542 17.0812 13.5559 17.4971 12.602C17.9164 11.6401 18.1494 10.77 18.1494 10.0453V9.87347C18.1494 6.47701 15.3965 3.72409 12 3.72406Z" fill="black"/>
</svg>
