<svg width="24" height="24" viewBox="0 0 24 24" fill="none" xmlns="http://www.w3.org/2000/svg">
<path d="M6.0247 10.6921C6.31752 10.3993 6.79233 10.3994 7.08524 10.6921C7.37791 10.985 7.37806 11.4598 7.08524 11.7527L4.75224 14.0857C3.32761 15.5107 3.32798 17.8217 4.75321 19.2478C6.1782 20.6725 8.48916 20.6729 9.91532 19.2478L12.2483 16.9148C12.5412 16.6222 13.0161 16.622 13.3089 16.9148C13.6014 17.2076 13.6014 17.6825 13.3089 17.9753L10.9759 20.3083C8.96416 22.3186 5.70261 22.319 3.69169 20.3083C1.68144 18.2967 1.68117 15.036 3.69169 13.0251L6.0247 10.6921Z" fill="black"/>
<path d="M14.5794 8.36007C14.8722 8.06725 15.347 8.06738 15.6399 8.36007C15.9328 8.65297 15.9328 9.12773 15.6399 9.42062L9.4202 15.6403C9.12728 15.9328 8.65241 15.9331 8.35966 15.6403C8.0671 15.3476 8.06726 14.8727 8.35966 14.5798L14.5794 8.36007Z" fill="black"/>
<path d="M13.0247 3.69113C15.0362 1.68081 18.2969 1.68086 20.3079 3.69113L20.3089 3.69211C22.319 5.70391 22.3187 8.96448 20.3079 10.9753L17.9749 13.3083C17.682 13.6008 17.2071 13.6011 16.9143 13.3083C16.622 13.0155 16.622 12.5406 16.9143 12.2478L19.2474 9.91476C20.6724 8.48974 20.6728 6.1779 19.2474 4.75168C17.8223 3.32735 15.5112 3.32749 14.0852 4.75265L14.0843 4.75168L11.7522 7.08468C11.4593 7.37744 10.9845 7.37753 10.6917 7.08468C10.3994 6.79179 10.3991 6.31687 10.6917 6.02414L13.0247 3.69113Z" fill="black"/>
</svg>
