<svg width="24" height="24" viewBox="0 0 24 24" fill="none" xmlns="http://www.w3.org/2000/svg">
<path d="M13.25 3C13.25 2.58579 13.5858 2.25 14 2.25H19C20.5192 2.25 21.75 3.48079 21.75 5V19C21.75 20.5192 20.5192 21.75 19 21.75H14C13.5858 21.75 13.25 21.4142 13.25 21C13.25 20.5858 13.5858 20.25 14 20.25H19C19.6908 20.25 20.25 19.6908 20.25 19V5C20.25 4.30921 19.6908 3.75 19 3.75H14C13.5858 3.75 13.25 3.41421 13.25 3Z" fill="black"/>
<path d="M2.25195 11.9824C2.2528 11.9455 2.2567 11.9094 2.2627 11.874C2.28881 11.7223 2.35944 11.581 2.46973 11.4707L7.4707 6.46973C7.7636 6.17684 8.23836 6.17684 8.53125 6.46973C8.71438 6.65286 8.78318 6.90713 8.7373 7.14355C8.71895 7.23818 8.68199 7.32986 8.62695 7.41309C8.6133 7.43372 8.59891 7.45414 8.58301 7.47363C8.567 7.49325 8.54954 7.51198 8.53125 7.53027L4.81152 11.25H17.001C17.4152 11.25 17.751 11.5858 17.751 12C17.751 12.4142 17.4152 12.75 17.001 12.75H4.81055L8.53125 16.4707C8.71437 16.6538 8.78318 16.9081 8.7373 17.1445C8.71895 17.2392 8.68198 17.3308 8.62695 17.4141C8.61331 17.4347 8.59891 17.4551 8.58301 17.4746C8.56701 17.4942 8.54953 17.513 8.53125 17.5312C8.51298 17.5495 8.49421 17.567 8.47461 17.583C8.19968 17.8073 7.8023 17.8073 7.52734 17.583C7.50774 17.567 7.48898 17.5495 7.4707 17.5312L2.46973 12.5312C2.44188 12.5034 2.41618 12.4739 2.39355 12.4424C2.34816 12.3792 2.3138 12.3091 2.29004 12.2354C2.27816 12.1985 2.26902 12.1606 2.2627 12.1221C2.25735 12.0895 2.25393 12.0563 2.25293 12.0225C2.2527 12.0153 2.25 12.0081 2.25 12.001C2.25 11.9948 2.2518 11.9886 2.25195 11.9824Z" fill="black"/>
</svg>
