<svg width="24" height="24" viewBox="0 0 24 24" fill="none" xmlns="http://www.w3.org/2000/svg">
<path fill-rule="evenodd" clip-rule="evenodd" d="M9.82082 2.29533C10.8016 2.04022 11.8643 3.01641 11.3618 4.09513L11.3599 4.09709C10.2661 6.43201 10.5466 9.16921 12.1831 11.099L12.5288 11.474L12.9038 11.8197C14.8323 13.4558 17.5682 13.7358 19.9029 12.643L20.0991 12.5678C20.5548 12.4366 21.004 12.5834 21.3062 12.8549C21.6458 13.1606 21.8425 13.6593 21.7066 14.182V14.184C21.2713 15.8497 20.4143 17.4401 19.0933 18.7611C15.1867 22.6672 8.90875 22.7694 5.06984 18.9311C1.23111 15.0924 1.33538 8.8146 5.24172 4.90861C6.56272 3.58778 8.15154 2.73065 9.81887 2.29533H9.82082ZM9.83059 3.85197C8.54145 4.24855 7.32669 4.94487 6.30227 5.96916C2.95512 9.31596 2.90377 14.6439 6.13039 17.8705C9.35751 21.0971 14.6856 21.0472 18.0327 17.7006C19.0574 16.6759 19.7514 15.4583 20.148 14.1694C17.2197 15.3648 13.7871 14.8567 11.4673 12.5346C9.14649 10.2139 8.63486 6.7801 9.83059 3.85197Z" fill="black"/>
</svg>
