<svg width="24" height="24" viewBox="0 0 24 24" fill="none" xmlns="http://www.w3.org/2000/svg">
<path d="M12.0759 16.7573C12.7288 16.798 13.2496 17.337 13.2498 18.0024C13.2498 18.6918 12.6891 19.2524 11.9998 19.2524C11.3537 19.2523 10.8208 18.7598 10.7566 18.1304L10.7498 18.0024C10.747 17.3358 11.2696 16.7979 11.9187 16.7573C11.9444 16.7547 11.9704 16.7524 11.9968 16.7524C12.0235 16.7524 12.05 16.7546 12.0759 16.7573Z" fill="#1C1C1C"/>
<path d="M12.0759 10.7554C12.7288 10.7961 13.2497 11.335 13.2498 12.0005C13.2495 12.6896 12.6889 13.2505 11.9998 13.2505C11.3538 13.2504 10.821 12.7577 10.7566 12.1284L10.7498 12.0005C10.7469 11.3338 11.2696 10.7959 11.9187 10.7554C11.9444 10.7527 11.9704 10.7505 11.9968 10.7505C12.0235 10.7505 12.05 10.7527 12.0759 10.7554Z" fill="#1C1C1C"/>
<path d="M12.0759 4.75244C12.7288 4.79316 13.2497 5.33208 13.2498 5.99756C13.2498 6.68689 12.6891 7.24756 11.9998 7.24756C11.3537 7.24743 10.8208 6.75496 10.7566 6.12549L10.7498 5.99756C10.7469 5.33081 11.2696 4.793 11.9187 4.75244C11.9444 4.74977 11.9704 4.74756 11.9968 4.74756C12.0235 4.74756 12.05 4.74972 12.0759 4.75244Z" fill="#1C1C1C"/>
</svg>
