<svg width="24" height="24" viewBox="0 0 24 24" fill="none" xmlns="http://www.w3.org/2000/svg">
<path d="M21.5 16.9375C22.2249 16.9375 22.8125 17.5251 22.8125 18.25C22.8125 18.9749 22.2249 19.5625 21.5 19.5625H2.5C1.77513 19.5625 1.1875 18.9749 1.1875 18.25C1.1875 17.5251 1.77513 16.9375 2.5 16.9375H21.5Z" fill="black"/>
<path d="M21.5 10.6875C22.2249 10.6875 22.8125 11.2751 22.8125 12C22.8125 12.7249 22.2249 13.3125 21.5 13.3125H2.5C1.77513 13.3125 1.1875 12.7249 1.1875 12C1.1875 11.2751 1.77513 10.6875 2.5 10.6875H21.5Z" fill="black"/>
<path d="M21.5 4.4375C22.2249 4.4375 22.8125 5.02513 22.8125 5.75C22.8125 6.47487 22.2249 7.0625 21.5 7.0625H2.5C1.77513 7.0625 1.1875 6.47487 1.1875 5.75C1.1875 5.02513 1.77513 4.4375 2.5 4.4375H21.5Z" fill="black"/>
</svg>
