<svg width="24" height="24" viewBox="0 0 24 24" fill="none" xmlns="http://www.w3.org/2000/svg">
<path d="M12.0004 5.25021C12.4146 5.25021 12.7504 5.58602 12.7504 6.00021V6.75021C14.4076 6.75021 15.7504 8.09302 15.7504 9.75021H14.2504C14.2504 8.92144 13.5792 8.25021 12.7504 8.25021H11.1078C10.358 8.25021 9.75042 8.85787 9.75039 9.60763C9.75058 10.2295 10.1735 10.7717 10.7768 10.9231L13.5893 11.6281C14.8595 11.947 15.7504 13.0888 15.7504 14.3986C15.7502 15.9769 14.4698 17.2551 12.893 17.2551H12.7504V18.0002C12.7504 18.4144 12.4146 18.7502 12.0004 18.7502C11.5862 18.7502 11.2504 18.4144 11.2504 18.0002V17.2551C9.59318 17.2551 8.25039 15.9123 8.25039 14.2551C8.25048 13.841 8.58623 13.5051 9.00039 13.5051C9.41455 13.5051 9.7503 13.841 9.75039 14.2551C9.75039 15.0839 10.4216 15.7551 11.2504 15.7551H11.9174C11.9446 15.7521 11.9723 15.7502 12.0004 15.7502C12.0285 15.7502 12.0561 15.7521 12.0834 15.7551H12.893C13.6418 15.7551 14.2502 15.148 14.2504 14.3986C14.2504 13.7767 13.8275 13.2336 13.224 13.0822L10.4115 12.3781C9.14126 12.0594 8.25058 10.9173 8.25039 9.60763C8.25042 8.02944 9.52962 6.75021 11.1078 6.75021H11.2504V6.00021C11.2504 5.58602 11.5862 5.25021 12.0004 5.25021Z" fill="black"/>
<path fill-rule="evenodd" clip-rule="evenodd" d="M5.10586 5.10568C8.91345 1.29809 15.0873 1.29813 18.8949 5.10568L19.2406 5.46993C22.6985 9.29733 22.5835 15.2062 18.8949 18.8947C15.0873 22.7023 8.91346 22.7023 5.10586 18.8947C1.29831 15.0871 1.29827 8.91325 5.10586 5.10568ZM17.5258 5.87423C14.2872 2.94833 9.28749 3.04514 6.16641 6.16622C2.9446 9.38801 2.94465 14.6124 6.16641 17.8342C9.38821 21.056 14.6126 21.056 17.8344 17.8342C20.9555 14.7131 21.0523 9.71338 18.1264 6.47482L17.8344 6.16622L17.5258 5.87423Z" fill="black"/>
</svg>
