<svg width="24" height="24" viewBox="0 0 24 24" fill="none" xmlns="http://www.w3.org/2000/svg">
<path d="M13.4999 20.25C13.914 20.2501 14.2499 20.5858 14.2499 21C14.2499 21.4142 13.914 21.7499 13.4999 21.75H10.4999C10.0859 21.7497 9.74988 21.414 9.74988 21C9.74988 20.586 10.0859 20.2503 10.4999 20.25H13.4999Z" fill="black"/>
<path d="M19.5819 3.3623C19.8748 3.06941 20.3496 3.06941 20.6425 3.3623C20.9353 3.6552 20.9353 4.12996 20.6425 4.42285L4.42273 20.6377C4.12986 20.9303 3.655 20.9304 3.36218 20.6377C3.06937 20.3449 3.06955 19.8701 3.36218 19.5771L19.5819 3.3623Z" fill="black"/>
<path d="M18.6298 7.69727C18.7123 8.11884 18.7567 8.55424 18.7567 9V13C18.7567 13.758 19.1013 14.4762 19.6932 14.9521L20.0018 15.2002C21.4717 16.3804 20.6353 18.7495 18.7528 18.75H7.578L9.078 17.25H18.7528C19.2213 17.2495 19.4261 16.6619 19.0634 16.3701L18.7548 16.1221C17.8091 15.362 17.2567 14.2137 17.2567 13V9.07129L18.6298 7.69727Z" fill="black"/>
<path d="M12.0009 2.25C14.0333 2.25017 15.856 3.14783 17.0946 4.56738L16.0301 5.63086C15.0661 4.48182 13.6195 3.75017 12.0009 3.75C9.09739 3.75007 6.74499 6.10099 6.74499 9V13C6.74499 14.2132 6.19418 15.3617 5.24695 16.1221L4.93835 16.3701C4.76674 16.508 4.72241 16.7118 4.77234 16.8887L3.83386 17.8281C3.77986 17.8821 3.73134 17.9398 3.6864 17.999C3.06379 17.2026 3.05608 15.9573 3.9989 15.2002L4.30847 14.9521C4.90081 14.4766 5.24499 13.7585 5.24499 13V9C5.24499 5.2711 8.27043 2.25007 12.0009 2.25Z" fill="black"/>
</svg>
