<svg width="24" height="24" viewBox="0 0 24 24" fill="none" xmlns="http://www.w3.org/2000/svg">
<path fill-rule="evenodd" clip-rule="evenodd" d="M19.2002 4.25024C20.6143 4.25035 21.7499 5.38599 21.75 6.80005C21.75 6.84152 21.7481 6.88251 21.7461 6.9231C21.7487 6.94844 21.75 6.97422 21.75 7.00024V17.0002C21.75 18.5144 20.5142 19.7502 19 19.7502H5C3.48581 19.7502 2.25003 18.5144 2.25 17.0002V7.00024C2.25 6.97422 2.25132 6.94844 2.25391 6.9231C2.25195 6.88247 2.25 6.84149 2.25 6.80005C2.2501 5.38599 3.38575 4.25035 4.7998 4.25024H19.2002ZM4.82422 18.2356C4.88179 18.2439 4.94029 18.2502 5 18.2502H19C19.0594 18.2502 19.1175 18.2438 19.1748 18.2356L14.2354 13.2961C12.8215 14.0088 11.2041 13.9987 9.79688 13.2629L4.82422 18.2356ZM15.5371 12.4768L20.2354 17.175C20.2435 17.1178 20.25 17.0596 20.25 17.0002V9.33521L15.5371 12.4768ZM3.75 17.0002C3.75 17.0596 3.75551 17.1178 3.76367 17.175L8.51074 12.428L3.75 9.17407V17.0002ZM4.7998 5.75024C4.21418 5.75035 3.7501 6.21442 3.75 6.80005C3.75 7.11163 3.89404 7.40954 4.25781 7.70435L10.0771 11.6829C10.0987 11.6963 10.1202 11.71 10.1406 11.7258L10.2051 11.7698C11.3564 12.5097 12.7378 12.5099 13.8896 11.7717L19.7803 7.84497C20.1074 7.4209 20.25 7.11311 20.25 6.80005C20.2499 6.21442 19.7858 5.75035 19.2002 5.75024H4.7998Z" fill="black"/>
</svg>
