<svg width="24" height="24" viewBox="0 0 24 24" fill="none" xmlns="http://www.w3.org/2000/svg">
<path d="M19 9.25C19.4142 9.25 19.75 9.58579 19.75 10V11C19.75 15.0272 16.6782 18.3356 12.75 18.7129V20.25H15C15.4142 20.25 15.75 20.5858 15.75 21C15.75 21.4142 15.4142 21.75 15 21.75H9C8.58579 21.75 8.25 21.4142 8.25 21C8.25 20.5858 8.58579 20.25 9 20.25H11.25V18.7129C7.32176 18.3356 4.25 15.0272 4.25 11V10C4.25 9.58579 4.58579 9.25 5 9.25C5.41421 9.25 5.75 9.58579 5.75 10V11L5.75781 11.3213C5.92503 14.6238 8.65597 17.25 12 17.25C15.344 17.25 18.075 14.6238 18.2422 11.3213L18.25 11V10C18.25 9.58579 18.5858 9.25 19 9.25Z" fill="black"/>
<path fill-rule="evenodd" clip-rule="evenodd" d="M12 1.25C14.6234 1.25 16.75 3.37665 16.75 6V11C16.75 13.6234 14.6234 15.75 12 15.75C9.37665 15.75 7.25 13.6234 7.25 11V6C7.25 3.37665 9.37665 1.25 12 1.25ZM12 2.75C10.2051 2.75 8.75 4.20507 8.75 6V11C8.75 12.7949 10.2051 14.25 12 14.25C13.7949 14.25 15.25 12.7949 15.25 11V6C15.25 4.20507 13.7949 2.75 12 2.75Z" fill="black"/>
</svg>
