<svg width="24" height="24" viewBox="0 0 24 24" fill="none" xmlns="http://www.w3.org/2000/svg">
<path fill-rule="evenodd" clip-rule="evenodd" d="M5.10669 5.10626C8.9143 1.29865 15.0882 1.29864 18.8957 5.10626L19.2415 5.46954C22.6992 9.29694 22.5843 15.2068 18.8957 18.8953C15.0882 22.7029 8.9143 22.7028 5.10669 18.8953C1.29907 15.0877 1.29907 8.91385 5.10669 5.10626ZM12.0002 5.25079C11.5865 5.25117 11.2505 5.587 11.2502 6.00079V6.75079H11.1077C9.52994 6.7511 8.25062 8.02953 8.25024 9.60724C8.25043 10.917 9.14209 12.06 10.4124 12.3787L13.2249 13.0818C13.8282 13.2333 14.2502 13.7773 14.2502 14.3992C14.2499 15.1483 13.6424 15.7555 12.8938 15.7557H12.0452C12.0304 15.7548 12.0152 15.7508 12.0002 15.7508C11.9849 15.7508 11.9694 15.7548 11.9543 15.7557H11.2502C10.4219 15.7553 9.75039 15.0841 9.75024 14.2557C9.75018 13.8416 9.41436 13.5057 9.00024 13.5057C8.58639 13.506 8.2503 13.8417 8.25024 14.2557C8.25038 15.809 9.43091 17.0853 10.9436 17.2391L11.2502 17.2557V18.0008C11.2506 18.4144 11.5866 18.7504 12.0002 18.7508C12.4142 18.7507 12.7499 18.4146 12.7502 18.0008V17.2557H12.8938C14.4704 17.2555 15.7499 15.9772 15.7502 14.3992C15.7502 13.0894 14.8594 11.9475 13.5891 11.6287L10.7766 10.9227C10.1737 10.7711 9.75043 10.2288 9.75024 9.60724C9.75062 8.85796 10.3584 8.2511 11.1077 8.25079H12.7502C13.5788 8.25086 14.25 8.92224 14.2502 9.75079H15.7502C15.75 8.19741 14.5707 6.91911 13.0579 6.76544L12.7502 6.75079V6.00079C12.75 5.58681 12.4143 5.25086 12.0002 5.25079Z" fill="black"/>
</svg>
