<svg width="24" height="24" viewBox="0 0 24 24" fill="none" xmlns="http://www.w3.org/2000/svg">
<path d="M6.06836 15.1812C6.70833 15.2398 7.34691 15.2648 7.98242 15.2495C8.39628 15.2399 8.74007 15.568 8.75 15.9819C8.75964 16.3957 8.43144 16.7395 8.01758 16.7495C7.31933 16.7662 6.62343 16.7386 5.93164 16.6753C5.51918 16.6375 5.2152 16.2723 5.25293 15.8599C5.29081 15.4475 5.65598 15.1434 6.06836 15.1812Z" fill="black"/>
<path fill-rule="evenodd" clip-rule="evenodd" d="M12 9.15967C13.5188 9.1597 14.75 10.3909 14.75 11.9097C14.7499 13.4283 13.5187 14.6596 12 14.6597C10.4813 14.6597 9.25012 13.4284 9.25 11.9097C9.25 10.3909 10.4812 9.15967 12 9.15967ZM12 10.6597C11.3096 10.6597 10.75 11.2193 10.75 11.9097C10.7501 12.5999 11.3097 13.1597 12 13.1597C12.6903 13.1596 13.2499 12.5999 13.25 11.9097C13.25 11.2193 12.6903 10.6597 12 10.6597Z" fill="black"/>
<path d="M15.9805 7.25439C16.6803 7.23657 17.3773 7.26532 18.0684 7.32861C18.4807 7.36649 18.7848 7.73162 18.7471 8.14404C18.7092 8.55637 18.344 8.86038 17.9316 8.82275C17.291 8.76408 16.6534 8.73826 16.0195 8.75439C15.6056 8.76494 15.2607 8.43784 15.25 8.02392C15.2394 7.60998 15.5666 7.26516 15.9805 7.25439Z" fill="black"/>
<path fill-rule="evenodd" clip-rule="evenodd" d="M12.0547 4.78662C14.6401 4.14087 17.3373 4.07634 19.9502 4.59912L19.9492 4.6001L20.3418 4.67725C21.1603 4.84149 21.7498 5.55833 21.75 6.39307V17.2319C21.75 18.3363 20.7394 19.1647 19.6562 18.9478C17.2609 18.4688 14.7897 18.5269 12.4199 19.1187L12.4209 19.1196L12.1836 19.1792L12.1816 19.1802C9.44016 19.865 6.58063 19.9333 3.80957 19.3784H3.80762L3.6582 19.3472C2.83824 19.1842 2.25 18.4652 2.25 17.6323V6.79346C2.25 5.68896 3.25981 4.86191 4.3418 5.07666C6.73775 5.55585 9.21066 5.49688 11.5811 4.90478L12.0547 4.78662ZM19.6562 6.06982C17.2614 5.59066 14.7884 5.64962 12.418 6.2417L11.9443 6.35986C9.35915 7.00558 6.66343 7.06997 4.0498 6.54736C3.89399 6.51649 3.75 6.63613 3.75 6.79346V17.6323C3.75 17.7366 3.81436 17.8281 3.9082 17.8647L3.9502 17.8765L3.95312 17.8774L4.10352 17.9077C6.6558 18.4187 9.29048 18.3558 11.8164 17.7251L12.0527 17.6655L12.0557 17.6645C14.4795 17.0592 17.0006 16.965 19.46 17.3862L19.9512 17.477L20.0088 17.4819C20.14 17.4779 20.25 17.3698 20.25 17.2319V6.39307C20.2498 6.27432 20.1668 6.17191 20.0479 6.14795L19.6562 6.06982Z" fill="black"/>
</svg>
