<svg width="24" height="24" viewBox="0 0 24 24" fill="none" xmlns="http://www.w3.org/2000/svg">
<path d="M21.5 17.5C21.9142 17.5 22.25 17.8358 22.25 18.25C22.25 18.6642 21.9142 19 21.5 19H2.5C2.08579 19 1.75 18.6642 1.75 18.25C1.75 17.8358 2.08579 17.5 2.5 17.5H21.5Z" fill="black"/>
<path d="M21.5 11.25C21.9142 11.25 22.25 11.5858 22.25 12C22.25 12.4142 21.9142 12.75 21.5 12.75H2.5C2.08579 12.75 1.75 12.4142 1.75 12C1.75 11.5858 2.08579 11.25 2.5 11.25H21.5Z" fill="black"/>
<path d="M21.5 5C21.9142 5 22.25 5.33579 22.25 5.75C22.25 6.16421 21.9142 6.5 21.5 6.5H2.5C2.08579 6.5 1.75 6.16421 1.75 5.75C1.75 5.33579 2.08579 5 2.5 5H21.5Z" fill="black"/>
</svg>
