<svg width="24" height="24" viewBox="0 0 24 24" fill="none" xmlns="http://www.w3.org/2000/svg">
<path d="M15 9.68987C15.4142 9.68987 15.7499 10.0257 15.75 10.4399V16.3803C15.7498 16.7943 15.4141 17.1303 15 17.1303C14.5859 17.1303 14.2502 16.7943 14.25 16.3803V10.4399C14.2501 10.0257 14.5858 9.68987 15 9.68987Z" fill="black"/>
<path d="M9 6.87054C9.41421 6.87054 9.75 7.20632 9.75 7.62054V13.561C9.74951 13.9748 9.41391 14.311 9 14.311C8.58609 14.311 8.25049 13.9748 8.25 13.561V7.62054C8.25 7.20632 8.58579 6.87054 9 6.87054Z" fill="black"/>
<path fill-rule="evenodd" clip-rule="evenodd" d="M8.12988 3.5639C8.69415 3.37535 9.30585 3.37535 9.87012 3.5639L9.86914 3.56487L14.6045 5.14007C14.8614 5.22567 15.1386 5.22566 15.3955 5.14007L19.4463 3.79144C20.5794 3.41315 21.7497 4.25634 21.75 5.45062V15.8276C21.7499 16.8685 21.1614 17.8215 20.2295 18.2875L16.2295 20.2875C15.4553 20.6752 14.5437 20.6752 13.7695 20.2875L9.55859 18.1821C9.25092 18.028 8.89481 18.0079 8.5752 18.1235L8.44043 18.1821L4.78223 20.0112C3.61801 20.5935 2.25013 19.7453 2.25 18.4457V7.50628C2.25 6.32284 3.00737 5.27114 4.13086 4.8969L8.12988 3.5639ZM9.39453 4.98675C9.17065 4.91194 8.93012 4.90225 8.70215 4.95843L8.60547 4.98675L4.60547 6.31976C4.09544 6.48978 3.75 6.96802 3.75 7.50628V18.4457C3.75013 18.6317 3.94584 18.7522 4.11133 18.6694L7.76953 16.8403L7.91602 16.7719C8.65694 16.4539 9.50366 16.4768 10.2295 16.8403L14.4404 18.9467C14.792 19.1228 15.207 19.1228 15.5586 18.9467L19.5586 16.9467C19.9825 16.7348 20.2499 16.3004 20.25 15.8276V5.45062C20.2497 5.27948 20.0824 5.16 19.9219 5.21331L15.8701 6.5639C15.3759 6.72859 14.8474 6.74894 14.3447 6.62542L14.1309 6.5639L9.39453 4.98675Z" fill="black"/>
</svg>
