<svg width="24" height="24" viewBox="0 0 24 24" fill="none" xmlns="http://www.w3.org/2000/svg">
<path fill-rule="evenodd" clip-rule="evenodd" d="M21.4697 1.46979C21.7626 1.1769 22.2373 1.1769 22.5302 1.46979C22.8231 1.76269 22.8231 2.23746 22.5302 2.53034L2.53022 22.5303C2.23734 22.8232 1.76257 22.8232 1.46967 22.5303C1.17678 22.2374 1.17678 21.7627 1.46967 21.4698L3.26947 19.669C3.25734 19.6155 3.24998 19.5601 3.24994 19.503V4.49714C3.25012 3.8358 3.62291 3.23068 4.21381 2.93366L5.20404 2.43659C5.6949 2.18991 6.27313 2.1882 6.76557 2.43171L8.0019 3.04303L9.2099 2.43659C9.70216 2.18936 10.2822 2.18914 10.7753 2.43464L11.9999 3.04303L13.2246 2.43464C13.7177 2.18915 14.2977 2.18935 14.79 2.43659L15.997 3.04303L17.2343 2.43171C17.7268 2.18821 18.305 2.18992 18.7958 2.43659L19.7861 2.93366C19.8342 2.95784 19.8805 2.98458 19.9257 3.01276L21.4697 1.46979ZM18.122 3.77643C18.052 3.74131 17.9696 3.74171 17.8994 3.77643L16.3271 4.55378C16.1161 4.65811 15.8675 4.65746 15.6572 4.55182L14.1162 3.77741C14.0459 3.74225 13.9629 3.7424 13.8925 3.77741L12.3339 4.5528C12.1235 4.6575 11.8764 4.65747 11.666 4.5528L10.1074 3.77741C10.037 3.7424 9.95398 3.74227 9.88373 3.77741L8.34272 4.55182C8.13239 4.65748 7.88379 4.65809 7.67279 4.55378L6.10053 3.77643C6.03027 3.7417 5.94793 3.74132 5.87787 3.77643L4.88764 4.27448C4.80341 4.31687 4.75012 4.40286 4.74994 4.49714V18.1895L10.1894 12.7501H7.99994C7.58575 12.7501 7.24997 12.4143 7.24994 12.0001C7.24994 11.5859 7.58573 11.2501 7.99994 11.2501H11.6894L13.6894 9.25007H7.99994C7.58575 9.25007 7.24997 8.91425 7.24994 8.50007C7.24994 8.08585 7.58573 7.75007 7.99994 7.75007H14.9999C15.0578 7.75007 15.1138 7.75816 15.1679 7.77057L18.8144 4.12409L18.122 3.77643Z" fill="black"/>
<path d="M19.9999 7.25007C20.4141 7.2501 20.7499 7.58587 20.7499 8.00007V19.503C20.7498 20.1643 20.377 20.7695 19.7861 21.0665L18.7958 21.5635C18.305 21.8102 17.7267 21.8119 17.2343 21.5684L15.997 20.9561L14.79 21.5635C14.2978 21.8107 13.7177 21.811 13.2246 21.5655L11.9999 20.9561L10.7753 21.5655C10.2822 21.811 9.70217 21.8108 9.2099 21.5635L7.66889 20.7891C7.29888 20.6031 7.14999 20.1524 7.33588 19.7823C7.52183 19.4122 7.97259 19.2624 8.34272 19.4483L9.88373 20.2227C9.95399 20.2579 10.037 20.2577 10.1074 20.2227L11.666 19.4473L11.746 19.4132C11.9373 19.3443 12.1497 19.3557 12.3339 19.4473L13.8935 20.2227C13.9639 20.2577 14.0469 20.258 14.1171 20.2227L15.6572 19.4483C15.8675 19.3426 16.1161 19.342 16.3271 19.4464L17.8994 20.2237C17.9696 20.2584 18.052 20.2588 18.122 20.2237L19.1122 19.7257L19.1699 19.6866C19.2203 19.6401 19.2498 19.5736 19.2499 19.503V8.00007C19.2499 7.58588 19.5858 7.25011 19.9999 7.25007Z" fill="black"/>
<path d="M15.9999 14.7501C16.4141 14.7501 16.7499 15.0859 16.7499 15.5001C16.7499 15.9142 16.4141 16.25 15.9999 16.2501H12.9999C12.5857 16.2501 12.25 15.9143 12.2499 15.5001C12.2499 15.0859 12.5857 14.7501 12.9999 14.7501H15.9999Z" fill="black"/>
</svg>
