<svg width="24" height="24" viewBox="0 0 24 24" fill="none" xmlns="http://www.w3.org/2000/svg">
<path d="M13.5004 20.25C13.9144 20.2503 14.2504 20.5859 14.2504 21C14.2504 21.4141 13.9144 21.7497 13.5004 21.75H10.5004C10.0862 21.75 9.75043 21.4142 9.75043 21C9.75043 20.5858 10.0862 20.25 10.5004 20.25H13.5004Z" fill="black"/>
<path fill-rule="evenodd" clip-rule="evenodd" d="M12.0004 2.25C15.7308 2.25014 18.7563 5.27114 18.7563 9V13C18.7563 13.7581 19.1008 14.4762 19.6928 14.9521L20.0014 15.2002C21.4716 16.3804 20.6351 18.7498 18.7524 18.75H5.24847C3.36565 18.75 2.52843 16.3805 3.99847 15.2002L4.30804 14.9521C4.9005 14.4766 5.24457 13.7586 5.24457 13V9C5.24457 5.27105 8.26995 2.25 12.0004 2.25ZM12.0004 3.75C9.09691 3.75 6.74457 6.10095 6.74457 9V13C6.74457 14.2133 6.19387 15.3617 5.24652 16.1221L4.93793 16.3701C4.57453 16.6619 4.77948 17.25 5.24847 17.25H18.7524C19.2211 17.2498 19.426 16.6619 19.0629 16.3701L18.7543 16.1221C17.8086 15.362 17.2563 14.2138 17.2563 13V9C17.2563 6.10103 14.9038 3.75014 12.0004 3.75Z" fill="black"/>
</svg>
