<svg width="24" height="24" viewBox="0 0 24 24" fill="none" xmlns="http://www.w3.org/2000/svg">
<path d="M8.99927 16.2521C9.41312 16.2525 9.74916 16.5882 9.74927 17.0021C9.74914 17.416 9.41311 17.7518 8.99927 17.7521H6.99829C6.97242 17.7521 6.94634 17.7508 6.92114 17.7482C6.54301 17.7099 6.24842 17.3904 6.24829 17.0021C6.2484 16.588 6.58415 16.2521 6.99829 16.2521H8.99927Z" fill="black"/>
<path fill-rule="evenodd" clip-rule="evenodd" d="M17.5168 2.24628C18.7177 2.24622 19.8024 2.96255 20.2747 4.06659L21.3762 6.63104L21.3772 6.63397C21.6275 7.22356 21.7558 7.85777 21.7542 8.49823V19.0031C21.7541 20.5222 20.5223 21.754 19.0032 21.7541H5.24731C3.59003 21.7541 2.24649 20.4104 2.24634 18.7531V8.49823C2.24607 7.85646 2.37633 7.22092 2.62915 6.63104L3.7229 4.06854C4.19474 2.96326 5.28091 2.24609 6.48267 2.24628H17.5168ZM4.99731 8.74823C4.30654 8.74823 3.7464 9.30845 3.74634 9.99921V18.7531C3.74649 19.5819 4.41846 20.2541 5.24731 20.2541H19.0032C19.6939 20.254 20.2541 19.6938 20.2542 19.0031V9.99921C20.2541 9.3085 19.6939 8.74832 19.0032 8.74823H4.99731ZM12.7502 7.24823H19.0032C19.3829 7.24825 19.7444 7.32586 20.0735 7.46503C20.0791 7.46741 20.0845 7.47042 20.0901 7.47284C20.0623 7.38851 20.032 7.30487 19.9973 7.22284L18.8967 4.65839C18.6608 4.10579 18.1177 3.74622 17.5168 3.74628H12.7502V7.24823ZM6.48267 3.74628C5.88174 3.74612 5.33872 4.10473 5.10278 4.65741L4.00806 7.22089V7.22284C3.97317 7.30426 3.94234 7.38716 3.91431 7.47089C3.91859 7.46905 3.92271 7.46684 3.927 7.46503C4.25606 7.32587 4.61759 7.24823 4.99731 7.24823H11.2502V3.74628H6.48267Z" fill="black"/>
</svg>
