<svg width="24" height="24" viewBox="0 0 24 24" fill="none" xmlns="http://www.w3.org/2000/svg">
<path fill-rule="evenodd" clip-rule="evenodd" d="M16.3043 2.96995C16.9876 2.28682 18.0955 2.28563 18.7789 2.96995L21.0299 5.22092C21.7131 5.90418 21.7133 7.0111 21.0289 7.69456L21.0299 7.69553L7.69592 21.0285L7.6969 21.0295C7.36783 21.3601 6.92115 21.5432 6.45862 21.5432H3.20764C2.79348 21.5432 2.45773 21.2073 2.45764 20.7932V17.5422C2.45772 17.0798 2.64076 16.6329 2.97131 16.3039L16.3043 2.96995ZM4.03088 17.3655L4.02991 17.3674C3.98488 17.4122 3.95772 17.4751 3.95764 17.5422V20.0432H6.45862C6.52567 20.0432 6.58855 20.0168 6.63342 19.9719L16.6891 9.91526L14.0846 7.31077L4.03088 17.3655ZM17.7184 4.03049C17.6218 3.93371 17.4634 3.93213 17.3649 4.03049L15.1451 6.25022L17.7496 8.85471L19.9703 6.63401C20.0667 6.53742 20.0676 6.37982 19.9694 6.28147L17.7184 4.03049Z" fill="black"/>
</svg>
