<svg width="24" height="24" viewBox="0 0 24 24" fill="none" xmlns="http://www.w3.org/2000/svg">
<path fill-rule="evenodd" clip-rule="evenodd" d="M16.0005 2.75024C16.9665 2.75051 17.7495 3.53468 17.7495 4.50073V5.75024H19.9995C20.9657 5.75024 21.75 6.53452 21.75 7.50073V9.50024C21.75 11.5715 20.0712 13.2502 18 13.2502H17.6909C17.3313 15.517 15.3683 17.2505 13.0005 17.2507H12.75V19.7498H15C15.414 19.7498 15.7497 20.0858 15.75 20.4998C15.75 20.914 15.4142 21.2498 15 21.2498H9C8.58579 21.2498 8.25 20.914 8.25 20.4998C8.25028 20.0858 8.58596 19.7498 9 19.7498H11.25V17.2507H10.9995C8.63172 17.2505 6.66868 15.517 6.30908 13.2502H6C3.92879 13.2502 2.25 11.5715 2.25 9.50024V7.50073C2.25 6.53452 3.03427 5.75024 4.00049 5.75024H6.25049V4.50073C6.25049 3.53468 7.03352 2.75051 7.99951 2.75024H16.0005ZM7.99951 4.25024C7.86195 4.25051 7.75049 4.36311 7.75049 4.50073V12.5002C7.75049 14.2949 9.20495 15.7505 10.9995 15.7507H13.0005C14.7951 15.7505 16.2495 14.2949 16.2495 12.5002V4.50073C16.2495 4.36311 16.1381 4.25051 16.0005 4.25024H7.99951ZM4.00049 7.25024C3.8627 7.25024 3.75 7.36295 3.75 7.50073V9.50024C3.75 10.743 4.75721 11.7502 6 11.7502H6.25049V7.25024H4.00049ZM17.7495 11.7502H18C19.2428 11.7502 20.25 10.743 20.25 9.50024V7.50073C20.25 7.36295 20.1373 7.25024 19.9995 7.25024H17.7495V11.7502Z" fill="black"/>
</svg>
