<svg width="24" height="24" viewBox="0 0 24 24" fill="none" xmlns="http://www.w3.org/2000/svg">
<path d="M16.0005 2.75024C16.9665 2.7505 17.7495 3.53468 17.7495 4.50073V5.75024L17.6865 13.2693C17.3189 15.5266 15.3616 17.2505 13.0005 17.2507H12.75V19.7498H15C15.414 19.7498 15.7497 20.0858 15.75 20.4998C15.75 20.914 15.4142 21.2498 15 21.2498H9C8.58579 21.2498 8.25 20.914 8.25 20.4998C8.2503 20.0858 8.58597 19.7498 9 19.7498H11.25V17.2507H10.9995C8.63736 17.2505 6.67837 15.5251 6.31201 13.2664L6.2373 5.75024H6.25049V4.50073C6.25049 3.53468 7.03353 2.75051 7.99951 2.75024H16.0005Z" fill="black"/>
<path d="M5.56201 13.2224C3.69734 13.0054 2.25 11.4232 2.25 9.50024V7.50073C2.25 6.53452 3.03427 5.75024 4.00049 5.75024H5.4873L5.56201 13.2224Z" fill="black"/>
<path d="M19.9995 5.75024C20.9657 5.75024 21.75 6.53452 21.75 7.50073V9.50024C21.75 11.4237 20.3019 13.006 18.4365 13.2224L18.4995 5.75024H19.9995Z" fill="black"/>
</svg>
