<svg width="24" height="24" viewBox="0 0 24 24" fill="none" xmlns="http://www.w3.org/2000/svg">
<path d="M12 4.25024C12.414 4.25052 12.75 4.5862 12.75 5.00024V5.31958C13.4729 5.48686 14.1117 5.93874 14.5093 6.59106C14.7245 6.94467 14.6122 7.40534 14.2588 7.62085C13.9051 7.83611 13.443 7.72395 13.2275 7.37036C12.9773 6.96048 12.522 6.7217 12.0425 6.74927C12.0283 6.75008 12.0142 6.75073 12 6.75073C11.5947 6.75073 11.2563 6.87447 11.0361 7.03931C10.8168 7.20379 10.7479 7.37418 10.7476 7.49927L10.749 7.50073C10.7492 7.78257 10.9487 8.02544 11.2251 8.08081L13.0679 8.44995C13.9843 8.63328 14.6596 9.39833 14.7407 10.3147L14.7495 10.5007L14.7319 10.7585C14.6518 11.345 14.3052 11.8298 13.8647 12.1604C13.5465 12.3991 13.164 12.5686 12.75 12.6628V12.9998C12.75 13.4138 12.414 13.7495 12 13.7498C11.5858 13.7498 11.25 13.414 11.25 12.9998V12.6804C10.5165 12.5104 9.86998 12.0489 9.47607 11.3811C9.26592 11.0244 9.3846 10.5646 9.74121 10.3542C10.0979 10.1441 10.5577 10.2628 10.7681 10.6194C11.0138 11.0358 11.4719 11.2792 11.9546 11.2507C11.9694 11.2499 11.9852 11.2507 12 11.2507C12.4054 11.2506 12.7438 11.1257 12.9639 10.9607C13.1286 10.837 13.2074 10.7104 13.2363 10.6018L13.2495 10.5007L13.2407 10.3967C13.1989 10.1605 13.0154 9.96914 12.7734 9.92065L10.9307 9.55151C9.95328 9.35583 9.24925 8.49751 9.24902 7.50073C9.24938 6.798 9.63153 6.21742 10.1353 5.8396C10.4538 5.60068 10.8357 5.42886 11.25 5.33423V5.00024C11.25 4.58603 11.5858 4.25024 12 4.25024Z" fill="black"/>
<path fill-rule="evenodd" clip-rule="evenodd" d="M16.9995 1.74976C18.5183 1.74976 19.749 2.98195 19.749 4.50073V10.7703C20.0044 10.7987 20.2579 10.868 20.4961 10.9856C21.2635 11.3647 21.7499 12.1467 21.75 13.0027V19.5007C21.7496 21.0192 20.5176 22.2502 18.999 22.2502H4.99951C3.48096 22.2502 2.25038 21.0192 2.25 19.5007V13.0027C2.25011 12.1465 2.73619 11.3647 3.50391 10.9856C3.74191 10.8681 3.99441 10.7987 4.24951 10.7703V4.50073C4.24951 2.98211 5.48046 1.75002 6.99902 1.74976H16.9995ZM19.8311 12.3303C19.5753 12.2043 19.2694 12.2346 19.043 12.408L13.6714 16.5212C12.6849 17.2765 11.3137 17.2765 10.3271 16.5212L4.95557 12.408C4.729 12.2345 4.42335 12.2041 4.16748 12.3303C3.91168 12.4567 3.75011 12.7174 3.75 13.0027V19.5007C3.75038 20.1908 4.30939 20.7502 4.99951 20.7502H18.999C19.6891 20.7502 20.2496 20.1908 20.25 19.5007V13.0027C20.2499 12.7174 20.0869 12.4566 19.8311 12.3303ZM6.99902 3.24976C6.30889 3.25002 5.74951 3.81054 5.74951 4.50073V11.1379C5.78871 11.1642 5.83037 11.1881 5.86816 11.217L11.2397 15.3303C11.688 15.6735 12.3104 15.6733 12.7588 15.3303L18.1318 11.217C18.1695 11.1882 18.21 11.1641 18.249 11.1379V4.50073C18.249 3.81038 17.6899 3.24976 16.9995 3.24976H6.99902Z" fill="black"/>
</svg>
