<svg width="24" height="24" viewBox="0 0 24 24" fill="none" xmlns="http://www.w3.org/2000/svg">
<path d="M11.25 21.7499H6C5.03379 21.7499 4.25 20.9661 4.25 19.9999V12.9999H11.25V21.7499Z" fill="black"/>
<path d="M19.75 19.9999C19.75 20.9661 18.9662 21.7499 18 21.7499H12.75V12.9999H19.75V19.9999Z" fill="black"/>
<path fill-rule="evenodd" clip-rule="evenodd" d="M12.3359 3.04578C13.429 1.9686 15.1662 1.9855 16.2373 3.0995C17.2924 4.19722 17.3071 5.95346 16.2871 7.07313C16.2717 7.09278 16.2549 7.11234 16.2373 7.13075C16.1975 7.17217 16.1543 7.21047 16.1133 7.24989H20C20.9662 7.24989 21.75 8.03367 21.75 8.99989V10.4999C21.7499 11.4661 20.9662 12.2499 20 12.2499H4C3.03382 12.2499 2.25005 11.4661 2.25 10.4999V8.99989C2.25 8.03367 3.03379 7.24989 4 7.24989H7.88672C7.84556 7.21035 7.80263 7.17231 7.7627 7.13075C7.74345 7.11068 7.72556 7.08979 7.70898 7.06825C6.69318 5.94833 6.70993 4.19571 7.76367 3.0995C8.83317 1.98739 10.5649 1.96958 11.6582 3.04188C11.68 3.05994 11.7016 3.07957 11.7217 3.10047C11.825 3.20799 11.9171 3.3232 12 3.44325C12.083 3.32316 12.176 3.20802 12.2793 3.10047C12.2975 3.08158 12.3164 3.06235 12.3359 3.04578ZM10.6387 4.13953C10.1399 3.62068 9.34365 3.62098 8.84473 4.13953C8.33028 4.6752 8.33013 5.55612 8.84473 6.09168C9.49524 6.76862 10.4683 7.08007 11.2266 7.19422C11.243 6.93815 11.2569 6.63157 11.2471 6.30653C11.2339 5.87272 11.1858 5.42578 11.0811 5.03016C10.9756 4.63253 10.8254 4.33523 10.6445 4.14442C10.6428 4.14263 10.6404 4.14133 10.6387 4.13953ZM15.1553 4.13953C14.6565 3.62088 13.8612 3.621 13.3623 4.13953C13.3605 4.14139 13.3574 4.1427 13.3555 4.14442C13.1748 4.33521 13.0253 4.63295 12.9199 5.03016C12.8152 5.42577 12.7671 5.87273 12.7539 6.30653C12.7441 6.63115 12.757 6.93737 12.7734 7.19325C13.5318 7.07913 14.5048 6.76855 15.1553 6.09168C15.6698 5.55599 15.67 4.6751 15.1553 4.13953Z" fill="black"/>
</svg>
