<svg width="24" height="24" viewBox="0 0 24 24" fill="none" xmlns="http://www.w3.org/2000/svg">
<path d="M10.0002 14.2563C12.6143 14.2564 14.7502 16.3922 14.7502 19.0063C14.7502 19.4205 14.4144 19.7562 14.0002 19.7563C13.586 19.7563 13.2502 19.4205 13.2502 19.0063C13.2502 17.2206 11.7859 15.7564 10.0002 15.7563H6.00024C4.2145 15.7563 2.75031 17.2206 2.75024 19.0063C2.75024 19.4205 2.41437 19.7562 2.00024 19.7563C1.58603 19.7563 1.25024 19.4205 1.25024 19.0063C1.25031 16.3921 3.38607 14.2563 6.00024 14.2563H10.0002Z" fill="black"/>
<path d="M19.0002 13.2563C21.1144 13.2564 22.7502 14.8922 22.7502 17.0063C22.7502 17.4205 22.4144 17.7562 22.0002 17.7563C21.586 17.7563 21.2502 17.4205 21.2502 17.0063C21.2502 15.7206 20.2859 14.7564 19.0002 14.7563H16.0002C15.586 14.7563 15.2502 14.4205 15.2502 14.0063C15.2503 13.5921 15.5861 13.2563 16.0002 13.2563H19.0002Z" fill="black"/>
<path fill-rule="evenodd" clip-rule="evenodd" d="M4.95044 5.49654C6.57971 3.74194 9.3603 3.925 11.01 5.4565C11.0168 5.46283 11.024 5.46951 11.0305 5.47603C12.712 7.1576 12.7409 9.84928 11.01 11.4565C9.36073 12.9876 6.67966 13.1714 5.05005 11.4165C3.51018 9.75777 3.35749 7.21229 4.95044 5.49654ZM9.98071 6.54928C8.82995 5.48865 7.01736 5.47428 6.04907 6.51705C5.04283 7.60115 5.09016 9.25487 6.14966 10.396C7.11987 11.4408 8.83875 11.4253 9.9895 10.3569C11.0549 9.36764 11.0872 7.6679 9.98071 6.54928Z" fill="black"/>
<path fill-rule="evenodd" clip-rule="evenodd" d="M15.2981 6.14889C16.509 4.96993 18.5426 5.01551 19.802 6.14889C19.8078 6.15409 19.813 6.16015 19.8186 6.16549C19.8224 6.16911 19.8266 6.1725 19.8303 6.17623C21.1067 7.45271 21.1493 9.55145 19.802 10.7641C18.5727 11.8704 16.4853 12.0893 15.2424 10.7085C14.1362 9.47916 13.9173 7.39173 15.2981 6.14889ZM18.7844 7.2524C18.0531 6.60734 16.9193 6.64783 16.3303 7.23678C16.3211 7.246 16.3117 7.2554 16.302 7.26412C15.6832 7.82124 15.6643 8.93394 16.3577 9.70455C16.9148 10.3235 18.0275 10.3423 18.7981 9.64889C19.4461 9.06566 19.4923 7.97605 18.7844 7.2524Z" fill="black"/>
</svg>
