<svg width="24" height="24" viewBox="0 0 24 24" fill="none" xmlns="http://www.w3.org/2000/svg">
<path d="M16.8194 3.21957C17.9123 2.12668 19.5879 2.12668 20.6807 3.21957C21.7736 4.31247 21.7736 5.98801 20.6807 7.0809L17.6641 10.0955L19.379 18.576C19.5334 19.1234 19.3732 19.8115 18.8429 20.2166L18.1807 20.8807C17.7281 21.3334 17.1116 21.4525 16.5909 21.3485C16.0869 21.2477 15.5623 20.9107 15.3507 20.3202L13.1661 14.6932L10.8282 17.0311L10.9972 18.8827C10.9992 18.9051 11.0001 18.9275 11.0001 18.95C11.0001 19.3988 10.8528 19.9077 10.4806 20.2801L9.37997 21.3807C9.21677 21.5437 8.98782 21.6226 8.75887 21.5946C8.52969 21.5664 8.32595 21.4341 8.20711 21.2362L6.20223 17.8954L2.86434 15.8934C2.68089 15.7833 2.55262 15.5997 2.51278 15.3895C2.47311 15.1795 2.52504 14.9622 2.65536 14.7928L3.65536 13.493L3.71981 13.4198C4.09223 13.0474 4.60111 12.9003 5.04989 12.9002C5.07256 12.9002 5.09567 12.9011 5.11825 12.9032L6.96786 13.0711L9.30086 10.7381L3.58211 8.55063C3.55923 8.54187 3.53665 8.53228 3.51473 8.52133C2.52603 8.02698 2.10467 6.63451 3.01961 5.71957L3.71981 5.02035L3.80477 4.94223C4.00894 4.77002 4.24734 4.66828 4.44247 4.60824C4.67575 4.53652 4.92529 4.49985 5.15047 4.49985L5.29891 4.51547L13.8038 6.2352L16.8194 3.21957ZM19.6202 4.28012C19.1131 3.77301 18.3871 3.77301 17.88 4.28012L14.5802 7.5809C14.4024 7.75842 14.1477 7.8348 13.9014 7.785L5.09579 6.00375C5.03032 6.00857 4.95371 6.02005 4.88289 6.04184C4.83917 6.0553 4.80706 6.06981 4.78622 6.0809C4.77014 6.08948 4.76654 6.09294 4.77157 6.08871L4.08016 6.78012C4.02152 6.83876 4.00692 6.9022 4.02157 6.9725C4.03725 7.04755 4.08867 7.12139 4.16805 7.16781L10.9181 9.74985C11.1554 9.84064 11.3309 10.0453 11.3839 10.2938C11.4368 10.5422 11.3602 10.8006 11.1807 10.9803L7.78036 14.3807C7.62297 14.538 7.40335 14.6176 7.18172 14.5975L5.03133 14.4012C4.91397 14.4047 4.83574 14.4398 4.79793 14.4666L4.3575 15.0399L7.13582 16.7069C7.24139 16.7702 7.3303 16.8591 7.39364 16.9647L8.99813 19.6405L9.42 19.2196C9.44646 19.1929 9.49409 19.1082 9.49813 18.9686L9.30282 16.8182C9.28266 16.5965 9.36222 16.377 9.51961 16.2196L12.92 12.8202L12.9903 12.7577C13.1631 12.6236 13.3875 12.5704 13.6046 12.6161C13.8526 12.6683 14.0578 12.8426 14.1495 13.0789L16.7491 19.7791L16.7618 19.8133C16.762 19.8138 16.7626 19.8146 16.7638 19.8163C16.7657 19.819 16.7709 19.8254 16.7804 19.8329C16.8005 19.8487 16.8359 19.868 16.8848 19.8778C16.9889 19.8985 17.073 19.8673 17.1202 19.8202L17.8194 19.12L17.9268 19.0311C17.9282 19.0288 17.9314 19.0246 17.9337 19.0174C17.9367 19.0078 17.9376 18.9973 17.9376 18.9891C17.9376 18.981 17.9363 18.9803 17.9386 18.9872C17.929 18.9584 17.9212 18.929 17.9151 18.8993L16.1153 9.99887C16.0655 9.75265 16.1419 9.49787 16.3194 9.32016L19.6202 6.02035C20.1273 5.51325 20.1273 4.78723 19.6202 4.28012Z" fill="black"/>
</svg>
