<svg width="24" height="24" viewBox="0 0 24 24" fill="none" xmlns="http://www.w3.org/2000/svg">
<path d="M21.1699 11.5012C21.5349 11.9072 21.7499 12.4375 21.75 13.0027V19.5007C21.7496 21.0192 20.5176 22.2502 18.999 22.2502H4.99951C3.48097 22.2502 2.25039 21.0192 2.25 19.5007V13.0027C2.25006 12.4441 2.45843 11.9185 2.81543 11.5144L5.18555 13.3L10.3271 17.2434C11.3136 17.9987 12.6849 17.9985 13.6714 17.2434L18.9609 13.2239L21.1699 11.5012Z" fill="black"/>
<path fill-rule="evenodd" clip-rule="evenodd" d="M16.9995 1.74976C18.5183 1.74976 19.749 2.98195 19.749 4.50073V10.6882L18.1318 11.9377L12.7588 16.051C12.3104 16.3943 11.6882 16.3944 11.2397 16.051L5.86816 11.9377L4.24951 10.7131V4.50073C4.24951 2.98211 5.48046 1.75002 6.99902 1.74976H16.9995ZM12 4.24438C11.586 4.24438 11.2503 4.58045 11.25 4.99438V5.32837C10.8358 5.42297 10.4538 5.59493 10.1353 5.83374C9.63168 6.21145 9.2496 6.79095 9.24902 7.49341C9.24926 8.49014 9.95335 9.34993 10.9307 9.54565L12.7734 9.91479C13.0152 9.96324 13.1987 10.1549 13.2407 10.3909L13.2495 10.4949L13.2363 10.5959C13.2075 10.7044 13.1284 10.8312 12.9639 10.9548C12.7438 11.1198 12.4054 11.2448 12 11.2449C11.9852 11.2449 11.9694 11.244 11.9546 11.2449C11.4719 11.2733 11.0138 11.03 10.7681 10.6135C10.5576 10.2574 10.0977 10.1386 9.74121 10.3484C9.38476 10.5587 9.26629 11.0186 9.47607 11.3752C9.87013 12.0433 10.5165 12.505 11.25 12.6746V12.9939C11.25 13.4081 11.5858 13.7439 12 13.7439C12.414 13.7436 12.75 13.4079 12.75 12.9939V12.657C13.1639 12.5628 13.5465 12.3932 13.8647 12.1545C14.305 11.8239 14.6518 11.339 14.7319 10.7527L14.7495 10.4949L14.7407 10.3088C14.6594 9.39274 13.9841 8.62739 13.0679 8.44409L11.2251 8.07495C10.9488 8.01954 10.7493 7.77666 10.749 7.49487L10.7476 7.49341C10.7481 7.36838 10.8172 7.19766 11.0361 7.03345C11.2563 6.86872 11.5949 6.74487 12 6.74487C12.0142 6.74487 12.0283 6.74422 12.0425 6.74341C12.5218 6.71586 12.9773 6.95491 13.2275 7.3645C13.443 7.71807 13.9051 7.83024 14.2588 7.61499C14.612 7.39942 14.7244 6.93872 14.5093 6.58521C14.1117 5.93307 13.4728 5.47975 12.75 5.31226V4.99438C12.7497 4.58062 12.4138 4.24466 12 4.24438Z" fill="black"/>
</svg>
