<svg width="24" height="24" viewBox="0 0 24 24" fill="none" xmlns="http://www.w3.org/2000/svg">
<path d="M12 9.74927C12.9672 9.74944 13.7519 10.5325 13.752 11.4998C13.752 12.467 12.9672 13.2501 12 13.2502C11.0329 13.2499 10.2495 12.4669 10.2495 11.4998C10.2496 10.5326 11.0329 9.74957 12 9.74927Z" fill="black"/>
<path fill-rule="evenodd" clip-rule="evenodd" d="M20.3452 5.62573C21.1598 6.1031 21.7075 6.98598 21.7075 7.99878V19.0027C21.7073 20.5221 20.4759 21.7532 18.958 21.7537H5.04346C3.52393 21.7537 2.29272 20.5222 2.29248 19.0027V7.99878C2.29248 6.98612 2.84022 6.10317 3.65479 5.62573H20.3452ZM9.70752 15.7522C8.91681 15.7522 8.16091 16.0517 7.5835 16.5857C7.24186 16.9025 6.97356 17.2927 6.80127 17.7253C6.64844 18.11 6.83704 18.5463 7.22168 18.6995C7.60622 18.8521 8.04254 18.6649 8.1958 18.2805C8.28548 18.0553 8.42347 17.851 8.60156 17.6858C8.90432 17.4061 9.29827 17.2522 9.70752 17.2522H14.2939C14.7044 17.2524 15.0968 17.407 15.397 17.6858C15.5752 17.8511 15.7159 18.0552 15.8057 18.2805C15.9591 18.6649 16.3952 18.8525 16.7798 18.6995C17.1642 18.5462 17.3516 18.11 17.1987 17.7253C17.0264 17.2927 16.7597 16.9025 16.418 16.5857C15.8403 16.0493 15.0828 15.7524 14.2939 15.7522H9.70752ZM12 8.24927C10.2045 8.24957 8.74956 9.7042 8.74951 11.4998C8.74951 13.2954 10.2045 14.7499 12 14.7502C13.7956 14.7501 15.252 13.2954 15.252 11.4998C15.2519 9.70412 13.7956 8.24944 12 8.24927Z" fill="black"/>
<path d="M17.5005 2.26099C18.8481 2.39788 19.9048 3.50664 19.9644 4.87573H4.03564C4.09931 3.41257 5.30188 2.24634 6.78076 2.24634H17.2192L17.5005 2.26099Z" fill="black"/>
</svg>
