<svg width="24" height="24" viewBox="0 0 24 24" fill="none" xmlns="http://www.w3.org/2000/svg">
<path d="M17.5628 11.9367C17.2635 11.6374 16.7585 11.6153 16.4372 11.9367C16.1263 12.2476 16.1263 12.7515 16.4372 13.0623C16.7481 13.3732 17.2519 13.3732 17.5628 13.0623C17.8737 12.7515 17.8737 12.2476 17.5628 11.9367Z" fill="black"/>
<path fill-rule="evenodd" clip-rule="evenodd" d="M11.5 1.75C9.15279 1.75 7.25 3.65279 7.25 6C7.25 6.43989 7.3214 6.85853 7.44665 7.24956C5.22497 8.15796 3.59572 10.2164 3.29869 12.685H3.077C2.62021 12.685 2.25 12.3148 2.25 11.858C2.25 11.5598 2.41212 11.2956 2.6653 11.1482C3.02328 10.9398 3.14456 10.4807 2.93618 10.1227C2.72781 9.76472 2.26868 9.64344 1.9107 9.85182C1.22588 10.2504 0.75 10.9922 0.75 11.858C0.75 13.1432 1.79179 14.185 3.077 14.185H3.28453C3.44679 15.7853 4.17106 17.2162 5.25 18.2862V20.368C5.25 21.3342 6.03379 22.118 7 22.118H9C9.96621 22.118 10.75 21.3342 10.75 20.368V20.25H12.75V20.5C12.75 21.4662 13.5338 22.25 14.5 22.25H16.5C17.4662 22.25 18.25 21.4662 18.25 20.5V19.1059C18.9817 18.6144 19.6135 17.9838 20.1049 17.25H21C21.9662 17.25 22.75 16.4662 22.75 15.5V12.435C22.75 11.4688 21.9662 10.685 21 10.685H20.6269C20.286 9.94822 19.8135 9.29113 19.25 8.73153V6.5C19.25 6.08579 18.9142 5.75 18.5 5.75H17.5C16.8635 5.75 16.2671 5.91135 15.7455 6.192C15.7485 6.12847 15.75 6.06447 15.75 6C15.75 3.65279 13.8472 1.75 11.5 1.75ZM14.1393 6.75C14.211 6.50868 14.25 6.2581 14.25 6C14.25 4.48121 13.0188 3.25 11.5 3.25C9.98121 3.25 8.75 4.48121 8.75 6C8.75 6.29156 8.79999 6.57299 8.8912 6.84061C9.25195 6.78101 9.62235 6.75 10 6.75H14.1393ZM8.5608 8.44966C8.62247 8.44149 8.68381 8.4255 8.74339 8.4013C9.146 8.30243 9.56687 8.25 10 8.25H14.526C15.1199 8.25 15.6941 8.05477 16.1647 7.69974C16.5406 7.41662 16.9996 7.25 17.5 7.25H17.75V9.054C17.75 9.26625 17.8399 9.46857 17.9975 9.61078C18.6323 10.1837 19.1288 10.8912 19.4216 11.6924C19.5296 11.9882 19.811 12.185 20.126 12.185H21C21.1378 12.185 21.25 12.2972 21.25 12.435V15.5C21.25 15.6378 21.1378 15.75 21 15.75H19.689C19.4212 15.75 19.1738 15.8928 19.0397 16.1246C18.5808 16.9183 17.9171 17.5807 17.1229 18.0427C16.892 18.177 16.75 18.4239 16.75 18.691V20.5C16.75 20.6378 16.6378 20.75 16.5 20.75H14.5C14.3622 20.75 14.25 20.6378 14.25 20.5V19.5C14.25 19.0858 13.9142 18.75 13.5 18.75H10C9.58579 18.75 9.25 19.0858 9.25 19.5V20.368C9.25 20.5058 9.13779 20.618 9 20.618H7C6.86221 20.618 6.75 20.5058 6.75 20.368V17.963C6.75 17.75 6.65941 17.547 6.50084 17.4047C5.42605 16.4405 4.75 15.051 4.75 13.5C4.75 11.0993 6.36086 9.07525 8.5608 8.44966Z" fill="black"/>
</svg>
