<svg width="24" height="24" viewBox="0 0 24 24" fill="none" xmlns="http://www.w3.org/2000/svg">
<path d="M6.81047 6.47314C7.10324 6.18037 7.5781 6.18062 7.87102 6.47314L12.871 11.4731C12.8893 11.4914 12.9068 11.5102 12.9228 11.5298C13.163 11.8244 13.1455 12.2591 12.871 12.5337L7.872 17.5337C7.57929 17.8261 7.10429 17.8258 6.81145 17.5337C6.5188 17.2409 6.51891 16.766 6.81145 16.4731L11.2812 12.0044L6.81047 7.53369C6.51805 7.24087 6.51801 6.76594 6.81047 6.47314Z" fill="black"/>
<path d="M16.6572 6.24756C17.0713 6.24759 17.4071 6.58341 17.4072 6.99756V17.0024C17.4072 17.4166 17.0713 17.7524 16.6572 17.7524C16.2429 17.7524 15.9072 17.4167 15.9072 17.0024V6.99756C15.9072 6.5834 16.243 6.24756 16.6572 6.24756Z" fill="black"/>
</svg>
