<svg width="24" height="24" viewBox="0 0 24 24" fill="none" xmlns="http://www.w3.org/2000/svg">
<path d="M14.2939 15.7522C15.0828 15.7524 15.8403 16.0493 16.418 16.5857C16.7597 16.9025 17.0264 17.2927 17.1987 17.7253C17.3517 18.11 17.1644 18.5462 16.7798 18.6995C16.3951 18.8526 15.9591 18.665 15.8057 18.2805C15.7159 18.0551 15.5768 17.8511 15.3984 17.6858C15.0983 17.407 14.7044 17.2524 14.2939 17.2522H9.70752C9.29815 17.2522 8.90438 17.406 8.60156 17.6858C8.42335 17.8511 8.28551 18.0552 8.1958 18.2805C8.04259 18.665 7.60626 18.8521 7.22168 18.6995C6.83704 18.5463 6.64844 18.11 6.80127 17.7253C6.9736 17.2927 7.24031 16.9025 7.58203 16.5857C8.15947 16.0517 8.91676 15.7522 9.70752 15.7522H14.2939Z" fill="black"/>
<path fill-rule="evenodd" clip-rule="evenodd" d="M12 8.24927C13.7958 8.24927 15.2504 9.70401 15.2505 11.4998C15.2505 13.2955 13.7958 14.7502 12 14.7502C10.2043 14.7501 8.74951 13.2955 8.74951 11.4998C8.74956 9.70409 10.2043 8.24939 12 8.24927ZM12 9.74927C11.0328 9.74939 10.2496 10.5325 10.2495 11.4998C10.2495 12.467 11.0327 13.2501 12 13.2502C12.9674 13.2502 13.7505 12.4671 13.7505 11.4998C13.7504 10.5324 12.9673 9.74927 12 9.74927Z" fill="black"/>
<path fill-rule="evenodd" clip-rule="evenodd" d="M17.5005 2.26099C18.8878 2.40191 19.9702 3.57269 19.9702 4.99731V5.44116C20.9879 5.8446 21.7075 6.83707 21.7075 7.99878V19.0027C21.7073 20.5221 20.4759 21.7532 18.958 21.7537H5.04346C3.52394 21.7537 2.29272 20.5222 2.29248 19.0027V7.99878C2.29248 6.83724 3.01216 5.84472 4.02979 5.44116V4.99731C4.02979 3.47764 5.26109 2.24634 6.78076 2.24634H17.2192L17.5005 2.26099ZM5.04346 6.7478C4.35222 6.74781 3.79248 7.30754 3.79248 7.99878V19.0027C3.79272 19.6937 4.35236 20.2537 5.04346 20.2537H18.958C19.6479 20.2532 20.2073 19.6932 20.2075 19.0027V7.99878C20.2075 7.30783 19.6488 6.74828 18.958 6.7478H5.04346ZM6.78076 3.74634C6.08951 3.74634 5.52979 4.30607 5.52979 4.99731V5.2478H18.4702V4.99731C18.4702 4.34957 17.9788 3.81807 17.3481 3.75366L17.2192 3.74634H6.78076Z" fill="black"/>
</svg>
