<svg width="24" height="24" viewBox="0 0 24 24" fill="none" xmlns="http://www.w3.org/2000/svg">
<path fill-rule="evenodd" clip-rule="evenodd" d="M12.3369 3.04624C13.4301 1.96926 15.1664 1.98583 16.2373 3.09995C17.3101 4.21609 17.3098 6.01489 16.2373 7.1312C16.1977 7.17245 16.1541 7.21009 16.1133 7.24936H20C20.9661 7.24936 21.7497 8.03336 21.75 8.99936V10.9994C21.75 11.9656 20.9662 12.7494 20 12.7494H19.75V20.0003C19.7498 20.9663 18.966 21.7503 18 21.7503H6C5.03392 21.7503 4.25021 20.9664 4.25 20.0003V12.7494H4C3.03379 12.7494 2.25 11.9656 2.25 10.9994V8.99936C2.25025 8.03336 3.03394 7.24936 4 7.24936H7.88477C7.84419 7.21033 7.80208 7.17219 7.7627 7.1312C7.74491 7.11267 7.72839 7.09338 7.71289 7.07358C6.69259 5.95396 6.70758 4.19779 7.7627 3.09995C8.83211 1.98745 10.5638 1.97005 11.6572 3.04233C11.679 3.06036 11.7006 3.07908 11.7207 3.09995C11.8242 3.20767 11.9169 3.32339 12 3.4437C12.0831 3.32339 12.1758 3.20767 12.2793 3.09995C12.2977 3.08081 12.317 3.063 12.3369 3.04624ZM12.75 12.7494V20.2503H18C18.1376 20.2503 18.2498 20.1379 18.25 20.0003V12.7494H12.75ZM5.75 20.0003C5.75021 20.1379 5.86234 20.2503 6 20.2503H11.25V12.7494H5.75V20.0003ZM4 8.74936C3.86237 8.74936 3.75025 8.86179 3.75 8.99936V10.9994C3.75 11.1371 3.86221 11.2494 4 11.2494H11.25V8.74936H4ZM12.75 11.2494H20C20.1378 11.2494 20.25 11.1371 20.25 10.9994V8.99936C20.2497 8.86179 20.1376 8.74936 20 8.74936H12.75V11.2494ZM10.6377 4.13999C10.1388 3.62114 9.3426 3.62103 8.84375 4.13999C8.3313 4.67378 8.32974 5.55025 8.83887 6.08627C8.8408 6.08824 8.84281 6.09014 8.84473 6.09213C9.49529 6.76916 10.4682 7.07956 11.2266 7.1937C11.243 6.9376 11.2559 6.63099 11.2461 6.306C11.2329 5.87205 11.1849 5.42534 11.0801 5.02963C10.9754 4.63477 10.8267 4.33967 10.6475 4.14877C10.6444 4.14573 10.6407 4.14309 10.6377 4.13999ZM15.1553 4.13999C14.6564 3.62104 13.8612 3.62116 13.3623 4.13999C13.3592 4.14325 13.3547 4.14558 13.3516 4.14877C13.1725 4.33969 13.0245 4.63511 12.9199 5.02963C12.8151 5.42534 12.7671 5.87205 12.7539 6.306C12.7441 6.63096 12.756 6.93762 12.7725 7.1937C13.5311 7.07969 14.5045 6.76941 15.1553 6.09213C15.67 5.55646 15.6701 4.67562 15.1553 4.13999Z" fill="black"/>
</svg>
