<svg width="24" height="24" viewBox="0 0 24 24" fill="none" xmlns="http://www.w3.org/2000/svg">
<path d="M5.36756 12.9749C5.76068 12.6545 6.33962 12.6771 6.70496 13.0422L6.70936 13.0466C7.09516 13.4367 7.09399 14.0671 6.70496 14.4573C6.31523 14.846 5.68254 14.8471 5.29139 14.4573C4.90255 14.0674 4.90121 13.4334 5.29139 13.0422L5.36756 12.9749Z" fill="black"/>
<path fill-rule="evenodd" clip-rule="evenodd" d="M20.4994 2.75024C22.0183 2.75063 23.2489 3.98078 23.2489 5.49976V18.5002C23.2486 20.019 22.0181 21.2494 20.4994 21.2498H11.3676C11.1635 21.5553 10.8845 21.815 10.5414 21.9939L10.3319 22.0891C9.32767 22.4887 8.20636 22.1146 7.62928 21.2498H4.49891C4.45691 21.2497 4.41447 21.2443 4.37293 21.2424C3.79818 22.1111 2.67658 22.4906 1.66883 22.0906L1.66736 22.0891C0.513072 21.6288 -0.0488654 20.3204 0.410528 19.1667L0.658087 18.5413L0.659552 18.5369C0.902909 17.9261 1.27704 17.3773 1.7494 16.927V5.54077C1.7494 3.99977 2.999 2.75059 4.53992 2.75024H20.4994ZM4.89588 17.1658C4.12481 17.1659 3.38082 17.4576 2.8158 17.9802C2.48217 18.289 2.2208 18.6698 2.05262 19.092L1.80213 19.7219C1.64916 20.1063 1.83709 20.5424 2.22108 20.696C2.60572 20.8491 3.04185 20.6616 3.1952 20.2771L3.44715 19.6472C3.5327 19.4324 3.66593 19.2386 3.83533 19.0818C4.12393 18.815 4.50367 18.6659 4.89588 18.6658H7.10193C7.4941 18.6658 7.87485 18.8154 8.16248 19.0818C8.33195 19.2386 8.46654 19.4324 8.55213 19.6472L8.80262 20.2771C8.95588 20.6616 9.39213 20.8489 9.77674 20.696C10.1611 20.5425 10.3488 20.1065 10.1957 19.7219L9.9452 19.092C9.77693 18.6697 9.51437 18.289 9.18055 17.9802C8.61459 17.456 7.87059 17.1658 7.10193 17.1658H4.89588ZM7.70691 11.9304C6.72727 11.0092 5.18864 11.0247 4.23084 11.9817C3.31731 12.8971 3.25801 14.3473 4.05799 15.3289L4.23084 15.5178C5.14636 16.4318 6.59487 16.4897 7.57654 15.6892L7.76697 15.5178C8.7418 14.5413 8.74276 12.9577 7.76697 11.9817C7.74831 11.9631 7.72695 11.9467 7.70691 11.9304ZM14.4994 10.6604C14.0855 10.6607 13.7495 10.9965 13.7494 11.4104V14.7312C13.7499 15.1448 14.0858 15.4809 14.4994 15.4812C14.913 15.4809 15.2489 15.1448 15.2494 14.7312V11.4104C15.2493 10.9965 14.9132 10.6607 14.4994 10.6604ZM11.4994 7.97974C11.0857 7.98003 10.7498 8.31604 10.7494 8.72974V14.7297C10.7494 15.1438 11.0854 15.4794 11.4994 15.4797C11.9133 15.4794 12.2494 15.1437 12.2494 14.7297V8.72974C12.249 8.31606 11.9131 7.98007 11.4994 7.97974ZM17.4994 8.53052C17.0855 8.53082 16.7495 8.86661 16.7494 9.28052V14.7297C16.7495 15.1437 17.0855 15.4794 17.4994 15.4797C17.9133 15.4794 18.2493 15.1437 18.2494 14.7297V9.28052C18.2493 8.86663 17.9132 8.53085 17.4994 8.53052Z" fill="black"/>
</svg>
