<svg width="24" height="24" viewBox="0 0 24 24" fill="none" xmlns="http://www.w3.org/2000/svg">
<path d="M7.61914 6.74023C8.02581 6.46426 8.57329 6.48365 8.95996 6.79883L9.0459 6.87598L9.12305 6.96191C9.48324 7.40376 9.45765 8.05596 9.0459 8.46777C8.63389 8.87978 7.98103 8.90565 7.53906 8.54492C7.50972 8.52098 7.48145 8.49512 7.4541 8.46777C7.42674 8.44041 7.4009 8.41216 7.37695 8.38281C7.3048 8.29438 7.24826 8.19739 7.20703 8.0957C7.17952 8.02784 7.15924 7.95779 7.14551 7.88672C7.11809 7.74487 7.11806 7.59888 7.14551 7.45703C7.15926 7.38596 7.17951 7.31589 7.20703 7.24805C7.24818 7.1466 7.30502 7.05017 7.37695 6.96191C7.40101 6.93241 7.4266 6.90347 7.4541 6.87598L7.54004 6.79883C7.56568 6.77793 7.59217 6.75853 7.61914 6.74023Z" fill="black"/>
<path fill-rule="evenodd" clip-rule="evenodd" d="M18 2.25C20.0712 2.25 21.75 3.92879 21.75 6V18C21.75 20.0712 20.0712 21.75 18 21.75H6C3.92879 21.75 2.25 20.0712 2.25 18V6C2.25 3.92879 3.92879 2.25 6 2.25H18ZM15.668 10.165C15.6209 10.1741 15.5759 10.1976 15.5391 10.2344L10.9619 14.8105C10.6691 15.1031 10.1942 15.1032 9.90137 14.8105L8.49609 13.4043C8.48399 13.3922 8.46984 13.3812 8.45605 13.3721C8.42868 13.354 8.39842 13.3421 8.36719 13.3359C8.33598 13.3298 8.30381 13.329 8.27246 13.335C8.22506 13.3439 8.17966 13.3674 8.14258 13.4043L3.75 17.7969V18C3.75 19.2428 4.75721 20.25 6 20.25H18C19.2428 20.25 20.25 19.2428 20.25 18V14.5918L15.8926 10.2344C15.8321 10.1738 15.7467 10.1499 15.668 10.165ZM6 3.75C4.75721 3.75 3.75 4.75721 3.75 6V15.6758L7.08203 12.3438C7.12468 12.3011 7.1691 12.2609 7.21484 12.2236L7.35645 12.1191C7.40478 12.0872 7.45429 12.0579 7.50488 12.0312C7.75873 11.8977 8.03859 11.8312 8.31836 11.8311C8.43021 11.831 8.54214 11.841 8.65234 11.8623C8.98327 11.9262 9.29925 12.0872 9.55566 12.3438L10.4316 13.2188L14.4785 9.17383C14.7774 8.87498 15.1575 8.70648 15.5479 8.66895C15.6596 8.65821 15.7721 8.65825 15.8838 8.66895C16.2741 8.70629 16.6542 8.87456 16.9531 9.17383L20.25 12.4707V6C20.25 4.75721 19.2428 3.75 18 3.75H6Z" fill="black"/>
</svg>
