<svg width="24" height="24" viewBox="0 0 24 24" fill="none" xmlns="http://www.w3.org/2000/svg">
<path d="M4.63609 14.25C5.87448 16.3876 8.01687 17.933 10.5409 18.3677L7.54381 21.5171C7.38244 21.6865 7.1509 21.7712 6.91832 21.7456C6.68565 21.7198 6.47774 21.586 6.35729 21.3853L4.9525 19.0444L2.61461 17.6426C2.41818 17.5246 2.28514 17.3235 2.25572 17.0962C2.2265 16.8688 2.30353 16.6391 2.46373 16.4751L4.63609 14.25Z" fill="black"/>
<path d="M21.5375 16.4751C21.6977 16.6391 21.7733 16.8688 21.744 17.0962C21.7146 17.3234 21.5829 17.5246 21.3866 17.6426L19.0472 19.0459L17.6439 21.3853C17.5234 21.5859 17.3155 21.7199 17.0829 21.7456C16.8504 21.7713 16.6188 21.6863 16.4574 21.5171L13.4574 18.3662C15.9796 17.9278 18.1179 16.3786 19.3534 14.2397L21.5375 16.4751Z" fill="black"/>
<path d="M12.6532 8.83447C12.7624 9.05558 12.9746 9.20907 13.2186 9.24463L14.6791 9.45557L13.6214 10.4868C13.4449 10.6591 13.3644 10.9087 13.4061 11.1519L13.6551 12.6064L12.3485 11.9194C12.3182 11.9035 12.2864 11.8899 12.2547 11.8784C12.2448 11.8749 12.2341 11.8727 12.224 11.8696C12.2052 11.8637 12.1859 11.8579 12.1669 11.8535L12.1273 11.8462C12.1217 11.8453 12.1153 11.8441 12.1097 11.8433C12.0782 11.8386 12.0463 11.8366 12.0145 11.8359C12.0103 11.8358 12.0055 11.8345 12.0013 11.8345C11.8814 11.8343 11.7617 11.8639 11.6527 11.9209L10.3446 12.6079L10.5951 11.1519C10.6366 10.9087 10.5549 10.6605 10.3783 10.4883L9.3192 9.45703L10.7826 9.24463C11.0266 9.20906 11.2388 9.05549 11.348 8.83447L11.9999 7.51025L12.6532 8.83447Z" fill="black"/>
<path fill-rule="evenodd" clip-rule="evenodd" d="M11.9999 2.25C12.257 2.24999 12.5143 2.26268 12.7704 2.28809C12.7957 2.29062 12.8212 2.2941 12.8465 2.29688C13.0732 2.32163 13.2991 2.35618 13.5233 2.40088C13.5571 2.40765 13.5908 2.41564 13.6244 2.42285C15.0374 2.72429 16.3836 3.42146 17.4813 4.51904L17.7552 4.80908C20.5039 7.85123 20.4129 12.5484 17.4813 15.4805C15.0011 17.9605 11.2579 18.4069 8.32164 16.8223C8.29456 16.8077 8.26796 16.7918 8.24108 16.7769C8.15542 16.7293 8.07037 16.68 7.98619 16.6289C7.97049 16.6194 7.95495 16.6092 7.93932 16.5996C7.8499 16.5445 7.76032 16.4888 7.67272 16.4297C7.65299 16.4164 7.63372 16.4021 7.61412 16.3887C7.53193 16.3321 7.44994 16.2745 7.36949 16.2144C7.34325 16.1948 7.31766 16.1744 7.29186 16.1543C7.27774 16.1435 7.26342 16.133 7.24938 16.1221C7.19186 16.0775 7.13442 16.0324 7.07799 15.9858C7.04378 15.9577 7.01063 15.9281 6.97691 15.8994C6.9743 15.8972 6.97221 15.8943 6.96959 15.8921C6.90903 15.8404 6.84981 15.7874 6.79088 15.7339C6.76733 15.7126 6.74237 15.6926 6.7191 15.6709C6.69331 15.6469 6.6684 15.622 6.64293 15.5977C6.60248 15.559 6.56242 15.52 6.52281 15.4805C6.46041 15.4183 6.39998 15.3543 6.33971 15.29C6.31233 15.2608 6.28314 15.2333 6.25621 15.2036L6.2152 15.1567C6.13504 15.0672 6.05677 14.976 5.98082 14.8828L5.95445 14.8506C5.93787 14.83 5.9225 14.8084 5.90611 14.7876C5.8568 14.7251 5.80701 14.6627 5.75963 14.5986C5.74258 14.5755 5.72659 14.5515 5.70983 14.5283L5.7069 14.5239C5.57331 14.3387 5.44902 14.1467 5.3319 13.9497C5.29042 13.88 5.24965 13.8099 5.21031 13.7388C5.20156 13.7229 5.19113 13.7078 5.18248 13.6919L5.18395 13.689C4.58695 12.5914 4.24499 11.3349 4.24498 9.99756C4.24498 6.88616 6.07991 4.20461 8.72594 2.97217C8.73657 2.96722 8.74752 2.96242 8.75816 2.95752C9.41946 2.65322 10.1305 2.43821 10.8763 2.33057C10.8972 2.32752 10.9184 2.32465 10.9393 2.32178C11.0431 2.30767 11.1477 2.29511 11.2528 2.28516C11.2693 2.28357 11.2861 2.28224 11.3026 2.28076C11.406 2.27164 11.5101 2.26381 11.6146 2.25879C11.7131 2.25391 11.8119 2.2526 11.9105 2.25146C11.9377 2.25118 11.9653 2.25001 11.9925 2.25H11.9999ZM13.1014 6.3501C12.6794 5.49425 11.5087 5.43977 10.9935 6.18896L10.8998 6.3501L10.1761 7.81641L8.55748 8.05225C7.55088 8.1992 7.15089 9.43786 7.87779 10.147L9.0482 11.2866L8.77281 12.8994C8.6009 13.9019 9.65277 14.6652 10.5526 14.1929L12.0013 13.4312L13.4471 14.1929C14.291 14.6363 15.2692 13.9912 15.246 13.0825L15.2269 12.8979L14.9515 11.2866L16.1234 10.1455L16.2464 10.0063C16.7611 9.33369 16.438 8.33408 15.6254 8.0918L15.4437 8.05225L13.8236 7.81494L13.1014 6.3501Z" fill="black"/>
</svg>
