<svg width="24" height="24" viewBox="0 0 24 24" fill="none" xmlns="http://www.w3.org/2000/svg">
<path d="M9.99848 5.25C9.0377 5.25 8.1153 5.4142 7.25781 5.71608C7.4039 3.50125 9.24668 1.75 11.4985 1.75C13.3694 1.75 14.958 2.95898 15.5257 4.63834C15.1336 4.79921 14.7664 5.0058 14.4304 5.25H9.99848Z" fill="black"/>
<path fill-rule="evenodd" clip-rule="evenodd" d="M17.5 5.75C16.6566 5.75 15.8837 6.03328 15.2617 6.50201C15.0483 6.66298 14.7901 6.75 14.526 6.75H10C6.54763 6.75 3.70103 9.34117 3.29869 12.685H3.077C2.62021 12.685 2.25 12.3148 2.25 11.858C2.25 11.5598 2.41212 11.2956 2.6653 11.1482C3.02328 10.9398 3.14456 10.4807 2.93618 10.1227C2.72781 9.76472 2.26868 9.64344 1.9107 9.85182C1.22588 10.2504 0.75 10.9922 0.75 11.858C0.75 13.1432 1.79179 14.185 3.077 14.185H3.28453C3.44679 15.7853 4.17106 17.2162 5.25 18.2862V20.368C5.25 21.3342 6.03379 22.118 7 22.118H9C9.96621 22.118 10.75 21.3342 10.75 20.368V20.25H12.75V20.5C12.75 21.4662 13.5338 22.25 14.5 22.25H16.5C17.4662 22.25 18.25 21.4662 18.25 20.5V19.1059C18.9817 18.6144 19.6135 17.9838 20.1049 17.25H21C21.9662 17.25 22.75 16.4662 22.75 15.5V12.435C22.75 11.4688 21.9662 10.685 21 10.685H20.6269C20.286 9.94822 19.8135 9.29113 19.25 8.73153V6.5C19.25 6.08579 18.9142 5.75 18.5 5.75H17.5ZM17.5628 11.9367C17.2635 11.6374 16.7585 11.6154 16.4372 11.9367C16.1263 12.2476 16.1263 12.7515 16.4372 13.0624C16.7481 13.3733 17.2519 13.3733 17.5628 13.0624C17.8737 12.7515 17.8737 12.2476 17.5628 11.9367Z" fill="black"/>
</svg>
