<svg width="24" height="24" viewBox="0 0 24 24" fill="none" xmlns="http://www.w3.org/2000/svg">
<path fill-rule="evenodd" clip-rule="evenodd" d="M11.2185 7.52417C11.6178 7.20471 12.165 7.16462 12.6013 7.40405L12.7815 7.52417L15.7815 9.92358C16.0779 10.1608 16.2502 10.521 16.2502 10.9006V19.7498H17.7502V10.9006C17.7502 10.6791 17.7211 10.4613 17.6697 10.2502H21.7507V19.7498H21.9998C22.4138 19.7498 22.7495 20.0858 22.7498 20.4998C22.7498 20.914 22.414 21.2498 21.9998 21.2498H2.00024C1.58603 21.2498 1.25024 20.914 1.25024 20.4998C1.25049 20.0858 1.58618 19.7498 2.00024 19.7498H2.25073V10.2502H6.33032C6.27891 10.4612 6.24975 10.6791 6.24976 10.9006V19.7498H7.74976V10.9006C7.74974 10.521 7.92213 10.1608 8.21851 9.92358L11.2185 7.52417ZM11.1672 15.7507C10.7915 15.7507 10.431 15.8996 10.1653 16.1653C9.89963 16.431 9.75073 16.7915 9.75073 17.1672V19.7498H11.2507V17.2507H12.7507V19.7498H14.2507V17.1672C14.2507 16.3848 13.6152 15.7507 12.8328 15.7507H11.1672ZM12.6335 9.9353C12.2463 9.61148 11.6699 9.62686 11.3005 9.98657L11.2991 9.98804C11.2809 10.0059 11.2623 10.0245 11.2463 10.0437C10.9059 10.4315 10.9164 11.0222 11.283 11.3972C11.6677 11.7901 12.2987 11.7976 12.6921 11.4133C13.0611 11.0527 13.0903 10.4754 12.7756 10.0803L12.7083 10.0042L12.6335 9.9353Z" fill="black"/>
<path d="M20.0002 2.75024C20.9667 2.75025 21.7507 3.53424 21.7507 4.50073V8.75024H16.7146L13.7175 6.35229C12.7133 5.5494 11.2866 5.54927 10.2825 6.35229L7.2854 8.75024H2.25073V4.50073C2.25073 3.53439 3.03347 2.7505 3.99976 2.75024H20.0002Z" fill="black"/>
</svg>
