<svg width="24" height="24" viewBox="0 0 24 24" fill="none" xmlns="http://www.w3.org/2000/svg">
<path fill-rule="evenodd" clip-rule="evenodd" d="M4.03138 4.50421C5.10525 3.43076 6.84627 3.43157 7.92005 4.50519L9.0929 5.67804C9.99833 6.5835 9.94453 8.00805 9.00794 8.94464L8.18372 9.76788C8.7315 11.0056 9.56012 12.236 10.6622 13.3382C11.7645 14.4404 12.995 15.268 14.2316 15.8148L15.1407 14.9066C16.019 14.0277 17.444 14.0283 18.3224 14.9066L19.4952 16.0804L19.6837 16.2894C20.5642 17.37 20.5022 18.9631 19.4952 19.97L18.8439 20.6204C17.9172 21.5468 16.5932 21.9201 15.3048 21.6771C12.5239 21.1512 9.53039 19.55 6.99036 17.0101C4.45028 14.4699 2.84822 11.4766 2.32239 8.69562C2.07931 7.40722 2.45258 6.08231 3.37903 5.15558L4.03138 4.50421ZM6.8595 5.56573C6.40184 5.10823 5.67749 5.07931 5.18665 5.4798L5.09192 5.56573L4.43958 6.2171L4.4386 6.21613C3.884 6.77133 3.64024 7.58636 3.797 8.4173C4.25932 10.8618 5.69358 13.5911 8.05091 15.9485C10.4085 18.3061 13.1384 19.7411 15.5831 20.2034C16.4142 20.3601 17.2282 20.1147 17.7833 19.5599L18.4347 18.9085C18.922 18.4208 18.9226 17.6302 18.4347 17.1409L17.2609 15.9681C16.9675 15.6749 16.493 15.6749 16.2013 15.9671L15.2794 16.89C14.8712 17.2978 14.2333 17.4532 13.6642 17.2034C12.2406 16.58 10.8429 15.6399 9.60169 14.3987C8.36559 13.1626 7.4271 11.7716 6.80286 10.3538C6.54784 9.77583 6.70631 9.12567 7.12122 8.71027L7.94739 7.88409C8.35278 7.47871 8.29887 7.00513 8.03235 6.73859L6.8595 5.56573Z" fill="black"/>
<path d="M12.9904 6.24054C14.213 6.2241 15.4476 6.67835 16.3849 7.61554C16.3911 7.62171 16.3966 7.62873 16.4025 7.63507C17.3272 8.57014 17.7754 9.79545 17.7589 11.0101C17.7533 11.4242 17.4123 11.755 16.9982 11.7493C16.5844 11.7432 16.2533 11.4034 16.2589 10.9896C16.2702 10.1505 15.9599 9.31258 15.3234 8.67609C14.6869 8.03989 13.8488 7.7292 13.0099 7.74054C12.5961 7.74577 12.2558 7.41513 12.2501 7.00128C12.2445 6.58724 12.5763 6.24632 12.9904 6.24054Z" fill="black"/>
<path d="M13.0001 2.21417C15.2467 2.21423 17.4969 3.07261 19.212 4.78741C20.9271 6.50249 21.7851 8.75268 21.7853 10.9993C21.7853 11.4135 21.4495 11.7493 21.0353 11.7493C20.6215 11.7488 20.2853 11.4132 20.2853 10.9993C20.2851 9.13687 19.5762 7.2757 18.1574 5.85382C18.1556 5.85212 18.1532 5.85068 18.1515 5.84894C16.7288 4.42633 14.8651 3.71423 13.0001 3.71417C12.5861 3.71401 12.2502 3.3782 12.2501 2.96417C12.2501 2.55006 12.586 2.21433 13.0001 2.21417Z" fill="black"/>
</svg>
