<svg width="24" height="24" viewBox="0 0 24 24" fill="none" xmlns="http://www.w3.org/2000/svg">
<path fill-rule="evenodd" clip-rule="evenodd" d="M10.9939 6.18907C11.509 5.44001 12.6797 5.49328 13.1018 6.34874L13.1004 6.35021L13.824 7.81505L15.4441 8.05089L15.6258 8.09191C16.4381 8.33432 16.7614 9.33387 16.2468 10.0065L16.1238 10.1456L14.9519 11.2853L15.2273 12.8981L15.2464 13.0826C15.2696 13.9914 14.2915 14.6352 13.4475 14.1915L12.0017 13.4313L10.553 14.1915C9.65305 14.6644 8.60125 13.9022 8.77321 12.8995L9.0486 11.2867L7.87819 10.1456C7.1514 9.43642 7.55114 8.19912 8.55788 8.05235L10.1765 7.81651L10.9002 6.34874L10.9939 6.18907ZM11.3484 8.83312C11.2392 9.0544 11.0272 9.20768 10.783 9.24327L9.3196 9.45714L10.3787 10.4884C10.5553 10.6606 10.637 10.9088 10.5955 11.152L10.345 12.6066L11.6531 11.921C11.7621 11.8641 11.8817 11.8343 12.0017 11.8346C12.006 11.8347 12.0107 11.836 12.0149 11.836C12.0468 11.8367 12.0785 11.8387 12.1101 11.8434C12.1158 11.8442 12.122 11.8439 12.1277 11.8448L12.1673 11.8536C12.1863 11.858 12.2056 11.8638 12.2244 11.8697C12.2346 11.8728 12.2452 11.8749 12.2551 11.8785C12.2869 11.89 12.3185 11.9036 12.3489 11.9195L13.6555 12.6066L13.4065 11.1505C13.3651 10.9074 13.4453 10.659 13.6218 10.4869L14.6795 9.45568L13.219 9.24327C12.9747 9.20776 12.7628 9.05458 12.6536 8.83312L12.0003 7.5089L11.3484 8.83312Z" fill="black"/>
<path fill-rule="evenodd" clip-rule="evenodd" d="M6.52028 4.51915C9.54668 1.49324 14.4538 1.49334 17.4802 4.51915L17.7556 4.80919C19.9951 7.28794 20.3477 10.8645 18.8162 13.6905L21.5364 16.4767C21.6967 16.6408 21.7737 16.8688 21.7444 17.0963C21.715 17.3235 21.5832 17.5246 21.387 17.6427L19.0462 19.046L17.6428 21.3868C17.5223 21.587 17.3155 21.7199 17.0833 21.7457C16.8505 21.7715 16.6178 21.6868 16.4563 21.5172L12.8264 17.7042C12.2767 17.7628 11.7224 17.7629 11.1726 17.7042L7.54274 21.5172C7.38146 21.6863 7.151 21.7712 6.91872 21.7457C6.68596 21.72 6.47671 21.5862 6.35622 21.3854L4.9529 19.0445L2.61501 17.6427C2.41839 17.5247 2.28554 17.3237 2.25612 17.0963C2.22681 16.8688 2.30385 16.6393 2.46413 16.4752L5.18434 13.6905C3.59222 10.7525 4.03684 7.00259 6.52028 4.51915ZM17.9563 14.9576C17.8067 15.1369 17.6486 15.3122 17.4802 15.4806C16.6212 16.3395 15.6105 16.9535 14.5344 17.3248L16.8635 19.7696L17.8567 18.1144L17.9094 18.0382C17.9659 17.966 18.0355 17.904 18.1145 17.8566L19.7991 16.8443L17.9563 14.9576ZM4.19997 16.8443L5.886 17.8566C5.99149 17.9198 6.08049 18.0089 6.14382 18.1144L7.13552 19.7682L9.46169 17.3234C8.3873 16.9518 7.3781 16.3384 6.52028 15.4806C6.35164 15.3119 6.19406 15.1358 6.04421 14.9562L4.19997 16.8443ZM16.1868 5.35997C13.7333 3.14289 9.94546 3.21654 7.58083 5.58116C5.4686 7.69366 5.18706 10.9402 6.73122 13.358C6.74693 13.3795 6.75909 13.4028 6.77224 13.4254C7.00282 13.7765 7.27213 14.1098 7.58083 14.4186C8.53632 15.3741 9.72499 15.9543 10.9632 16.1617C11.0041 16.1652 11.0446 16.1706 11.0847 16.1808C11.6902 16.27 12.3059 16.271 12.9114 16.1822C12.953 16.1714 12.9948 16.1639 13.0374 16.1603C14.2756 15.9529 15.4642 15.3741 16.4197 14.4186C16.7308 14.1074 17.0009 13.7708 17.2327 13.4166C17.2439 13.3979 17.2548 13.3789 17.2678 13.3609C18.7585 11.0299 18.5508 7.92777 16.6409 5.81407L16.4197 5.58116L16.1868 5.35997Z" fill="black"/>
</svg>
