<svg width="24" height="24" viewBox="0 0 24 24" fill="none" xmlns="http://www.w3.org/2000/svg">
<path d="M17.1895 17.5269C16.8968 17.8196 16.4219 17.8194 16.129 17.5269L11.129 12.5269C11.1107 12.5086 11.0932 12.4898 11.0772 12.4702C10.837 12.1756 10.8544 11.7409 11.129 11.4663L16.128 6.46632C16.4207 6.17395 16.8957 6.17418 17.1885 6.46632C17.4812 6.75913 17.4811 7.234 17.1885 7.52687L12.7188 11.9956L17.1895 16.4663C17.4819 16.7591 17.482 17.2341 17.1895 17.5269Z" fill="black"/>
<path d="M7.34284 17.7525C6.92869 17.7524 6.5929 17.4166 6.59284 17.0025V6.99757C6.59284 6.58338 6.92865 6.2476 7.34284 6.24757C7.75706 6.24757 8.09284 6.58336 8.09284 6.99757V17.0025C8.09278 17.4166 7.75702 17.7525 7.34284 17.7525Z" fill="black"/>
</svg>
