<svg width="24" height="24" viewBox="0 0 24 24" fill="none" xmlns="http://www.w3.org/2000/svg">
<path d="M7.44067 8.69019C7.98972 8.14153 8.85849 8.10618 9.44751 8.58618L9.56177 8.69019L9.66431 8.80444C10.1439 9.39345 10.1103 10.2624 9.56177 10.8113C8.9762 11.3967 8.02648 11.3963 7.44067 10.8113C6.85492 10.2255 6.855 9.27598 7.44067 8.69019Z" fill="black"/>
<path fill-rule="evenodd" clip-rule="evenodd" d="M20.0002 2.75024C21.5193 2.75024 22.7495 3.98077 22.7498 5.49976V18.5002C22.7498 20.0195 21.5195 21.2498 20.0002 21.2498H3.99976C2.48077 21.2495 1.25024 20.0193 1.25024 18.5002V5.54077C1.25051 3.99995 2.49995 2.75051 4.04077 2.75024H20.0002ZM7.85522 13.7512C6.92806 13.7512 6.03295 14.0791 5.3269 14.6741L5.18774 14.7971C4.75874 15.1942 4.42526 15.6819 4.20923 16.2239C4.05652 16.6083 4.24388 17.0432 4.62817 17.1965C5.01266 17.3494 5.44887 17.1619 5.60229 16.7776C5.73612 16.4423 5.94293 16.1418 6.20728 15.8972L6.38159 15.7493C6.80283 15.4268 7.3208 15.2512 7.85522 15.2512H9.14722C9.75758 15.2515 10.3456 15.4821 10.7937 15.8972L10.8904 15.9924C11.1084 16.2182 11.2817 16.4845 11.3987 16.7776C11.5522 17.1619 11.9883 17.3496 12.3728 17.1965C12.757 17.0432 12.9443 16.6083 12.7917 16.2239C12.6027 15.7497 12.3242 15.3161 11.97 14.9495L11.8132 14.7971C11.0879 14.125 10.136 13.7515 9.14722 13.7512H7.85522ZM15.0007 12.7507C14.5865 12.7507 14.2508 13.0866 14.2507 13.5007C14.251 13.9147 14.5867 14.2507 15.0007 14.2507H17.4016C17.815 14.25 18.1513 13.9142 18.1516 13.5007C18.1516 13.087 17.8152 12.7515 17.4016 12.7507H15.0007ZM10.6223 7.62964C9.45087 6.45819 7.55173 6.45845 6.38013 7.62964C5.20866 8.80122 5.20859 10.7003 6.38013 11.8718C7.55172 13.0427 9.45096 13.0431 10.6223 11.8718C11.7568 10.7369 11.7915 8.9185 10.7278 7.74097L10.6223 7.62964ZM15.0007 8.75024C14.5867 8.75024 14.251 9.08628 14.2507 9.50024C14.251 9.91421 14.5867 10.2502 15.0007 10.2502H19.0012C19.4148 10.2497 19.7509 9.91388 19.7512 9.50024C19.7509 9.08661 19.4148 8.75077 19.0012 8.75024H15.0007Z" fill="black"/>
</svg>
