<svg width="24" height="24" viewBox="0 0 24 24" fill="none" xmlns="http://www.w3.org/2000/svg">
<path fill-rule="evenodd" clip-rule="evenodd" d="M14.9979 2.24634C15.7512 2.24635 16.4197 2.72893 16.658 3.4436C16.8961 4.15809 16.6509 4.94464 16.0486 5.39673L16.0477 5.39771L14.9334 6.23267C14.8775 6.27482 14.8432 6.33789 14.8357 6.40552L14.8377 6.47388L15.3885 9.78442C16.9077 9.98176 18.1765 11.091 18.5477 12.6116L18.6805 13.1575L18.7107 13.2981C18.8402 14.0012 18.6619 14.7293 18.2176 15.2952C17.7435 15.8987 17.0183 16.2512 16.2508 16.2512H12.7459V21.0042C12.7457 21.4182 12.41 21.7542 11.9959 21.7542C11.5821 21.7538 11.2461 21.4179 11.2459 21.0042V16.2512H7.74786C6.98038 16.2512 6.25506 15.8987 5.78106 15.2952C5.30722 14.6915 5.13617 13.903 5.31817 13.1575L5.45098 12.6116L5.54082 12.303C5.99795 10.9441 7.19239 9.97041 8.6043 9.78442L9.15606 6.47485C9.1714 6.38271 9.13405 6.2888 9.05938 6.23267L7.94512 5.39771C7.34267 4.94569 7.09675 4.15817 7.33477 3.4436C7.57302 2.72908 8.24175 2.24654 8.99493 2.24634H14.9979ZM14.8973 11.2336V11.2493H9.09551C8.05807 11.2496 7.15504 11.9592 6.90899 12.967L6.7752 13.5129C6.7024 13.8112 6.77129 14.1269 6.96075 14.3684C7.15042 14.61 7.4408 14.7512 7.74786 14.7512H16.2508C16.5579 14.7512 16.8482 14.61 17.0379 14.3684C17.2275 14.1268 17.2963 13.8113 17.2234 13.5129L17.0897 12.967C16.8432 11.9577 15.9383 11.2475 14.8992 11.2493L14.8982 11.2327L14.8973 11.2336ZM8.99493 3.74634C8.88748 3.74654 8.79177 3.81535 8.75762 3.91724C8.72363 4.0192 8.75884 4.13177 8.84453 4.19653L9.95977 5.03247L10.0545 5.10962C10.5137 5.50701 10.7368 6.11726 10.6356 6.72192L10.1307 9.74927H13.8621L13.3582 6.72192L13.3416 6.60083C13.2832 5.99646 13.5428 5.40052 14.033 5.03247L15.1482 4.19653C15.2342 4.13181 15.2692 4.01932 15.2352 3.91724C15.2009 3.81529 15.1054 3.74635 14.9979 3.74634H8.99493Z" fill="black"/>
</svg>
