<svg width="24" height="24" viewBox="0 0 24 24" fill="none" xmlns="http://www.w3.org/2000/svg">
<path d="M9.14575 13.7498C10.1346 13.7498 11.0877 14.1235 11.8132 14.7957C12.2424 15.1927 12.5756 15.6804 12.7917 16.2224C12.9449 16.607 12.7573 17.0431 12.3728 17.1965C11.9881 17.3498 11.5521 17.1623 11.3987 16.7776C11.2816 16.4841 11.1087 16.2169 10.8904 15.991L10.7937 15.8972C10.3454 15.4817 9.75654 15.2498 9.14575 15.2498H7.85376C7.31959 15.2499 6.80265 15.427 6.38159 15.7493L6.20728 15.8972C5.94275 16.1419 5.73465 16.442 5.60083 16.7776C5.44743 17.1621 5.01277 17.3496 4.62817 17.1965C4.24347 17.0432 4.05598 16.6071 4.20923 16.2224C4.42532 15.6806 4.75873 15.1927 5.18774 14.7957L5.32544 14.6741C6.03139 14.079 6.9266 13.7499 7.85376 13.7498H9.14575Z" fill="black"/>
<path d="M17.4001 12.7507C17.8142 12.7509 18.1501 13.0866 18.1501 13.5007C18.1499 13.9146 17.814 14.2505 17.4001 14.2507H15.0007C14.5867 14.2507 14.251 13.9147 14.2507 13.5007C14.2507 13.0865 14.5865 12.7507 15.0007 12.7507H17.4001Z" fill="black"/>
<path fill-rule="evenodd" clip-rule="evenodd" d="M6.37866 7.62964C7.55022 6.45808 9.44927 6.4581 10.6208 7.62964L10.7278 7.74097C11.7919 8.91862 11.7558 10.7368 10.6208 11.8718C9.44924 13.0429 7.55008 13.0432 6.37866 11.8718C5.20728 10.7004 5.20758 8.80124 6.37866 7.62964ZM9.44604 8.58618C8.8569 8.10635 7.98813 8.14126 7.43921 8.69019C6.85391 9.276 6.85362 10.2256 7.43921 10.8113C8.02484 11.3969 8.97448 11.3966 9.5603 10.8113C10.1093 10.2623 10.1442 9.39359 9.66431 8.80444L9.5603 8.69019L9.44604 8.58618Z" fill="black"/>
<path d="M18.9998 8.75024C19.414 8.75024 19.7497 9.08604 19.7498 9.50024C19.7498 9.91446 19.414 10.2502 18.9998 10.2502H15.0007C14.5865 10.2502 14.2507 9.91446 14.2507 9.50024C14.2507 9.08604 14.5865 8.75024 15.0007 8.75024H18.9998Z" fill="black"/>
<path fill-rule="evenodd" clip-rule="evenodd" d="M20.0002 2.75024C21.5193 2.75024 22.7495 3.98077 22.7498 5.49976V18.5002C22.7498 20.0195 21.5195 21.2498 20.0002 21.2498H3.99976C2.48077 21.2495 1.25024 20.0193 1.25024 18.5002V5.54077C1.25051 3.99995 2.49995 2.75051 4.04077 2.75024H20.0002ZM4.04077 4.25024C3.32837 4.25051 2.75051 4.82837 2.75024 5.54077V18.5002C2.75024 19.1909 3.30919 19.7495 3.99976 19.7498H20.0002C20.691 19.7498 21.2498 19.191 21.2498 18.5002V5.49976C21.2495 4.80919 20.6909 4.25024 20.0002 4.25024H4.04077Z" fill="black"/>
</svg>
