<svg width="24" height="24" viewBox="0 0 24 24" fill="none" xmlns="http://www.w3.org/2000/svg">
<path d="M19.4988 3.24976C21.0179 3.24976 22.2496 4.48026 22.2498 5.99927V17.9993C22.2498 19.5185 21.018 20.7502 19.4988 20.7502H13.4988C13.0849 20.7501 12.7491 20.4141 12.7488 20.0002C12.7488 19.5861 13.0848 19.2504 13.4988 19.2502H19.4988C20.1896 19.2502 20.7498 18.6901 20.7498 17.9993V5.99927C20.7496 5.30869 20.1895 4.74976 19.4988 4.74976H5.49932C4.80869 4.74976 4.25006 5.30869 4.24981 5.99927V8.99927C4.24981 9.41327 3.91373 9.74892 3.49981 9.74927C3.0856 9.74927 2.74981 9.41348 2.74981 8.99927V5.99927C2.75006 4.48026 3.98026 3.24976 5.49932 3.24976H19.4988Z" fill="black"/>
<path d="M7.10333 17.1658C7.87204 17.1659 8.61601 17.4559 9.18194 17.9802C9.51584 18.2891 9.77684 18.6696 9.94512 19.092L10.1956 19.7219C10.3489 20.1067 10.1614 20.5427 9.77666 20.696C9.39188 20.8493 8.95585 20.6619 8.80254 20.2771L8.55059 19.6472C8.46504 19.4324 8.33328 19.2386 8.16387 19.0818L8.67217 18.531L8.16241 19.0803C7.8748 18.8137 7.49561 18.6659 7.10333 18.6658H4.89581C4.50322 18.6658 4.12405 18.8147 3.83526 19.0818C3.66566 19.2387 3.53269 19.4322 3.44708 19.6472L3.19512 20.2771C3.04185 20.6616 2.60707 20.8489 2.22247 20.696C1.83768 20.5427 1.65024 20.1067 1.80352 19.7219L2.05254 19.092C2.22084 18.6694 2.48319 18.2891 2.81719 17.9802C3.38235 17.4576 4.12458 17.1658 4.89581 17.1658H7.10333Z" fill="black"/>
<path fill-rule="evenodd" clip-rule="evenodd" d="M4.23077 11.9832C5.18861 11.0253 6.72695 11.0086 7.70684 11.9304C7.72707 11.9468 7.74808 11.9629 7.7669 11.9817C8.74301 12.9578 8.74206 14.5412 7.7669 15.5178L7.57647 15.6892C6.59474 16.4899 5.14635 16.4321 4.23077 15.5178L4.05938 15.3289C3.25851 14.3472 3.31664 12.8988 4.23077 11.9832ZM6.70489 13.0422C6.3395 12.6768 5.76069 12.6543 5.36749 12.9749L5.29131 13.0422C4.90074 13.4334 4.90205 14.0674 5.29131 14.4573C5.68256 14.8475 6.3151 14.8464 6.70489 14.4573C7.09426 14.0671 7.09534 13.4368 6.70928 13.0466L6.70489 13.0422Z" fill="black"/>
<path d="M14.4993 10.6604C14.9134 10.6605 15.2492 10.9964 15.2493 11.4104V14.7312C15.2488 15.1449 14.9131 15.4811 14.4993 15.4812C14.0855 15.4812 13.7499 15.1449 13.7493 14.7312V11.4104C13.7495 10.9963 14.0852 10.6604 14.4993 10.6604Z" fill="black"/>
<path d="M11.4993 7.97974C11.9132 7.97984 12.2489 8.31592 12.2493 8.72974V14.7297C12.2493 15.1439 11.9135 15.4796 11.4993 15.4797C11.0851 15.4797 10.7493 15.1439 10.7493 14.7297V8.72974C10.7497 8.31587 11.0854 7.97976 11.4993 7.97974Z" fill="black"/>
<path d="M17.4993 8.53052C17.9134 8.53062 18.2492 8.86649 18.2493 9.28052V14.7297C18.2492 15.1438 17.9134 15.4796 17.4993 15.4797C17.0852 15.4797 16.7494 15.1438 16.7493 14.7297V9.28052C16.7495 8.86644 17.0852 8.53054 17.4993 8.53052Z" fill="black"/>
</svg>
