<svg width="24" height="24" viewBox="0 0 24 24" fill="none" xmlns="http://www.w3.org/2000/svg">
<path d="M15 2.25C15.4142 2.25 15.75 2.58579 15.75 3C15.75 3.41421 15.4142 3.75 15 3.75H7.99951C5.65269 3.75026 3.75026 5.65269 3.75 7.99951V16.0005C3.75026 18.3473 5.65269 20.2497 7.99951 20.25H16.0005C18.3473 20.2497 20.2497 18.3473 20.25 16.0005V10.9995C20.2503 10.5855 20.5859 10.2495 21 10.2495C21.4141 10.2495 21.7497 10.5855 21.75 10.9995V16.0005C21.7497 19.1757 19.1757 21.7497 16.0005 21.75H7.99951C4.82426 21.7497 2.25026 19.1757 2.25 16.0005V7.99951C2.25026 4.82426 4.82426 2.25026 7.99951 2.25H15Z" fill="black"/>
<path d="M14.5005 13.7593C16.2902 13.7595 17.7405 15.2098 17.7407 16.9995C17.7407 17.4089 17.4089 17.7407 16.9995 17.7407C16.5904 17.7405 16.2583 17.4087 16.2583 16.9995C16.258 16.0285 15.4715 15.242 14.5005 15.2417H9.49951C8.52854 15.242 7.74196 16.0285 7.7417 16.9995C7.7417 17.4087 7.40962 17.7405 7.00049 17.7407C6.59114 17.7407 6.25928 17.4089 6.25928 16.9995C6.25954 15.2098 7.70983 13.7595 9.49951 13.7593H14.5005Z" fill="black"/>
<path fill-rule="evenodd" clip-rule="evenodd" d="M12 6.25049C13.7948 6.25049 15.2502 7.70481 15.2505 9.49951C15.2505 11.2944 13.7949 12.75 12 12.75C10.2051 12.75 8.74951 11.2944 8.74951 9.49951C8.74978 7.70481 10.2052 6.25049 12 6.25049ZM12 7.75049C11.0337 7.75049 10.2498 8.53324 10.2495 9.49951C10.2495 10.466 11.0335 11.25 12 11.25C12.9665 11.25 13.7505 10.466 13.7505 9.49951C13.7502 8.53324 12.9663 7.75049 12 7.75049Z" fill="black"/>
<path d="M18.813 3.75C19.2272 3.75 19.563 4.08579 19.563 4.5V5.68799H20.751C21.165 5.68824 21.501 6.02393 21.501 6.43799C21.5007 6.85183 21.1648 7.18773 20.751 7.18799H19.563V8.37451C19.563 8.78872 19.2272 9.12451 18.813 9.12451C18.3988 9.12451 18.063 8.78872 18.063 8.37451V7.18799H16.875C16.4612 7.18772 16.1252 6.85182 16.125 6.43799C16.125 6.02394 16.461 5.68826 16.875 5.68799H18.063V4.5C18.063 4.08579 18.3988 3.75 18.813 3.75Z" fill="black"/>
</svg>
