<svg width="24" height="24" viewBox="0 0 24 24" fill="none" xmlns="http://www.w3.org/2000/svg">
<path d="M12.75 7.81641C14.4956 8.12739 15.871 9.50443 16.1821 11.25H12.75V7.81641Z" fill="black"/>
<path fill-rule="evenodd" clip-rule="evenodd" d="M19.0005 2.25C20.5193 2.25026 21.7497 3.48069 21.75 4.99951V19.0005C21.7497 20.5193 20.5193 21.7497 19.0005 21.75H4.99951C3.48069 21.7497 2.25026 20.5193 2.25 19.0005V4.99951C2.25026 3.48069 3.48069 2.25026 4.99951 2.25H19.0005ZM9.64014 8.92383C9.42476 8.57049 8.96403 8.45832 8.61035 8.67334C7.20858 9.52571 6.25085 11.0518 6.25049 12.832C6.25049 15.5471 8.45151 17.7493 11.1665 17.7495C12.947 17.7495 14.4741 16.7915 15.3267 15.3896C15.5415 15.0358 15.4285 14.5735 15.0747 14.3584C14.721 14.1441 14.26 14.2569 14.0449 14.6104C13.4454 15.5961 12.3877 16.2495 11.1665 16.2495C9.27994 16.2493 7.75049 14.7187 7.75049 12.832C7.75085 11.6112 8.4041 10.5544 9.38965 9.95508C9.7435 9.73985 9.85532 9.27772 9.64014 8.92383ZM12 6.25049C11.5858 6.25049 11.25 6.58627 11.25 7.00049V12C11.25 12.4142 11.5858 12.75 12 12.75H16.9995C17.4137 12.75 17.7495 12.4142 17.7495 12C17.7495 8.8248 15.1752 6.25049 12 6.25049Z" fill="black"/>
</svg>
