<svg width="24" height="24" viewBox="0 0 24 24" fill="none" xmlns="http://www.w3.org/2000/svg">
<path d="M8.61035 8.67334C8.96404 8.4583 9.42476 8.57046 9.64014 8.92383C9.85532 9.27772 9.7435 9.73985 9.38965 9.95508C8.40411 10.5544 7.75084 11.6112 7.75049 12.832C7.75049 14.7187 9.27995 16.2492 11.1665 16.2495C12.3877 16.2495 13.4454 15.5961 14.0449 14.6104C14.26 14.2569 14.721 14.1441 15.0747 14.3584C15.4285 14.5735 15.5415 15.0358 15.3267 15.3896C14.4741 16.7914 12.947 17.7495 11.1665 17.7495C8.45152 17.7492 6.25049 15.5471 6.25049 12.832C6.25084 11.0518 7.20857 9.52572 8.61035 8.67334Z" fill="black"/>
<path fill-rule="evenodd" clip-rule="evenodd" d="M12 6.25049C15.1752 6.25049 17.7495 8.82479 17.7495 12C17.7495 12.4142 17.4137 12.75 16.9995 12.75H12C11.5858 12.75 11.25 12.4142 11.25 12V7.00049C11.25 6.58627 11.5858 6.25049 12 6.25049ZM12.75 11.25H16.1821C15.871 9.50441 14.4956 8.12739 12.75 7.81641V11.25Z" fill="black"/>
<path fill-rule="evenodd" clip-rule="evenodd" d="M19.0005 2.25C20.5193 2.25026 21.7497 3.48069 21.75 4.99951V19.0005C21.7497 20.5193 20.5193 21.7497 19.0005 21.75H4.99951C3.48069 21.7497 2.25026 20.5193 2.25 19.0005V4.99951C2.25026 3.48069 3.48069 2.25026 4.99951 2.25H19.0005ZM4.99951 3.75C4.30911 3.75026 3.75026 4.30911 3.75 4.99951V19.0005C3.75026 19.6909 4.30911 20.2497 4.99951 20.25H19.0005C19.6909 20.2497 20.2497 19.6909 20.25 19.0005V4.99951C20.2497 4.30911 19.6909 3.75026 19.0005 3.75H4.99951Z" fill="black"/>
</svg>
