<svg width="24" height="24" viewBox="0 0 24 24" fill="none" xmlns="http://www.w3.org/2000/svg">
<path d="M12 7.75049C12.9663 7.75049 13.7502 8.53325 13.7505 9.49951C13.7505 10.466 12.9665 11.25 12 11.25C11.0335 11.25 10.2495 10.466 10.2495 9.49951C10.2498 8.53326 11.0337 7.7505 12 7.75049Z" fill="black"/>
<path fill-rule="evenodd" clip-rule="evenodd" d="M16.0005 2.25C16.6089 2.25005 17.1948 2.34585 17.7451 2.521C18.0628 2.34894 18.4261 2.25 18.813 2.25C19.9567 2.25 20.8979 3.10377 21.041 4.2085C22.1455 4.35106 23.001 5.29282 23.001 6.43799C23.0002 7.32017 22.4899 8.0804 21.75 8.44775V16.0005C21.7497 19.1757 19.1757 21.7497 16.0005 21.75H7.99951C4.82426 21.7497 2.25026 19.1757 2.25 16.0005V7.99951C2.25026 4.82426 4.82426 2.25026 7.99951 2.25H16.0005ZM9.49951 13.7593C7.70984 13.7595 6.25956 15.2098 6.25928 16.9995C6.25928 17.4089 6.59114 17.7407 7.00049 17.7407C7.40961 17.7405 7.7417 17.4087 7.7417 16.9995C7.74198 16.0285 8.52854 15.242 9.49951 15.2417H14.5005C15.4714 15.242 16.258 16.0286 16.2583 16.9995C16.2583 17.4087 16.5904 17.7405 16.9995 17.7407C17.4089 17.7407 17.7407 17.4089 17.7407 16.9995C17.7404 15.2099 16.2901 13.7596 14.5005 13.7593H9.49951ZM12 6.25049C10.2053 6.2505 8.74979 7.70483 8.74951 9.49951C8.74951 11.2944 10.2051 12.75 12 12.75C13.7949 12.75 15.2505 11.2944 15.2505 9.49951C15.2502 7.70482 13.7948 6.25049 12 6.25049ZM18.813 3.75C18.3988 3.75 18.063 4.08579 18.063 4.5V5.68799H16.875C16.461 5.68826 16.125 6.02394 16.125 6.43799C16.1252 6.85182 16.4612 7.18772 16.875 7.18799H18.063V8.37451C18.063 8.78873 18.3988 9.12451 18.813 9.12451C19.2272 9.12451 19.563 8.78873 19.563 8.37451V7.18799H20.751C21.1648 7.18773 21.5007 6.85183 21.501 6.43799C21.501 6.02393 21.165 5.68824 20.751 5.68799H19.563V4.5C19.563 4.08579 19.2272 3.75 18.813 3.75Z" fill="black"/>
</svg>
