<svg width="24" height="24" viewBox="0 0 24 24" fill="none" xmlns="http://www.w3.org/2000/svg">
<path d="M15.4648 8.97979C15.7576 8.68706 16.2325 8.68722 16.5254 8.97979C16.8179 9.2727 16.8181 9.74757 16.5254 10.0403L11.5254 15.0394C11.2325 15.3323 10.7577 15.3323 10.4648 15.0394L7.46484 12.0394C7.17235 11.7464 7.17208 11.2716 7.46484 10.9788C7.75764 10.6865 8.23261 10.6865 8.52539 10.9788L10.9951 13.4485L15.4648 8.97979Z" fill="black"/>
<path fill-rule="evenodd" clip-rule="evenodd" d="M17.2344 2.43194C17.7267 2.18857 18.3051 2.19021 18.7959 2.43682L19.7861 2.93292C20.3769 3.22994 20.7498 3.83611 20.75 4.49737V19.5032C20.7497 20.1643 20.3767 20.7696 19.7861 21.0667L18.7959 21.5628C18.3052 21.8093 17.7266 21.8119 17.2344 21.5687L15.9971 20.9564L14.79 21.5628C14.2978 21.81 13.7168 21.8112 13.2236 21.5657L11.999 20.9564L10.7744 21.5657C10.2814 21.8109 9.70198 21.8099 9.20996 21.5628L8.00195 20.9564L6.76562 21.5687C6.27327 21.8121 5.69489 21.8094 5.2041 21.5628L4.21387 21.0667C3.65997 20.7882 3.2972 20.2387 3.25391 19.6263L3.25 19.5032V4.49737C3.25021 3.83607 3.623 3.22992 4.21387 2.93292L5.2041 2.43682C5.69494 2.1902 6.27322 2.18845 6.76562 2.43194L8.00195 3.04327L9.20996 2.43682C9.70195 2.18991 10.2816 2.18971 10.7744 2.43487L11.999 3.04327L13.2236 2.43487C13.7167 2.18939 14.2978 2.18964 14.79 2.43682L15.9971 3.04327L17.2344 2.43194ZM18.1221 3.77667C18.0521 3.74171 17.9695 3.74211 17.8994 3.77667L16.3262 4.55304C16.1153 4.65718 15.8674 4.6575 15.6572 4.55206L14.1162 3.77667C14.046 3.74166 13.9618 3.7417 13.8916 3.77667L12.333 4.55304C12.1227 4.65741 11.8752 4.65763 11.665 4.55304L10.1064 3.77667C10.0365 3.74222 9.95359 3.742 9.88379 3.77667L8.34277 4.55206C8.1325 4.65755 7.88277 4.65732 7.67188 4.55304L6.10059 3.77667C6.0304 3.74197 5.94794 3.74166 5.87793 3.77667L4.8877 4.27472C4.80356 4.31711 4.75021 4.40317 4.75 4.49737V19.5032L4.75977 19.5706C4.77871 19.6367 4.82445 19.6941 4.8877 19.7259L5.87793 20.2239C5.9479 20.2589 6.03043 20.2586 6.10059 20.2239L7.67188 19.4466C7.88281 19.3423 8.13247 19.342 8.34277 19.4476L9.88379 20.223C9.95376 20.2579 10.0363 20.2576 10.1064 20.223L11.665 19.4476L11.7461 19.4124C11.9371 19.3438 12.149 19.3562 12.333 19.4476L13.8916 20.223C13.9619 20.258 14.046 20.2581 14.1162 20.223L15.6572 19.4476C15.8673 19.3422 16.1154 19.3426 16.3262 19.4466L17.8994 20.2239C17.9695 20.2584 18.0522 20.2589 18.1221 20.2239L19.1123 19.7259C19.1963 19.6835 19.2497 19.5973 19.25 19.5032V4.49737C19.2498 4.40331 19.1962 4.31718 19.1123 4.27472L18.1221 3.77667Z" fill="black"/>
</svg>
