<svg width="24" height="24" viewBox="0 0 24 24" fill="none" xmlns="http://www.w3.org/2000/svg">
<path fill-rule="evenodd" clip-rule="evenodd" d="M12.0021 5.41397C12.1574 5.41397 12.3097 5.42892 12.4562 5.45889C12.6024 5.48883 12.7436 5.5339 12.878 5.59073C12.9452 5.61913 13.0107 5.65187 13.0743 5.68643C13.2016 5.75555 13.3218 5.83619 13.4327 5.92764C13.7659 6.20256 14.0189 6.57169 14.1505 6.99405C14.1944 7.135 14.2249 7.28216 14.2403 7.4335C14.248 7.50908 14.252 7.58636 14.2521 7.66397C14.252 7.70256 14.2504 7.74317 14.2462 7.78408C14.2334 7.90773 14.2016 8.04181 14.1554 8.18252C14.0939 8.3698 14.0058 8.56968 13.9005 8.77432C13.7951 8.97914 13.6719 9.18889 13.5401 9.39639C13.022 10.2122 12.3675 10.9917 12.1114 11.288C12.0531 11.3552 11.9511 11.3561 11.8927 11.289C11.5714 10.9173 10.6236 9.78447 10.1036 8.77432C9.99837 8.5698 9.91021 8.36969 9.84874 8.18252C9.78725 7.99517 9.75212 7.81922 9.75206 7.66397C9.75219 6.88793 10.1455 6.2031 10.7433 5.79873C10.863 5.71778 10.9914 5.64773 11.1261 5.59073C11.3952 5.47685 11.6915 5.41403 12.0021 5.41397ZM11.9249 6.91787C11.8489 6.92557 11.7774 6.94452 11.711 6.97256C11.6687 6.99051 11.6256 7.01285 11.5841 7.04092C11.3869 7.1743 11.2609 7.39295 11.253 7.63955C11.2563 7.65418 11.262 7.67954 11.2735 7.71475C11.3031 7.80481 11.3561 7.92949 11.4376 8.0878C11.5882 8.38042 11.7898 8.69481 12.0011 8.996C12.094 8.86336 12.1871 8.72875 12.2735 8.59268C12.3872 8.41371 12.4864 8.24337 12.5665 8.0878C12.6481 7.92933 12.7009 7.80406 12.7306 7.71377C12.7417 7.67996 12.7475 7.65526 12.7511 7.63955C12.7505 7.62165 12.75 7.60303 12.7482 7.58487C12.7428 7.53218 12.7324 7.48394 12.7189 7.44033C12.676 7.30293 12.5922 7.17864 12.4786 7.08487C12.4438 7.05617 12.4037 7.02836 12.3585 7.00381C12.3303 6.9885 12.3089 6.97887 12.294 6.97256C12.2447 6.9517 12.1979 6.93734 12.1554 6.92862C12.1099 6.91933 12.0583 6.91397 12.0021 6.91397L11.9249 6.91787Z" fill="black"/>
<path fill-rule="evenodd" clip-rule="evenodd" d="M8.03038 3.2333C10.2877 1.20174 13.7152 1.20213 15.9728 3.2333C18.2565 5.28901 18.5951 8.74924 16.7511 11.2079L15.4513 12.9394L19.4571 19.8075C20.0987 20.9075 19.3057 22.289 18.0323 22.289H15.714C15.1413 22.2888 14.6089 21.9915 14.3087 21.5038L12.0021 17.7538L9.69542 21.5038C9.39517 21.9916 8.8629 22.2888 8.29014 22.289H5.97178C4.69866 22.2888 3.90486 20.9074 4.546 19.8075L8.55186 12.9394L7.25303 11.2079C5.40923 8.74928 5.74709 5.2889 8.03038 3.2333ZM14.9698 4.34854C13.2828 2.83042 10.7213 2.83035 9.03428 4.34854C7.32785 5.88483 7.07481 8.47045 8.45225 10.3075L10.2901 12.7567C10.326 12.8049 10.33 12.8699 10.2999 12.9218L5.8419 20.5634C5.78402 20.6632 5.85632 20.7888 5.97178 20.789H8.29014C8.34206 20.7888 8.38987 20.7609 8.4171 20.7167L11.8741 15.1005C11.9327 15.0054 12.0713 15.0055 12.13 15.1005L15.586 20.7167C15.6133 20.7609 15.6621 20.7888 15.714 20.789H18.0323C18.1479 20.789 18.2201 20.6633 18.1622 20.5634L13.7042 12.9218C13.6742 12.8699 13.6781 12.8048 13.714 12.7567L15.5509 10.3075C16.9288 8.47031 16.6767 5.88492 14.9698 4.34854Z" fill="black"/>
</svg>
