<svg width="24" height="24" viewBox="0 0 24 24" fill="none" xmlns="http://www.w3.org/2000/svg">
<path d="M18.3614 15.9054C18.73 15.184 19.8398 15.2354 20.1026 16.0597L20.6427 17.7569L22.3399 18.298C23.2195 18.578 23.2202 19.8223 22.3409 20.1026L20.6427 20.6427L20.1026 22.3409C19.8222 23.2197 18.5784 23.2197 18.2979 22.3409L17.7569 20.6427L16.0597 20.1026C15.1805 19.8223 15.1806 18.5783 16.0597 18.298L17.7569 17.7569L18.2979 16.0597L18.3614 15.9054Z" fill="black"/>
<path d="M8.76689 2.26788C9.30486 0.578038 11.6958 0.578008 12.2337 2.26788L13.7532 7.04034C13.7847 7.13879 13.8618 7.21595 13.9602 7.24738L18.7327 8.76691C20.4221 9.30502 20.4221 11.6956 18.7327 12.2337L13.9602 13.7532C13.8618 13.7846 13.7847 13.8618 13.7532 13.9603L12.2337 18.7327C11.6957 20.4224 9.30501 20.4223 8.76689 18.7327L7.24736 13.9603C7.21593 13.8619 7.13863 13.7847 7.04033 13.7532L2.26787 12.2337C0.578036 11.6957 0.578023 9.30484 2.26787 8.76691L7.04033 7.24738C7.13863 7.21586 7.21599 7.13872 7.24736 7.04034L8.76689 2.26788Z" fill="black"/>
</svg>
