<svg width="24" height="24" viewBox="0 0 24 24" fill="none" xmlns="http://www.w3.org/2000/svg">
<path fill-rule="evenodd" clip-rule="evenodd" d="M12.0003 2.25116C12.6521 2.25131 13.2505 2.61375 13.5521 3.19159L15.9271 7.74432L20.2894 8.4787C20.9321 8.58703 21.462 9.04429 21.6634 9.66425C21.8645 10.2841 21.7047 10.9646 21.2483 11.4299L17.9896 14.7521L18.7308 19.7424C18.8264 20.3871 18.5558 21.032 18.0286 21.4152C17.5012 21.7984 16.8037 21.8558 16.22 21.5656L11.9993 19.466L7.77959 21.5656C7.19599 21.8558 6.49934 21.7982 5.97197 21.4152C5.44472 21.032 5.17323 20.3871 5.26885 19.7424L6.00908 14.7512L2.75225 11.4299C2.29584 10.9645 2.13597 10.2842 2.33721 9.66425C2.53867 9.04419 3.06832 8.58694 3.71123 8.4787L8.07256 7.74432L10.4485 3.19159C10.7502 2.61377 11.3485 2.25118 12.0003 2.25116ZM12.0003 3.75116C11.9073 3.75118 11.8217 3.8035 11.7786 3.88593L9.23076 8.76874C9.19735 8.83278 9.15227 8.88691 9.10479 8.93671C9.09188 8.95024 9.07964 8.96418 9.06572 8.97675C9.04521 8.99524 9.0235 9.01155 9.00127 9.02753C8.98279 9.04084 8.9644 9.05397 8.94463 9.06561C8.92176 9.07906 8.89839 9.09082 8.87432 9.10175C8.85156 9.11207 8.82902 9.12295 8.80498 9.13104C8.79589 9.13411 8.78684 9.13711 8.77764 9.13983C8.74902 9.14826 8.7199 9.15623 8.68975 9.16132L3.96025 9.95819C3.8685 9.97364 3.79281 10.0387 3.76397 10.1271C3.73523 10.2157 3.75737 10.3136 3.82256 10.3801L7.34307 13.9689C7.36585 13.9922 7.38643 14.0169 7.40557 14.0422C7.40811 14.0456 7.40991 14.0495 7.4124 14.0529C7.43081 14.0781 7.44539 14.1052 7.46025 14.132C7.47141 14.1522 7.48222 14.1723 7.4915 14.1935C7.50218 14.2179 7.51089 14.2426 7.51885 14.2678C7.5252 14.2878 7.53176 14.3077 7.53643 14.3283C7.54255 14.3555 7.54605 14.3828 7.54912 14.4103C7.55199 14.4362 7.55581 14.462 7.55596 14.4885C7.55601 14.4956 7.55611 14.5028 7.55596 14.5099C7.55524 14.541 7.55281 14.5722 7.54815 14.6037L6.75322 19.9621C6.73956 20.0541 6.77861 20.1466 6.85381 20.2014C6.92908 20.2559 7.02836 20.2642 7.11162 20.2228L11.6653 17.9582C11.6923 17.9448 11.7197 17.9329 11.7474 17.923C11.757 17.9196 11.7669 17.9173 11.7767 17.9142C11.8012 17.9066 11.8261 17.9017 11.8509 17.8967C11.8764 17.8915 11.902 17.8875 11.928 17.8849C11.9519 17.8827 11.9755 17.882 11.9993 17.882C12.0231 17.882 12.0468 17.8827 12.0706 17.8849C12.0966 17.8874 12.1222 17.8915 12.1478 17.8967C12.1726 17.9017 12.1975 17.9066 12.222 17.9142C12.2314 17.9172 12.241 17.9197 12.2503 17.923C12.2785 17.9331 12.3068 17.9445 12.3343 17.9582L16.888 20.2228C16.9713 20.2642 17.0715 20.256 17.1468 20.2014C17.2219 20.1466 17.261 20.0541 17.2474 19.9621L16.4515 14.6037C16.4468 14.5722 16.4444 14.541 16.4437 14.5099C16.4435 14.5028 16.4436 14.4956 16.4437 14.4885C16.4438 14.4587 16.4478 14.4296 16.4515 14.4006C16.4542 14.379 16.4567 14.3575 16.4612 14.3361C16.4673 14.3081 16.4755 14.281 16.4847 14.2541C16.4911 14.2351 16.4972 14.216 16.5052 14.1974C16.5162 14.1718 16.5295 14.1474 16.5433 14.1232C16.5553 14.1021 16.5671 14.0808 16.5813 14.0607C16.5871 14.0525 16.5928 14.0443 16.5989 14.0363C16.6169 14.013 16.6364 13.9905 16.6575 13.9689L20.178 10.3801C20.2432 10.3136 20.2653 10.2156 20.2366 10.1271C20.2078 10.0388 20.132 9.97373 20.0403 9.95819L15.3108 9.16132C15.2784 9.15585 15.2468 9.1472 15.2161 9.13788C15.2105 9.13616 15.2051 9.13387 15.1995 9.13202C15.1741 9.12364 15.1502 9.1126 15.1263 9.10175C15.1006 9.09013 15.0754 9.07814 15.0511 9.06366C15.0342 9.05359 15.0181 9.04273 15.0022 9.03143C14.978 9.01431 14.9551 8.99585 14.9329 8.97577C14.9192 8.96334 14.9066 8.95008 14.8938 8.93671C14.8466 8.88708 14.8031 8.83249 14.7698 8.76874L12.222 3.88593C12.1789 3.80348 12.0933 3.75132 12.0003 3.75116Z" fill="black"/>
</svg>
