<svg width="24" height="24" viewBox="0 0 24 24" fill="none" xmlns="http://www.w3.org/2000/svg">
<path fill-rule="evenodd" clip-rule="evenodd" d="M19.8664 10.4082C20.514 10.7055 20.851 11.2997 20.8815 11.9081C20.8849 11.9368 20.8898 11.9655 20.8898 11.9951C20.8899 12.032 20.8836 12.0683 20.8784 12.1038C20.8429 12.7066 20.5087 13.293 19.8664 13.5881L5.60036 20.1396C4.03528 20.8574 2.48632 19.1233 3.36821 17.6485L6.7501 12.0044L3.36199 6.34583C2.47829 4.86941 4.03308 3.14135 5.59415 3.8568L19.8664 10.4082ZM8.04796 12.7595L4.65571 18.4181C4.52802 18.6316 4.75248 18.8781 4.97474 18.7765L18.1014 12.7471L8.04796 12.7595ZM4.96852 5.21991C4.74417 5.11749 4.52547 5.36533 4.6495 5.57416L8.0521 11.2576L18.1014 11.2472L4.96852 5.21991Z" fill="black"/>
</svg>
