<svg width="24" height="24" viewBox="0 0 24 24" fill="none" xmlns="http://www.w3.org/2000/svg">
<path d="M19.9966 11.2822C20.4108 11.2839 20.7452 11.621 20.7436 12.0352C20.7349 14.26 19.8898 16.4867 18.1889 18.1875C14.7721 21.6041 9.23172 21.6042 5.81491 18.1875C5.61914 17.9917 5.43651 17.7879 5.26413 17.5791V19.3613C5.26402 19.7755 4.92828 20.1113 4.51413 20.1113C4.10004 20.1113 3.76423 19.7754 3.76413 19.3613V15.8252C3.76413 15.411 4.09997 15.0753 4.51413 15.0752H8.04929C8.46343 15.0753 8.79929 15.411 8.79929 15.8252C8.79925 16.2393 8.46341 16.5751 8.04929 16.5752H6.38034C6.53455 16.7654 6.69874 16.9502 6.87546 17.127C9.70648 19.9579 14.2973 19.9578 17.1284 17.127C18.5355 15.7198 19.2363 13.8784 19.2436 12.0293C19.2452 11.6153 19.5826 11.2809 19.9966 11.2822Z" fill="black"/>
<path d="M5.81491 5.81251C9.23177 2.39573 14.773 2.39576 18.1899 5.81251C18.3855 6.00806 18.5685 6.2114 18.7407 6.41993V4.63966C18.7407 4.22545 19.0765 3.88966 19.4907 3.88966C19.9047 3.88991 20.2407 4.2256 20.2407 4.63966V8.17579C20.2404 8.5896 19.9045 8.92554 19.4907 8.92579H15.9555C15.5415 8.92579 15.2058 8.58975 15.2055 8.17579C15.2055 7.76158 15.5413 7.42579 15.9555 7.42579H17.6255C17.4711 7.23521 17.3064 7.0501 17.1294 6.87306C14.2983 4.0421 9.70653 4.04207 6.87546 6.87306C5.49014 8.25838 4.78541 10.0642 4.75632 11.8818C4.74971 12.2959 4.40864 12.6266 3.9946 12.6201C3.58061 12.6135 3.24991 12.2724 3.25632 11.8584C3.29133 9.6682 4.14234 7.48508 5.81491 5.81251Z" fill="black"/>
</svg>
