<svg width="24" height="24" viewBox="0 0 24 24" fill="none" xmlns="http://www.w3.org/2000/svg">
<path fill-rule="evenodd" clip-rule="evenodd" d="M12 6.99459C11.0098 6.99459 10.0418 7.2882 9.2185 7.83829C8.39516 8.38836 7.75347 9.17024 7.37453 10.085C6.99559 10.9998 6.89643 12.0063 7.08962 12.9774C7.2828 13.9486 7.75963 14.8406 8.45981 15.5407C9.15999 16.2408 10.0521 16.7176 11.0233 16.9108C11.9945 17.1039 13.0011 17.0048 13.9159 16.6259C14.8308 16.247 15.6127 15.6053 16.1628 14.7821C16.713 13.9588 17.0066 12.9909 17.0066 12.0008C17.0066 11.3434 16.8772 10.6923 16.6256 10.0849C16.374 9.47753 16.0052 8.92562 15.5403 8.46075C15.0754 7.99588 14.5235 7.62712 13.916 7.37556C13.3086 7.12399 12.6575 6.99453 12 6.99459ZM12 15.2515C11.357 15.2515 10.7285 15.0609 10.1938 14.7037C9.6592 14.3465 9.2425 13.8388 8.99645 13.2448C8.75038 12.6508 8.686 11.9972 8.81144 11.3666C8.93689 10.736 9.24651 10.1568 9.70117 9.70213C10.1559 9.2475 10.7351 8.93791 11.3658 8.81247C11.9964 8.68704 12.6501 8.75142 13.2441 8.99745C13.8382 9.2435 14.3459 9.66016 14.7031 10.1947C15.0604 10.7293 15.251 11.3578 15.251 12.0008C15.251 12.8629 14.9085 13.6898 14.2988 14.2994C13.6891 14.9091 12.8622 15.2515 12 15.2515Z" fill="#1C1C1C"/>
<path d="M18.3747 6.79644C18.3747 7.44256 17.8509 7.96633 17.2047 7.96633C16.5586 7.96633 16.0348 7.44256 16.0348 6.79644C16.0348 6.15034 16.5586 5.62655 17.2047 5.62655C17.8509 5.62655 18.3747 6.15034 18.3747 6.79644Z" fill="#1C1C1C"/>
<path fill-rule="evenodd" clip-rule="evenodd" d="M12.0016 2.25C9.35351 2.25 9.02144 2.26122 7.98149 2.30882C6.94156 2.35642 6.23329 2.52245 5.61404 2.76315C4.96329 3.0081 4.37372 3.39187 3.88635 3.88776C3.39043 4.3751 3.00661 4.96463 2.76166 5.61532C2.52092 6.23452 2.35605 6.94427 2.30883 7.98181C2.2616 9.01935 2.25 9.35295 2.25 12.0008C2.25 14.6486 2.26123 14.9807 2.30883 16.0205C2.35643 17.0604 2.52092 17.767 2.76166 18.3862C3.00673 19.0367 3.3905 19.6259 3.88635 20.113C4.37357 20.6092 4.96316 20.9931 5.61404 21.238C6.23329 21.4791 6.94309 21.644 7.98071 21.6912C9.01834 21.7384 9.35273 21.75 12.0008 21.75C14.6488 21.75 14.9809 21.7388 16.0208 21.6912C17.0608 21.6436 17.7667 21.4791 18.386 21.238C19.0339 20.9877 19.6223 20.6047 20.1134 20.1136C20.6046 19.6225 20.9876 19.0341 21.238 18.3862C21.4791 17.767 21.644 17.0573 21.6912 16.0197C21.7384 14.9822 21.75 14.6478 21.75 12C21.75 9.35217 21.7388 9.02012 21.6912 7.98026C21.6436 6.94041 21.4791 6.23452 21.238 5.61532C20.9932 4.96486 20.6095 4.37557 20.1137 3.88854C19.6264 3.39238 19.0368 3.00833 18.386 2.76315C17.7667 2.52245 17.0569 2.35758 16.0193 2.31037C14.9817 2.26315 14.648 2.25155 12 2.25155L12.0016 2.25ZM12 4.00813C14.6035 4.00813 14.9116 4.01819 15.94 4.06501C16.8905 4.10836 17.4068 4.26703 17.7505 4.40054C18.1745 4.55666 18.558 4.80594 18.8728 5.13003C19.197 5.44482 19.4463 5.82834 19.6024 6.25232C19.7359 6.59597 19.8946 7.11224 19.9379 8.0627C19.9848 9.09095 19.9948 9.39899 19.9948 12.0023C19.9948 14.6057 19.9848 14.9137 19.9379 15.9419C19.8946 16.8924 19.7359 17.4087 19.6024 17.7523C19.44 18.1727 19.1915 18.5544 18.8728 18.8731C18.5542 19.1917 18.1724 19.4402 17.752 19.6026C17.4083 19.7361 16.892 19.8947 15.9415 19.9381C14.9136 19.9849 14.6051 19.995 12.0016 19.995C9.39801 19.995 9.08956 19.9849 8.06161 19.9381C7.11107 19.8947 6.59476 19.7361 6.25109 19.6026C5.82708 19.4464 5.44353 19.1972 5.12871 18.8731C4.80459 18.5583 4.55529 18.1748 4.39916 17.7508C4.26564 17.4071 4.10696 16.8909 4.06361 15.9404C4.01678 14.9122 4.00672 14.6041 4.00672 12.0008C4.00672 9.39745 4.01678 9.0894 4.06361 8.06115C4.10696 7.11069 4.26564 6.59442 4.39916 6.25077C4.55529 5.82679 4.80459 5.44327 5.12871 5.12848C5.44353 4.80439 5.82708 4.55511 6.25109 4.39899C6.59476 4.26548 7.11107 4.10681 8.06161 4.06346C9.08994 4.01664 9.39801 4.00658 12.0016 4.00658L12 4.00813Z" fill="#1C1C1C"/>
</svg>
