<svg width="24" height="24" viewBox="0 0 24 24" fill="none" xmlns="http://www.w3.org/2000/svg">
<path fill-rule="evenodd" clip-rule="evenodd" d="M9.37384 9.37427C10.8244 7.92375 13.1753 7.92375 14.6258 9.37427L14.7576 9.51196C16.0753 10.97 16.0311 13.2209 14.6258 14.6262C13.1753 16.0767 10.8244 16.0767 9.37384 14.6262C7.92332 13.1757 7.92332 10.8248 9.37384 9.37427ZM13.4422 10.2268C12.5444 9.49483 11.2203 9.5473 10.3836 10.384C9.49099 11.2767 9.49099 12.7238 10.3836 13.6165C11.2762 14.509 12.7234 14.509 13.616 13.6165C14.4527 12.7797 14.5052 11.4556 13.7733 10.5579L13.616 10.384L13.4422 10.2268Z" fill="black"/>
<path fill-rule="evenodd" clip-rule="evenodd" d="M11.9998 4.25024C13.9631 4.25032 15.8683 5.09884 17.5008 6.3606C19.0351 7.54651 20.3722 9.12969 21.3504 10.8342L21.5418 11.177L21.6326 11.3743C21.8143 11.8439 21.7841 12.3754 21.5418 12.8245L21.5408 12.8254C20.5493 14.6589 19.1372 16.3752 17.5008 17.6399C15.8683 18.9015 13.9631 19.7502 11.9998 19.7502C10.0365 19.7502 8.1314 18.9016 6.49884 17.6399C4.96436 16.4539 3.62647 14.8709 2.64825 13.1663L2.45782 12.8235C2.18092 12.3102 2.18092 11.6893 2.45782 11.176C3.44937 9.34241 4.86225 7.62536 6.49884 6.3606C8.13141 5.09895 10.0365 4.25026 11.9998 4.25024ZM11.9998 5.75024C10.4682 5.75026 8.87745 6.41759 7.41583 7.54712C5.95829 8.67352 4.67759 10.2237 3.77716 11.8889C3.74053 11.9573 3.74053 12.0422 3.77716 12.1106L3.95099 12.4211C4.8389 13.968 6.04953 15.3963 7.41583 16.4524C8.87746 17.5821 10.4682 18.2502 11.9998 18.2502C13.5312 18.2502 15.1214 17.5827 16.5828 16.4534C18.0403 15.327 19.3211 13.7767 20.2215 12.1116C20.2583 12.0431 20.2583 11.9584 20.2215 11.8899C19.3211 10.2242 18.0403 8.67457 16.5828 7.5481C15.1213 6.41849 13.5313 5.75032 11.9998 5.75024Z" fill="black"/>
</svg>
