<svg width="24" height="24" viewBox="0 0 24 24" fill="none" xmlns="http://www.w3.org/2000/svg">
<path d="M11.9756 13.8452L11.9766 13.8461C12.4386 13.8858 12.7998 14.2709 12.7998 14.7416C12.7998 15.2387 12.3964 15.6418 11.8994 15.642C11.4332 15.642 11.0499 15.2875 11.0039 14.8334L10.999 14.7416C10.998 14.2671 11.3631 13.8861 11.8193 13.8461C11.8452 13.8434 11.8719 13.8412 11.8984 13.8412L11.9756 13.8452Z" fill="black"/>
<path d="M11.9004 7.00922C13.23 7.00943 14.3093 8.08722 14.3096 9.4184C14.3095 10.4763 13.6148 11.0322 13.1572 11.3403L13.1562 11.3412C12.9684 11.4674 12.8438 11.5725 12.7637 11.6801C12.6962 11.771 12.6495 11.8779 12.6494 12.0453V12.2524C12.6493 12.6664 12.3134 13.0022 11.8994 13.0024C11.4853 13.0024 11.1495 12.6665 11.1494 12.2524V12.0453C11.1496 10.9731 11.8521 10.4095 12.3203 10.0952C12.5029 9.97215 12.6233 9.87054 12.7002 9.76703C12.7646 9.68016 12.8095 9.57849 12.8096 9.4184C12.8093 8.91623 12.4021 8.50943 11.9004 8.50922C11.3973 8.50922 10.9905 8.9163 10.9902 9.41742C10.9901 9.83146 10.6543 10.1673 10.2402 10.1674C9.82609 10.1674 9.49034 9.83154 9.49023 9.41742C9.49046 8.08493 10.5718 7.00922 11.9004 7.00922Z" fill="black"/>
<path fill-rule="evenodd" clip-rule="evenodd" d="M12 2.28363C17.2949 2.28363 21.7498 6.19448 21.75 11.2153C21.75 16.2362 17.2951 20.1479 12 20.1479C11.4001 20.1479 10.8149 20.0937 10.2461 19.9985L6.93262 21.6381C6.70016 21.7531 6.42442 21.7398 6.2041 21.603C5.98382 21.4661 5.84961 21.2246 5.84961 20.9653C5.84961 19.9309 5.84842 18.9344 5.84863 18.1323C3.67583 16.5118 2.25 14.0369 2.25 11.2153C2.25021 6.19448 6.70507 2.28363 12 2.28363ZM12 3.78363C7.39119 3.78363 3.75022 7.15839 3.75 11.2153C3.75 13.6197 5.02116 15.7627 7.02246 17.1303C7.22712 17.2702 7.3489 17.5025 7.34863 17.7504C7.34797 18.314 7.34812 19.0054 7.34863 19.7582L9.79883 18.5463L9.91211 18.5014C10.0283 18.4659 10.152 18.4587 10.2725 18.4819C10.8317 18.5893 11.4084 18.6479 12 18.6479C16.6089 18.6479 20.25 15.2723 20.25 11.2153C20.2498 7.15839 16.6088 3.78363 12 3.78363Z" fill="black"/>
</svg>
