<svg width="24" height="24" viewBox="0 0 24 24" fill="none" xmlns="http://www.w3.org/2000/svg">
<path d="M13.7452 10.5584L20.6034 2.58637H18.9782L13.0233 9.5084L8.26709 2.58637H2.78139L9.97368 13.0537L2.78139 21.4136H4.40664L10.6952 14.1037L15.7181 21.4136H21.2038L13.7452 10.5584ZM4.99225 3.80984H7.48854L18.979 20.2458H16.4827L4.99225 3.80984Z" fill="#1C1C1C"/>
<path fill-rule="evenodd" clip-rule="evenodd" d="M2.48371 2.42974C2.54187 2.31921 2.65649 2.25 2.78139 2.25H8.26709C8.37789 2.25 8.48158 2.30456 8.54433 2.39588L13.0532 8.9579L18.7232 2.367C18.7871 2.29272 18.8802 2.25 18.9782 2.25H20.6034C20.7349 2.25 20.8543 2.3266 20.9091 2.44609C20.9639 2.56559 20.9441 2.70607 20.8584 2.80574L14.1689 10.5817L21.481 21.2231C21.5518 21.3261 21.5596 21.4597 21.5015 21.5703C21.4433 21.6808 21.3287 21.75 21.2038 21.75H15.7181C15.6073 21.75 15.5036 21.6954 15.4409 21.6041L10.6653 14.6542L4.66164 21.633C4.59774 21.7073 4.50463 21.75 4.40664 21.75H2.78139C2.64991 21.75 2.53049 21.6734 2.47566 21.5539C2.42083 21.4344 2.44065 21.2939 2.52639 21.1942L9.54975 13.0307L2.50415 2.77687C2.43342 2.67393 2.42555 2.54027 2.48371 2.42974ZM13.4995 10.3283L19.8703 2.92275H19.1326L13.2783 9.72777C13.2102 9.80689 13.1093 9.84993 13.0051 9.84428C12.9008 9.83862 12.8052 9.78491 12.746 9.69889L8.09009 2.92275H3.42064L10.2509 12.8632C10.3374 12.989 10.3283 13.1573 10.2287 13.2731L3.51451 21.0773H4.2523L10.4402 13.8844C10.5083 13.8052 10.6092 13.7622 10.7134 13.7679C10.8177 13.7735 10.9133 13.8272 10.9724 13.9132L15.8951 21.0773H20.5645L13.4676 10.7489C13.3969 10.646 13.389 10.5123 13.4471 10.4018C13.4614 10.3747 13.4791 10.35 13.4995 10.3283ZM4.69394 3.65441C4.75187 3.54321 4.86686 3.47347 4.99225 3.47347H7.48854C7.59838 3.47347 7.7013 3.52709 7.76423 3.61711L19.2547 20.0531C19.3265 20.1558 19.3352 20.29 19.2773 20.4012C19.2194 20.5124 19.1044 20.5822 18.979 20.5822H16.4827C16.3729 20.5822 16.2699 20.5286 16.207 20.4385L11.2435 13.3391C11.2412 13.3357 11.2389 13.3322 11.2366 13.3288L4.71656 4.00258C4.64472 3.89981 4.636 3.76561 4.69394 3.65441ZM5.63783 4.14622L11.7949 12.9532C11.7973 12.9566 11.7996 12.96 11.8018 12.9635L16.658 19.9094H18.3334L7.31328 4.14622H5.63783Z" fill="#1C1C1C"/>
</svg>
