<svg width="24" height="24" viewBox="0 0 24 24" fill="none" xmlns="http://www.w3.org/2000/svg">
<path d="M18.3609 15.9051C18.7295 15.1838 19.8393 15.2352 20.1021 16.0594L20.6422 17.7567L22.3394 18.2977C23.2191 18.5777 23.2197 19.822 22.3404 20.1024L20.6422 20.6424L20.1021 22.3407C19.8218 23.2198 18.5778 23.2198 18.2975 22.3407L17.7564 20.6424L16.0592 20.1024C15.18 19.8221 15.18 18.578 16.0592 18.2977L17.7564 17.7567L18.2975 16.0594L18.3609 15.9051ZM18.7809 18.1659C18.6877 18.4586 18.4583 18.6879 18.1656 18.7811L16.8492 19.2001L18.1656 19.619C18.4218 19.7006 18.6296 19.8864 18.7398 20.1278L18.7809 20.2342L19.1998 21.5497L19.6187 20.2342L19.6598 20.1278C19.77 19.8864 19.9778 19.7006 20.234 19.619L21.5494 19.2001L20.234 18.7811C19.9413 18.6879 19.7119 18.4586 19.6187 18.1659L19.1998 16.8495L18.7809 18.1659Z" fill="black"/>
<path d="M8.7664 2.26764C9.30437 0.577794 11.6953 0.577764 12.2332 2.26764L13.7527 7.0401C13.7841 7.13868 13.8612 7.21568 13.9598 7.24713L18.7322 8.76666C20.4221 9.30455 20.4221 11.6955 18.7322 12.2335L13.9598 13.753C13.8613 13.7844 13.7842 13.8616 13.7527 13.96L12.2332 18.7325C11.6953 20.4223 9.30435 20.4223 8.7664 18.7325L7.24687 13.96C7.2154 13.8616 7.13834 13.7844 7.03984 13.753L2.26738 12.2335C0.577548 11.6955 0.577534 9.30459 2.26738 8.76666L7.03984 7.24713C7.13831 7.21567 7.21548 7.1386 7.24687 7.0401L8.7664 2.26764ZM10.8035 2.72272C10.7091 2.42619 10.2905 2.42618 10.1961 2.72272L8.67656 7.49518C8.4976 8.05726 8.05697 8.4978 7.49492 8.67682L2.72246 10.1964C2.42593 10.2907 2.42593 10.7094 2.72246 10.8038L7.49492 12.3233C8.057 12.5022 8.49753 12.9429 8.67656 13.5049L10.1961 18.2774C10.2905 18.5739 10.7101 18.5739 10.8045 18.2774L12.323 13.5049C12.5021 12.9429 12.9426 12.5023 13.5047 12.3233L18.2771 10.8047C18.5737 10.7103 18.5737 10.2907 18.2771 10.1964L13.5047 8.67682C12.9426 8.4978 12.502 8.05733 12.323 7.49518L10.8035 2.72272Z" fill="black"/>
</svg>
