<svg width="24" height="24" viewBox="0 0 24 24" fill="none" xmlns="http://www.w3.org/2000/svg">
<path d="M7.0263 4.25122C7.0325 4.25144 7.03867 4.25182 7.04486 4.2522C7.08385 4.2545 7.12195 4.25979 7.15912 4.26782C7.18436 4.2733 7.20865 4.28218 7.23333 4.29028C7.31988 4.3187 7.39827 4.36235 7.46771 4.41821C7.48858 4.43503 7.51083 4.45059 7.53021 4.46997L10.5302 7.46997C10.8231 7.76284 10.823 8.23762 10.5302 8.53052C10.2373 8.82341 9.76256 8.82341 9.46966 8.53052L7.74994 6.81079V19.0002C7.74994 19.4145 7.41415 19.7502 6.99994 19.7502C6.58578 19.7502 6.24994 19.4144 6.24994 19.0002V6.81079L4.53021 8.53052C4.23732 8.82341 3.76256 8.82341 3.46966 8.53052C3.1768 8.23762 3.17678 7.76285 3.46966 7.46997L6.46966 4.46997L6.5263 4.41821C6.5365 4.4099 6.54801 4.40345 6.55853 4.39575C6.57406 4.38439 6.58997 4.37369 6.60638 4.36353C6.63028 4.34874 6.65455 4.33534 6.67962 4.32349C6.69779 4.31487 6.71635 4.30721 6.73529 4.30005C6.76129 4.29025 6.78765 4.28244 6.81439 4.27563C6.83979 4.26915 6.86518 4.26188 6.89154 4.25806C6.89641 4.25735 6.9013 4.25671 6.90619 4.2561C6.9369 4.25227 6.96819 4.25025 6.99994 4.25024C7.00873 4.25024 7.01759 4.25092 7.0263 4.25122Z" fill="black"/>
<path d="M16.9999 4.25024C17.4141 4.25024 17.7499 4.58606 17.7499 5.00024V17.1897L19.4697 15.47C19.7626 15.1771 20.2373 15.1771 20.5302 15.47C20.8231 15.7629 20.8231 16.2376 20.5302 16.5305L17.5302 19.5305C17.4816 19.5791 17.426 19.6162 17.3691 19.6487C17.3419 19.6642 17.3152 19.6806 17.2861 19.6926C17.254 19.7059 17.2207 19.7143 17.1874 19.7229C17.1743 19.7263 17.1618 19.7319 17.1484 19.7346C17.1429 19.7357 17.1373 19.7366 17.1318 19.7375C17.0889 19.7452 17.045 19.7502 16.9999 19.7502C16.9549 19.7502 16.911 19.7452 16.8681 19.7375C16.8622 19.7365 16.8564 19.7358 16.8505 19.7346C16.8371 19.7319 16.8246 19.7263 16.8115 19.7229C16.7782 19.7143 16.7449 19.7059 16.7128 19.6926C16.6837 19.6805 16.657 19.6642 16.6298 19.6487C16.5731 19.6163 16.5181 19.5789 16.4697 19.5305L13.4697 16.5305C13.1768 16.2376 13.1768 15.7629 13.4697 15.47C13.7626 15.1771 14.2373 15.1771 14.5302 15.47L16.2499 17.1897V5.00024C16.25 4.58608 16.5858 4.25028 16.9999 4.25024Z" fill="black"/>
</svg>
