<svg width="24" height="24" viewBox="0 0 24 24" fill="none" xmlns="http://www.w3.org/2000/svg">
<path d="M6.51346 8.6493V21.6126H2.20457V8.6493H6.51346Z" fill="#1C1C1C"/>
<path d="M6.79676 4.63989C6.79676 5.88395 5.86156 6.87946 4.35902 6.87946H4.33089C2.88497 6.87946 1.94995 5.88395 1.94995 4.63989C1.94995 3.36789 2.91365 2.40015 4.38751 2.40015C5.86156 2.40015 6.76882 3.36789 6.79676 4.63989Z" fill="#1C1C1C"/>
<path d="M13.2062 21.6126H8.89752C8.89752 21.6126 8.95415 9.8656 8.89771 8.6493H13.2064V10.4844C13.1967 10.4995 13.1871 10.5144 13.1776 10.5293H13.2064V10.4844C13.7791 9.60105 14.804 8.34505 17.0893 8.34505C19.9242 8.34505 22.0499 10.1978 22.0499 14.1796V21.6126H17.7416V14.6775C17.7416 12.9348 17.1178 11.7461 15.5587 11.7461C14.3685 11.7461 13.6596 12.5479 13.348 13.3218C13.2342 13.5989 13.2062 13.9859 13.2062 14.3732V21.6126Z" fill="#1C1C1C"/>
</svg>
