<svg width="24" height="24" viewBox="0 0 24 24" fill="none" xmlns="http://www.w3.org/2000/svg">
<path fill-rule="evenodd" clip-rule="evenodd" d="M13.6453 3.23877C15.1205 3.23901 16.3162 4.43434 16.3162 5.90967V6.70459H18.9998C20.5346 6.70459 21.7781 7.94807 21.7781 9.48291V17.9829C21.7779 19.5176 20.5345 20.7612 18.9998 20.7612H4.99976C3.46499 20.7612 2.22157 19.5176 2.22144 17.9829V9.48291C2.22144 7.94807 3.46491 6.70459 4.99976 6.70459H7.68335V5.90967C7.68335 4.4342 8.87878 3.23877 10.3542 3.23877H13.6453ZM4.99976 8.26123C4.3246 8.26123 3.77808 8.80775 3.77808 9.48291V17.9829C3.77821 18.658 4.32468 19.2046 4.99976 19.2046H6.74976V8.26123H4.99976ZM17.2498 12.2329H17.9998C18.414 12.2329 18.7498 12.5687 18.7498 12.9829V15.9829C18.7496 16.397 18.4139 16.7329 17.9998 16.7329H17.2498V19.2046H18.9998C19.6748 19.2046 20.2213 18.658 20.2214 17.9829V9.48291C20.2214 8.80775 19.6749 8.26123 18.9998 8.26123H17.2498V12.2329ZM8.24976 19.2046H15.7498V16.7329H12.9998C12.5856 16.7329 12.2499 16.397 12.2498 15.9829V12.9829C12.2498 12.5687 12.5855 12.2329 12.9998 12.2329H15.7498V8.26123H8.24976V19.2046ZM13.7498 15.2329H17.2498V13.7329H13.7498V15.2329ZM10.3542 4.58057C9.61972 4.58057 9.02515 5.17514 9.02515 5.90967V6.70459H14.9744V5.90967C14.9744 5.17529 14.3796 4.58081 13.6453 4.58057H10.3542Z" fill="black"/>
</svg>
