<svg width="24" height="24" viewBox="0 0 24 24" fill="none" xmlns="http://www.w3.org/2000/svg">
<path fill-rule="evenodd" clip-rule="evenodd" d="M11.0001 2.75012C15.5564 2.75012 19.2501 6.44377 19.2501 11.0001C19.2501 13.0082 18.5315 14.8478 17.3389 16.2784L21.0303 19.9698C21.3229 20.2628 21.3231 20.7376 21.0303 21.0304C20.7375 21.3231 20.2627 21.323 19.9698 21.0304L16.2784 17.339C14.8478 18.5315 13.0082 19.2501 11.0001 19.2501C6.44371 19.2501 2.75006 15.5565 2.75006 11.0001C2.7504 6.44394 6.44388 2.75046 11.0001 2.75012ZM11.0001 4.25012C7.27227 4.25043 4.25036 7.27233 4.25006 11.0001C4.25006 14.728 7.27214 17.7501 11.0001 17.7501C14.728 17.7501 17.7501 14.728 17.7501 11.0001C17.7501 7.2722 14.728 4.25012 11.0001 4.25012Z" fill="black"/>
</svg>
