<svg width="24" height="24" viewBox="0 0 24 24" fill="none" xmlns="http://www.w3.org/2000/svg">
<path d="M12.0003 2.25116C12.652 2.25132 13.25 2.61379 13.5515 3.19159L15.926 7.74432L20.2883 8.47821C20.9313 8.58645 21.4609 9.04468 21.6624 9.66473C21.8634 10.2846 21.7041 10.9646 21.2478 11.4299L17.9885 14.7521L18.7298 19.7429C18.8253 20.3876 18.5554 21.0326 18.0281 21.4157C17.5007 21.7987 16.8027 21.8554 16.219 21.5651L11.9988 19.466L7.78004 21.5651C7.19653 21.8554 6.49981 21.7985 5.97243 21.4157C5.44511 21.0326 5.17381 20.3876 5.2693 19.7429L6.00905 14.7521L2.7527 11.4299C2.29644 10.9647 2.13573 10.2845 2.33668 9.66473C2.53813 9.04474 3.06788 8.58651 3.71071 8.47821L8.07155 7.74432L10.4475 3.19159C10.7491 2.61364 11.3483 2.25118 12.0003 2.25116Z" fill="black"/>
</svg>
