<svg width="24" height="24" viewBox="0 0 24 24" fill="none" xmlns="http://www.w3.org/2000/svg">
<path fill-rule="evenodd" clip-rule="evenodd" d="M8.6471 4.7715C13.1114 2.92239 18.2296 5.04309 20.0787 9.50734C21.355 12.589 20.738 15.9803 18.7662 18.3945L20.5255 20.1538C20.818 20.4468 20.8183 20.9216 20.5255 21.2144C20.2328 21.5071 19.7579 21.5068 19.465 21.2144L17.7203 19.4697C17.0292 20.0677 16.2335 20.5686 15.3429 20.9375C12.181 22.247 8.69364 21.5636 6.26966 19.4683L4.52503 21.2144C4.23213 21.5068 3.75724 21.5071 3.46449 21.2144C3.17186 20.9216 3.17208 20.4467 3.46449 20.1538L5.2223 18.3945C4.69374 17.7478 4.24886 17.0146 3.91273 16.2031C2.06366 11.739 4.18307 6.62074 8.6471 4.7715ZM11.7452 8.53615C11.331 8.53615 10.9952 8.87194 10.9952 9.28615V13.4199C10.9952 13.6814 11.131 13.9254 11.3541 14.0615L14.6046 16.042C14.9582 16.2577 15.4202 16.1466 15.6359 15.793C15.8511 15.4394 15.7388 14.9773 15.3854 14.7617L12.4952 12.9995V9.28615C12.4952 8.87197 12.1594 8.53621 11.7452 8.53615Z" fill="black"/>
<path d="M16.9806 2.67091C17.2471 2.35394 17.7211 2.31373 18.0382 2.58009L21.0382 5.09963C21.3547 5.36608 21.3951 5.83884 21.129 6.15578C20.8627 6.47277 20.39 6.51426 20.0729 6.24806L17.0729 3.72853C16.7558 3.46211 16.7142 2.98806 16.9806 2.67091Z" fill="black"/>
<path d="M5.96205 2.56984C6.2792 2.30343 6.75324 2.345 7.01966 2.66213C7.28554 2.97927 7.24431 3.45201 6.92738 3.71828L3.92738 6.23927C3.61022 6.5052 3.1375 6.46251 2.87123 6.14552C2.60512 5.82848 2.6453 5.35578 2.96205 5.08937L5.96205 2.56984Z" fill="black"/>
</svg>
