<svg width="24" height="24" viewBox="0 0 24 24" fill="none" xmlns="http://www.w3.org/2000/svg">
<path d="M18.5232 2.24963H20.0613C21.2693 2.24963 22.2485 3.22922 22.2488 4.43713V13.0621C22.2485 14.27 21.2692 15.2496 20.0613 15.2496H18.5232V2.24963Z" fill="black"/>
<path d="M14.2371 21.5172C13.6998 21.7824 13.0783 21.8226 12.5115 21.6285L12.1218 21.4948C10.4036 20.9063 9.2491 19.2904 9.24878 17.4742V15.2496H5.37476C4.25889 15.2495 3.20519 14.7355 2.51831 13.8561C1.83144 12.9764 1.5876 11.8285 1.85816 10.7457L3.29566 4.99573C3.69908 3.38218 5.14908 2.24983 6.81226 2.24963H17.0232V15.2965L15.3738 20.2145C15.1832 20.7825 14.7743 21.2519 14.2371 21.5172Z" fill="black"/>
</svg>
