<svg width="24" height="24" viewBox="0 0 24 24" fill="none" xmlns="http://www.w3.org/2000/svg">
<path fill-rule="evenodd" clip-rule="evenodd" d="M9.76166 2.48118C10.2989 2.21596 10.9204 2.17577 11.4872 2.36985L11.8769 2.50364C13.5952 3.09211 14.7496 4.70795 14.7499 6.52415V8.74876H18.624C19.7398 8.74889 20.7935 9.26291 21.4804 10.1423C22.1673 11.022 22.4111 12.1699 22.1406 13.2527L20.7031 19.0027C20.2996 20.6162 18.8496 21.7486 17.1865 21.7488H3.93744C2.72946 21.7488 1.75018 20.7692 1.74994 19.5613V10.9363C1.75019 9.72835 2.72947 8.74876 3.93744 8.74876H6.9599L8.62494 3.78392C8.81547 3.2159 9.22446 2.74646 9.76166 2.48118ZM11.0009 3.7888C10.8121 3.72422 10.6047 3.73761 10.4257 3.82591C10.2467 3.91429 10.1104 4.07126 10.0468 4.26048L8.24994 9.61985V20.2488H17.1865C18.1614 20.2486 19.0115 19.5842 19.248 18.6384L20.6855 12.8884C20.8439 12.2538 20.7013 11.5807 20.2988 11.0652C19.8961 10.5497 19.278 10.2489 18.624 10.2488H13.9999C13.5859 10.2488 13.2502 9.91277 13.2499 9.49876V6.52415C13.2496 5.34907 12.5023 4.30333 11.3906 3.92259L11.0009 3.7888ZM3.93744 10.2488C3.5579 10.2488 3.25019 10.5568 3.24994 10.9363V19.5613C3.25018 19.9408 3.55789 20.2488 3.93744 20.2488H6.74994V10.2488H3.93744Z" fill="black"/>
</svg>
