<svg width="24" height="24" viewBox="0 0 24 24" fill="none" xmlns="http://www.w3.org/2000/svg">
<path d="M5.47534 21.7491H3.93726C2.72928 21.7491 1.75 20.7695 1.74976 19.5616V10.9366C1.75001 9.72871 2.72929 8.74913 3.93726 8.74913H5.47534V21.7491Z" fill="black"/>
<path d="M9.76147 2.48155C10.2987 2.21632 10.9202 2.17614 11.4871 2.37022L11.8767 2.50401C13.595 3.09247 14.7494 4.70832 14.7498 6.52452V8.74913H18.6238C19.7397 8.74926 20.7933 9.26328 21.4802 10.1427C22.1671 11.0224 22.4109 12.1702 22.1404 13.253L20.7029 19.003C20.2995 20.6166 18.8495 21.7489 17.1863 21.7491H6.97534V8.70225L8.62476 3.78428C8.81529 3.21627 9.22428 2.74683 9.76147 2.48155Z" fill="black"/>
</svg>
