<svg width="24" height="24" viewBox="0 0 24 24" fill="none" xmlns="http://www.w3.org/2000/svg">
<path d="M10.03 10.1252C10.4442 10.1252 10.78 10.461 10.78 10.8752V16.5022C10.7798 16.9162 10.4441 17.2522 10.03 17.2522C9.61611 17.252 9.28026 16.9161 9.28003 16.5022V10.8752C9.28003 10.4611 9.61597 10.1254 10.03 10.1252Z" fill="black"/>
<path d="M13.9695 10.1252C14.3836 10.1253 14.7195 10.4611 14.7195 10.8752V16.5022C14.7193 16.9162 14.3835 17.2521 13.9695 17.2522C13.5555 17.2521 13.2197 16.9161 13.2195 16.5022V10.8752C13.2195 10.4611 13.5554 10.1254 13.9695 10.1252Z" fill="black"/>
<path fill-rule="evenodd" clip-rule="evenodd" d="M14.8142 2.24634C15.8495 2.24663 16.6889 3.08603 16.6892 4.12134V5.62231H20.0037C20.4175 5.6225 20.7533 5.95851 20.7537 6.37231C20.7537 6.78641 20.4177 7.12212 20.0037 7.12231H19.447L18.5349 18.9836C18.422 20.4494 17.2686 21.6023 15.8328 21.7405L15.5427 21.7542H8.45679C6.88893 21.754 5.58501 20.5469 5.4646 18.9836L4.55151 7.12231H3.99683C3.58261 7.12231 3.24683 6.78653 3.24683 6.37231C3.24717 5.95839 3.58283 5.62231 3.99683 5.62231H7.31128V4.12134C7.31163 3.086 8.15092 2.24659 9.18628 2.24634H14.8142ZM6.96069 18.8684C7.02097 19.6502 7.67272 20.254 8.45679 20.2542H15.5427C16.3268 20.2541 16.9785 19.6502 17.0388 18.8684L17.9421 7.12329H6.05737L6.96069 18.8684ZM9.18628 3.74634C8.97935 3.74659 8.81163 3.91443 8.81128 4.12134V5.62231H15.1892V4.12134C15.1889 3.91445 15.0211 3.74663 14.8142 3.74634H9.18628Z" fill="black"/>
</svg>
