<svg width="24" height="24" viewBox="0 0 24 24" fill="none" xmlns="http://www.w3.org/2000/svg">
<path d="M11.745 8.53664C12.1592 8.5367 12.495 8.87246 12.495 9.28664V13L15.3852 14.7622C15.7386 14.9778 15.8509 15.4399 15.6357 15.7935C15.42 16.147 14.958 16.2581 14.6044 16.0425L11.3539 14.062C11.1308 13.9258 10.995 13.6819 10.995 13.4204V9.28664C10.995 8.87242 11.3308 8.53664 11.745 8.53664Z" fill="black"/>
<path fill-rule="evenodd" clip-rule="evenodd" d="M8.64688 4.77199C13.1111 2.92287 18.2294 5.04358 20.0785 9.50783C21.3547 12.5895 20.7378 15.9808 18.766 18.395L20.5253 20.1543C20.8178 20.4472 20.8181 20.9221 20.5253 21.2149C20.2325 21.5075 19.7577 21.5073 19.4648 21.2149L17.7201 19.4702C17.029 20.0682 16.2333 20.5691 15.3427 20.938C12.1808 22.2475 8.69342 21.5641 6.26944 19.4688L4.52481 21.2149C4.23191 21.5073 3.75701 21.5075 3.46427 21.2149C3.17165 20.9221 3.17188 20.4472 3.46427 20.1543L5.22208 18.395C4.69352 17.7483 4.24864 17.0151 3.91251 16.2036C2.06344 11.7395 4.18285 6.62122 8.64688 4.77199ZM18.6928 10.082C17.1607 6.38322 12.9199 4.62573 9.2211 6.15773C5.5224 7.68991 3.7662 11.9306 5.29825 15.6294C5.65643 16.4941 6.16356 17.2515 6.77628 17.8867C6.77898 17.8894 6.7824 17.8914 6.78507 17.8941C6.78825 17.8972 6.79074 17.9011 6.79386 17.9043C8.80278 19.9726 11.944 20.7227 14.7699 19.5523C15.7071 19.164 16.5182 18.6007 17.184 17.9175C17.191 17.9099 17.1971 17.9014 17.2045 17.8941C17.2084 17.8902 17.2123 17.8861 17.2162 17.8823C19.1525 15.8692 19.8297 12.8277 18.6928 10.082Z" fill="black"/>
<path d="M16.9804 2.6714C17.2468 2.35443 17.7209 2.31422 18.038 2.58058L21.038 5.10011C21.3545 5.36656 21.3949 5.83931 21.1288 6.15627C20.8624 6.47325 20.3898 6.51475 20.0727 6.24855L17.0727 3.72902C16.7555 3.46259 16.714 2.98855 16.9804 2.6714Z" fill="black"/>
<path d="M5.96183 2.57033C6.27898 2.30392 6.75302 2.34549 7.01944 2.66261C7.28531 2.97976 7.24409 3.4525 6.92716 3.71877L3.92716 6.23976C3.61 6.50567 3.13727 6.46298 2.87101 6.14601C2.60491 5.82898 2.64509 5.35628 2.96183 5.08986L5.96183 2.57033Z" fill="black"/>
</svg>
