<svg width="24" height="24" viewBox="0 0 24 24" fill="none" xmlns="http://www.w3.org/2000/svg">
<path fill-rule="evenodd" clip-rule="evenodd" d="M14.2371 21.5165C13.6998 21.7817 13.0783 21.8219 12.5115 21.6278L12.1218 21.494C10.4036 20.9056 9.2491 19.2897 9.24878 17.4735V15.2489H5.37476C4.25889 15.2488 3.20519 14.7347 2.51831 13.8553C1.83144 12.9756 1.5876 11.8278 1.85816 10.745L3.29566 4.995C3.69908 3.38145 5.14908 2.2491 6.81226 2.2489H20.0613C21.2693 2.2489 22.2485 3.22848 22.2488 4.4364V13.0614C22.2485 14.2693 21.2692 15.2489 20.0613 15.2489H17.0388L15.3738 20.2137C15.1832 20.7818 14.7743 21.2512 14.2371 21.5165ZM12.9978 20.2089C13.1866 20.2734 13.394 20.2601 13.573 20.1718C13.752 20.0834 13.8884 19.9264 13.9519 19.7372L15.7488 14.3778V3.7489H6.81226C5.83735 3.7491 4.98719 4.41342 4.75073 5.35925L3.31323 11.1093C3.15485 11.7438 3.29742 12.4169 3.69995 12.9325C4.10257 13.4479 4.72072 13.7488 5.37476 13.7489H9.99878C10.4128 13.7489 10.7485 14.0849 10.7488 14.4989V17.4735C10.7491 18.6486 11.4964 19.6943 12.6082 20.0751L12.9978 20.2089ZM20.0613 13.7489C20.4408 13.7489 20.7485 13.4409 20.7488 13.0614V4.4364C20.7485 4.05691 20.4408 3.7489 20.0613 3.7489H17.2488V13.7489H20.0613Z" fill="black"/>
</svg>
