<svg width="24" height="24" viewBox="0 0 24 24" fill="none" xmlns="http://www.w3.org/2000/svg">
<path d="M16.764 11.9259C17.1739 11.9844 17.459 12.3636 17.4008 12.7736C17.2408 13.8963 16.7459 14.9929 15.8695 15.8693C13.9102 17.8284 10.8356 17.9903 8.69079 16.3566L8.0072 16.879C7.82353 17.019 7.5571 16.9079 7.52771 16.6788L7.16443 13.8439C7.13534 13.615 7.36456 13.4404 7.57751 13.5294L10.2142 14.632C10.427 14.7212 10.4632 15.0067 10.2797 15.1466L9.94568 15.4005C11.4733 16.3252 13.4898 16.1277 14.809 14.8087C15.4364 14.1813 15.7972 13.3917 15.9154 12.5626C15.9738 12.1526 16.3541 11.8677 16.764 11.9259Z" fill="black"/>
<path d="M8.13122 8.13098C10.0597 6.20275 13.069 6.01532 15.2084 7.5675L15.5707 7.16516C15.7248 6.99344 16.0065 7.05247 16.0785 7.2716L16.9672 9.9884C17.0388 10.2079 16.8454 10.4227 16.6195 10.3751L13.8236 9.78625C13.5977 9.73867 13.5074 9.46403 13.6615 9.29211L14.1996 8.69153C12.6567 7.66376 10.553 7.83057 9.19177 9.19153C8.56533 9.81812 8.20245 10.608 8.08435 11.4376C8.02583 11.8474 7.64656 12.1335 7.23669 12.0753C6.82688 12.0169 6.54188 11.6365 6.59997 11.2267C6.75991 10.1028 7.25622 9.00613 8.13122 8.13098Z" fill="black"/>
<path fill-rule="evenodd" clip-rule="evenodd" d="M5.10583 5.10559C8.91344 1.29798 15.0873 1.29797 18.8949 5.10559L19.2406 5.46985C22.6985 9.29724 22.5834 15.2061 18.8949 18.8947C15.0873 22.7023 8.91343 22.7022 5.10583 18.8947C1.29822 15.087 1.29822 8.91318 5.10583 5.10559ZM17.5258 5.87414C14.2872 2.94817 9.28749 3.04503 6.16638 6.16613C2.94455 9.38794 2.94455 14.6123 6.16638 17.8341C9.38819 21.0559 14.6125 21.0559 17.8343 17.8341C20.9554 14.713 21.0523 9.71329 18.1263 6.47473L17.8343 6.16613L17.5258 5.87414Z" fill="black"/>
</svg>
