<svg width="24" height="24" viewBox="0 0 24 24" fill="none" xmlns="http://www.w3.org/2000/svg">
<path d="M21 16.25C21.4142 16.25 21.75 16.5858 21.75 17C21.75 19.6232 19.6232 21.75 17 21.75H7C4.37679 21.75 2.25 19.6232 2.25 17C2.25 16.5858 2.58579 16.25 3 16.25C3.41421 16.25 3.75 16.5858 3.75 17C3.75 18.7948 5.20521 20.25 7 20.25H17C18.7948 20.25 20.25 18.7948 20.25 17C20.25 16.5858 20.5858 16.25 21 16.25Z" fill="black"/>
<path d="M12.0176 2.25195C12.0545 2.2528 12.0906 2.2567 12.126 2.2627C12.2777 2.28881 12.419 2.35944 12.5293 2.46973L17.5303 7.4707C17.8232 7.7636 17.8232 8.23836 17.5303 8.53125C17.3471 8.71438 17.0929 8.78318 16.8564 8.7373C16.7618 8.71895 16.6701 8.68199 16.5869 8.62695C16.5663 8.6133 16.5459 8.59891 16.5264 8.58301C16.5067 8.567 16.488 8.54954 16.4697 8.53125L12.75 4.81152V17.001C12.75 17.4152 12.4142 17.751 12 17.751C11.5858 17.751 11.25 17.4152 11.25 17.001V4.81055L7.5293 8.53125C7.34618 8.71437 7.0919 8.78318 6.85547 8.7373C6.76084 8.71895 6.66916 8.68198 6.58594 8.62695C6.5653 8.61331 6.54489 8.59891 6.52539 8.58301C6.50577 8.56701 6.48704 8.54954 6.46875 8.53125C6.45047 8.51297 6.43299 8.49421 6.41699 8.47461C6.19271 8.19968 6.19272 7.8023 6.41699 7.52734C6.43298 7.50774 6.45048 7.48898 6.46875 7.4707L11.4688 2.46973C11.4966 2.44188 11.5261 2.41618 11.5576 2.39355C11.6208 2.34816 11.6909 2.31381 11.7646 2.29004C11.8015 2.27816 11.8394 2.26902 11.8779 2.2627C11.9105 2.25735 11.9437 2.25393 11.9775 2.25293C11.9847 2.25271 11.9919 2.25 11.999 2.25C12.0052 2.25 12.0114 2.2518 12.0176 2.25195Z" fill="black"/>
</svg>
