<svg width="24" height="24" viewBox="0 0 24 24" fill="none" xmlns="http://www.w3.org/2000/svg">
<path d="M6.96973 4.46473C7.26262 4.17183 7.73738 4.17183 8.03027 4.46473C8.32311 4.75762 8.32315 5.2324 8.03027 5.52527L6.31055 7.245H13.5C17.1654 7.24509 20.25 9.98274 20.25 13.495C20.25 17.0072 17.1653 19.7449 13.5 19.745H5.5C5.0858 19.745 4.75003 19.4092 4.75 18.995C4.75 18.5808 5.08579 18.245 5.5 18.245H13.5C16.4625 18.2449 18.75 16.0586 18.75 13.495C18.75 10.9314 16.4625 8.74509 13.5 8.745H6.31055L8.03027 10.4647C8.32311 10.7576 8.32315 11.2324 8.03027 11.5253C7.7374 11.8181 7.26262 11.8181 6.96973 11.5253L3.96973 8.52527C3.93772 8.49327 3.90978 8.45861 3.88477 8.42273C3.85386 8.37838 3.8275 8.33079 3.80664 8.28016C3.79933 8.26236 3.79495 8.24367 3.78906 8.22547C3.76544 8.15259 3.75001 8.07575 3.75 7.995C3.75 7.90052 3.7689 7.81069 3.80078 7.72742C3.80257 7.72273 3.8028 7.71743 3.80469 7.71277L3.80859 7.70301C3.82139 7.67274 3.83897 7.64515 3.85547 7.61707C3.88711 7.5632 3.92349 7.51096 3.96973 7.46473L6.96973 4.46473Z" fill="black"/>
</svg>
