<svg width="24" height="24" viewBox="0 0 24 24" fill="none" xmlns="http://www.w3.org/2000/svg">
<path d="M4.00024 3.75C3.58612 3.7499 3.25024 3.41415 3.25024 3C3.25024 2.58585 3.58612 2.2501 4.00024 2.25H20.0002C20.4145 2.25 20.7502 2.58579 20.7502 3C20.7502 3.41421 20.4145 3.75 20.0002 3.75H4.00024Z" fill="black"/>
<path d="M12.0002 21.75C11.5861 21.7499 11.2502 21.4142 11.2502 21V8.81152L7.53052 12.5303C7.23762 12.823 6.76282 12.8231 6.46997 12.5303C6.1772 12.2374 6.17723 11.7626 6.46997 11.4697L11.4709 6.46875C11.5811 6.35855 11.7227 6.28888 11.8743 6.2627C11.9097 6.25667 11.9457 6.25183 11.9827 6.25098C11.9889 6.25082 11.995 6.24903 12.0012 6.24902C12.0084 6.24902 12.0156 6.25175 12.0227 6.25195C12.0569 6.25296 12.0904 6.25628 12.1233 6.26172C12.2768 6.28711 12.42 6.35731 12.5315 6.46875L17.5315 11.4697C17.8243 11.7626 17.8244 12.2374 17.5315 12.5303C17.2386 12.823 16.7638 12.8231 16.4709 12.5303L12.7502 8.80957V21C12.7502 21.4142 12.4145 21.75 12.0002 21.75Z" fill="black"/>
</svg>
