<svg width="24" height="24" viewBox="0 0 24 24" fill="none" xmlns="http://www.w3.org/2000/svg">
<path fill-rule="evenodd" clip-rule="evenodd" d="M9.1416 7.54395C9.84673 7.1449 10.7123 7.15558 11.4072 7.57227L15.5723 10.0703C16.2499 10.4769 16.6649 11.2098 16.665 12C16.6649 12.7903 16.2499 13.5231 15.5723 13.9297L11.4072 16.4268C10.7122 16.8436 9.84684 16.8543 9.1416 16.4551C8.43636 16.0556 8 15.3076 8 14.4971V9.50195C8.00014 8.69157 8.43643 7.9433 9.1416 7.54395ZM10.6357 8.8584C10.4042 8.71967 10.1158 8.71679 9.88086 8.84961C9.64588 8.98269 9.50014 9.23192 9.5 9.50195V14.4971C9.5 14.7672 9.64581 15.0172 9.88086 15.1504C10.1158 15.2832 10.4042 15.2794 10.6357 15.1406L14.8008 12.6426C15.0263 12.507 15.1649 12.2631 15.165 12C15.1649 11.7367 15.0265 11.4919 14.8008 11.3564L10.6357 8.8584Z" fill="black"/>
<path fill-rule="evenodd" clip-rule="evenodd" d="M16 2.25C19.1756 2.25 21.75 4.82436 21.75 8V16C21.75 19.1756 19.1756 21.75 16 21.75H8C4.82436 21.75 2.25 19.1756 2.25 16V8C2.25 4.82436 4.82436 2.25 8 2.25H16ZM8 3.75C5.65279 3.75 3.75 5.65279 3.75 8V16C3.75 18.3472 5.65279 20.25 8 20.25H16C18.3472 20.25 20.25 18.3472 20.25 16V8C20.25 5.65279 18.3472 3.75 16 3.75H8Z" fill="black"/>
</svg>
