<svg width="24" height="24" viewBox="0 0 24 24" fill="none" xmlns="http://www.w3.org/2000/svg">
<path d="M17 6.25047C19.0711 6.25047 20.75 7.9294 20.75 10.0005L18.75 10.0014C16.5409 10.0014 14.7501 11.7924 14.75 14.0014C14.7503 16.2104 16.541 18.0014 18.75 18.0014H20.75C20.7492 20.0718 19.0706 21.7505 17 21.7505H6C3.9291 21.7505 2.25026 20.0713 2.25 18.0005V10.0005C2.25 8.94121 2.6893 7.98417 3.39551 7.30222C3.40196 7.29598 3.40854 7.28986 3.41504 7.28367C3.62758 7.08134 3.86376 6.90371 4.11914 6.75535C4.13955 6.74348 4.16002 6.73169 4.18066 6.72019C4.30724 6.64983 4.43821 6.58633 4.57324 6.53074C4.58095 6.52756 4.58895 6.52508 4.59668 6.52195C4.64665 6.50177 4.69704 6.48239 4.74805 6.46433C4.77944 6.4532 4.811 6.44242 4.84277 6.43211C4.89019 6.41674 4.93811 6.40265 4.98633 6.38914C5.00495 6.38391 5.02326 6.37748 5.04199 6.37254C5.09415 6.3588 5.14718 6.34792 5.2002 6.3364C5.2535 6.3248 5.3072 6.31446 5.36133 6.30515C5.38377 6.3013 5.40614 6.29688 5.42871 6.29343L5.50488 6.28172C5.52207 6.27945 5.53938 6.27789 5.55664 6.27586C5.61258 6.26927 5.66892 6.26433 5.72559 6.26023C5.7373 6.25938 5.74899 6.25804 5.76074 6.2573C5.81833 6.25368 5.8763 6.25244 5.93457 6.25144C5.95634 6.25107 5.97814 6.24949 6 6.24949L17 6.25047Z" fill="black"/>
<path d="M21 11.5014C21.4142 11.5014 21.75 11.8372 21.75 12.2514V15.7514C21.7498 16.1655 21.4141 16.5014 21 16.5014H18.75C17.3694 16.5014 16.2502 15.382 16.25 14.0014C16.25 12.6207 17.3693 11.5014 18.75 11.5014H21Z" fill="black"/>
<path d="M13.0283 1.42918C13.873 1.1103 14.8208 1.22641 15.5635 1.73972C16.3061 2.25316 16.7498 3.09863 16.75 4.00144V4.74949H6C5.00539 4.74949 4.07492 5.02588 3.28223 5.50632C3.66314 5.10546 4.13602 4.78632 4.67578 4.5825L13.0283 1.42918Z" fill="black"/>
</svg>
