<svg width="24" height="24" viewBox="0 0 24 24" fill="none" xmlns="http://www.w3.org/2000/svg">
<path d="M12.1982 14.973C12.6414 15.0639 12.9773 15.4558 12.9775 15.928C12.9773 16.4661 12.54 16.9034 12.0019 16.9036C11.4638 16.9035 11.0275 16.4662 11.0273 15.928C11.0266 15.4401 11.3847 15.0439 11.8476 14.97C11.897 14.9598 11.9495 14.9534 12.0019 14.9534L12.1982 14.973Z" fill="black"/>
<path d="M12.0019 8.88214C12.4159 8.88239 12.7518 9.21815 12.7519 9.63214V12.9984C12.7519 13.4124 12.4159 13.7481 12.0019 13.7484C11.5879 13.7482 11.252 13.4124 11.2519 12.9984V9.63214C11.252 9.2181 11.5879 8.88231 12.0019 8.88214Z" fill="black"/>
<path fill-rule="evenodd" clip-rule="evenodd" d="M9.63179 4.36847C10.7908 2.62726 13.4175 2.68573 14.4785 4.54328L21.372 16.6077C22.4584 18.5095 21.0859 20.8758 18.8955 20.8763H5.10835C2.91741 20.876 1.54358 18.5099 2.63081 16.6077L9.52436 4.54328L9.63179 4.36847ZM13.1767 5.28742C12.6573 4.37771 11.3467 4.37793 10.8271 5.28742L3.93354 17.3519C3.41773 18.2539 4.0688 19.376 5.10835 19.3763H18.8955C19.9335 19.3758 20.5853 18.2542 20.0703 17.3519L13.1767 5.28742Z" fill="black"/>
</svg>
