<svg width="24" height="24" viewBox="0 0 24 24" fill="none" xmlns="http://www.w3.org/2000/svg">
<path fill-rule="evenodd" clip-rule="evenodd" d="M13.0283 1.42911C13.873 1.11021 14.8207 1.2263 15.5635 1.73965C16.3062 2.25311 16.7499 3.09848 16.75 4.00137V6.2504H17C19.0711 6.2504 20.75 7.92933 20.75 10.0004V10.9203C21.3408 11.2013 21.75 11.8026 21.75 12.5004V15.5004C21.7498 16.1979 21.3405 16.7975 20.75 17.0785V18.0004C20.7498 20.0713 19.0709 21.7504 17 21.7504H6C3.92907 21.7504 2.25022 20.0713 2.25 18.0004V8.09122C2.25016 6.53132 3.21642 5.13347 4.67578 4.58243L13.0283 1.42911ZM6 7.7504C4.75736 7.7504 3.75 8.75776 3.75 10.0004V18.0004C3.75022 19.2428 4.7575 20.2504 6 20.2504H17C18.2425 20.2504 19.2498 19.2428 19.25 18.0004V17.2504H18.5C16.7052 17.2504 15.2502 15.7951 15.25 14.0004C15.25 12.2055 16.7051 10.7504 18.5 10.7504H19.25V10.0004C19.25 8.75776 18.2426 7.7504 17 7.7504H6ZM18.5 12.2504C17.5335 12.2504 16.75 13.0339 16.75 14.0004C16.7502 14.9667 17.5336 15.7504 18.5 15.7504H20C20.1379 15.7504 20.2498 15.6383 20.25 15.5004V12.5004C20.25 12.3623 20.1381 12.2504 20 12.2504H18.5ZM14.7109 2.97305C14.3734 2.73976 13.9425 2.68752 13.5586 2.83243L5.20508 5.98575C4.81806 6.13188 4.48902 6.37775 4.24219 6.68692C4.76652 6.40815 5.36476 6.2504 6 6.2504H15.25V4.00137C15.2499 3.59106 15.0485 3.2064 14.7109 2.97305Z" fill="black"/>
</svg>
