<svg width="24" height="24" viewBox="0 0 24 24" fill="none" xmlns="http://www.w3.org/2000/svg">
<path d="M20.25 12C20.6642 12 21 12.3358 21 12.75V18.3008C20.9996 19.7913 19.7913 20.9996 18.3008 21H12.75C12.3358 21 12 20.6642 12 20.25C12 19.8358 12.3358 19.5 12.75 19.5H18.3008C18.9629 19.4996 19.4996 18.9629 19.5 18.3008V12.75C19.5 12.3358 19.8358 12 20.25 12Z" fill="black"/>
<path d="M10.6475 12.7646C10.6971 12.7746 10.7455 12.7894 10.791 12.8086C10.8173 12.8197 10.8415 12.8357 10.8662 12.8496C10.9243 12.8824 10.9808 12.9203 11.0303 12.9697C11.0815 13.0209 11.121 13.0793 11.1543 13.1396C11.1909 13.2059 11.2212 13.2769 11.2363 13.3535C11.2459 13.4017 11.25 13.451 11.25 13.5V17.25C11.25 17.6642 10.9142 18 10.5 18C10.0858 18 9.75 17.6642 9.75 17.25V15.3105L5.78027 19.2803C5.48738 19.5732 5.01262 19.5732 4.71973 19.2803C4.42688 18.9874 4.42685 18.5126 4.71973 18.2197L8.68945 14.25H6.75C6.33579 14.25 6 13.9142 6 13.5C6.00006 13.0858 6.33582 12.75 6.75 12.75H10.5C10.5494 12.75 10.5988 12.7549 10.6475 12.7646Z" fill="black"/>
<path d="M11.25 3C11.6642 3 12 3.33579 12 3.75C12 4.16421 11.6642 4.5 11.25 4.5H5.7002C5.03769 4.50016 4.50016 5.03769 4.5 5.7002V11.25C4.5 11.6642 4.16421 12 3.75 12C3.33579 12 3 11.6642 3 11.25V5.7002C3.00016 4.20926 4.20926 3.00016 5.7002 3H11.25Z" fill="black"/>
<path d="M18.2197 4.71973C18.5126 4.42683 18.9874 4.42683 19.2803 4.71973C19.5731 5.01262 19.5732 5.4874 19.2803 5.78027L15.3105 9.75H17.25C17.6642 9.75 18 10.0858 18 10.5C17.9999 10.9142 17.6642 11.25 17.25 11.25H13.5C13.4506 11.25 13.4012 11.2451 13.3525 11.2354C13.3029 11.2254 13.2545 11.2106 13.209 11.1914C13.1827 11.1803 13.1585 11.1643 13.1338 11.1504C13.0757 11.1176 13.0192 11.0797 12.9697 11.0303C12.9185 10.9791 12.879 10.9207 12.8457 10.8604C12.8091 10.7941 12.7788 10.7231 12.7637 10.6465C12.7541 10.5983 12.75 10.549 12.75 10.5V6.75C12.75 6.33579 13.0858 6 13.5 6C13.9142 6 14.25 6.33579 14.25 6.75V8.68945L18.2197 4.71973Z" fill="black"/>
</svg>
