<svg width="24" height="24" viewBox="0 0 24 24" fill="none" xmlns="http://www.w3.org/2000/svg">
<path d="M7.71973 15.2197C8.01262 14.9268 8.48738 14.9268 8.78027 15.2197C9.07312 15.5126 9.07315 15.9874 8.78027 16.2803L4.81055 20.25H6.75C7.16421 20.25 7.5 20.5858 7.5 21C7.49994 21.4142 7.16418 21.75 6.75 21.75H3C2.95059 21.75 2.90117 21.7451 2.85254 21.7354C2.80291 21.7254 2.75455 21.7106 2.70898 21.6914C2.68266 21.6803 2.65848 21.6643 2.63379 21.6504C2.5757 21.6176 2.51919 21.5797 2.46973 21.5303C2.41853 21.4791 2.37899 21.4207 2.3457 21.3604C2.30915 21.2941 2.27884 21.2231 2.26367 21.1465C2.25412 21.0983 2.25001 21.049 2.25 21V17.25C2.25 16.8358 2.58579 16.5 3 16.5C3.41421 16.5 3.75 16.8358 3.75 17.25V19.1895L7.71973 15.2197Z" fill="black"/>
<path d="M20.25 12C20.6642 12 21 12.3358 21 12.75V18.3008C20.9996 19.7913 19.7913 20.9996 18.3008 21H12.75C12.3358 21 12 20.6642 12 20.25C12 19.8358 12.3358 19.5 12.75 19.5H18.3008C18.9629 19.4996 19.4996 18.9629 19.5 18.3008V12.75C19.5 12.3358 19.8358 12 20.25 12Z" fill="black"/>
<path d="M11.25 3C11.6642 3 12 3.33579 12 3.75C12 4.16421 11.6642 4.5 11.25 4.5H5.7002C5.03769 4.50016 4.50016 5.03769 4.5 5.7002V11.25C4.5 11.6642 4.16421 12 3.75 12C3.33579 12 3 11.6642 3 11.25V5.7002C3.00016 4.20926 4.20926 3.00016 5.7002 3H11.25Z" fill="black"/>
<path d="M21.1475 2.26465C21.1971 2.27458 21.2455 2.2894 21.291 2.30859C21.3173 2.3197 21.3415 2.33568 21.3662 2.34961C21.4243 2.38236 21.4808 2.42027 21.5303 2.46973C21.5815 2.52092 21.621 2.57928 21.6543 2.63965C21.6909 2.70592 21.7212 2.77693 21.7363 2.85352C21.7459 2.90174 21.75 2.95102 21.75 3V6.75C21.75 7.16421 21.4142 7.5 21 7.5C20.5858 7.5 20.25 7.16421 20.25 6.75V4.81055L16.2803 8.78027C15.9874 9.07317 15.5126 9.07317 15.2197 8.78027C14.9269 8.48738 14.9268 8.0126 15.2197 7.71973L19.1895 3.75H17.25C16.8358 3.75 16.5 3.41421 16.5 3C16.5001 2.58584 16.8358 2.25 17.25 2.25H21C21.0494 2.25 21.0988 2.25494 21.1475 2.26465Z" fill="black"/>
</svg>
