<svg width="19" height="18" viewBox="0 0 19 18" fill="none" xmlns="http://www.w3.org/2000/svg">
<g clip-path="url(#clip0_5975_3904)">
<path fill-rule="evenodd" clip-rule="evenodd" d="M11.9356 2.53125L17.7813 12.6563C18.8638 14.5313 17.5106 16.875 15.3456 16.875H3.65422C1.48915 16.875 0.135993 14.5312 1.21852 12.6562L7.0642 2.53125C8.14673 0.656249 10.8531 0.656251 11.9356 2.53125ZM10.3437 10.125C10.3437 10.591 9.96596 10.9688 9.49997 10.9688C9.03398 10.9688 8.65622 10.591 8.65622 10.125L8.65622 6.75C8.65622 6.28401 9.03398 5.90625 9.49997 5.90625C9.96596 5.90625 10.3437 6.28401 10.3437 6.75V10.125ZM10.3437 12.9375C10.3437 13.4035 9.96596 13.7812 9.49997 13.7812C9.03398 13.7812 8.65622 13.4035 8.65622 12.9375C8.65622 12.4715 9.03398 12.0938 9.49997 12.0938C9.96596 12.0938 10.3437 12.4715 10.3437 12.9375Z" fill="#1C1C1C"/>
</g>
<defs>
<clipPath id="clip0_5975_3904">
<rect width="18" height="18" fill="white" transform="translate(0.5)"/>
</clipPath>
</defs>
</svg>
